999
dxfrw 0.6.3
  0
SECTION
  2
HEADER
  9
$ACADVER
  1
AC1021
  9
$DWGCODEPAGE
  3
ANSI_1252
  9
$INSBASE
 10
0
 20
0
 30
0
  9
$EXTMIN
 10
316.5854947017759
 20
399.8721404702763
 30
0
  9
$EXTMAX
 10
335.5002851836716
 20
428.4947610782626
 30
0
  9
$LIMMIN
 10
0
 20
0
  9
$LIMMAX
 10
420
 20
297
  9
$ORTHOMODE
 70
    0
  9
$REGENMODE
 70
    1
  9
$FILLMODE
 70
    1
  9
$QTEXTMODE
 70
    0
  9
$MIRRTEXT
 70
    0
  9
$LTSCALE
 40
1
  9
$ATTMODE
 70
    0
  9
$TEXTSIZE
 40
2.5
  9
$TRACEWID
 40
15.68
  9
$TEXTSTYLE
  7
STANDARD
  9
$CLAYER
  8
0
  9
$CELTYPE
  6
BYLAYER
  9
$CECOLOR
 62
  256
  9
$CELTSCALE
 40
1
  9
$DISPSILH
 70
    0
  9
$DIMSCALE
 40
1
  9
$DIMASZ
 40
0.1
  9
$DIMEXO
 40
0.2
  9
$DIMDLI
 40
3.75
  9
$DIMRND
 40
0
  9
$DIMDLE
 40
0
  9
$DIMEXE
 40
0.1
  9
$DIMTP
 40
0
  9
$DIMTM
 40
0
  9
$DIMTXT
 40
0.2
  9
$DIMCEN
 40
2.5
  9
$DIMTSZ
 40
0
  9
$DIMTOL
 70
    0
  9
$DIMLIM
 70
    0
  9
$DIMTIH
 70
    0
  9
$DIMTOH
 70
    0
  9
$DIMSE1
 70
    0
  9
$DIMSE2
 70
    0
  9
$DIMTAD
 70
    1
  9
$DIMZIN
 70
    8
  9
$DIMBLK
  1

  9
$DIMASO
 70
    1
  9
$DIMSHO
 70
    1
  9
$DIMPOST
  1

  9
$DIMAPOST
  1

  9
$DIMALT
 70
    0
  9
$DIMALTD
 70
    3
  9
$DIMALTF
 40
0.03937
  9
$DIMLFAC
 40
1
  9
$DIMTOFL
 70
    1
  9
$DIMTVP
 40
0
  9
$DIMTIX
 70
    0
  9
$DIMSOXD
 70
    0
  9
$DIMSAH
 70
    0
  9
$DIMBLK1
  1

  9
$DIMBLK2
  1

  9
$DIMSTYLE
  2
STANDARD
  9
$DIMCLRD
 70
    5
  9
$DIMCLRE
 70
    0
  9
$DIMCLRT
 70
    5
  9
$DIMTFAC
 40
1
  9
$DIMGAP
 40
0.2
  9
$DIMJUST
 70
    0
  9
$DIMSD1
 70
    0
  9
$DIMSD2
 70
    0
  9
$DIMTOLJ
 70
    0
  9
$DIMTZIN
 70
    8
  9
$DIMALTZ
 70
    0
  9
$DIMALTTZ
 70
    0
  9
$DIMUPT
 70
    0
  9
$DIMDEC
 70
    2
  9
$DIMTDEC
 70
    2
  9
$DIMALTU
 70
    2
  9
$DIMALTTD
 70
    3
  9
$DIMTXSTY
  7
standard
  9
$DIMAUNIT
 70
    0
  9
$DIMADEC
 70
    0
  9
$DIMALTRND
 40
0
  9
$DIMAZIN
 70
    0
  9
$DIMDSEP
 70
   44
  9
$DIMATFIT
 70
    3
  9
$DIMFRAC
 70
    0
  9
$DIMLDRBLK
  1
STANDARD
  9
$DIMLUNIT
 70
    2
  9
$DIMLWD
 70
   -2
  9
$DIMLWE
 70
   -2
  9
$DIMTMOVE
 70
    0
  9
$DIMFXL
 40
1
  9
$DIMFXLON
 70
    0
  9
$DIMJOGANG
 40
0.7854
  9
$DIMTFILL
 70
    0
  9
$DIMTFILLCLR
 70
    0
  9
$DIMARCSYM
 70
    0
  9
$DIMLTYPE
  6

  9
$DIMLTEX1
  6

  9
$DIMLTEX2
  6

  9
$LUNITS
 70
    2
  9
$LUPREC
 70
    4
  9
$SKETCHINC
 40
1
  9
$FILLETRAD
 40
0
  9
$AUNITS
 70
    0
  9
$AUPREC
 70
    2
  9
$MENU
  1
.
  9
$ELEVATION
 40
0
  9
$PELEVATION
 40
0
  9
$THICKNESS
 40
0
  9
$LIMCHECK
 70
    0
  9
$CHAMFERA
 40
0
  9
$CHAMFERB
 40
0
  9
$CHAMFERC
 40
0
  9
$CHAMFERD
 40
0
  9
$SKPOLY
 70
    0
  9
$USRTIMER
 70
    1
  9
$ANGBASE
 50
0
  9
$ANGDIR
 70
    0
  9
$PDMODE
 70
   34
  9
$PDSIZE
 40
0
  9
$PLINEWID
 40
0
  9
$SPLFRAME
 70
    0
  9
$SPLINETYPE
 70
    2
  9
$SPLINESEGS
 70
    8
  9
$HANDSEED
  5
20000
  9
$SURFTAB1
 70
    6
  9
$SURFTAB2
 70
    6
  9
$SURFTYPE
 70
    6
  9
$SURFU
 70
    6
  9
$SURFV
 70
    6
  9
$UCSBASE
  2

  9
$UCSNAME
  2

  9
$UCSORG
 10
0
 20
0
 30
0
  9
$UCSXDIR
 10
1
 20
0
 30
0
  9
$UCSYDIR
 10
0
 20
1
 30
0
  9
$UCSORTHOREF
  2

  9
$UCSORTHOVIEW
 70
    0
  9
$UCSORGTOP
 10
0
 20
0
 30
0
  9
$UCSORGBOTTOM
 10
0
 20
0
 30
0
  9
$UCSORGLEFT
 10
0
 20
0
 30
0
  9
$UCSORGRIGHT
 10
0
 20
0
 30
0
  9
$UCSORGFRONT
 10
0
 20
0
 30
0
  9
$UCSORGBACK
 10
0
 20
0
 30
0
  9
$PUCSBASE
  2

  9
$PUCSNAME
  2

  9
$PUCSORG
 10
0
 20
0
 30
0
  9
$PUCSXDIR
 10
1
 20
0
 30
0
  9
$PUCSYDIR
 10
0
 20
1
 30
0
  9
$PUCSORTHOREF
  2

  9
$PUCSORTHOVIEW
 70
    0
  9
$PUCSORGTOP
 10
0
 20
0
 30
0
  9
$PUCSORGBOTTOM
 10
0
 20
0
 30
0
  9
$PUCSORGLEFT
 10
0
 20
0
 30
0
  9
$PUCSORGRIGHT
 10
0
 20
0
 30
0
  9
$PUCSORGFRONT
 10
0
 20
0
 30
0
  9
$PUCSORGBACK
 10
0
 20
0
 30
0
  9
$USERI1
 70
    0
  9
$USERI2
 70
    0
  9
$USERI3
 70
    0
  9
$USERI4
 70
    0
  9
$USERI5
 70
    0
  9
$USERR1
 40
0
  9
$USERR2
 40
0
  9
$USERR3
 40
0
  9
$USERR4
 40
0
  9
$USERR5
 40
0
  9
$WORLDVIEW
 70
    1
  9
$SHADEDGE
 70
    3
  9
$SHADEDIF
 70
   70
  9
$TILEMODE
 70
    1
  9
$MAXACTVP
 70
   64
  9
$PINSBASE
 10
-2993.376884458874
 20
-3787.47428249346
 30
0
  9
$PLIMCHECK
 70
    0
  9
$PEXTMIN
 10
0
 20
0
 30
0
  9
$PEXTMAX
 10
0
 20
0
 30
0
  9
$GRIDMODE
 70
    1
  9
$SNAPSTYLE
 70
    0
  9
$GRIDUNIT
 10
0
 20
0
  9
$PLIMMIN
 10
0
 20
0
  9
$PLIMMAX
 10
210
 20
297
  9
$UNITMODE
 70
    0
  9
$VISRETAIN
 70
    1
  9
$PLINEGEN
 70
    0
  9
$PSLTSCALE
 70
    1
  9
$TREEDEPTH
 70
 3020
  9
$CMLSTYLE
  2
Standard
  9
$CMLJUST
 70
    0
  9
$CMLSCALE
 40
20
  9
$PROXYGRAPHICS
 70
    1
  9
$MEASUREMENT
 70
    1
  9
$CELWEIGHT
370
   -1
  9
$ENDCAPS
280
    0
  9
$JOINSTYLE
280
    0
  9
$LWDISPLAY
290
    0
  9
$INSUNITS
 70
    0
  9
$HYPERLINKBASE
  1

  9
$STYLESHEET
  1

  9
$XEDIT
290
    1
  9
$CEPSNTYPE
380
    0
  9
$PSTYLEMODE
290
    1
  9
$EXTNAMES
290
    1
  9
$PSVPSCALE
 40
9.502969999999999
  9
$OLESTARTUP
290
    0
  9
$SORTENTS
280
  127
  9
$INDEXCTL
280
    0
  9
$HIDETEXT
280
    1
  9
$XCLIPFRAME
290
    0
  9
$HALOGAP
280
    0
  9
$OBSCOLOR
 70
  257
  9
$OBSLTYPE
280
    0
  9
$INTERSECTIONDISPLAY
280
    0
  9
$INTERSECTIONCOLOR
 70
  257
  9
$DIMASSOC
280
    1
  9
$PROJECTNAME
  1

  9
$CAMERADISPLAY
290
    0
  9
$LENSLENGTH
 40
50
  9
$CAMERAHEIGHT
 40
0
  9
$STEPSPERSEC
 40
2
  9
$STEPSIZE
 40
50
  9
$3DDWFPREC
 40
2
  9
$PSOLWIDTH
 40
5
  9
$PSOLHEIGHT
 40
80
  9
$LOFTANG1
 40
1.570796326794897
  9
$LOFTANG2
 40
1.570796326794897
  9
$LOFTMAG1
 40
0
  9
$LOFTMAG2
 40
0
  9
$LOFTPARAM
 70
    7
  9
$LOFTNORMALS
280
    1
  9
$LATITUDE
 40
1
  9
$LONGITUDE
 40
1
  9
$NORTHDIRECTION
 40
0
  9
$TIMEZONE
 70
-8000
  9
$LIGHTGLYPHDISPLAY
280
    1
  9
$TILEMODELIGHTSYNCH
280
    1
  9
$SOLIDHIST
280
    1
  9
$SHOWHIST
280
    1
  9
$DWFFRAME
280
    2
  9
$DGNFRAME
280
    0
  9
$REALWORLDSCALE
290
    1
  9
$INTERFERECOLOR
 62
    1
  9
$CSHADOW
280
    0
  9
$SHADOWPLANELOCATION
 40
0
  0
ENDSEC
  0
SECTION
  2
CLASSES
  0
ENDSEC
  0
SECTION
  2
TABLES
  0
TABLE
  2
VPORT
  5
8
330
0
100
AcDbSymbolTable
 70
    1
  0
VPORT
  5
31
330
2
100
AcDbSymbolTableRecord
100
AcDbViewportTableRecord
  2
*ACTIVE
 70
    0
 10
0
 20
0
 11
1
 21
1
 12
167.0816438110603
 22
208.224066576261
 13
0
 23
0
 14
10
 24
10
 15
10
 25
10
 16
0
 26
0
 36
1
 17
0
 27
0
 37
0
 40
8.818110282284684
 41
1.706793802145411
 42
50
 43
0
 44
0
 50
0
 51
0
 71
    0
 72
  100
 73
    1
 74
    3
 75
    0
 76
    1
 77
    0
 78
    0
281
    0
 65
    1
110
0
120
0
130
0
111
1
121
0
131
0
112
0
122
1
132
0
 79
    0
146
0
348
10020
 60
    7
 61
    5
292
1
282
    1
141
0
142
0
 63
  250
421
3358443
  0
ENDTAB
  0
TABLE
  2
LTYPE
  5
5
330
0
100
AcDbSymbolTable
 70
    4
  0
LTYPE
  5
14
330
5
100
AcDbSymbolTableRecord
100
AcDbLinetypeTableRecord
  2
ByBlock
 70
    0
  3

 72
   65
 73
    0
 40
0
  0
LTYPE
  5
15
330
5
100
AcDbSymbolTableRecord
100
AcDbLinetypeTableRecord
  2
ByLayer
 70
    0
  3

 72
   65
 73
    0
 40
0
  0
LTYPE
  5
16
330
5
100
AcDbSymbolTableRecord
100
AcDbLinetypeTableRecord
  2
Continuous
 70
    0
  3
Solid line
 72
   65
 73
    0
 40
0
  0
LTYPE
  5
32
330
5
100
AcDbSymbolTableRecord
100
AcDbLinetypeTableRecord
  2
DOT
 70
    0
  3
Dot . . . . . . . . . . . . . . . . . . . . . .
 72
   65
 73
    2
 40
6.35
 49
0
 74
    0
 49
-6.35
 74
    0
  0
LTYPE
  5
33
330
5
100
AcDbSymbolTableRecord
100
AcDbLinetypeTableRecord
  2
DOTTINY
 70
    0
  3
Dot (.15x) .....................................
 72
   65
 73
    2
 40
0.9525
 49
0
 74
    0
 49
-0.9525
 74
    0
  0
LTYPE
  5
34
330
5
100
AcDbSymbolTableRecord
100
AcDbLinetypeTableRecord
  2
DOT2
 70
    0
  3
Dot (.5x) .....................................
 72
   65
 73
    2
 40
3.175
 49
0
 74
    0
 49
-3.175
 74
    0
  0
LTYPE
  5
35
330
5
100
AcDbSymbolTableRecord
100
AcDbLinetypeTableRecord
  2
DOTX2
 70
    0
  3
Dot (2x) .  .  .  .  .  .  .  .  .  .  .  .  .
 72
   65
 73
    2
 40
12.7
 49
0
 74
    0
 49
-12.7
 74
    0
  0
LTYPE
  5
36
330
5
100
AcDbSymbolTableRecord
100
AcDbLinetypeTableRecord
  2
DASHED
 70
    0
  3
Dashed _ _ _ _ _ _ _ _ _ _ _ _ _ _ _ _ _
 72
   65
 73
    2
 40
19.05
 49
12.7
 74
    0
 49
-6.35
 74
    0
  0
LTYPE
  5
37
330
5
100
AcDbSymbolTableRecord
100
AcDbLinetypeTableRecord
  2
DASHEDTINY
 70
    0
  3
Dashed (.15x) _ _ _ _ _ _ _ _ _ _ _ _ _ _ _ _ _
 72
   65
 73
    2
 40
2.8575
 49
1.905
 74
    0
 49
-0.9525
 74
    0
  0
LTYPE
  5
38
330
5
100
AcDbSymbolTableRecord
100
AcDbLinetypeTableRecord
  2
DASHED2
 70
    0
  3
Dashed (.5x) _ _ _ _ _ _ _ _ _ _ _ _ _ _ _ _ _
 72
   65
 73
    2
 40
9.524999999999999
 49
6.35
 74
    0
 49
-3.175
 74
    0
  0
LTYPE
  5
39
330
5
100
AcDbSymbolTableRecord
100
AcDbLinetypeTableRecord
  2
DASHEDX2
 70
    0
  3
Dashed (2x) ____  ____  ____  ____  ____  ___
 72
   65
 73
    2
 40
38.09999999999999
 49
25.4
 74
    0
 49
-12.7
 74
    0
  0
LTYPE
  5
3A
330
5
100
AcDbSymbolTableRecord
100
AcDbLinetypeTableRecord
  2
DASHDOT
 70
    0
  3
Dash dot __ . __ . __ . __ . __ . __ . __ . __
 72
   65
 73
    4
 40
25.4
 49
12.7
 74
    0
 49
-6.35
 74
    0
 49
0
 74
    0
 49
-6.35
 74
    0
  0
LTYPE
  5
3B
330
5
100
AcDbSymbolTableRecord
100
AcDbLinetypeTableRecord
  2
DASHDOTTINY
 70
    0
  3
Dash dot (.15x) _._._._._._._._._._._._._._._.
 72
   65
 73
    4
 40
3.81
 49
1.905
 74
    0
 49
-0.9525
 74
    0
 49
0
 74
    0
 49
-0.9525
 74
    0
  0
LTYPE
  5
3C
330
5
100
AcDbSymbolTableRecord
100
AcDbLinetypeTableRecord
  2
DASHDOT2
 70
    0
  3
Dash dot (.5x) _._._._._._._._._._._._._._._.
 72
   65
 73
    4
 40
12.7
 49
6.35
 74
    0
 49
-3.175
 74
    0
 49
0
 74
    0
 49
-3.175
 74
    0
  0
LTYPE
  5
3D
330
5
100
AcDbSymbolTableRecord
100
AcDbLinetypeTableRecord
  2
DASHDOTX2
 70
    0
  3
Dash dot (2x) ____  .  ____  .  ____  .  ___
 72
   65
 73
    4
 40
50.8
 49
25.4
 74
    0
 49
-12.7
 74
    0
 49
0
 74
    0
 49
-12.7
 74
    0
  0
LTYPE
  5
3E
330
5
100
AcDbSymbolTableRecord
100
AcDbLinetypeTableRecord
  2
DIVIDE
 70
    0
  3
Divide ____ . . ____ . . ____ . . ____ . . ____
 72
   65
 73
    6
 40
31.75
 49
12.7
 74
    0
 49
-6.35
 74
    0
 49
0
 74
    0
 49
-6.35
 74
    0
 49
0
 74
    0
 49
-6.35
 74
    0
  0
LTYPE
  5
3F
330
5
100
AcDbSymbolTableRecord
100
AcDbLinetypeTableRecord
  2
DIVIDETINY
 70
    0
  3
Divide (.15x) __..__..__..__..__..__..__..__.._
 72
   65
 73
    6
 40
4.7625
 49
1.905
 74
    0
 49
-0.9525
 74
    0
 49
0
 74
    0
 49
-0.9525
 74
    0
 49
0
 74
    0
 49
-0.9525
 74
    0
  0
LTYPE
  5
40
330
5
100
AcDbSymbolTableRecord
100
AcDbLinetypeTableRecord
  2
DIVIDE2
 70
    0
  3
Divide (.5x) __..__..__..__..__..__..__..__.._
 72
   65
 73
    6
 40
15.875
 49
6.35
 74
    0
 49
-3.175
 74
    0
 49
0
 74
    0
 49
-3.175
 74
    0
 49
0
 74
    0
 49
-3.175
 74
    0
  0
LTYPE
  5
41
330
5
100
AcDbSymbolTableRecord
100
AcDbLinetypeTableRecord
  2
DIVIDEX2
 70
    0
  3
Divide (2x) ________  .  .  ________  .  .  _
 72
   65
 73
    6
 40
63.5
 49
25.4
 74
    0
 49
-12.7
 74
    0
 49
0
 74
    0
 49
-12.7
 74
    0
 49
0
 74
    0
 49
-12.7
 74
    0
  0
LTYPE
  5
42
330
5
100
AcDbSymbolTableRecord
100
AcDbLinetypeTableRecord
  2
BORDER
 70
    0
  3
Border __ __ . __ __ . __ __ . __ __ . __ __ .
 72
   65
 73
    6
 40
44.45
 49
12.7
 74
    0
 49
-6.35
 74
    0
 49
12.7
 74
    0
 49
-6.35
 74
    0
 49
0
 74
    0
 49
-6.35
 74
    0
  0
LTYPE
  5
43
330
5
100
AcDbSymbolTableRecord
100
AcDbLinetypeTableRecord
  2
BORDERTINY
 70
    0
  3
Border (.15x) __.__.__.__.__.__.__.__.__.__.__.
 72
   65
 73
    6
 40
6.6675
 49
1.905
 74
    0
 49
-0.9525
 74
    0
 49
1.905
 74
    0
 49
-0.9525
 74
    0
 49
0
 74
    0
 49
-0.9525
 74
    0
  0
LTYPE
  5
44
330
5
100
AcDbSymbolTableRecord
100
AcDbLinetypeTableRecord
  2
BORDER2
 70
    0
  3
Border (.5x) __.__.__.__.__.__.__.__.__.__.__.
 72
   65
 73
    6
 40
22.225
 49
6.35
 74
    0
 49
-3.175
 74
    0
 49
6.35
 74
    0
 49
-3.175
 74
    0
 49
0
 74
    0
 49
-3.175
 74
    0
  0
LTYPE
  5
45
330
5
100
AcDbSymbolTableRecord
100
AcDbLinetypeTableRecord
  2
BORDERX2
 70
    0
  3
Border (2x) ____  ____  .  ____  ____  .  ___
 72
   65
 73
    6
 40
88.89999999999999
 49
25.4
 74
    0
 49
-12.7
 74
    0
 49
25.4
 74
    0
 49
-12.7
 74
    0
 49
0
 74
    0
 49
-12.7
 74
    0
  0
LTYPE
  5
46
330
5
100
AcDbSymbolTableRecord
100
AcDbLinetypeTableRecord
  2
CENTER
 70
    0
  3
Center ____ _ ____ _ ____ _ ____ _ ____ _ ____
 72
   65
 73
    4
 40
50.8
 49
31.75
 74
    0
 49
-6.35
 74
    0
 49
6.35
 74
    0
 49
-6.35
 74
    0
  0
LTYPE
  5
47
330
5
100
AcDbSymbolTableRecord
100
AcDbLinetypeTableRecord
  2
CENTERTINY
 70
    0
  3
Center (.15x) ___ _ ___ _ ___ _ ___ _ ___ _ ___
 72
   65
 73
    4
 40
7.619999999999999
 49
4.7625
 74
    0
 49
-0.9525
 74
    0
 49
0.9525
 74
    0
 49
-0.9525
 74
    0
  0
LTYPE
  5
48
330
5
100
AcDbSymbolTableRecord
100
AcDbLinetypeTableRecord
  2
CENTER2
 70
    0
  3
Center (.5x) ___ _ ___ _ ___ _ ___ _ ___ _ ___
 72
   65
 73
    4
 40
28.575
 49
19.05
 74
    0
 49
-3.175
 74
    0
 49
3.175
 74
    0
 49
-3.175
 74
    0
  0
LTYPE
  5
49
330
5
100
AcDbSymbolTableRecord
100
AcDbLinetypeTableRecord
  2
CENTERX2
 70
    0
  3
Center (2x) ________  __  ________  __  _____
 72
   65
 73
    4
 40
101.6
 49
63.5
 74
    0
 49
-12.7
 74
    0
 49
12.7
 74
    0
 49
-12.7
 74
    0
  0
ENDTAB
  0
TABLE
  2
LAYER
  5
2
330
0
100
AcDbSymbolTable
 70
    1
  0
LAYER
  5
10
330
2
100
AcDbSymbolTableRecord
100
AcDbLayerTableRecord
  2
0
 70
    0
 62
    7
  6
CONTINUOUS
370
    0
390
F
  0
ENDTAB
  0
TABLE
  2
STYLE
  5
3
330
0
100
AcDbSymbolTable
 70
    3
  0
STYLE
  5
4A
330
2
100
AcDbSymbolTableRecord
100
AcDbTextStyleTableRecord
  2
STANDARD
 70
    0
 40
0
 41
1
 50
0
 71
    0
 42
1
  3
STANDARD
  4

  0
STYLE
  5
4B
330
2
100
AcDbSymbolTableRecord
100
AcDbTextStyleTableRecord
  2
standard
 70
    0
 40
0
 41
1
 50
0
 71
    0
 42
1
  3
standard
  4

  0
ENDTAB
  0
TABLE
  2
VIEW
  5
6
330
0
100
AcDbSymbolTable
 70
    0
  0
ENDTAB
  0
TABLE
  2
UCS
  5
7
330
0
100
AcDbSymbolTable
 70
    0
  0
ENDTAB
  0
TABLE
  2
APPID
  5
9
330
0
100
AcDbSymbolTable
 70
    1
  0
APPID
  5
12
330
9
100
AcDbSymbolTableRecord
100
AcDbRegAppTableRecord
  2
ACAD
 70
    0
  0
APPID
  5
4C
330
9
100
AcDbSymbolTableRecord
100
AcDbRegAppTableRecord
  2
LibreCad
 70
    0
  0
ENDTAB
  0
TABLE
  2
DIMSTYLE
  5
A
330
0
100
AcDbSymbolTable
 70
    1
100
AcDbDimStyleTable
 71
    1
  0
DIMSTYLE
105
4D
330
A
100
AcDbSymbolTableRecord
100
AcDbDimStyleTableRecord
  2
Standard
 70
    0
 40
1
 41
0.1
 42
0.2
 43
0.38
 44
0.1
 45
0
 46
0
 47
0
 48
0
 49
1
140
0.2
141
0.09
142
0
143
25.4
144
1
145
0
146
1
147
0.2
148
0
 71
    0
 72
    0
 73
    0
 74
    1
 75
    0
 76
    0
 77
    0
 78
    8
 79
    0
170
    0
171
    2
172
    0
173
    0
174
    0
175
    0
176
    5
177
    0
178
    5
179
    0
271
    2
272
    4
273
    2
274
    2
275
    0
276
    0
277
    2
278
   44
279
    0
280
    0
281
    0
282
    0
283
    1
284
    0
285
    0
286
    0
288
    0
289
    3
340
standard
341

371
   -2
372
   -2
  0
ENDTAB
  0
TABLE
  2
BLOCK_RECORD
  5
1
330
0
100
AcDbSymbolTable
 70
    2
  0
BLOCK_RECORD
  5
1F
330
1
100
AcDbSymbolTableRecord
100
AcDbBlockTableRecord
  2
*Model_Space
 70
    0
280
    1
281
    0
  0
BLOCK_RECORD
  5
1E
330
1
100
AcDbSymbolTableRecord
100
AcDbBlockTableRecord
  2
*Paper_Space
 70
    0
280
    1
281
    0
  0
BLOCK_RECORD
  5
4E
330
1
100
AcDbSymbolTableRecord
100
AcDbBlockTableRecord
  2
*D36
 70
    0
280
    1
281
    0
  0
BLOCK_RECORD
  5
51
330
1
100
AcDbSymbolTableRecord
100
AcDbBlockTableRecord
  2
*D18
 70
    0
280
    1
281
    0
  0
BLOCK_RECORD
  5
54
330
1
100
AcDbSymbolTableRecord
100
AcDbBlockTableRecord
  2
*D41
 70
    0
280
    1
281
    0
  0
BLOCK_RECORD
  5
57
330
1
100
AcDbSymbolTableRecord
100
AcDbBlockTableRecord
  2
*D20
 70
    0
280
    1
281
    0
  0
BLOCK_RECORD
  5
5A
330
1
100
AcDbSymbolTableRecord
100
AcDbBlockTableRecord
  2
*D38
 70
    0
280
    1
281
    0
  0
BLOCK_RECORD
  5
5D
330
1
100
AcDbSymbolTableRecord
100
AcDbBlockTableRecord
  2
*D12
 70
    0
280
    1
281
    0
  0
BLOCK_RECORD
  5
60
330
1
100
AcDbSymbolTableRecord
100
AcDbBlockTableRecord
  2
*D40
 70
    0
280
    1
281
    0
  0
BLOCK_RECORD
  5
63
330
1
100
AcDbSymbolTableRecord
100
AcDbBlockTableRecord
  2
*D42
 70
    0
280
    1
281
    0
  0
BLOCK_RECORD
  5
66
330
1
100
AcDbSymbolTableRecord
100
AcDbBlockTableRecord
  2
*D5
 70
    0
280
    1
281
    0
  0
BLOCK_RECORD
  5
69
330
1
100
AcDbSymbolTableRecord
100
AcDbBlockTableRecord
  2
*D1
 70
    0
280
    1
281
    0
  0
BLOCK_RECORD
  5
6C
330
1
100
AcDbSymbolTableRecord
100
AcDbBlockTableRecord
  2
*D9
 70
    0
280
    1
281
    0
  0
BLOCK_RECORD
  5
6F
330
1
100
AcDbSymbolTableRecord
100
AcDbBlockTableRecord
  2
*D4
 70
    0
280
    1
281
    0
  0
BLOCK_RECORD
  5
72
330
1
100
AcDbSymbolTableRecord
100
AcDbBlockTableRecord
  2
*D21
 70
    0
280
    1
281
    0
  0
BLOCK_RECORD
  5
75
330
1
100
AcDbSymbolTableRecord
100
AcDbBlockTableRecord
  2
*D7
 70
    0
280
    1
281
    0
  0
BLOCK_RECORD
  5
78
330
1
100
AcDbSymbolTableRecord
100
AcDbBlockTableRecord
  2
*D3
 70
    0
280
    1
281
    0
  0
BLOCK_RECORD
  5
7B
330
1
100
AcDbSymbolTableRecord
100
AcDbBlockTableRecord
  2
*D11
 70
    0
280
    1
281
    0
  0
BLOCK_RECORD
  5
7E
330
1
100
AcDbSymbolTableRecord
100
AcDbBlockTableRecord
  2
*D24
 70
    0
280
    1
281
    0
  0
BLOCK_RECORD
  5
81
330
1
100
AcDbSymbolTableRecord
100
AcDbBlockTableRecord
  2
*D29
 70
    0
280
    1
281
    0
  0
BLOCK_RECORD
  5
84
330
1
100
AcDbSymbolTableRecord
100
AcDbBlockTableRecord
  2
*D32
 70
    0
280
    1
281
    0
  0
BLOCK_RECORD
  5
87
330
1
100
AcDbSymbolTableRecord
100
AcDbBlockTableRecord
  2
*D37
 70
    0
280
    1
281
    0
  0
BLOCK_RECORD
  5
8A
330
1
100
AcDbSymbolTableRecord
100
AcDbBlockTableRecord
  2
*D16
 70
    0
280
    1
281
    0
  0
BLOCK_RECORD
  5
8D
330
1
100
AcDbSymbolTableRecord
100
AcDbBlockTableRecord
  2
*D2
 70
    0
280
    1
281
    0
  0
BLOCK_RECORD
  5
90
330
1
100
AcDbSymbolTableRecord
100
AcDbBlockTableRecord
  2
*D14
 70
    0
280
    1
281
    0
  0
BLOCK_RECORD
  5
93
330
1
100
AcDbSymbolTableRecord
100
AcDbBlockTableRecord
  2
*D30
 70
    0
280
    1
281
    0
  0
BLOCK_RECORD
  5
96
330
1
100
AcDbSymbolTableRecord
100
AcDbBlockTableRecord
  2
*D15
 70
    0
280
    1
281
    0
  0
BLOCK_RECORD
  5
99
330
1
100
AcDbSymbolTableRecord
100
AcDbBlockTableRecord
  2
*D34
 70
    0
280
    1
281
    0
  0
BLOCK_RECORD
  5
9C
330
1
100
AcDbSymbolTableRecord
100
AcDbBlockTableRecord
  2
*D8
 70
    0
280
    1
281
    0
  0
BLOCK_RECORD
  5
9F
330
1
100
AcDbSymbolTableRecord
100
AcDbBlockTableRecord
  2
*D33
 70
    0
280
    1
281
    0
  0
BLOCK_RECORD
  5
A2
330
1
100
AcDbSymbolTableRecord
100
AcDbBlockTableRecord
  2
*D28
 70
    0
280
    1
281
    0
  0
BLOCK_RECORD
  5
A5
330
1
100
AcDbSymbolTableRecord
100
AcDbBlockTableRecord
  2
*D25
 70
    0
280
    1
281
    0
  0
BLOCK_RECORD
  5
A8
330
1
100
AcDbSymbolTableRecord
100
AcDbBlockTableRecord
  2
*D26
 70
    0
280
    1
281
    0
  0
BLOCK_RECORD
  5
AB
330
1
100
AcDbSymbolTableRecord
100
AcDbBlockTableRecord
  2
*D6
 70
    0
280
    1
281
    0
  0
BLOCK_RECORD
  5
AE
330
1
100
AcDbSymbolTableRecord
100
AcDbBlockTableRecord
  2
*D35
 70
    0
280
    1
281
    0
  0
BLOCK_RECORD
  5
B1
330
1
100
AcDbSymbolTableRecord
100
AcDbBlockTableRecord
  2
*D43
 70
    0
280
    1
281
    0
  0
BLOCK_RECORD
  5
B4
330
1
100
AcDbSymbolTableRecord
100
AcDbBlockTableRecord
  2
*D10
 70
    0
280
    1
281
    0
  0
BLOCK_RECORD
  5
B7
330
1
100
AcDbSymbolTableRecord
100
AcDbBlockTableRecord
  2
*D19
 70
    0
280
    1
281
    0
  0
BLOCK_RECORD
  5
BA
330
1
100
AcDbSymbolTableRecord
100
AcDbBlockTableRecord
  2
*D22
 70
    0
280
    1
281
    0
  0
BLOCK_RECORD
  5
BD
330
1
100
AcDbSymbolTableRecord
100
AcDbBlockTableRecord
  2
*D31
 70
    0
280
    1
281
    0
  0
BLOCK_RECORD
  5
C0
330
1
100
AcDbSymbolTableRecord
100
AcDbBlockTableRecord
  2
*D27
 70
    0
280
    1
281
    0
  0
BLOCK_RECORD
  5
C3
330
1
100
AcDbSymbolTableRecord
100
AcDbBlockTableRecord
  2
*D39
 70
    0
280
    1
281
    0
  0
BLOCK_RECORD
  5
C6
330
1
100
AcDbSymbolTableRecord
100
AcDbBlockTableRecord
  2
*D17
 70
    0
280
    1
281
    0
  0
BLOCK_RECORD
  5
C9
330
1
100
AcDbSymbolTableRecord
100
AcDbBlockTableRecord
  2
*D13
 70
    0
280
    1
281
    0
  0
BLOCK_RECORD
  5
CC
330
1
100
AcDbSymbolTableRecord
100
AcDbBlockTableRecord
  2
*D23
 70
    0
280
    1
281
    0
  0
ENDTAB
  0
ENDSEC
  0
SECTION
  2
BLOCKS
  0
BLOCK
  5
20
330
1F
100
AcDbEntity
  8
0
100
AcDbBlockBegin
  2
*Model_Space
 70
    0
 10
0
 20
0
 30
0
  3
*Model_Space
  1

  0
ENDBLK
  5
21
330
1F
100
AcDbEntity
  8
0
100
AcDbBlockEnd
  0
BLOCK
  5
1C
330
1B
100
AcDbEntity
  8
0
100
AcDbBlockBegin
  2
*Paper_Space
 70
    0
 10
0
 20
0
 30
0
  3
*Paper_Space
  1

  0
ENDBLK
  5
1D
330
1F
100
AcDbEntity
  8
0
100
AcDbBlockEnd
  0
BLOCK
  5
4F
330
4E
100
AcDbEntity
  8
0
100
AcDbBlockBegin
  2
*D36
 70
    1
 10
0
 20
0
  3
*D36
  1

  0
LINE
  5
CF
100
AcDbEntity
  8
0
  6
ByBlock
 62
    5
370
   -2
100
AcDbLine
 10
317.9124314704885
 20
427.3174498590634
 11
333.5024314704884
 21
427.3174498590634
  0
SOLID
  5
D0
100
AcDbEntity
  8
0
  6
ByBlock
 62
    5
370
   -2
100
AcDbTrace
 10
317.9124314704885
 20
427.3174498590634
 30
0
 11
318.0124314704885
 21
427.3341012453743
 31
0
 12
318.0124314704885
 22
427.3007984727525
 32
0
 13
318.0124314704885
 23
427.3007984727525
 33
0
  0
SOLID
  5
D1
100
AcDbEntity
  8
0
  6
ByBlock
 62
    5
370
   -2
100
AcDbTrace
 10
333.5024314704884
 20
427.3174498590634
 30
0
 11
333.4024314704884
 21
427.3007984727525
 31
0
 12
333.4024314704884
 22
427.3341012453743
 32
0
 13
333.4024314704884
 23
427.3341012453743
 33
0
  0
MTEXT
  5
D2
100
AcDbEntity
  8
0
  6
CONTINUOUS
 62
    5
370
   -2
100
AcDbMText
 10
325.7074314704885
 20
427.6174498590634
 30
0
 40
0.2
 41
0.5888888888889137
 71
    5
 72
    1
  1
15,59
  7
standard
210
0
220
0
230
1
 50
0
 73
    2
 44
1
  0
LINE
  5
D3
100
AcDbEntity
  8
0
  6
ByBlock
 62
    0
370
   -2
100
AcDbLine
 10
317.9124314704885
 20
426.5121854313882
 11
317.9124314704885
 21
427.4174498590634
  0
LINE
  5
D4
100
AcDbEntity
  8
0
  6
ByBlock
 62
    0
370
   -2
100
AcDbLine
 10
333.5024314704884
 20
426.5223137407127
 11
333.5024314704884
 21
427.4174498590634
  0
ENDBLK
  5
50
330
4E
100
AcDbEntity
  8
0
100
AcDbBlockEnd
  0
BLOCK
  5
52
330
51
100
AcDbEntity
  8
0
100
AcDbBlockBegin
  2
*D18
 70
    1
 10
0
 20
0
  3
*D18
  1

  0
LINE
  5
D5
100
AcDbEntity
  8
0
  6
ByBlock
 62
    5
370
   -2
100
AcDbLine
 10
325.2524314704884
 20
422.1593728452806
 11
326.4524314704884
 21
422.1593728452806
  0
SOLID
  5
D6
100
AcDbEntity
  8
0
  6
ByBlock
 62
    5
370
   -2
100
AcDbTrace
 10
325.2524314704884
 20
422.1593728452806
 30
0
 11
325.3524314704884
 21
422.1760242315915
 31
0
 12
325.3524314704884
 22
422.1427214589697
 32
0
 13
325.3524314704884
 23
422.1427214589697
 33
0
  0
SOLID
  5
D7
100
AcDbEntity
  8
0
  6
ByBlock
 62
    5
370
   -2
100
AcDbTrace
 10
326.4524314704884
 20
422.1593728452806
 30
0
 11
326.3524314704884
 21
422.1427214589697
 31
0
 12
326.3524314704884
 22
422.1760242315915
 32
0
 13
326.3524314704884
 23
422.1760242315915
 33
0
  0
MTEXT
  5
D8
100
AcDbEntity
  8
0
  6
CONTINUOUS
 62
    5
370
   -2
100
AcDbMText
 10
325.8524314704883
 20
422.4593728452807
 30
0
 40
0.2
 41
0.2777777777777778
 71
    5
 72
    1
  1
1,2
  7
standard
210
0
220
0
230
1
 50
0
 73
    2
 44
1
  0
LINE
  5
D9
100
AcDbEntity
  8
0
  6
ByBlock
 62
    0
370
   -2
100
AcDbLine
 10
325.2524314704884
 20
422.0223137407126
 11
325.2524314704884
 21
422.2593728452806
  0
LINE
  5
DA
100
AcDbEntity
  8
0
  6
ByBlock
 62
    0
370
   -2
100
AcDbLine
 10
326.4524314704884
 20
422.0223137407126
 11
326.4524314704884
 21
422.2593728452806
  0
ENDBLK
  5
53
330
51
100
AcDbEntity
  8
0
100
AcDbBlockEnd
  0
BLOCK
  5
55
330
54
100
AcDbEntity
  8
0
100
AcDbBlockBegin
  2
*D41
 70
    1
 10
0
 20
0
  3
*D41
  1

  0
LINE
  5
DB
100
AcDbEntity
  8
0
  6
ByBlock
 62
    5
370
   -2
100
AcDbLine
 10
329.7324314704885
 20
422.1685489433971
 11
332.0024314704884
 21
422.1685489433971
  0
SOLID
  5
DC
100
AcDbEntity
  8
0
  6
ByBlock
 62
    5
370
   -2
100
AcDbTrace
 10
329.7324314704885
 20
422.1685489433971
 30
0
 11
329.8324314704885
 21
422.185200329708
 31
0
 12
329.8324314704885
 22
422.1518975570862
 32
0
 13
329.8324314704885
 23
422.1518975570862
 33
0
  0
SOLID
  5
DD
100
AcDbEntity
  8
0
  6
ByBlock
 62
    5
370
   -2
100
AcDbTrace
 10
332.0024314704884
 20
422.1685489433971
 30
0
 11
331.9024314704884
 21
422.1518975570862
 31
0
 12
331.9024314704884
 22
422.185200329708
 32
0
 13
331.9024314704884
 23
422.185200329708
 33
0
  0
MTEXT
  5
DE
100
AcDbEntity
  8
0
  6
CONTINUOUS
 62
    5
370
   -2
100
AcDbMText
 10
330.8674314704884
 20
422.4685489433971
 30
0
 40
0.2
 41
0.4777777777777777
 71
    5
 72
    1
  1
2,27
  7
standard
210
0
220
0
230
1
 50
0
 73
    2
 44
1
  0
LINE
  5
DF
100
AcDbEntity
  8
0
  6
ByBlock
 62
    0
370
   -2
100
AcDbLine
 10
329.7324314704885
 20
422.0223137407126
 11
329.7324314704885
 21
422.2685489433971
  0
LINE
  5
E0
100
AcDbEntity
  8
0
  6
ByBlock
 62
    0
370
   -2
100
AcDbLine
 10
332.0024314704884
 20
422.0223137407126
 11
332.0024314704884
 21
422.2685489433971
  0
ENDBLK
  5
56
330
54
100
AcDbEntity
  8
0
100
AcDbBlockEnd
  0
BLOCK
  5
58
330
57
100
AcDbEntity
  8
0
100
AcDbBlockBegin
  2
*D20
 70
    1
 10
0
 20
0
  3
*D20
  1

  0
LINE
  5
E1
100
AcDbEntity
  8
0
  6
ByBlock
 62
    5
370
   -2
100
AcDbLine
 10
332.1524314704884
 20
419.441965436073
 11
333.3524314704884
 21
419.441965436073
  0
SOLID
  5
E2
100
AcDbEntity
  8
0
  6
ByBlock
 62
    5
370
   -2
100
AcDbTrace
 10
332.1524314704884
 20
419.441965436073
 30
0
 11
332.2524314704884
 21
419.4586168223839
 31
0
 12
332.2524314704884
 22
419.4253140497621
 32
0
 13
332.2524314704884
 23
419.4253140497621
 33
0
  0
SOLID
  5
E3
100
AcDbEntity
  8
0
  6
ByBlock
 62
    5
370
   -2
100
AcDbTrace
 10
333.3524314704884
 20
419.441965436073
 30
0
 11
333.2524314704884
 21
419.4253140497621
 31
0
 12
333.2524314704884
 22
419.4586168223839
 32
0
 13
333.2524314704884
 23
419.4586168223839
 33
0
  0
MTEXT
  5
E4
100
AcDbEntity
  8
0
  6
CONTINUOUS
 62
    5
370
   -2
100
AcDbMText
 10
332.7524314704884
 20
419.741965436073
 30
0
 40
0.2
 41
0.2777777777777778
 71
    5
 72
    1
  1
1,2
  7
standard
210
0
220
0
230
1
 50
0
 73
    2
 44
1
  0
LINE
  5
E5
100
AcDbEntity
  8
0
  6
ByBlock
 62
    0
370
   -2
100
AcDbLine
 10
332.1524314704884
 20
419.9723137407126
 11
332.1524314704884
 21
419.341965436073
  0
LINE
  5
E6
100
AcDbEntity
  8
0
  6
ByBlock
 62
    0
370
   -2
100
AcDbLine
 10
333.3524314704884
 20
419.9723137407126
 11
333.3524314704884
 21
419.341965436073
  0
ENDBLK
  5
59
330
57
100
AcDbEntity
  8
0
100
AcDbBlockEnd
  0
BLOCK
  5
5B
330
5A
100
AcDbEntity
  8
0
100
AcDbBlockBegin
  2
*D38
 70
    1
 10
0
 20
0
  3
*D38
  1

  0
LINE
  5
E7
100
AcDbEntity
  8
0
  6
ByBlock
 62
    5
370
   -2
100
AcDbLine
 10
320.5314394622603
 20
423.9223137407129
 11
320.5314394622603
 21
423.1623137407126
  0
SOLID
  5
E8
100
AcDbEntity
  8
0
  6
ByBlock
 62
    5
370
   -2
100
AcDbTrace
 10
320.5314394622603
 20
423.9223137407129
 30
0
 11
320.5480908485712
 21
423.8223137407129
 31
0
 12
320.5147880759494
 22
423.8223137407129
 32
0
 13
320.5147880759494
 23
423.8223137407129
 33
0
  0
SOLID
  5
E9
100
AcDbEntity
  8
0
  6
ByBlock
 62
    5
370
   -2
100
AcDbTrace
 10
320.5314394622603
 20
423.1623137407126
 30
0
 11
320.5147880759494
 21
423.2623137407126
 31
0
 12
320.5480908485712
 22
423.2623137407126
 32
0
 13
320.5480908485712
 23
423.2623137407126
 33
0
  0
MTEXT
  5
EA
100
AcDbEntity
  8
0
  6
CONTINUOUS
 62
    5
370
   -2
100
AcDbMText
 10
320.2314394622603
 20
423.5423137407128
 30
0
 40
0.2
 41
0.4777777777777902
 71
    5
 72
    1
  1
0,76
  7
standard
210
0
220
0
230
1
 50
90
 73
    2
 44
1
  0
LINE
  5
EB
100
AcDbEntity
  8
0
  6
ByBlock
 62
    0
370
   -2
100
AcDbLine
 10
320.2624314704886
 20
423.9223137407129
 11
320.6314394622603
 21
423.9223137407129
  0
LINE
  5
EC
100
AcDbEntity
  8
0
  6
ByBlock
 62
    0
370
   -2
100
AcDbLine
 10
320.2624314704886
 20
423.1623137407126
 11
320.6314394622603
 21
423.1623137407126
  0
ENDBLK
  5
5C
330
5A
100
AcDbEntity
  8
0
100
AcDbBlockEnd
  0
BLOCK
  5
5E
330
5D
100
AcDbEntity
  8
0
100
AcDbBlockBegin
  2
*D12
 70
    1
 10
0
 20
0
  3
*D12
  1

  0
LINE
  5
ED
100
AcDbEntity
  8
0
  6
ByBlock
 62
    5
370
   -2
100
AcDbLine
 10
317.5306116316156
 20
420.2723137407126
 11
317.5306116316156
 21
422.9123137407126
  0
SOLID
  5
EE
100
AcDbEntity
  8
0
  6
ByBlock
 62
    5
370
   -2
100
AcDbTrace
 10
317.5306116316156
 20
420.2723137407126
 30
0
 11
317.5139602453047
 21
420.3723137407126
 31
0
 12
317.5472630179265
 22
420.3723137407126
 32
0
 13
317.5472630179265
 23
420.3723137407126
 33
0
  0
SOLID
  5
EF
100
AcDbEntity
  8
0
  6
ByBlock
 62
    5
370
   -2
100
AcDbTrace
 10
317.5306116316156
 20
422.9123137407126
 30
0
 11
317.5472630179265
 21
422.8123137407126
 31
0
 12
317.5139602453047
 22
422.8123137407126
 32
0
 13
317.5139602453047
 23
422.8123137407126
 33
0
  0
MTEXT
  5
F0
100
AcDbEntity
  8
0
  6
CONTINUOUS
 62
    5
370
   -2
100
AcDbMText
 10
317.2306116316155
 20
421.5923137407126
 30
0
 40
0.2
 41
0.5000000000000125
 71
    5
 72
    1
  1
2,64
  7
standard
210
0
220
0
230
1
 50
90
 73
    2
 44
1
  0
LINE
  5
F1
100
AcDbEntity
  8
0
  6
ByBlock
 62
    0
370
   -2
100
AcDbLine
 10
317.5624314704887
 20
420.2723137407126
 11
317.4306116316156
 21
420.2723137407126
  0
LINE
  5
F2
100
AcDbEntity
  8
0
  6
ByBlock
 62
    0
370
   -2
100
AcDbLine
 10
317.5624314704887
 20
422.9123137407126
 11
317.4306116316156
 21
422.9123137407126
  0
ENDBLK
  5
5F
330
5D
100
AcDbEntity
  8
0
100
AcDbBlockEnd
  0
BLOCK
  5
61
330
60
100
AcDbEntity
  8
0
100
AcDbBlockBegin
  2
*D40
 70
    1
 10
0
 20
0
  3
*D40
  1

  0
LINE
  5
F3
100
AcDbEntity
  8
0
  6
ByBlock
 62
    5
370
   -2
100
AcDbLine
 10
334.210363085542
 20
422.8223137407126
 11
334.210363085542
 21
426.1723137407129
  0
SOLID
  5
F4
100
AcDbEntity
  8
0
  6
ByBlock
 62
    5
370
   -2
100
AcDbTrace
 10
334.210363085542
 20
422.8223137407126
 30
0
 11
334.1937116992311
 21
422.9223137407126
 31
0
 12
334.2270144718529
 22
422.9223137407126
 32
0
 13
334.2270144718529
 23
422.9223137407126
 33
0
  0
SOLID
  5
F5
100
AcDbEntity
  8
0
  6
ByBlock
 62
    5
370
   -2
100
AcDbTrace
 10
334.210363085542
 20
426.1723137407129
 30
0
 11
334.2270144718529
 21
426.0723137407129
 31
0
 12
334.1937116992311
 22
426.0723137407129
 32
0
 13
334.1937116992311
 23
426.0723137407129
 33
0
  0
MTEXT
  5
F6
100
AcDbEntity
  8
0
  6
CONTINUOUS
 62
    5
370
   -2
100
AcDbMText
 10
333.910363085542
 20
424.4973137407127
 30
0
 40
0.2
 41
0.477777777777815
 71
    5
 72
    1
  1
3,35
  7
standard
210
0
220
0
230
1
 50
90
 73
    2
 44
1
  0
LINE
  5
F7
100
AcDbEntity
  8
0
  6
ByBlock
 62
    0
370
   -2
100
AcDbLine
 10
333.7024314704884
 20
422.8223137407126
 11
334.310363085542
 21
422.8223137407126
  0
LINE
  5
F8
100
AcDbEntity
  8
0
  6
ByBlock
 62
    0
370
   -2
100
AcDbLine
 10
333.7024314704884
 20
426.1723137407129
 11
334.310363085542
 21
426.1723137407129
  0
ENDBLK
  5
62
330
60
100
AcDbEntity
  8
0
100
AcDbBlockEnd
  0
BLOCK
  5
64
330
63
100
AcDbEntity
  8
0
100
AcDbBlockBegin
  2
*D42
 70
    1
 10
0
 20
0
  3
*D42
  1

  0
LINE
  5
F9
100
AcDbEntity
  8
0
  6
ByBlock
 62
    5
370
   -2
100
AcDbLine
 10
325.5254142439952
 20
399.9721404702764
 11
332.2754142439952
 21
399.9721404702764
  0
SOLID
  5
FA
100
AcDbEntity
  8
0
  6
ByBlock
 62
    5
370
   -2
100
AcDbTrace
 10
325.5254142439952
 20
399.9721404702764
 30
0
 11
325.6254142439952
 21
399.9887918565873
 31
0
 12
325.6254142439952
 22
399.9554890839655
 32
0
 13
325.6254142439952
 23
399.9554890839655
 33
0
  0
SOLID
  5
FB
100
AcDbEntity
  8
0
  6
ByBlock
 62
    5
370
   -2
100
AcDbTrace
 10
332.2754142439952
 20
399.9721404702764
 30
0
 11
332.1754142439952
 21
399.9554890839655
 31
0
 12
332.1754142439952
 22
399.9887918565873
 32
0
 13
332.1754142439952
 23
399.9887918565873
 33
0
  0
MTEXT
  5
FC
100
AcDbEntity
  8
0
  6
CONTINUOUS
 62
    5
370
   -2
100
AcDbMText
 10
328.9004142439952
 20
400.2721404702764
 30
0
 40
0.2
 41
0.4777777777778026
 71
    5
 72
    1
  1
6,75
  7
standard
210
0
220
0
230
1
 50
0
 73
    2
 44
1
  0
LINE
  5
FD
100
AcDbEntity
  8
0
  6
ByBlock
 62
    0
370
   -2
100
AcDbLine
 10
325.5254142439952
 20
400.7557009756846
 11
325.5254142439952
 21
399.8721404702763
  0
LINE
  5
FE
100
AcDbEntity
  8
0
  6
ByBlock
 62
    0
370
   -2
100
AcDbLine
 10
332.2754142439952
 20
400.7557009756846
 11
332.2754142439952
 21
399.8721404702763
  0
ENDBLK
  5
65
330
63
100
AcDbEntity
  8
0
100
AcDbBlockEnd
  0
BLOCK
  5
67
330
66
100
AcDbEntity
  8
0
100
AcDbBlockBegin
  2
*D5
 70
    1
 10
0
 20
0
  3
*D5
  1

  0
LINE
  5
FF
100
AcDbEntity
  8
0
  6
ByBlock
 62
    5
370
   -2
100
AcDbLine
 10
335.4002851836716
 20
426.1723137407129
 11
335.4002851836716
 21
420.1723137407126
  0
SOLID
  5
100
100
AcDbEntity
  8
0
  6
ByBlock
 62
    5
370
   -2
100
AcDbTrace
 10
335.4002851836716
 20
426.1723137407129
 30
0
 11
335.4169365699825
 21
426.0723137407129
 31
0
 12
335.3836337973607
 22
426.0723137407129
 32
0
 13
335.3836337973607
 23
426.0723137407129
 33
0
  0
SOLID
  5
101
100
AcDbEntity
  8
0
  6
ByBlock
 62
    5
370
   -2
100
AcDbTrace
 10
335.4002851836716
 20
420.1723137407126
 30
0
 11
335.3836337973607
 21
420.2723137407126
 31
0
 12
335.4169365699825
 22
420.2723137407126
 32
0
 13
335.4169365699825
 23
420.2723137407126
 33
0
  0
MTEXT
  5
102
100
AcDbEntity
  8
0
  6
CONTINUOUS
 62
    5
370
   -2
100
AcDbMText
 10
335.1002851836716
 20
423.1723137407128
 30
0
 40
0.2
 41
0.08888888888890129
 71
    5
 72
    1
  1
6
  7
standard
210
0
220
0
230
1
 50
90
 73
    2
 44
1
  0
LINE
  5
103
100
AcDbEntity
  8
0
  6
ByBlock
 62
    0
370
   -2
100
AcDbLine
 10
333.5524314704884
 20
426.1723137407129
 11
335.5002851836716
 21
426.1723137407129
  0
LINE
  5
104
100
AcDbEntity
  8
0
  6
ByBlock
 62
    0
370
   -2
100
AcDbLine
 10
333.5524314704884
 20
420.1723137407126
 11
335.5002851836716
 21
420.1723137407126
  0
ENDBLK
  5
68
330
66
100
AcDbEntity
  8
0
100
AcDbBlockEnd
  0
BLOCK
  5
6A
330
69
100
AcDbEntity
  8
0
100
AcDbBlockBegin
  2
*D1
 70
    1
 10
0
 20
0
  3
*D1
  1

  0
LINE
  5
105
100
AcDbEntity
  8
0
  6
ByBlock
 62
    5
370
   -2
100
AcDbLine
 10
321.8227954975442
 20
420.1723137407126
 11
321.8227954975442
 21
423.0123137407126
  0
SOLID
  5
106
100
AcDbEntity
  8
0
  6
ByBlock
 62
    5
370
   -2
100
AcDbTrace
 10
321.8227954975442
 20
420.1723137407126
 30
0
 11
321.8061441112333
 21
420.2723137407126
 31
0
 12
321.8394468838551
 22
420.2723137407126
 32
0
 13
321.8394468838551
 23
420.2723137407126
 33
0
  0
SOLID
  5
107
100
AcDbEntity
  8
0
  6
ByBlock
 62
    5
370
   -2
100
AcDbTrace
 10
321.8227954975442
 20
423.0123137407126
 30
0
 11
321.8394468838551
 21
422.9123137407126
 31
0
 12
321.8061441112333
 22
422.9123137407126
 32
0
 13
321.8061441112333
 23
422.9123137407126
 33
0
  0
MTEXT
  5
108
100
AcDbEntity
  8
0
  6
CONTINUOUS
 62
    5
370
   -2
100
AcDbMText
 10
321.5227954975442
 20
421.5923137407126
 30
0
 40
0.2
 41
0.5
 71
    5
 72
    1
  1
2,84
  7
standard
210
0
220
0
230
1
 50
90
 73
    2
 44
1
  0
LINE
  5
109
100
AcDbEntity
  8
0
  6
ByBlock
 62
    0
370
   -2
100
AcDbLine
 10
322.4424314704885
 20
420.1723137407126
 11
321.7227954975442
 21
420.1723137407126
  0
LINE
  5
10A
100
AcDbEntity
  8
0
  6
ByBlock
 62
    0
370
   -2
100
AcDbLine
 10
322.4424314704885
 20
423.0123137407126
 11
321.7227954975442
 21
423.0123137407126
  0
ENDBLK
  5
6B
330
69
100
AcDbEntity
  8
0
100
AcDbBlockEnd
  0
BLOCK
  5
6D
330
6C
100
AcDbEntity
  8
0
100
AcDbBlockBegin
  2
*D9
 70
    1
 10
0
 20
0
  3
*D9
  1

  0
LINE
  5
10B
100
AcDbEntity
  8
0
  6
ByBlock
 62
    5
370
   -2
100
AcDbLine
 10
319.7102757894855
 20
423.9223137407129
 11
319.7102757894855
 21
425.4223137407129
  0
SOLID
  5
10C
100
AcDbEntity
  8
0
  6
ByBlock
 62
    5
370
   -2
100
AcDbTrace
 10
319.7102757894855
 20
423.9223137407129
 30
0
 11
319.6936244031746
 21
424.0223137407129
 31
0
 12
319.7269271757964
 22
424.0223137407129
 32
0
 13
319.7269271757964
 23
424.0223137407129
 33
0
  0
SOLID
  5
10D
100
AcDbEntity
  8
0
  6
ByBlock
 62
    5
370
   -2
100
AcDbTrace
 10
319.7102757894855
 20
425.4223137407129
 30
0
 11
319.7269271757964
 21
425.3223137407129
 31
0
 12
319.6936244031746
 22
425.3223137407129
 32
0
 13
319.6936244031746
 23
425.3223137407129
 33
0
  0
MTEXT
  5
10E
100
AcDbEntity
  8
0
  6
CONTINUOUS
 62
    5
370
   -2
100
AcDbMText
 10
319.4102757894855
 20
424.6723137407129
 30
0
 40
0.2
 41
0.2777777777777902
 71
    5
 72
    1
  1
1,5
  7
standard
210
0
220
0
230
1
 50
90
 73
    2
 44
1
  0
LINE
  5
10F
100
AcDbEntity
  8
0
  6
ByBlock
 62
    0
370
   -2
100
AcDbLine
 10
319.7124314704886
 20
423.9223137407129
 11
319.6102757894855
 21
423.9223137407129
  0
LINE
  5
110
100
AcDbEntity
  8
0
  6
ByBlock
 62
    0
370
   -2
100
AcDbLine
 10
319.7124314704886
 20
425.4223137407129
 11
319.6102757894855
 21
425.4223137407129
  0
ENDBLK
  5
6E
330
6C
100
AcDbEntity
  8
0
100
AcDbBlockEnd
  0
BLOCK
  5
70
330
6F
100
AcDbEntity
  8
0
100
AcDbBlockBegin
  2
*D4
 70
    1
 10
0
 20
0
  3
*D4
  1

  0
LINE
  5
111
100
AcDbEntity
  8
0
  6
ByBlock
 62
    5
370
   -2
100
AcDbLine
 10
324.8117795851905
 20
420.1723137407126
 11
324.8117795851905
 21
425.1723137407129
  0
SOLID
  5
112
100
AcDbEntity
  8
0
  6
ByBlock
 62
    5
370
   -2
100
AcDbTrace
 10
324.8117795851905
 20
420.1723137407126
 30
0
 11
324.7951281988796
 21
420.2723137407126
 31
0
 12
324.8284309715014
 22
420.2723137407126
 32
0
 13
324.8284309715014
 23
420.2723137407126
 33
0
  0
SOLID
  5
113
100
AcDbEntity
  8
0
  6
ByBlock
 62
    5
370
   -2
100
AcDbTrace
 10
324.8117795851905
 20
425.1723137407129
 30
0
 11
324.8284309715014
 21
425.0723137407129
 31
0
 12
324.7951281988796
 22
425.0723137407129
 32
0
 13
324.7951281988796
 23
425.0723137407129
 33
0
  0
MTEXT
  5
114
100
AcDbEntity
  8
0
  6
CONTINUOUS
 62
    5
370
   -2
100
AcDbMText
 10
324.5117795851905
 20
422.6723137407128
 30
0
 40
0.2
 41
0.08888888888890129
 71
    5
 72
    1
  1
5
  7
standard
210
0
220
0
230
1
 50
90
 73
    2
 44
1
  0
LINE
  5
115
100
AcDbEntity
  8
0
  6
ByBlock
 62
    0
370
   -2
100
AcDbLine
 10
324.9024314704885
 20
420.1723137407126
 11
324.7117795851905
 21
420.1723137407126
  0
LINE
  5
116
100
AcDbEntity
  8
0
  6
ByBlock
 62
    0
370
   -2
100
AcDbLine
 10
324.9024314704885
 20
425.1723137407129
 11
324.7117795851905
 21
425.1723137407129
  0
ENDBLK
  5
71
330
6F
100
AcDbEntity
  8
0
100
AcDbBlockEnd
  0
BLOCK
  5
73
330
72
100
AcDbEntity
  8
0
100
AcDbBlockBegin
  2
*D21
 70
    1
 10
0
 20
0
  3
*D21
  1

  0
LINE
  5
117
100
AcDbEntity
  8
0
  6
ByBlock
 62
    5
370
   -2
100
AcDbLine
 10
325.2524314704884
 20
426.61132838414
 11
329.5824314704885
 21
426.61132838414
  0
SOLID
  5
118
100
AcDbEntity
  8
0
  6
ByBlock
 62
    5
370
   -2
100
AcDbTrace
 10
325.2524314704884
 20
426.61132838414
 30
0
 11
325.3524314704884
 21
426.6279797704509
 31
0
 12
325.3524314704884
 22
426.5946769978291
 32
0
 13
325.3524314704884
 23
426.5946769978291
 33
0
  0
SOLID
  5
119
100
AcDbEntity
  8
0
  6
ByBlock
 62
    5
370
   -2
100
AcDbTrace
 10
329.5824314704885
 20
426.61132838414
 30
0
 11
329.4824314704885
 21
426.5946769978291
 31
0
 12
329.4824314704885
 22
426.6279797704509
 32
0
 13
329.4824314704885
 23
426.6279797704509
 33
0
  0
MTEXT
  5
11A
100
AcDbEntity
  8
0
  6
CONTINUOUS
 62
    5
370
   -2
100
AcDbMText
 10
327.4174314704884
 20
426.91132838414
 30
0
 40
0.2
 41
0.5000000000000249
 71
    5
 72
    1
  1
4,33
  7
standard
210
0
220
0
230
1
 50
0
 73
    2
 44
1
  0
LINE
  5
11B
100
AcDbEntity
  8
0
  6
ByBlock
 62
    0
370
   -2
100
AcDbLine
 10
325.2524314704884
 20
426.3723137407129
 11
325.2524314704884
 21
426.71132838414
  0
LINE
  5
11C
100
AcDbEntity
  8
0
  6
ByBlock
 62
    0
370
   -2
100
AcDbLine
 10
329.5824314704885
 20
426.3723137407129
 11
329.5824314704885
 21
426.71132838414
  0
ENDBLK
  5
74
330
72
100
AcDbEntity
  8
0
100
AcDbBlockEnd
  0
BLOCK
  5
76
330
75
100
AcDbEntity
  8
0
100
AcDbBlockBegin
  2
*D7
 70
    1
 10
0
 20
0
  3
*D7
  1

  0
LINE
  5
11D
100
AcDbEntity
  8
0
  6
ByBlock
 62
    5
370
   -2
100
AcDbLine
 10
319.9124314704886
 20
422.4860585498625
 11
322.6424314704885
 21
422.4860585498625
  0
SOLID
  5
11E
100
AcDbEntity
  8
0
  6
ByBlock
 62
    5
370
   -2
100
AcDbTrace
 10
319.9124314704886
 20
422.4860585498625
 30
0
 11
320.0124314704887
 21
422.5027099361734
 31
0
 12
320.0124314704887
 22
422.4694071635516
 32
0
 13
320.0124314704887
 23
422.4694071635516
 33
0
  0
SOLID
  5
11F
100
AcDbEntity
  8
0
  6
ByBlock
 62
    5
370
   -2
100
AcDbTrace
 10
322.6424314704885
 20
422.4860585498625
 30
0
 11
322.5424314704885
 21
422.4694071635516
 31
0
 12
322.5424314704885
 22
422.5027099361734
 32
0
 13
322.5424314704885
 23
422.5027099361734
 33
0
  0
MTEXT
  5
120
100
AcDbEntity
  8
0
  6
CONTINUOUS
 62
    5
370
   -2
100
AcDbMText
 10
321.2774314704885
 20
422.7860585498626
 30
0
 40
0.2
 41
0.4777777777777902
 71
    5
 72
    1
  1
2,73
  7
standard
210
0
220
0
230
1
 50
0
 73
    2
 44
1
  0
LINE
  5
121
100
AcDbEntity
  8
0
  6
ByBlock
 62
    0
370
   -2
100
AcDbLine
 10
319.9124314704886
 20
422.8123137407126
 11
319.9124314704886
 21
422.3860585498625
  0
LINE
  5
122
100
AcDbEntity
  8
0
  6
ByBlock
 62
    0
370
   -2
100
AcDbLine
 10
322.6424314704885
 20
422.8123137407127
 11
322.6424314704885
 21
422.3860585498625
  0
ENDBLK
  5
77
330
75
100
AcDbEntity
  8
0
100
AcDbBlockEnd
  0
BLOCK
  5
79
330
78
100
AcDbEntity
  8
0
100
AcDbBlockBegin
  2
*D3
 70
    1
 10
0
 20
0
  3
*D3
  1

  0
LINE
  5
123
100
AcDbEntity
  8
0
  6
ByBlock
 62
    5
370
   -2
100
AcDbLine
 10
324.8352054825318
 20
425.1723137407129
 11
324.8352054825318
 21
426.175637380807
  0
SOLID
  5
124
100
AcDbEntity
  8
0
  6
ByBlock
 62
    5
370
   -2
100
AcDbTrace
 10
324.8352054825318
 20
425.1723137407129
 30
0
 11
324.8185540962209
 21
425.2723137407129
 31
0
 12
324.8518568688427
 22
425.2723137407129
 32
0
 13
324.8518568688427
 23
425.2723137407129
 33
0
  0
SOLID
  5
125
100
AcDbEntity
  8
0
  6
ByBlock
 62
    5
370
   -2
100
AcDbTrace
 10
324.8352054825318
 20
426.175637380807
 30
0
 11
324.8518568688427
 21
426.075637380807
 31
0
 12
324.8185540962209
 22
426.075637380807
 32
0
 13
324.8185540962209
 23
426.075637380807
 33
0
  0
MTEXT
  5
126
100
AcDbEntity
  8
0
  6
CONTINUOUS
 62
    5
370
   -2
100
AcDbMText
 10
324.5352054825318
 20
425.67397556076
 30
0
 40
0.2
 41
0.04444444444444445
 71
    5
 72
    1
  1
1
  7
standard
210
0
220
0
230
1
 50
90
 73
    2
 44
1
  0
LINE
  5
127
100
AcDbEntity
  8
0
  6
ByBlock
 62
    0
370
   -2
100
AcDbLine
 10
324.9024314704885
 20
425.1723137407129
 11
324.7352054825318
 21
425.1723137407129
  0
LINE
  5
128
100
AcDbEntity
  8
0
  6
ByBlock
 62
    0
370
   -2
100
AcDbLine
 10
324.9024314704885
 20
426.175637380807
 11
324.7352054825318
 21
426.175637380807
  0
ENDBLK
  5
7A
330
78
100
AcDbEntity
  8
0
100
AcDbBlockEnd
  0
BLOCK
  5
7C
330
7B
100
AcDbEntity
  8
0
100
AcDbBlockBegin
  2
*D11
 70
    1
 10
0
 20
0
  3
*D11
  1

  0
LINE
  5
129
100
AcDbEntity
  8
0
  6
ByBlock
 62
    5
370
   -2
100
AcDbLine
 10
316.9854947017759
 20
420.0223137407127
 11
316.9854947017759
 21
426.3268655454524
  0
SOLID
  5
12A
100
AcDbEntity
  8
0
  6
ByBlock
 62
    5
370
   -2
100
AcDbTrace
 10
316.9854947017759
 20
420.0223137407127
 30
0
 11
316.968843315465
 21
420.1223137407127
 31
0
 12
317.0021460880868
 22
420.1223137407127
 32
0
 13
317.0021460880868
 23
420.1223137407127
 33
0
  0
SOLID
  5
12B
100
AcDbEntity
  8
0
  6
ByBlock
 62
    5
370
   -2
100
AcDbTrace
 10
316.9854947017759
 20
426.3268655454524
 30
0
 11
317.0021460880868
 21
426.2268655454524
 31
0
 12
316.968843315465
 22
426.2268655454524
 32
0
 13
316.968843315465
 23
426.2268655454524
 33
0
  0
MTEXT
  5
12C
100
AcDbEntity
  8
0
  6
CONTINUOUS
 62
    5
370
   -2
100
AcDbMText
 10
316.6854947017759
 20
423.1745896430825
 30
0
 40
0.2
 41
0.3222222222222471
 71
    5
 72
    1
  1
6,3
  7
standard
210
0
220
0
230
1
 50
90
 73
    2
 44
1
  0
LINE
  5
12D
100
AcDbEntity
  8
0
  6
ByBlock
 62
    0
370
   -2
100
AcDbLine
 10
317.5624314704887
 20
420.0223137407127
 11
316.8854947017759
 21
420.0223137407127
  0
LINE
  5
12E
100
AcDbEntity
  8
0
  6
ByBlock
 62
    0
370
   -2
100
AcDbLine
 10
317.5624314704887
 20
426.3268655454524
 11
316.8854947017759
 21
426.3268655454524
  0
ENDBLK
  5
7D
330
7B
100
AcDbEntity
  8
0
100
AcDbBlockEnd
  0
BLOCK
  5
7F
330
7E
100
AcDbEntity
  8
0
100
AcDbBlockBegin
  2
*D24
 70
    1
 10
0
 20
0
  3
*D24
  1

  0
LINE
  5
12F
100
AcDbEntity
  8
0
  6
ByBlock
 62
    5
370
   -2
100
AcDbLine
 10
325.8524314704883
 20
425.1723137407129
 11
325.8524314704883
 21
424.2723137407125
  0
SOLID
  5
130
100
AcDbEntity
  8
0
  6
ByBlock
 62
    5
370
   -2
100
AcDbTrace
 10
325.8524314704883
 20
425.1723137407129
 30
0
 11
325.8690828567992
 21
425.0723137407129
 31
0
 12
325.8357800841774
 22
425.0723137407129
 32
0
 13
325.8357800841774
 23
425.0723137407129
 33
0
  0
SOLID
  5
131
100
AcDbEntity
  8
0
  6
ByBlock
 62
    5
370
   -2
100
AcDbTrace
 10
325.8524314704883
 20
424.2723137407125
 30
0
 11
325.8357800841774
 21
424.3723137407125
 31
0
 12
325.8690828567992
 22
424.3723137407125
 32
0
 13
325.8690828567992
 23
424.3723137407125
 33
0
  0
MTEXT
  5
132
100
AcDbEntity
  8
0
  6
CONTINUOUS
 62
    5
370
   -2
100
AcDbMText
 10
325.5524314704883
 20
424.7223137407127
 30
0
 40
0.2
 41
0.3222222222222222
 71
    5
 72
    1
  1
0,9
  7
standard
210
0
220
0
230
1
 50
90
 73
    2
 44
1
  0
LINE
  5
133
100
AcDbEntity
  8
0
  6
ByBlock
 62
    0
370
   -2
100
AcDbLine
 10
325.4524314704884
 20
425.1723137407129
 11
325.9524314704883
 21
425.1723137407129
  0
LINE
  5
134
100
AcDbEntity
  8
0
  6
ByBlock
 62
    0
370
   -2
100
AcDbLine
 10
325.4524314704884
 20
424.2723137407125
 11
325.9524314704883
 21
424.2723137407125
  0
ENDBLK
  5
80
330
7E
100
AcDbEntity
  8
0
100
AcDbBlockEnd
  0
BLOCK
  5
82
330
81
100
AcDbEntity
  8
0
100
AcDbBlockBegin
  2
*D29
 70
    1
 10
0
 20
0
  3
*D29
  1

  0
LINE
  5
135
100
AcDbEntity
  8
0
  6
ByBlock
 62
    5
370
   -2
100
AcDbLine
 10
332.2524314704884
 20
423.4207831926216
 11
332.9524314704884
 21
423.4207831926216
  0
SOLID
  5
136
100
AcDbEntity
  8
0
  6
ByBlock
 62
    5
370
   -2
100
AcDbTrace
 10
332.2524314704884
 20
423.4207831926216
 30
0
 11
332.3524314704884
 21
423.4374345789325
 31
0
 12
332.3524314704884
 22
423.4041318063107
 32
0
 13
332.3524314704884
 23
423.4041318063107
 33
0
  0
SOLID
  5
137
100
AcDbEntity
  8
0
  6
ByBlock
 62
    5
370
   -2
100
AcDbTrace
 10
332.9524314704884
 20
423.4207831926216
 30
0
 11
332.8524314704884
 21
423.4041318063107
 31
0
 12
332.8524314704884
 22
423.4374345789325
 32
0
 13
332.8524314704884
 23
423.4374345789325
 33
0
  0
MTEXT
  5
138
100
AcDbEntity
  8
0
  6
CONTINUOUS
 62
    5
370
   -2
100
AcDbMText
 10
332.6024314704885
 20
423.7207831926216
 30
0
 40
0.2
 41
0.3222222222222222
 71
    5
 72
    1
  1
0,7
  7
standard
210
0
220
0
230
1
 50
0
 73
    2
 44
1
  0
LINE
  5
139
100
AcDbEntity
  8
0
  6
ByBlock
 62
    0
370
   -2
100
AcDbLine
 10
332.2524314704884
 20
423.3723137407129
 11
332.2524314704884
 21
423.5207831926216
  0
LINE
  5
13A
100
AcDbEntity
  8
0
  6
ByBlock
 62
    0
370
   -2
100
AcDbLine
 10
332.9524314704884
 20
423.3723137407129
 11
332.9524314704884
 21
423.5207831926216
  0
ENDBLK
  5
83
330
81
100
AcDbEntity
  8
0
100
AcDbBlockEnd
  0
BLOCK
  5
85
330
84
100
AcDbEntity
  8
0
100
AcDbBlockBegin
  2
*D32
 70
    1
 10
0
 20
0
  3
*D32
  1

  0
LINE
  5
13B
100
AcDbEntity
  8
0
  6
ByBlock
 62
    5
370
   -2
100
AcDbLine
 10
323.3924314704885
 20
420.4322866439531
 11
325.1024314704885
 21
420.4322866439531
  0
SOLID
  5
13C
100
AcDbEntity
  8
0
  6
ByBlock
 62
    5
370
   -2
100
AcDbTrace
 10
323.3924314704885
 20
420.4322866439531
 30
0
 11
323.4924314704885
 21
420.448938030264
 31
0
 12
323.4924314704885
 22
420.4156352576422
 32
0
 13
323.4924314704885
 23
420.4156352576422
 33
0
  0
SOLID
  5
13D
100
AcDbEntity
  8
0
  6
ByBlock
 62
    5
370
   -2
100
AcDbTrace
 10
325.1024314704885
 20
420.4322866439531
 30
0
 11
325.0024314704885
 21
420.4156352576422
 31
0
 12
325.0024314704885
 22
420.448938030264
 32
0
 13
325.0024314704885
 23
420.448938030264
 33
0
  0
MTEXT
  5
13E
100
AcDbEntity
  8
0
  6
CONTINUOUS
 62
    5
370
   -2
100
AcDbMText
 10
324.2474314704886
 20
420.7322866439531
 30
0
 40
0.2
 41
0.3888888888888889
 71
    5
 72
    1
  1
1,71
  7
standard
210
0
220
0
230
1
 50
0
 73
    2
 44
1
  0
LINE
  5
13F
100
AcDbEntity
  8
0
  6
ByBlock
 62
    0
370
   -2
100
AcDbLine
 10
323.3924314704885
 20
420.3723137407126
 11
323.3924314704885
 21
420.5322866439531
  0
LINE
  5
140
100
AcDbEntity
  8
0
  6
ByBlock
 62
    0
370
   -2
100
AcDbLine
 10
325.1024314704885
 20
420.3723137407126
 11
325.1024314704885
 21
420.5322866439531
  0
ENDBLK
  5
86
330
84
100
AcDbEntity
  8
0
100
AcDbBlockEnd
  0
BLOCK
  5
88
330
87
100
AcDbEntity
  8
0
100
AcDbBlockBegin
  2
*D37
 70
    1
 10
0
 20
0
  3
*D37
  1

  0
LINE
  5
141
100
AcDbEntity
  8
0
  6
ByBlock
 62
    5
370
   -2
100
AcDbLine
 10
320.5314394622603
 20
425.4223137407129
 11
320.5314394622603
 21
426.1723137407129
  0
SOLID
  5
142
100
AcDbEntity
  8
0
  6
ByBlock
 62
    5
370
   -2
100
AcDbTrace
 10
320.5314394622603
 20
425.4223137407129
 30
0
 11
320.5147880759494
 21
425.5223137407129
 31
0
 12
320.5480908485712
 22
425.5223137407129
 32
0
 13
320.5480908485712
 23
425.5223137407129
 33
0
  0
SOLID
  5
143
100
AcDbEntity
  8
0
  6
ByBlock
 62
    5
370
   -2
100
AcDbTrace
 10
320.5314394622603
 20
426.1723137407129
 30
0
 11
320.5480908485712
 21
426.0723137407129
 31
0
 12
320.5147880759494
 22
426.0723137407129
 32
0
 13
320.5147880759494
 23
426.0723137407129
 33
0
  0
MTEXT
  5
144
100
AcDbEntity
  8
0
  6
CONTINUOUS
 62
    5
370
   -2
100
AcDbMText
 10
320.2314394622603
 20
425.7973137407129
 30
0
 40
0.2
 41
0.4777777777777902
 71
    5
 72
    1
  1
0,75
  7
standard
210
0
220
0
230
1
 50
90
 73
    2
 44
1
  0
LINE
  5
145
100
AcDbEntity
  8
0
  6
ByBlock
 62
    0
370
   -2
100
AcDbLine
 10
320.2624314704886
 20
425.4223137407129
 11
320.6314394622603
 21
425.4223137407129
  0
LINE
  5
146
100
AcDbEntity
  8
0
  6
ByBlock
 62
    0
370
   -2
100
AcDbLine
 10
320.2624314704886
 20
426.1723137407129
 11
320.6314394622603
 21
426.1723137407129
  0
ENDBLK
  5
89
330
87
100
AcDbEntity
  8
0
100
AcDbBlockEnd
  0
BLOCK
  5
8B
330
8A
100
AcDbEntity
  8
0
100
AcDbBlockBegin
  2
*D16
 70
    1
 10
0
 20
0
  3
*D16
  1

  0
LINE
  5
147
100
AcDbEntity
  8
0
  6
ByBlock
 62
    5
370
   -2
100
AcDbLine
 10
326.6024314704883
 20
422.1708225472682
 11
329.5824314704885
 21
422.1708225472682
  0
SOLID
  5
148
100
AcDbEntity
  8
0
  6
ByBlock
 62
    5
370
   -2
100
AcDbTrace
 10
326.6024314704883
 20
422.1708225472682
 30
0
 11
326.7024314704883
 21
422.1874739335791
 31
0
 12
326.7024314704883
 22
422.1541711609573
 32
0
 13
326.7024314704883
 23
422.1541711609573
 33
0
  0
SOLID
  5
149
100
AcDbEntity
  8
0
  6
ByBlock
 62
    5
370
   -2
100
AcDbTrace
 10
329.5824314704885
 20
422.1708225472682
 30
0
 11
329.4824314704885
 21
422.1541711609573
 31
0
 12
329.4824314704885
 22
422.1874739335791
 32
0
 13
329.4824314704885
 23
422.1874739335791
 33
0
  0
MTEXT
  5
14A
100
AcDbEntity
  8
0
  6
CONTINUOUS
 62
    5
370
   -2
100
AcDbMText
 10
328.0924314704884
 20
422.4708225472683
 30
0
 40
0.2
 41
0.4777777777777778
 71
    5
 72
    1
  1
2,98
  7
standard
210
0
220
0
230
1
 50
0
 73
    2
 44
1
  0
LINE
  5
14B
100
AcDbEntity
  8
0
  6
ByBlock
 62
    0
370
   -2
100
AcDbLine
 10
326.6024314704883
 20
422.0223137407126
 11
326.6024314704883
 21
422.2708225472682
  0
LINE
  5
14C
100
AcDbEntity
  8
0
  6
ByBlock
 62
    0
370
   -2
100
AcDbLine
 10
329.5824314704885
 20
422.0223137407126
 11
329.5824314704885
 21
422.2708225472682
  0
ENDBLK
  5
8C
330
8A
100
AcDbEntity
  8
0
100
AcDbBlockEnd
  0
BLOCK
  5
8E
330
8D
100
AcDbEntity
  8
0
100
AcDbBlockBegin
  2
*D2
 70
    1
 10
0
 20
0
  3
*D2
  1

  0
LINE
  5
14D
100
AcDbEntity
  8
0
  6
ByBlock
 62
    5
370
   -2
100
AcDbLine
 10
320.6904199511826
 20
426.1723137407129
 11
320.6904199511826
 21
423.1623137407126
  0
SOLID
  5
14E
100
AcDbEntity
  8
0
  6
ByBlock
 62
    5
370
   -2
100
AcDbTrace
 10
320.6904199511826
 20
426.1723137407129
 30
0
 11
320.7070713374935
 21
426.0723137407129
 31
0
 12
320.6737685648717
 22
426.0723137407129
 32
0
 13
320.6737685648717
 23
426.0723137407129
 33
0
  0
SOLID
  5
14F
100
AcDbEntity
  8
0
  6
ByBlock
 62
    5
370
   -2
100
AcDbTrace
 10
320.6904199511826
 20
423.1623137407126
 30
0
 11
320.6737685648717
 21
423.2623137407126
 31
0
 12
320.7070713374935
 22
423.2623137407126
 32
0
 13
320.7070713374935
 23
423.2623137407126
 33
0
  0
MTEXT
  5
150
100
AcDbEntity
  8
0
  6
CONTINUOUS
 62
    5
370
   -2
100
AcDbMText
 10
320.3904199511826
 20
424.6673137407128
 30
0
 40
0.2
 41
0.4333333333333458
 71
    5
 72
    1
  1
3,01
  7
standard
210
0
220
0
230
1
 50
90
 73
    2
 44
1
  0
LINE
  5
151
100
AcDbEntity
  8
0
  6
ByBlock
 62
    0
370
   -2
100
AcDbLine
 10
320.2624314704886
 20
426.1723137407129
 11
320.7904199511826
 21
426.1723137407129
  0
LINE
  5
152
100
AcDbEntity
  8
0
  6
ByBlock
 62
    0
370
   -2
100
AcDbLine
 10
320.2624314704886
 20
423.1623137407126
 11
320.7904199511826
 21
423.1623137407126
  0
ENDBLK
  5
8F
330
8D
100
AcDbEntity
  8
0
100
AcDbBlockEnd
  0
BLOCK
  5
91
330
90
100
AcDbEntity
  8
0
100
AcDbBlockBegin
  2
*D14
 70
    1
 10
0
 20
0
  3
*D14
  1

  0
LINE
  5
153
100
AcDbEntity
  8
0
  6
ByBlock
 62
    5
370
   -2
100
AcDbLine
 10
325.2524314704884
 20
419.4393565701138
 11
332.0024314704884
 21
419.4393565701138
  0
SOLID
  5
154
100
AcDbEntity
  8
0
  6
ByBlock
 62
    5
370
   -2
100
AcDbTrace
 10
325.2524314704884
 20
419.4393565701138
 30
0
 11
325.3524314704884
 21
419.4560079564247
 31
0
 12
325.3524314704884
 22
419.4227051838029
 32
0
 13
325.3524314704884
 23
419.4227051838029
 33
0
  0
SOLID
  5
155
100
AcDbEntity
  8
0
  6
ByBlock
 62
    5
370
   -2
100
AcDbTrace
 10
332.0024314704884
 20
419.4393565701138
 30
0
 11
331.9024314704884
 21
419.4227051838029
 31
0
 12
331.9024314704884
 22
419.4560079564247
 32
0
 13
331.9024314704884
 23
419.4560079564247
 33
0
  0
MTEXT
  5
156
100
AcDbEntity
  8
0
  6
CONTINUOUS
 62
    5
370
   -2
100
AcDbMText
 10
328.6274314704884
 20
419.7393565701138
 30
0
 40
0.2
 41
0.4777777777778026
 71
    5
 72
    1
  1
6,75
  7
standard
210
0
220
0
230
1
 50
0
 73
    2
 44
1
  0
LINE
  5
157
100
AcDbEntity
  8
0
  6
ByBlock
 62
    0
370
   -2
100
AcDbLine
 10
325.2524314704884
 20
419.9723137407126
 11
325.2524314704884
 21
419.3393565701138
  0
LINE
  5
158
100
AcDbEntity
  8
0
  6
ByBlock
 62
    0
370
   -2
100
AcDbLine
 10
332.0024314704884
 20
419.9723137407126
 11
332.0024314704884
 21
419.3393565701138
  0
ENDBLK
  5
92
330
90
100
AcDbEntity
  8
0
100
AcDbBlockEnd
  0
BLOCK
  5
94
330
93
100
AcDbEntity
  8
0
100
AcDbBlockBegin
  2
*D30
 70
    1
 10
0
 20
0
  3
*D30
  1

  0
LINE
  5
159
100
AcDbEntity
  8
0
  6
ByBlock
 62
    5
370
   -2
100
AcDbLine
 10
331.7382485598105
 20
420.3723137407126
 11
331.7382485598105
 21
420.9723137407126
  0
SOLID
  5
15A
100
AcDbEntity
  8
0
  6
ByBlock
 62
    5
370
   -2
100
AcDbTrace
 10
331.7382485598105
 20
420.3723137407126
 30
0
 11
331.7215971734996
 21
420.4723137407127
 31
0
 12
331.7548999461214
 22
420.4723137407127
 32
0
 13
331.7548999461214
 23
420.4723137407127
 33
0
  0
SOLID
  5
15B
100
AcDbEntity
  8
0
  6
ByBlock
 62
    5
370
   -2
100
AcDbTrace
 10
331.7382485598105
 20
420.9723137407126
 30
0
 11
331.7548999461214
 21
420.8723137407126
 31
0
 12
331.7215971734996
 22
420.8723137407126
 32
0
 13
331.7215971734996
 23
420.8723137407126
 33
0
  0
MTEXT
  5
15C
100
AcDbEntity
  8
0
  6
CONTINUOUS
 62
    5
370
   -2
100
AcDbMText
 10
331.4382485598105
 20
420.6723137407126
 30
0
 40
0.2
 41
0.3222222222222346
 71
    5
 72
    1
  1
0,6
  7
standard
210
0
220
0
230
1
 50
90
 73
    2
 44
1
  0
LINE
  5
15D
100
AcDbEntity
  8
0
  6
ByBlock
 62
    0
370
   -2
100
AcDbLine
 10
331.8024314704884
 20
420.3723137407126
 11
331.6382485598104
 21
420.3723137407126
  0
LINE
  5
15E
100
AcDbEntity
  8
0
  6
ByBlock
 62
    0
370
   -2
100
AcDbLine
 10
331.8024314704884
 20
420.9723137407126
 11
331.6382485598104
 21
420.9723137407126
  0
ENDBLK
  5
95
330
93
100
AcDbEntity
  8
0
100
AcDbBlockEnd
  0
BLOCK
  5
97
330
96
100
AcDbEntity
  8
0
100
AcDbBlockBegin
  2
*D15
 70
    1
 10
0
 20
0
  3
*D15
  1

  0
LINE
  5
15F
100
AcDbEntity
  8
0
  6
ByBlock
 62
    5
370
   -2
100
AcDbLine
 10
325.2524314704884
 20
418.7692044569396
 11
333.3524314704884
 21
418.7692044569396
  0
SOLID
  5
160
100
AcDbEntity
  8
0
  6
ByBlock
 62
    5
370
   -2
100
AcDbTrace
 10
325.2524314704884
 20
418.7692044569396
 30
0
 11
325.3524314704884
 21
418.7858558432505
 31
0
 12
325.3524314704884
 22
418.7525530706287
 32
0
 13
325.3524314704884
 23
418.7525530706287
 33
0
  0
SOLID
  5
161
100
AcDbEntity
  8
0
  6
ByBlock
 62
    5
370
   -2
100
AcDbTrace
 10
333.3524314704884
 20
418.7692044569396
 30
0
 11
333.2524314704884
 21
418.7525530706287
 31
0
 12
333.2524314704884
 22
418.7858558432505
 32
0
 13
333.2524314704884
 23
418.7858558432505
 33
0
  0
MTEXT
  5
162
100
AcDbEntity
  8
0
  6
CONTINUOUS
 62
    5
370
   -2
100
AcDbMText
 10
329.3024314704884
 20
419.0692044569396
 30
0
 40
0.2
 41
0.2777777777777778
 71
    5
 72
    1
  1
8,1
  7
standard
210
0
220
0
230
1
 50
0
 73
    2
 44
1
  0
LINE
  5
163
100
AcDbEntity
  8
0
  6
ByBlock
 62
    0
370
   -2
100
AcDbLine
 10
325.2524314704884
 20
419.9723137407126
 11
325.2524314704884
 21
418.6692044569396
  0
LINE
  5
164
100
AcDbEntity
  8
0
  6
ByBlock
 62
    0
370
   -2
100
AcDbLine
 10
333.3524314704884
 20
419.9723137407126
 11
333.3524314704884
 21
418.6692044569396
  0
ENDBLK
  5
98
330
96
100
AcDbEntity
  8
0
100
AcDbBlockEnd
  0
BLOCK
  5
9A
330
99
100
AcDbEntity
  8
0
100
AcDbBlockBegin
  2
*D34
 70
    1
 10
0
 20
0
  3
*D34
  1

  0
LINE
  5
165
100
AcDbEntity
  8
0
  6
ByBlock
 62
    5
370
   -2
100
AcDbLine
 10
318.0624314704885
 20
419.4410363849364
 11
322.6424314704885
 21
419.4410363849364
  0
SOLID
  5
166
100
AcDbEntity
  8
0
  6
ByBlock
 62
    5
370
   -2
100
AcDbTrace
 10
318.0624314704885
 20
419.4410363849364
 30
0
 11
318.1624314704885
 21
419.4576877712473
 31
0
 12
318.1624314704885
 22
419.4243849986255
 32
0
 13
318.1624314704885
 23
419.4243849986255
 33
0
  0
SOLID
  5
167
100
AcDbEntity
  8
0
  6
ByBlock
 62
    5
370
   -2
100
AcDbTrace
 10
322.6424314704885
 20
419.4410363849364
 30
0
 11
322.5424314704885
 21
419.4243849986255
 31
0
 12
322.5424314704885
 22
419.4576877712473
 32
0
 13
322.5424314704885
 23
419.4576877712473
 33
0
  0
MTEXT
  5
168
100
AcDbEntity
  8
0
  6
CONTINUOUS
 62
    5
370
   -2
100
AcDbMText
 10
320.3524314704885
 20
419.7410363849364
 30
0
 40
0.2
 41
0.5000000000000125
 71
    5
 72
    1
  1
4,58
  7
standard
210
0
220
0
230
1
 50
0
 73
    2
 44
1
  0
LINE
  5
169
100
AcDbEntity
  8
0
  6
ByBlock
 62
    0
370
   -2
100
AcDbLine
 10
318.0624314704885
 20
419.9723137407126
 11
318.0624314704885
 21
419.3410363849364
  0
LINE
  5
16A
100
AcDbEntity
  8
0
  6
ByBlock
 62
    0
370
   -2
100
AcDbLine
 10
322.6424314704885
 20
419.9723137407126
 11
322.6424314704885
 21
419.3410363849364
  0
ENDBLK
  5
9B
330
99
100
AcDbEntity
  8
0
100
AcDbBlockEnd
  0
BLOCK
  5
9D
330
9C
100
AcDbEntity
  8
0
100
AcDbBlockBegin
  2
*D8
 70
    1
 10
0
 20
0
  3
*D8
  1

  0
LINE
  5
16B
100
AcDbEntity
  8
0
  6
ByBlock
 62
    5
370
   -2
100
AcDbLine
 10
320.0624314704886
 20
426.6090164819343
 11
325.1024314704885
 21
426.6090164819343
  0
SOLID
  5
16C
100
AcDbEntity
  8
0
  6
ByBlock
 62
    5
370
   -2
100
AcDbTrace
 10
320.0624314704886
 20
426.6090164819343
 30
0
 11
320.1624314704886
 21
426.6256678682452
 31
0
 12
320.1624314704886
 22
426.5923650956234
 32
0
 13
320.1624314704886
 23
426.5923650956234
 33
0
  0
SOLID
  5
16D
100
AcDbEntity
  8
0
  6
ByBlock
 62
    5
370
   -2
100
AcDbTrace
 10
325.1024314704885
 20
426.6090164819343
 30
0
 11
325.0024314704885
 21
426.5923650956234
 31
0
 12
325.0024314704885
 22
426.6256678682452
 32
0
 13
325.0024314704885
 23
426.6256678682452
 33
0
  0
MTEXT
  5
16E
100
AcDbEntity
  8
0
  6
CONTINUOUS
 62
    5
370
   -2
100
AcDbMText
 10
322.5824314704886
 20
426.9090164819343
 30
0
 40
0.2
 41
0.5000000000000124
 71
    5
 72
    1
  1
5,04
  7
standard
210
0
220
0
230
1
 50
0
 73
    2
 44
1
  0
LINE
  5
16F
100
AcDbEntity
  8
0
  6
ByBlock
 62
    0
370
   -2
100
AcDbLine
 10
320.0624314704886
 20
426.3723137407129
 11
320.0624314704886
 21
426.7090164819343
  0
LINE
  5
170
100
AcDbEntity
  8
0
  6
ByBlock
 62
    0
370
   -2
100
AcDbLine
 10
325.1024314704885
 20
426.3723137407129
 11
325.1024314704885
 21
426.7090164819343
  0
ENDBLK
  5
9E
330
9C
100
AcDbEntity
  8
0
100
AcDbBlockEnd
  0
BLOCK
  5
A0
330
9F
100
AcDbEntity
  8
0
100
AcDbBlockBegin
  2
*D33
 70
    1
 10
0
 20
0
  3
*D33
  1

  0
LINE
  5
171
100
AcDbEntity
  8
0
  6
ByBlock
 62
    5
370
   -2
100
AcDbLine
 10
325.1024314704885
 20
423.5720994738476
 11
324.0117795851905
 21
423.5720994738476
  0
SOLID
  5
172
100
AcDbEntity
  8
0
  6
ByBlock
 62
    5
370
   -2
100
AcDbTrace
 10
325.1024314704885
 20
423.5720994738476
 30
0
 11
325.0024314704885
 21
423.5554480875367
 31
0
 12
325.0024314704885
 22
423.5887508601585
 32
0
 13
325.0024314704885
 23
423.5887508601585
 33
0
  0
SOLID
  5
173
100
AcDbEntity
  8
0
  6
ByBlock
 62
    5
370
   -2
100
AcDbTrace
 10
324.0117795851905
 20
423.5720994738476
 30
0
 11
324.1117795851905
 21
423.5887508601585
 31
0
 12
324.1117795851905
 22
423.5554480875367
 32
0
 13
324.1117795851905
 23
423.5554480875367
 33
0
  0
MTEXT
  5
174
100
AcDbEntity
  8
0
  6
CONTINUOUS
 62
    5
370
   -2
100
AcDbMText
 10
324.5571055278395
 20
423.8720994738476
 30
0
 40
0.2
 41
0.4333333333333333
 71
    5
 72
    1
  1
1,09
  7
standard
210
0
220
0
230
1
 50
360
 73
    2
 44
1
  0
LINE
  5
175
100
AcDbEntity
  8
0
  6
ByBlock
 62
    0
370
   -2
100
AcDbLine
 10
325.1024314704885
 20
423.605651564793
 11
325.1024314704885
 21
423.6720994738476
  0
LINE
  5
176
100
AcDbEntity
  8
0
  6
ByBlock
 62
    0
370
   -2
100
AcDbLine
 10
324.0117795851905
 20
423.605651564793
 11
324.0117795851905
 21
423.6720994738476
  0
ENDBLK
  5
A1
330
9F
100
AcDbEntity
  8
0
100
AcDbBlockEnd
  0
BLOCK
  5
A3
330
A2
100
AcDbEntity
  8
0
100
AcDbBlockBegin
  2
*D28
 70
    1
 10
0
 20
0
  3
*D28
  1

  0
LINE
  5
177
100
AcDbEntity
  8
0
  6
ByBlock
 62
    5
370
   -2
100
AcDbLine
 10
325.6524314704884
 20
423.6380570518184
 11
326.3524314704883
 21
423.6380570518184
  0
SOLID
  5
178
100
AcDbEntity
  8
0
  6
ByBlock
 62
    5
370
   -2
100
AcDbTrace
 10
325.6524314704884
 20
423.6380570518184
 30
0
 11
325.7524314704884
 21
423.6547084381293
 31
0
 12
325.7524314704884
 22
423.6214056655075
 32
0
 13
325.7524314704884
 23
423.6214056655075
 33
0
  0
SOLID
  5
179
100
AcDbEntity
  8
0
  6
ByBlock
 62
    5
370
   -2
100
AcDbTrace
 10
326.3524314704883
 20
423.6380570518184
 30
0
 11
326.2524314704883
 21
423.6214056655075
 31
0
 12
326.2524314704883
 22
423.6547084381293
 32
0
 13
326.2524314704883
 23
423.6547084381293
 33
0
  0
MTEXT
  5
17A
100
AcDbEntity
  8
0
  6
CONTINUOUS
 62
    5
370
   -2
100
AcDbMText
 10
326.0024314704883
 20
423.9380570518184
 30
0
 40
0.2
 41
0.3222222222222222
 71
    5
 72
    1
  1
0,7
  7
standard
210
0
220
0
230
1
 50
0
 73
    2
 44
1
  0
LINE
  5
17B
100
AcDbEntity
  8
0
  6
ByBlock
 62
    0
370
   -2
100
AcDbLine
 10
325.6524314704884
 20
423.9223137407126
 11
325.6524314704884
 21
423.5380570518184
  0
LINE
  5
17C
100
AcDbEntity
  8
0
  6
ByBlock
 62
    0
370
   -2
100
AcDbLine
 10
326.3524314704883
 20
423.9223137407126
 11
326.3524314704883
 21
423.5380570518184
  0
ENDBLK
  5
A4
330
A2
100
AcDbEntity
  8
0
100
AcDbBlockEnd
  0
BLOCK
  5
A6
330
A5
100
AcDbEntity
  8
0
100
AcDbBlockBegin
  2
*D25
 70
    1
 10
0
 20
0
  3
*D25
  1

  0
LINE
  5
17D
100
AcDbEntity
  8
0
  6
ByBlock
 62
    5
370
   -2
100
AcDbLine
 10
329.385280390786
 20
425.2723137407129
 11
329.385280390786
 21
426.0723137407129
  0
SOLID
  5
17E
100
AcDbEntity
  8
0
  6
ByBlock
 62
    5
370
   -2
100
AcDbTrace
 10
329.385280390786
 20
425.2723137407129
 30
0
 11
329.3686290044751
 21
425.3723137407129
 31
0
 12
329.4019317770969
 22
425.3723137407129
 32
0
 13
329.4019317770969
 23
425.3723137407129
 33
0
  0
SOLID
  5
17F
100
AcDbEntity
  8
0
  6
ByBlock
 62
    5
370
   -2
100
AcDbTrace
 10
329.385280390786
 20
426.0723137407129
 30
0
 11
329.4019317770969
 21
425.9723137407129
 31
0
 12
329.3686290044751
 22
425.9723137407129
 32
0
 13
329.3686290044751
 23
425.9723137407129
 33
0
  0
MTEXT
  5
180
100
AcDbEntity
  8
0
  6
CONTINUOUS
 62
    5
370
   -2
100
AcDbMText
 10
329.085280390786
 20
425.6723137407129
 30
0
 40
0.2
 41
0.3222222222222222
 71
    5
 72
    1
  1
0,8
  7
standard
210
0
220
0
230
1
 50
90
 73
    2
 44
1
  0
LINE
  5
181
100
AcDbEntity
  8
0
  6
ByBlock
 62
    0
370
   -2
100
AcDbLine
 10
329.3824314704885
 20
425.2723137407129
 11
329.285280390786
 21
425.2723137407129
  0
LINE
  5
182
100
AcDbEntity
  8
0
  6
ByBlock
 62
    0
370
   -2
100
AcDbLine
 10
329.3824314704885
 20
426.0723137407129
 11
329.285280390786
 21
426.0723137407129
  0
ENDBLK
  5
A7
330
A5
100
AcDbEntity
  8
0
100
AcDbBlockEnd
  0
BLOCK
  5
A9
330
A8
100
AcDbEntity
  8
0
100
AcDbBlockBegin
  2
*D26
 70
    1
 10
0
 20
0
  3
*D26
  1

  0
LINE
  5
183
100
AcDbEntity
  8
0
  6
ByBlock
 62
    5
370
   -2
100
AcDbLine
 10
326.4524314704884
 20
425.4257239152403
 11
329.5824314704885
 21
425.4257239152403
  0
SOLID
  5
184
100
AcDbEntity
  8
0
  6
ByBlock
 62
    5
370
   -2
100
AcDbTrace
 10
326.4524314704884
 20
425.4257239152403
 30
0
 11
326.5524314704884
 21
425.4423753015512
 31
0
 12
326.5524314704884
 22
425.4090725289294
 32
0
 13
326.5524314704884
 23
425.4090725289294
 33
0
  0
SOLID
  5
185
100
AcDbEntity
  8
0
  6
ByBlock
 62
    5
370
   -2
100
AcDbTrace
 10
329.5824314704885
 20
425.4257239152403
 30
0
 11
329.4824314704885
 21
425.4090725289294
 31
0
 12
329.4824314704885
 22
425.4423753015512
 32
0
 13
329.4824314704885
 23
425.4423753015512
 33
0
  0
MTEXT
  5
186
100
AcDbEntity
  8
0
  6
CONTINUOUS
 62
    5
370
   -2
100
AcDbMText
 10
328.0174314704884
 20
425.7257239152403
 30
0
 40
0.2
 41
0.4333333333333582
 71
    5
 72
    1
  1
3,13
  7
standard
210
0
220
0
230
1
 50
0
 73
    2
 44
1
  0
LINE
  5
187
100
AcDbEntity
  8
0
  6
ByBlock
 62
    0
370
   -2
100
AcDbLine
 10
326.4524314704884
 20
425.3723137407129
 11
326.4524314704884
 21
425.5257239152403
  0
LINE
  5
188
100
AcDbEntity
  8
0
  6
ByBlock
 62
    0
370
   -2
100
AcDbLine
 10
329.5824314704885
 20
425.3723137407129
 11
329.5824314704885
 21
425.5257239152403
  0
ENDBLK
  5
AA
330
A8
100
AcDbEntity
  8
0
100
AcDbBlockEnd
  0
BLOCK
  5
AC
330
AB
100
AcDbEntity
  8
0
100
AcDbBlockBegin
  2
*D6
 70
    1
 10
0
 20
0
  3
*D6
  1

  0
LINE
  5
189
100
AcDbEntity
  8
0
  6
ByBlock
 62
    5
370
   -2
100
AcDbLine
 10
322.7924314704885
 20
419.4524048441677
 11
325.1024314704885
 21
419.4524048441677
  0
SOLID
  5
18A
100
AcDbEntity
  8
0
  6
ByBlock
 62
    5
370
   -2
100
AcDbTrace
 10
322.7924314704885
 20
419.4524048441677
 30
0
 11
322.8924314704885
 21
419.4690562304786
 31
0
 12
322.8924314704885
 22
419.4357534578568
 32
0
 13
322.8924314704885
 23
419.4357534578568
 33
0
  0
SOLID
  5
18B
100
AcDbEntity
  8
0
  6
ByBlock
 62
    5
370
   -2
100
AcDbTrace
 10
325.1024314704885
 20
419.4524048441677
 30
0
 11
325.0024314704885
 21
419.4357534578568
 31
0
 12
325.0024314704885
 22
419.4690562304786
 32
0
 13
325.0024314704885
 23
419.4690562304786
 33
0
  0
MTEXT
  5
18C
100
AcDbEntity
  8
0
  6
CONTINUOUS
 62
    5
370
   -2
100
AcDbMText
 10
323.9474314704885
 20
419.7524048441677
 30
0
 40
0.2
 41
0.4333333333333458
 71
    5
 72
    1
  1
2,31
  7
standard
210
0
220
0
230
1
 50
0
 73
    2
 44
1
  0
LINE
  5
18D
100
AcDbEntity
  8
0
  6
ByBlock
 62
    0
370
   -2
100
AcDbLine
 10
322.7924314704885
 20
419.9723137407126
 11
322.7924314704885
 21
419.3524048441677
  0
LINE
  5
18E
100
AcDbEntity
  8
0
  6
ByBlock
 62
    0
370
   -2
100
AcDbLine
 10
325.1024314704885
 20
419.9723137407126
 11
325.1024314704885
 21
419.3524048441677
  0
ENDBLK
  5
AD
330
AB
100
AcDbEntity
  8
0
100
AcDbBlockEnd
  0
BLOCK
  5
AF
330
AE
100
AcDbEntity
  8
0
100
AcDbBlockBegin
  2
*D35
 70
    1
 10
0
 20
0
  3
*D35
  1

  0
LINE
  5
18F
100
AcDbEntity
  8
0
  6
ByBlock
 62
    5
370
   -2
100
AcDbLine
 10
318.0624314704885
 20
426.6113283847354
 11
319.9124314704886
 21
426.6113283847354
  0
SOLID
  5
190
100
AcDbEntity
  8
0
  6
ByBlock
 62
    5
370
   -2
100
AcDbTrace
 10
318.0624314704885
 20
426.6113283847354
 30
0
 11
318.1624314704885
 21
426.6279797710463
 31
0
 12
318.1624314704885
 22
426.5946769984245
 32
0
 13
318.1624314704885
 23
426.5946769984245
 33
0
  0
SOLID
  5
191
100
AcDbEntity
  8
0
  6
ByBlock
 62
    5
370
   -2
100
AcDbTrace
 10
319.9124314704886
 20
426.6113283847354
 30
0
 11
319.8124314704886
 21
426.5946769984245
 31
0
 12
319.8124314704886
 22
426.6279797710463
 32
0
 13
319.8124314704886
 23
426.6279797710463
 33
0
  0
MTEXT
  5
192
100
AcDbEntity
  8
0
  6
CONTINUOUS
 62
    5
370
   -2
100
AcDbMText
 10
318.9874314704886
 20
426.9113283847354
 30
0
 40
0.2
 41
0.4333333333333458
 71
    5
 72
    1
  1
1,85
  7
standard
210
0
220
0
230
1
 50
0
 73
    2
 44
1
  0
LINE
  5
193
100
AcDbEntity
  8
0
  6
ByBlock
 62
    0
370
   -2
100
AcDbLine
 10
318.0624314704885
 20
426.3723137407129
 11
318.0624314704885
 21
426.7113283847354
  0
LINE
  5
194
100
AcDbEntity
  8
0
  6
ByBlock
 62
    0
370
   -2
100
AcDbLine
 10
319.9124314704886
 20
426.3723137407129
 11
319.9124314704886
 21
426.7113283847354
  0
ENDBLK
  5
B0
330
AE
100
AcDbEntity
  8
0
100
AcDbBlockEnd
  0
BLOCK
  5
B2
330
B1
100
AcDbEntity
  8
0
100
AcDbBlockBegin
  2
*D43
 70
    1
 10
0
 20
0
  3
*D43
  1

  0
LINE
  5
195
100
AcDbEntity
  8
0
  6
ByBlock
 62
    5
370
   -2
100
AcDbLine
 10
321.4774007196565
 20
403.7957009756847
 11
321.4774007196565
 21
400.9557009756846
  0
SOLID
  5
196
100
AcDbEntity
  8
0
  6
ByBlock
 62
    5
370
   -2
100
AcDbTrace
 10
321.4774007196565
 20
403.7957009756847
 30
0
 11
321.4940521059674
 21
403.6957009756847
 31
0
 12
321.4607493333456
 22
403.6957009756847
 32
0
 13
321.4607493333456
 23
403.6957009756847
 33
0
  0
SOLID
  5
197
100
AcDbEntity
  8
0
  6
ByBlock
 62
    5
370
   -2
100
AcDbTrace
 10
321.4774007196565
 20
400.9557009756846
 30
0
 11
321.4607493333456
 21
401.0557009756846
 31
0
 12
321.4940521059674
 22
401.0557009756846
 32
0
 13
321.4940521059674
 23
401.0557009756846
 33
0
  0
MTEXT
  5
198
100
AcDbEntity
  8
0
  6
CONTINUOUS
 62
    5
370
   -2
100
AcDbMText
 10
321.1774007196565
 20
402.3757009756847
 30
0
 40
0.2
 41
0.5
 71
    5
 72
    1
  1
2,84
  7
standard
210
0
220
0
230
1
 50
90
 73
    2
 44
1
  0
LINE
  5
199
100
AcDbEntity
  8
0
  6
ByBlock
 62
    0
370
   -2
100
AcDbLine
 10
322.7154142439953
 20
403.7957009756847
 11
321.3774007196565
 21
403.7957009756847
  0
LINE
  5
19A
100
AcDbEntity
  8
0
  6
ByBlock
 62
    0
370
   -2
100
AcDbLine
 10
322.7154142439953
 20
400.9557009756846
 11
321.3774007196565
 21
400.9557009756846
  0
ENDBLK
  5
B3
330
B1
100
AcDbEntity
  8
0
100
AcDbBlockEnd
  0
BLOCK
  5
B5
330
B4
100
AcDbEntity
  8
0
100
AcDbBlockBegin
  2
*D10
 70
    1
 10
0
 20
0
  3
*D10
  1

  0
LINE
  5
19B
100
AcDbEntity
  8
0
  6
ByBlock
 62
    5
370
   -2
100
AcDbLine
 10
319.2082507309192
 20
423.0123137407126
 11
319.2082507309192
 21
426.1723137407129
  0
SOLID
  5
19C
100
AcDbEntity
  8
0
  6
ByBlock
 62
    5
370
   -2
100
AcDbTrace
 10
319.2082507309192
 20
423.0123137407126
 30
0
 11
319.1915993446083
 21
423.1123137407126
 31
0
 12
319.2249021172301
 22
423.1123137407126
 32
0
 13
319.2249021172301
 23
423.1123137407126
 33
0
  0
SOLID
  5
19D
100
AcDbEntity
  8
0
  6
ByBlock
 62
    5
370
   -2
100
AcDbTrace
 10
319.2082507309192
 20
426.1723137407129
 30
0
 11
319.2249021172301
 21
426.0723137407129
 31
0
 12
319.1915993446083
 22
426.0723137407129
 32
0
 13
319.1915993446083
 23
426.0723137407129
 33
0
  0
MTEXT
  5
19E
100
AcDbEntity
  8
0
  6
CONTINUOUS
 62
    5
370
   -2
100
AcDbMText
 10
318.9082507309192
 20
424.5923137407127
 30
0
 40
0.2
 41
0.4333333333333582
 71
    5
 72
    1
  1
3,16
  7
standard
210
0
220
0
230
1
 50
90
 73
    2
 44
1
  0
LINE
  5
19F
100
AcDbEntity
  8
0
  6
ByBlock
 62
    0
370
   -2
100
AcDbLine
 10
319.7124314704886
 20
423.0123137407126
 11
319.1082507309192
 21
423.0123137407126
  0
LINE
  5
1A0
100
AcDbEntity
  8
0
  6
ByBlock
 62
    0
370
   -2
100
AcDbLine
 10
319.7124314704886
 20
426.1723137407129
 11
319.1082507309192
 21
426.1723137407129
  0
ENDBLK
  5
B6
330
B4
100
AcDbEntity
  8
0
100
AcDbBlockEnd
  0
BLOCK
  5
B8
330
B7
100
AcDbEntity
  8
0
100
AcDbBlockBegin
  2
*D19
 70
    1
 10
0
 20
0
  3
*D19
  1

  0
LINE
  5
1A1
100
AcDbEntity
  8
0
  6
ByBlock
 62
    5
370
   -2
100
AcDbLine
 10
326.1659659867888
 20
424.1223137407126
 11
326.1659659867888
 21
421.8223137407126
  0
SOLID
  5
1A2
100
AcDbEntity
  8
0
  6
ByBlock
 62
    5
370
   -2
100
AcDbTrace
 10
326.1659659867888
 20
424.1223137407126
 30
0
 11
326.1826173730997
 21
424.0223137407126
 31
0
 12
326.1493146004779
 22
424.0223137407126
 32
0
 13
326.1493146004779
 23
424.0223137407126
 33
0
  0
SOLID
  5
1A3
100
AcDbEntity
  8
0
  6
ByBlock
 62
    5
370
   -2
100
AcDbTrace
 10
326.1659659867888
 20
421.8223137407126
 30
0
 11
326.1493146004779
 21
421.9223137407126
 31
0
 12
326.1826173730997
 22
421.9223137407126
 32
0
 13
326.1826173730997
 23
421.9223137407126
 33
0
  0
MTEXT
  5
1A4
100
AcDbEntity
  8
0
  6
CONTINUOUS
 62
    5
370
   -2
100
AcDbMText
 10
325.8659659867888
 20
422.9723137407126
 30
0
 40
0.2
 41
0.3222222222222346
 71
    5
 72
    1
  1
2,3
  7
standard
210
0
220
0
230
1
 50
90
 73
    2
 44
1
  0
LINE
  5
1A5
100
AcDbEntity
  8
0
  6
ByBlock
 62
    0
370
   -2
100
AcDbLine
 10
326.2524314704884
 20
424.1223137407126
 11
326.0659659867888
 21
424.1223137407126
  0
LINE
  5
1A6
100
AcDbEntity
  8
0
  6
ByBlock
 62
    0
370
   -2
100
AcDbLine
 10
326.2524314704884
 20
421.8223137407126
 11
326.0659659867888
 21
421.8223137407126
  0
ENDBLK
  5
B9
330
B7
100
AcDbEntity
  8
0
100
AcDbBlockEnd
  0
BLOCK
  5
BB
330
BA
100
AcDbEntity
  8
0
100
AcDbBlockBegin
  2
*D22
 70
    1
 10
0
 20
0
  3
*D22
  1

  0
LINE
  5
1A7
100
AcDbEntity
  8
0
  6
ByBlock
 62
    5
370
   -2
100
AcDbLine
 10
327.1498661484096
 20
425.0223137407129
 11
327.1498661484096
 21
424.2723137407125
  0
SOLID
  5
1A8
100
AcDbEntity
  8
0
  6
ByBlock
 62
    5
370
   -2
100
AcDbTrace
 10
327.1498661484096
 20
425.0223137407129
 30
0
 11
327.1665175347205
 21
424.9223137407129
 31
0
 12
327.1332147620987
 22
424.9223137407129
 32
0
 13
327.1332147620987
 23
424.9223137407129
 33
0
  0
SOLID
  5
1A9
100
AcDbEntity
  8
0
  6
ByBlock
 62
    5
370
   -2
100
AcDbTrace
 10
327.1498661484096
 20
424.2723137407125
 30
0
 11
327.1332147620987
 21
424.3723137407125
 31
0
 12
327.1665175347205
 22
424.3723137407125
 32
0
 13
327.1665175347205
 23
424.3723137407125
 33
0
  0
MTEXT
  5
1AA
100
AcDbEntity
  8
0
  6
CONTINUOUS
 62
    5
370
   -2
100
AcDbMText
 10
326.8498661484095
 20
424.6473137407127
 30
0
 40
0.2
 41
0.4777777777777902
 71
    5
 72
    1
  1
0,75
  7
standard
210
0
220
0
230
1
 50
90
 73
    2
 44
1
  0
LINE
  5
1AB
100
AcDbEntity
  8
0
  6
ByBlock
 62
    0
370
   -2
100
AcDbLine
 10
326.8024314704883
 20
425.0223137407129
 11
327.2498661484096
 21
425.0223137407129
  0
LINE
  5
1AC
100
AcDbEntity
  8
0
  6
ByBlock
 62
    0
370
   -2
100
AcDbLine
 10
326.8024314704883
 20
424.2723137407125
 11
327.2498661484096
 21
424.2723137407125
  0
ENDBLK
  5
BC
330
BA
100
AcDbEntity
  8
0
100
AcDbBlockEnd
  0
BLOCK
  5
BE
330
BD
100
AcDbEntity
  8
0
100
AcDbBlockBegin
  2
*D31
 70
    1
 10
0
 20
0
  3
*D31
  1

  0
LINE
  5
1AD
100
AcDbEntity
  8
0
  6
ByBlock
 62
    5
370
   -2
100
AcDbLine
 10
320.0631884815245
 20
423.2593354191544
 11
322.7941161781984
 21
423.2593354191544
  0
SOLID
  5
1AE
100
AcDbEntity
  8
0
  6
ByBlock
 62
    5
370
   -2
100
AcDbTrace
 10
320.0631884815245
 20
423.2593354191544
 30
0
 11
320.1631884815245
 21
423.2759868054653
 31
0
 12
320.1631884815245
 22
423.2426840328435
 32
0
 13
320.1631884815245
 23
423.2426840328435
 33
0
  0
SOLID
  5
1AF
100
AcDbEntity
  8
0
  6
ByBlock
 62
    5
370
   -2
100
AcDbTrace
 10
322.7941161781984
 20
423.2593354191544
 30
0
 11
322.6941161781984
 21
423.2426840328435
 31
0
 12
322.6941161781984
 22
423.2759868054653
 32
0
 13
322.6941161781984
 23
423.2759868054653
 33
0
  0
MTEXT
  5
1B0
100
AcDbEntity
  8
0
  6
CONTINUOUS
 62
    5
370
   -2
100
AcDbMText
 10
321.4286523298615
 20
423.5593354191544
 30
0
 40
0.2
 41
0.4777777777777902
 71
    5
 72
    1
  1
2,73
  7
standard
210
0
220
0
230
1
 50
0
 73
    2
 44
1
  0
LINE
  5
1B1
100
AcDbEntity
  8
0
  6
ByBlock
 62
    0
370
   -2
100
AcDbLine
 10
320.0631884815245
 20
423.3649224679904
 11
320.0631884815245
 21
423.3593354191544
  0
LINE
  5
1B2
100
AcDbEntity
  8
0
  6
ByBlock
 62
    0
370
   -2
100
AcDbLine
 10
322.7941161781984
 20
423.0814252299512
 11
322.7941161781984
 21
423.3593354191544
  0
ENDBLK
  5
BF
330
BD
100
AcDbEntity
  8
0
100
AcDbBlockEnd
  0
BLOCK
  5
C1
330
C0
100
AcDbEntity
  8
0
100
AcDbBlockBegin
  2
*D27
 70
    1
 10
0
 20
0
  3
*D27
  1

  0
LINE
  5
1B3
100
AcDbEntity
  8
0
  6
ByBlock
 62
    5
370
   -2
100
AcDbLine
 10
325.6524314704884
 20
423.6619464159378
 11
325.2524314704884
 21
423.6619464159378
  0
SOLID
  5
1B4
100
AcDbEntity
  8
0
  6
ByBlock
 62
    5
370
   -2
100
AcDbTrace
 10
325.6524314704884
 20
423.6619464159378
 30
0
 11
325.5524314704884
 21
423.6452950296269
 31
0
 12
325.5524314704884
 22
423.6785978022487
 32
0
 13
325.5524314704884
 23
423.6785978022487
 33
0
  0
SOLID
  5
1B5
100
AcDbEntity
  8
0
  6
ByBlock
 62
    5
370
   -2
100
AcDbTrace
 10
325.2524314704884
 20
423.6619464159378
 30
0
 11
325.3524314704884
 21
423.6785978022487
 31
0
 12
325.3524314704884
 22
423.6452950296269
 32
0
 13
325.3524314704884
 23
423.6452950296269
 33
0
  0
MTEXT
  5
1B6
100
AcDbEntity
  8
0
  6
CONTINUOUS
 62
    5
370
   -2
100
AcDbMText
 10
325.4524314704884
 20
423.9619464159378
 30
0
 40
0.2
 41
0.3444444444444444
 71
    5
 72
    1
  1
0,4
  7
standard
210
0
220
0
230
1
 50
360
 73
    2
 44
1
  0
LINE
  5
1B7
100
AcDbEntity
  8
0
  6
ByBlock
 62
    0
370
   -2
100
AcDbLine
 10
325.6524314704884
 20
423.9223137407126
 11
325.6524314704884
 21
423.5619464159378
  0
LINE
  5
1B8
100
AcDbEntity
  8
0
  6
ByBlock
 62
    0
370
   -2
100
AcDbLine
 10
325.2524314704884
 20
423.9223137407126
 11
325.2524314704884
 21
423.5619464159378
  0
ENDBLK
  5
C2
330
C0
100
AcDbEntity
  8
0
100
AcDbBlockEnd
  0
BLOCK
  5
C4
330
C3
100
AcDbEntity
  8
0
100
AcDbBlockBegin
  2
*D39
 70
    1
 10
0
 20
0
  3
*D39
  1

  0
LINE
  5
1B9
100
AcDbEntity
  8
0
  6
ByBlock
 62
    5
370
   -2
100
AcDbLine
 10
334.1864627484958
 20
422.6723137407126
 11
334.1864627484958
 21
420.1723137407126
  0
SOLID
  5
1BA
100
AcDbEntity
  8
0
  6
ByBlock
 62
    5
370
   -2
100
AcDbTrace
 10
334.1864627484958
 20
422.6723137407126
 30
0
 11
334.2031141348067
 21
422.5723137407126
 31
0
 12
334.1698113621849
 22
422.5723137407126
 32
0
 13
334.1698113621849
 23
422.5723137407126
 33
0
  0
SOLID
  5
1BB
100
AcDbEntity
  8
0
  6
ByBlock
 62
    5
370
   -2
100
AcDbTrace
 10
334.1864627484958
 20
420.1723137407126
 30
0
 11
334.1698113621849
 21
420.2723137407126
 31
0
 12
334.2031141348067
 22
420.2723137407126
 32
0
 13
334.2031141348067
 23
420.2723137407126
 33
0
  0
MTEXT
  5
1BC
100
AcDbEntity
  8
0
  6
CONTINUOUS
 62
    5
370
   -2
100
AcDbMText
 10
333.8864627484958
 20
421.4223137407126
 30
0
 40
0.2
 41
0.3222222222222346
 71
    5
 72
    1
  1
2,5
  7
standard
210
0
220
0
230
1
 50
90
 73
    2
 44
1
  0
LINE
  5
1BD
100
AcDbEntity
  8
0
  6
ByBlock
 62
    0
370
   -2
100
AcDbLine
 10
333.7024314704884
 20
422.6723137407126
 11
334.2864627484958
 21
422.6723137407126
  0
LINE
  5
1BE
100
AcDbEntity
  8
0
  6
ByBlock
 62
    0
370
   -2
100
AcDbLine
 10
333.7024314704884
 20
420.1723137407126
 11
334.2864627484958
 21
420.1723137407126
  0
ENDBLK
  5
C5
330
C3
100
AcDbEntity
  8
0
100
AcDbBlockEnd
  0
BLOCK
  5
C7
330
C6
100
AcDbEntity
  8
0
100
AcDbBlockBegin
  2
*D17
 70
    1
 10
0
 20
0
  3
*D17
  1

  0
LINE
  5
1BF
100
AcDbEntity
  8
0
  6
ByBlock
 62
    5
370
   -2
100
AcDbLine
 10
329.7324314704885
 20
426.6015475342708
 11
333.3524314704884
 21
426.6015475342708
  0
SOLID
  5
1C0
100
AcDbEntity
  8
0
  6
ByBlock
 62
    5
370
   -2
100
AcDbTrace
 10
329.7324314704885
 20
426.6015475342708
 30
0
 11
329.8324314704885
 21
426.6181989205817
 31
0
 12
329.8324314704885
 22
426.5848961479599
 32
0
 13
329.8324314704885
 23
426.5848961479599
 33
0
  0
SOLID
  5
1C1
100
AcDbEntity
  8
0
  6
ByBlock
 62
    5
370
   -2
100
AcDbTrace
 10
333.3524314704884
 20
426.6015475342708
 30
0
 11
333.2524314704884
 21
426.5848961479599
 31
0
 12
333.2524314704884
 22
426.6181989205817
 32
0
 13
333.2524314704884
 23
426.6181989205817
 33
0
  0
MTEXT
  5
1C2
100
AcDbEntity
  8
0
  6
CONTINUOUS
 62
    5
370
   -2
100
AcDbMText
 10
331.5424314704885
 20
426.9015475342708
 30
0
 40
0.2
 41
0.4777777777778026
 71
    5
 72
    1
  1
3,62
  7
standard
210
0
220
0
230
1
 50
0
 73
    2
 44
1
  0
LINE
  5
1C3
100
AcDbEntity
  8
0
  6
ByBlock
 62
    0
370
   -2
100
AcDbLine
 10
329.7324314704885
 20
426.3723137407129
 11
329.7324314704885
 21
426.7015475342708
  0
LINE
  5
1C4
100
AcDbEntity
  8
0
  6
ByBlock
 62
    0
370
   -2
100
AcDbLine
 10
333.3524314704884
 20
426.3723137407129
 11
333.3524314704884
 21
426.7015475342708
  0
ENDBLK
  5
C8
330
C6
100
AcDbEntity
  8
0
100
AcDbBlockEnd
  0
BLOCK
  5
CA
330
C9
100
AcDbEntity
  8
0
100
AcDbBlockBegin
  2
*D13
 70
    1
 10
0
 20
0
  3
*D13
  1

  0
LINE
  5
1C5
100
AcDbEntity
  8
0
  6
ByBlock
 62
    5
370
   -2
100
AcDbLine
 10
326.1491246644615
 20
421.6723137407126
 11
326.1491246644615
 21
420.1723137407126
  0
SOLID
  5
1C6
100
AcDbEntity
  8
0
  6
ByBlock
 62
    5
370
   -2
100
AcDbTrace
 10
326.1491246644615
 20
421.6723137407126
 30
0
 11
326.1657760507724
 21
421.5723137407126
 31
0
 12
326.1324732781506
 22
421.5723137407126
 32
0
 13
326.1324732781506
 23
421.5723137407126
 33
0
  0
SOLID
  5
1C7
100
AcDbEntity
  8
0
  6
ByBlock
 62
    5
370
   -2
100
AcDbTrace
 10
326.1491246644615
 20
420.1723137407126
 30
0
 11
326.1324732781506
 21
420.2723137407126
 31
0
 12
326.1657760507724
 22
420.2723137407126
 32
0
 13
326.1657760507724
 23
420.2723137407126
 33
0
  0
MTEXT
  5
1C8
100
AcDbEntity
  8
0
  6
CONTINUOUS
 62
    5
370
   -2
100
AcDbMText
 10
325.8491246644614
 20
420.9223137407126
 30
0
 40
0.2
 41
0.2777777777777902
 71
    5
 72
    1
  1
1,5
  7
standard
210
0
220
0
230
1
 50
90
 73
    2
 44
1
  0
LINE
  5
1C9
100
AcDbEntity
  8
0
  6
ByBlock
 62
    0
370
   -2
100
AcDbLine
 10
325.4524314704884
 20
421.6723137407126
 11
326.2491246644615
 21
421.6723137407126
  0
LINE
  5
1CA
100
AcDbEntity
  8
0
  6
ByBlock
 62
    0
370
   -2
100
AcDbLine
 10
325.4524314704884
 20
420.1723137407126
 11
326.2491246644615
 21
420.1723137407126
  0
ENDBLK
  5
CB
330
C9
100
AcDbEntity
  8
0
100
AcDbBlockEnd
  0
BLOCK
  5
CD
330
CC
100
AcDbEntity
  8
0
100
AcDbBlockBegin
  2
*D23
 70
    1
 10
0
 20
0
  3
*D23
  1

  0
LINE
  5
1CB
100
AcDbEntity
  8
0
  6
ByBlock
 62
    5
370
   -2
100
AcDbLine
 10
329.2654248499317
 20
421.8223137407126
 11
329.2654248499317
 21
425.0223137407128
  0
SOLID
  5
1CC
100
AcDbEntity
  8
0
  6
ByBlock
 62
    5
370
   -2
100
AcDbTrace
 10
329.2654248499317
 20
421.8223137407126
 30
0
 11
329.2487734636208
 21
421.9223137407126
 31
0
 12
329.2820762362426
 22
421.9223137407126
 32
0
 13
329.2820762362426
 23
421.9223137407126
 33
0
  0
SOLID
  5
1CD
100
AcDbEntity
  8
0
  6
ByBlock
 62
    5
370
   -2
100
AcDbTrace
 10
329.2654248499317
 20
425.0223137407128
 30
0
 11
329.2820762362426
 21
424.9223137407128
 31
0
 12
329.2487734636208
 22
424.9223137407128
 32
0
 13
329.2487734636208
 23
424.9223137407128
 33
0
  0
MTEXT
  5
1CE
100
AcDbEntity
  8
0
  6
CONTINUOUS
 62
    5
370
   -2
100
AcDbMText
 10
328.9654248499317
 20
423.4223137407126
 30
0
 40
0.2
 41
0.3222222222222346
 71
    5
 72
    1
  1
3,2
  7
standard
210
0
220
0
230
1
 50
90
 73
    2
 44
1
  0
LINE
  5
1CF
100
AcDbEntity
  8
0
  6
ByBlock
 62
    0
370
   -2
100
AcDbLine
 10
329.3824314704885
 20
421.8223137407126
 11
329.1654248499317
 21
421.8223137407126
  0
LINE
  5
1D0
100
AcDbEntity
  8
0
  6
ByBlock
 62
    0
370
   -2
100
AcDbLine
 10
329.3824314704885
 20
425.0223137407128
 11
329.1654248499317
 21
425.0223137407128
  0
ENDBLK
  5
CE
330
CC
100
AcDbEntity
  8
0
100
AcDbBlockEnd
  0
ENDSEC
  0
SECTION
  2
ENTITIES
  0
MTEXT
  5
1D1
100
AcDbEntity
  8
0
  6
ByLayer
 62
  256
370
   -1
100
AcDbMText
 10
319.9995575619546
 20
421.6232808992044
 30
0
 40
0.2
 41
1.066666666666716
 71
    4
 72
    1
  1
Garagem
  7
standard
210
0
220
0
230
1
 50
0
 73
    2
 44
0.1
  0
LINE
  5
1D2
100
AcDbEntity
  8
0
  6
ByLayer
 62
  256
370
   -1
100
AcDbLine
 10
333.5024314704884
 20
420.0223137407127
 11
333.5024314704884
 21
426.3223137407127
  0
LINE
  5
1D3
100
AcDbEntity
  8
0
  6
ByLayer
 62
  256
370
   -1
100
AcDbLine
 10
325.1024314704885
 20
420.1723137407126
 11
322.7924314704885
 21
420.1723137407126
  0
DIMENSION
  5
1D4
100
AcDbEntity
  8
0
  6
ByLayer
 62
  256
370
   -1
100
AcDbDimension
  2
*D1
 10
321.8227954975442
 20
423.0123137407126
 30
0
 11
321.5227954975442
 21
421.5923137407126
 31
0
 70
   32
 71
    5
 72
    0
  3
Standard
 53
0
210
0
220
0
230
1
100
AcDbAlignedDimension
 13
322.6424314704885
 23
420.1723137407126
 33
0
 14
322.6424314704885
 24
423.0123137407126
 34
0
 50
90
100
AcDbRotatedDimension
  0
LINE
  5
1D5
100
AcDbEntity
  8
0
  6
ByLayer
 62
  256
370
   -1
100
AcDbLine
 10
322.7924314704885
 20
421.5923137407126
 11
322.6424314704885
 21
421.5923137407126
  0
LINE
  5
1D6
100
AcDbEntity
  8
0
  6
ByLayer
 62
  256
370
   -1
100
AcDbLine
 10
322.7924314704885
 20
422.1923137407126
 11
322.6424314704885
 21
422.1923137407126
  0
LINE
  5
1D7
100
AcDbEntity
  8
0
  6
ByLayer
 62
  256
370
   -1
100
AcDbLine
 10
322.7924314704885
 20
420.9923137407126
 11
322.6424314704885
 21
420.9923137407126
  0
LINE
  5
1D8
100
AcDbEntity
  8
0
  6
ByLayer
 62
  256
370
   -1
100
AcDbLine
 10
322.7174314704885
 20
420.9923137407126
 11
322.7174314704885
 21
422.1923137407126
  0
LINE
  5
1D9
100
AcDbEntity
  8
0
  6
ByLayer
 62
  256
370
   -1
100
AcDbLine
 10
322.6424314704885
 20
420.1723137407126
 11
322.6424314704885
 21
423.0123137407126
  0
DIMENSION
  5
1DA
100
AcDbEntity
  8
0
  6
ByLayer
 62
  256
370
   -1
100
AcDbDimension
  2
*D2
 10
320.6904199511826
 20
423.1623137407126
 30
0
 11
320.3904199511826
 21
424.6673137407128
 31
0
 70
   32
 71
    5
 72
    0
  3
Standard
 53
0
210
0
220
0
230
1
100
AcDbAlignedDimension
 13
320.0624314704886
 23
426.1723137407129
 33
0
 14
320.0624314704886
 24
423.1623137407126
 34
0
 50
90
100
AcDbRotatedDimension
  0
LINE
  5
1DB
100
AcDbEntity
  8
0
  6
ByLayer
 62
  256
370
   -1
100
AcDbLine
 10
319.9124314704886
 20
425.4223137407129
 11
320.0624314704886
 21
425.4223137407129
  0
LINE
  5
1DC
100
AcDbEntity
  8
0
  6
ByLayer
 62
  256
370
   -1
100
AcDbLine
 10
319.9124314704886
 20
423.9223137407129
 11
320.0624314704886
 21
423.9223137407129
  0
LINE
  5
1DD
100
AcDbEntity
  8
0
  6
ByLayer
 62
  256
370
   -1
100
AcDbLine
 10
319.9874314704886
 20
423.9223137407129
 11
319.9874314704886
 21
425.4223137407129
  0
LINE
  5
1DE
100
AcDbEntity
  8
0
  6
ByLayer
 62
  256
370
   -1
100
AcDbLine
 10
322.6424314704885
 20
423.0123137407126
 11
319.9124314704886
 21
423.0123137407126
  0
DIMENSION
  5
1DF
100
AcDbEntity
  8
0
  6
ByLayer
 62
  256
370
   -1
100
AcDbDimension
  2
*D3
 10
324.8352054825318
 20
426.175637380807
 30
0
 11
324.5352054825318
 21
425.67397556076
 31
0
 70
   32
 71
    5
 72
    0
  3
Standard
 53
0
210
0
220
0
230
1
100
AcDbAlignedDimension
 13
325.1024314704885
 23
425.1723137407129
 33
0
 14
325.1024314704885
 24
426.175637380807
 34
0
 50
90
100
AcDbRotatedDimension
  0
DIMENSION
  5
1E0
100
AcDbEntity
  8
0
  6
ByLayer
 62
  256
370
   -1
100
AcDbDimension
  2
*D4
 10
324.8117795851905
 20
425.1723137407129
 30
0
 11
324.5117795851905
 21
422.6723137407128
 31
0
 70
   32
 71
    5
 72
    0
  3
Standard
 53
0
210
0
220
0
230
1
100
AcDbAlignedDimension
 13
325.1024314704885
 23
420.1723137407126
 33
0
 14
325.1024314704885
 24
425.1723137407129
 34
0
 50
90
100
AcDbRotatedDimension
  0
DIMENSION
  5
1E1
100
AcDbEntity
  8
0
  6
ByLayer
 62
  256
370
   -1
100
AcDbDimension
  2
*D5
 10
335.4002851836716
 20
420.1723137407126
 30
0
 11
335.1002851836716
 21
423.1723137407128
 31
0
 70
   32
 71
    5
 72
    0
  3
Standard
 53
0
210
0
220
0
230
1
100
AcDbAlignedDimension
 13
333.3524314704884
 23
426.1723137407129
 33
0
 14
333.3524314704884
 24
420.1723137407126
 34
0
 50
90
100
AcDbRotatedDimension
  0
DIMENSION
  5
1E2
100
AcDbEntity
  8
0
  6
ByLayer
 62
  256
370
   -1
100
AcDbDimension
  2
*D6
 10
325.1024314704885
 20
419.4524048441677
 30
0
 11
323.9474314704885
 21
419.7524048441677
 31
0
 70
   32
 71
    5
 72
    0
  3
Standard
 53
0
210
0
220
0
230
1
100
AcDbAlignedDimension
 13
322.7924314704885
 23
420.1723137407126
 33
0
 14
325.1024314704885
 24
420.1723137407126
 34
0
100
AcDbRotatedDimension
  0
DIMENSION
  5
1E3
100
AcDbEntity
  8
0
  6
ByLayer
 62
  256
370
   -1
100
AcDbDimension
  2
*D7
 10
322.6424314704885
 20
422.4860585498625
 30
0
 11
321.2774314704885
 21
422.7860585498626
 31
0
 70
   32
 71
    5
 72
    0
  3
Standard
 53
0
210
0
220
0
230
1
100
AcDbAlignedDimension
 13
319.9124314704886
 23
423.0123137407126
 33
0
 14
322.6424314704885
 24
423.0123137407127
 34
0
100
AcDbRotatedDimension
  0
DIMENSION
  5
1E4
100
AcDbEntity
  8
0
  6
ByLayer
 62
  256
370
   -1
100
AcDbDimension
  2
*D8
 10
325.1024314704885
 20
426.6090164819343
 30
0
 11
322.5824314704886
 21
426.9090164819343
 31
0
 70
   32
 71
    5
 72
    0
  3
Standard
 53
0
210
0
220
0
230
1
100
AcDbAlignedDimension
 13
320.0624314704886
 23
426.1723137407129
 33
0
 14
325.1024314704885
 24
426.1723137407129
 34
0
100
AcDbRotatedDimension
  0
LINE
  5
1E5
100
AcDbEntity
  8
0
  6
ByLayer
 62
  256
370
   -1
100
AcDbLine
 10
325.1024314704885
 20
426.1723137407129
 11
325.2524314704884
 21
426.1723137407129
  0
LINE
  5
1E6
100
AcDbEntity
  8
0
  6
ByLayer
 62
  256
370
   -1
100
AcDbLine
 10
325.1024314704885
 20
420.1723137407126
 11
325.1024314704885
 21
425.1723137407129
  0
DIMENSION
  5
1E7
100
AcDbEntity
  8
0
  6
ByLayer
 62
  256
370
   -1
100
AcDbDimension
  2
*D9
 10
319.7102757894855
 20
425.4223137407129
 30
0
 11
319.4102757894855
 21
424.6723137407129
 31
0
 70
   32
 71
    5
 72
    0
  3
Standard
 53
0
210
0
220
0
230
1
100
AcDbAlignedDimension
 13
319.9124314704886
 23
423.9223137407129
 33
0
 14
319.9124314704886
 24
425.4223137407129
 34
0
 50
90
100
AcDbRotatedDimension
  0
DIMENSION
  5
1E8
100
AcDbEntity
  8
0
  6
ByLayer
 62
  256
370
   -1
100
AcDbDimension
  2
*D10
 10
319.2082507309192
 20
426.1723137407129
 30
0
 11
318.9082507309192
 21
424.5923137407127
 31
0
 70
   32
 71
    5
 72
    0
  3
Standard
 53
0
210
0
220
0
230
1
100
AcDbAlignedDimension
 13
319.9124314704886
 23
423.0123137407126
 33
0
 14
319.9124314704886
 24
426.1723137407129
 34
0
 50
90
100
AcDbRotatedDimension
  0
LINE
  5
1E9
100
AcDbEntity
  8
0
  6
ByLayer
 62
  256
370
   -1
100
AcDbLine
 10
319.9124314704886
 20
423.0123137407126
 11
319.9124314704886
 21
426.1723137407129
  0
LINE
  5
1EA
100
AcDbEntity
  8
0
  6
ByLayer
 62
  256
370
   -1
100
AcDbLine
 10
320.0624314704886
 20
423.1623137407126
 11
320.0624314704886
 21
426.1723137407129
  0
LINE
  5
1EB
100
AcDbEntity
  8
0
  6
ByLayer
 62
  256
370
   -1
100
AcDbLine
 10
320.0624314704886
 20
426.1723137407129
 11
325.1024314704885
 21
426.1723137407129
  0
DIMENSION
  5
1EC
100
AcDbEntity
  8
0
  6
ByLayer
 62
  256
370
   -1
100
AcDbDimension
  2
*D11
 10
316.9854947017759
 20
426.3268655454524
 30
0
 11
316.6854947017759
 21
423.1745896430825
 31
0
 70
   32
 71
    5
 72
    0
  3
Standard
 53
0
210
0
220
0
230
1
100
AcDbAlignedDimension
 13
317.7624314704887
 23
420.0223137407127
 33
0
 14
317.7624314704887
 24
426.3268655454524
 34
0
 50
90
100
AcDbRotatedDimension
  0
DIMENSION
  5
1ED
100
AcDbEntity
  8
0
  6
ByLayer
 62
  256
370
   -1
100
AcDbDimension
  2
*D12
 10
317.5306116316156
 20
422.9123137407126
 30
0
 11
317.2306116316155
 21
421.5923137407126
 31
0
 70
   32
 71
    5
 72
    0
  3
Standard
 53
0
210
0
220
0
230
1
100
AcDbAlignedDimension
 13
317.7624314704887
 23
420.2723137407126
 33
0
 14
317.7624314704887
 24
422.9123137407126
 34
0
 50
90
100
AcDbRotatedDimension
  0
LINE
  5
1EE
100
AcDbEntity
  8
0
  6
ByLayer
 62
  256
370
   -1
100
AcDbLine
 10
325.2524314704884
 20
426.1723137407129
 11
329.5824314704885
 21
426.1723137407129
  0
LINE
  5
1EF
100
AcDbEntity
  8
0
  6
ByLayer
 62
  256
370
   -1
100
AcDbLine
 10
325.1024314704886
 20
425.1723137407129
 11
325.2524314704884
 21
425.1723137407129
  0
DIMENSION
  5
1F0
100
AcDbEntity
  8
0
  6
ByLayer
 62
  256
370
   -1
100
AcDbDimension
  2
*D13
 10
326.1491246644615
 20
420.1723137407126
 30
0
 11
325.8491246644614
 21
420.9223137407126
 31
0
 70
   32
 71
    5
 72
    0
  3
Standard
 53
0
210
0
220
0
230
1
100
AcDbAlignedDimension
 13
325.2524314704884
 23
421.6723137407126
 33
0
 14
325.2524314704884
 24
420.1723137407126
 34
0
 50
90
100
AcDbRotatedDimension
  0
DIMENSION
  5
1F1
100
AcDbEntity
  8
0
  6
ByLayer
 62
  256
370
   -1
100
AcDbDimension
  2
*D14
 10
332.0024314704884
 20
419.4393565701138
 30
0
 11
328.6274314704884
 21
419.7393565701138
 31
0
 70
   32
 71
    5
 72
    0
  3
Standard
 53
0
210
0
220
0
230
1
100
AcDbAlignedDimension
 13
325.2524314704884
 23
420.1723137407126
 33
0
 14
332.0024314704884
 24
420.1723137407126
 34
0
100
AcDbRotatedDimension
  0
DIMENSION
  5
1F2
100
AcDbEntity
  8
0
  6
ByLayer
 62
  256
370
   -1
100
AcDbDimension
  2
*D15
 10
333.3524314704884
 20
418.7692044569396
 30
0
 11
329.3024314704884
 21
419.0692044569396
 31
0
 70
   32
 71
    5
 72
    0
  3
Standard
 53
0
210
0
220
0
230
1
100
AcDbAlignedDimension
 13
325.2524314704884
 23
420.1723137407126
 33
0
 14
333.3524314704884
 24
420.1723137407126
 34
0
100
AcDbRotatedDimension
  0
LINE
  5
1F3
100
AcDbEntity
  8
0
  6
ByLayer
 62
  256
370
   -1
100
AcDbLine
 10
326.1424314704884
 20
421.6723137407126
 11
326.1424314704884
 21
421.8223137407126
  0
LINE
  5
1F4
100
AcDbEntity
  8
0
  6
ByLayer
 62
  256
370
   -1
100
AcDbLine
 10
325.8424314704883
 20
421.6723137407126
 11
325.8424314704883
 21
421.8223137407126
  0
LINE
  5
1F5
100
AcDbEntity
  8
0
  6
ByLayer
 62
  256
370
   -1
100
AcDbLine
 10
325.5424314704883
 20
421.6723137407126
 11
325.5424314704883
 21
421.8223137407126
  0
LINE
  5
1F6
100
AcDbEntity
  8
0
  6
ByLayer
 62
  256
370
   -1
100
AcDbLine
 10
328.6824314704885
 20
421.8223137407126
 11
328.6824314704885
 21
421.6723137407126
  0
LINE
  5
1F7
100
AcDbEntity
  8
0
  6
ByLayer
 62
  256
370
   -1
100
AcDbLine
 10
328.0824314704885
 20
421.8223137407126
 11
328.0824314704885
 21
421.6723137407126
  0
LINE
  5
1F8
100
AcDbEntity
  8
0
  6
ByLayer
 62
  256
370
   -1
100
AcDbLine
 10
327.4824314704885
 20
421.8223137407126
 11
327.4824314704885
 21
421.6723137407126
  0
LINE
  5
1F9
100
AcDbEntity
  8
0
  6
ByLayer
 62
  256
370
   -1
100
AcDbLine
 10
325.2524314704884
 20
420.1723137407126
 11
325.2524314704884
 21
421.6723137407126
  0
LINE
  5
1FA
100
AcDbEntity
  8
0
  6
ByLayer
 62
  256
370
   -1
100
AcDbLine
 10
326.1424314704884
 20
421.7473137407126
 11
325.5424314704883
 21
421.7473137407126
  0
LINE
  5
1FB
100
AcDbEntity
  8
0
  6
ByLayer
 62
  256
370
   -1
100
AcDbLine
 10
328.6824314704885
 20
421.7473137407126
 11
327.4824314704885
 21
421.7473137407126
  0
LINE
  5
1FC
100
AcDbEntity
  8
0
  6
ByLayer
 62
  256
370
   -1
100
AcDbLine
 10
326.4524314704884
 20
424.1223137407126
 11
325.2524314704884
 21
424.1223137407126
  0
LINE
  5
1FD
100
AcDbEntity
  8
0
  6
ByLayer
 62
  256
370
   -1
100
AcDbLine
 10
326.4524314704884
 20
425.1723137407129
 11
329.5824314704885
 21
425.1723137407129
  0
LINE
  5
1FE
100
AcDbEntity
  8
0
  6
ByLayer
 62
  256
370
   -1
100
AcDbLine
 10
326.4524314704884
 20
421.8223137407126
 11
325.2524314704884
 21
421.8223137407126
  0
LINE
  5
1FF
100
AcDbEntity
  8
0
  6
ByLayer
 62
  256
370
   -1
100
AcDbLine
 10
326.6024314704883
 20
424.2723137407125
 11
326.4524314704884
 21
424.2723137407125
  0
LINE
  5
200
100
AcDbEntity
  8
0
  6
ByLayer
 62
  256
370
   -1
100
AcDbLine
 10
326.4524314704884
 20
424.2723137407125
 11
325.2524314704884
 21
424.2723137407125
  0
LINE
  5
201
100
AcDbEntity
  8
0
  6
ByLayer
 62
  256
370
   -1
100
AcDbLine
 10
325.2524314704884
 20
421.8223137407126
 11
325.2524314704884
 21
424.1223137407126
  0
LINE
  5
202
100
AcDbEntity
  8
0
  6
ByLayer
 62
  256
370
   -1
100
AcDbLine
 10
326.4524314704884
 20
425.0223137407129
 11
326.6024314704883
 21
425.0223137407129
  0
LINE
  5
203
100
AcDbEntity
  8
0
  6
ByLayer
 62
  256
370
   -1
100
AcDbLine
 10
326.6024314704883
 20
421.8223137407126
 11
326.6024314704883
 21
425.0223137407129
  0
LINE
  5
204
100
AcDbEntity
  8
0
  6
ByLayer
 62
  256
370
   -1
100
AcDbLine
 10
326.5274314704883
 20
424.2723137407125
 11
326.5274314704884
 21
425.0223137407129
  0
LINE
  5
205
100
AcDbEntity
  8
0
  6
ByLayer
 62
  256
370
   -1
100
AcDbLine
 10
329.5824314704885
 20
426.0723137407129
 11
329.7324314704885
 21
426.0723137407129
  0
LINE
  5
206
100
AcDbEntity
  8
0
  6
ByLayer
 62
  256
370
   -1
100
AcDbLine
 10
329.5824314704885
 20
425.2723137407129
 11
329.7324314704885
 21
425.2723137407129
  0
LINE
  5
207
100
AcDbEntity
  8
0
  6
ByLayer
 62
  256
370
   -1
100
AcDbLine
 10
329.6574314704885
 20
426.0723137407129
 11
329.6574314704885
 21
425.2723137407129
  0
LINE
  5
208
100
AcDbEntity
  8
0
  6
ByLayer
 62
  256
370
   -1
100
AcDbLine
 10
332.0024314704884
 20
420.1723137407126
 11
325.2524314704884
 21
420.1723137407126
  0
DIMENSION
  5
209
100
AcDbEntity
  8
0
  6
ByLayer
 62
  256
370
   -1
100
AcDbDimension
  2
*D16
 10
329.5824314704885
 20
422.1708225472682
 30
0
 11
328.0924314704884
 21
422.4708225472683
 31
0
 70
   32
 71
    5
 72
    0
  3
Standard
 53
0
210
0
220
0
230
1
100
AcDbAlignedDimension
 13
326.6024314704883
 23
421.8223137407126
 33
0
 14
329.5824314704885
 24
421.8223137407126
 34
0
100
AcDbRotatedDimension
  0
DIMENSION
  5
20A
100
AcDbEntity
  8
0
  6
ByLayer
 62
  256
370
   -1
100
AcDbDimension
  2
*D17
 10
333.3524314704884
 20
426.6015475342708
 30
0
 11
331.5424314704885
 21
426.9015475342708
 31
0
 70
   32
 71
    5
 72
    0
  3
Standard
 53
0
210
0
220
0
230
1
100
AcDbAlignedDimension
 13
329.7324314704885
 23
426.1723137407129
 33
0
 14
333.3524314704884
 24
426.1723137407129
 34
0
100
AcDbRotatedDimension
  0
DIMENSION
  5
20B
100
AcDbEntity
  8
0
  6
ByLayer
 62
  256
370
   -1
100
AcDbDimension
  2
*D18
 10
326.4524314704884
 20
422.1593728452806
 30
0
 11
325.8524314704883
 21
422.4593728452807
 31
0
 70
   32
 71
    5
 72
    0
  3
Standard
 53
0
210
0
220
0
230
1
100
AcDbAlignedDimension
 13
325.2524314704884
 23
421.8223137407126
 33
0
 14
326.4524314704884
 24
421.8223137407126
 34
0
100
AcDbRotatedDimension
  0
DIMENSION
  5
20C
100
AcDbEntity
  8
0
  6
ByLayer
 62
  256
370
   -1
100
AcDbDimension
  2
*D19
 10
326.1659659867888
 20
421.8223137407126
 30
0
 11
325.8659659867888
 21
422.9723137407126
 31
0
 70
   32
 71
    5
 72
    0
  3
Standard
 53
0
210
0
220
0
230
1
100
AcDbAlignedDimension
 13
326.4524314704884
 23
424.1223137407126
 33
0
 14
326.4524314704884
 24
421.8223137407126
 34
0
 50
90
100
AcDbRotatedDimension
  0
DIMENSION
  5
20D
100
AcDbEntity
  8
0
  6
ByLayer
 62
  256
370
   -1
100
AcDbDimension
  2
*D20
 10
333.3524314704884
 20
419.441965436073
 30
0
 11
332.7524314704884
 21
419.741965436073
 31
0
 70
   32
 71
    5
 72
    0
  3
Standard
 53
0
210
0
220
0
230
1
100
AcDbAlignedDimension
 13
332.1524314704884
 23
420.1723137407126
 33
0
 14
333.3524314704884
 24
420.1723137407126
 34
0
100
AcDbRotatedDimension
  0
DIMENSION
  5
20E
100
AcDbEntity
  8
0
  6
ByLayer
 62
  256
370
   -1
100
AcDbDimension
  2
*D21
 10
329.5824314704885
 20
426.61132838414
 30
0
 11
327.4174314704884
 21
426.91132838414
 31
0
 70
   32
 71
    5
 72
    0
  3
Standard
 53
0
210
0
220
0
230
1
100
AcDbAlignedDimension
 13
325.2524314704884
 23
426.1723137407129
 33
0
 14
329.5824314704885
 24
426.1723137407129
 34
0
100
AcDbRotatedDimension
  0
LINE
  5
20F
100
AcDbEntity
  8
0
  6
ByLayer
 62
  256
370
   -1
100
AcDbLine
 10
325.2524314704884
 20
424.2723137407125
 11
325.2524314704884
 21
425.1723137407129
  0
DIMENSION
  5
210
100
AcDbEntity
  8
0
  6
ByLayer
 62
  256
370
   -1
100
AcDbDimension
  2
*D22
 10
327.1498661484096
 20
424.2723137407125
 30
0
 11
326.8498661484095
 21
424.6473137407127
 31
0
 70
   32
 71
    5
 72
    0
  3
Standard
 53
0
210
0
220
0
230
1
100
AcDbAlignedDimension
 13
326.6024314704883
 23
425.0223137407129
 33
0
 14
326.6024314704883
 24
424.2723137407125
 34
0
 50
90
100
AcDbRotatedDimension
  0
MTEXT
  5
211
100
AcDbEntity
  8
0
  6
ByLayer
 62
  256
370
   -1
100
AcDbMText
 10
325.3326577628728
 20
423.3271543323317
 30
0
 40
0.2
 41
1.088888888888917
 71
    4
 72
    1
  1
Banheiro
  7
standard
210
0
220
0
230
1
 50
0
 73
    2
 44
0.1
  0
DIMENSION
  5
212
100
AcDbEntity
  8
0
  6
ByLayer
 62
  256
370
   -1
100
AcDbDimension
  2
*D23
 10
329.2654248499317
 20
425.0223137407128
 30
0
 11
328.9654248499317
 21
423.4223137407126
 31
0
 70
   32
 71
    5
 72
    0
  3
Standard
 53
0
210
0
220
0
230
1
100
AcDbAlignedDimension
 13
329.5824314704885
 23
421.8223137407126
 33
0
 14
329.5824314704885
 24
425.0223137407128
 34
0
 50
90
100
AcDbRotatedDimension
  0
LINE
  5
213
100
AcDbEntity
  8
0
  6
ByLayer
 62
  256
370
   -1
100
AcDbLine
 10
329.5824314704885
 20
425.0223137407128
 11
329.5824314704885
 21
421.8223137407126
  0
LINE
  5
214
100
AcDbEntity
  8
0
  6
ByLayer
 62
  256
370
   -1
100
AcDbLine
 10
329.5824314704885
 20
426.1723137407129
 11
329.5824314704885
 21
425.1723137407129
  0
DIMENSION
  5
215
100
AcDbEntity
  8
0
  6
ByLayer
 62
  256
370
   -1
100
AcDbDimension
  2
*D24
 10
325.8524314704883
 20
424.2723137407125
 30
0
 11
325.5524314704883
 21
424.7223137407127
 31
0
 70
   32
 71
    5
 72
    0
  3
Standard
 53
0
210
0
220
0
230
1
100
AcDbAlignedDimension
 13
325.2524314704884
 23
425.1723137407129
 33
0
 14
325.2524314704884
 24
424.2723137407125
 34
0
 50
90
100
AcDbRotatedDimension
  0
DIMENSION
  5
216
100
AcDbEntity
  8
0
  6
ByLayer
 62
  256
370
   -1
100
AcDbDimension
  2
*D25
 10
329.385280390786
 20
426.0723137407129
 30
0
 11
329.085280390786
 21
425.6723137407129
 31
0
 70
   32
 71
    5
 72
    0
  3
Standard
 53
0
210
0
220
0
230
1
100
AcDbAlignedDimension
 13
329.5824314704885
 23
425.2723137407129
 33
0
 14
329.5824314704885
 24
426.0723137407129
 34
0
 50
90
100
AcDbRotatedDimension
  0
DIMENSION
  5
217
100
AcDbEntity
  8
0
  6
ByLayer
 62
  256
370
   -1
100
AcDbDimension
  2
*D26
 10
329.5824314704885
 20
425.4257239152403
 30
0
 11
328.0174314704884
 21
425.7257239152403
 31
0
 70
   32
 71
    5
 72
    0
  3
Standard
 53
0
210
0
220
0
230
1
100
AcDbAlignedDimension
 13
326.4524314704884
 23
425.1723137407129
 33
0
 14
329.5824314704885
 24
425.1723137407129
 34
0
100
AcDbRotatedDimension
  0
LINE
  5
218
100
AcDbEntity
  8
0
  6
ByLayer
 62
  256
370
   -1
100
AcDbLine
 10
326.3524314704883
 20
424.1223137407126
 11
326.3524314704883
 21
424.2723137407125
  0
LINE
  5
219
100
AcDbEntity
  8
0
  6
ByLayer
 62
  256
370
   -1
100
AcDbLine
 10
326.3524314704883
 20
424.1973137407125
 11
325.6524314704884
 21
424.1973137407125
  0
LINE
  5
21A
100
AcDbEntity
  8
0
  6
ByLayer
 62
  256
370
   -1
100
AcDbLine
 10
325.6524314704884
 20
424.1223137407126
 11
325.6524314704884
 21
424.2723137407125
  0
LINE
  5
21B
100
AcDbEntity
  8
0
  6
ByLayer
 62
  256
370
   -1
100
AcDbLine
 10
326.4524314704884
 20
421.8223137407126
 11
326.4524314704884
 21
424.1223137407126
  0
LINE
  5
21C
100
AcDbEntity
  8
0
  6
ByLayer
 62
  256
370
   -1
100
AcDbLine
 10
326.4524314704884
 20
424.2723137407125
 11
326.4524314704884
 21
425.1723137407129
  0
DIMENSION
  5
21D
100
AcDbEntity
  8
0
  6
ByLayer
 62
  256
370
   -1
100
AcDbDimension
  2
*D27
 10
325.2524314704884
 20
423.6619464159378
 30
0
 11
325.4524314704884
 21
423.9619464159378
 31
0
 70
   32
 71
    5
 72
    0
  3
Standard
 53
0
210
0
220
0
230
1
100
AcDbAlignedDimension
 13
325.6524314704884
 23
424.1223137407126
 33
0
 14
325.2524314704884
 24
424.1223137407126
 34
0
100
AcDbRotatedDimension
  0
DIMENSION
  5
21E
100
AcDbEntity
  8
0
  6
ByLayer
 62
  256
370
   -1
100
AcDbDimension
  2
*D28
 10
326.3524314704883
 20
423.6380570518184
 30
0
 11
326.0024314704883
 21
423.9380570518184
 31
0
 70
   32
 71
    5
 72
    0
  3
Standard
 53
0
210
0
220
0
230
1
100
AcDbAlignedDimension
 13
325.6524314704884
 23
424.1223137407126
 33
0
 14
326.3524314704883
 24
424.1223137407126
 34
0
100
AcDbRotatedDimension
  0
DIMENSION
  5
21F
100
AcDbEntity
  8
0
  6
ByLayer
 62
  256
370
   -1
100
AcDbDimension
  2
*D29
 10
332.9524314704884
 20
423.4207831926216
 30
0
 11
332.6024314704885
 21
423.7207831926216
 31
0
 70
   32
 71
    5
 72
    0
  3
Standard
 53
0
210
0
220
0
230
1
100
AcDbAlignedDimension
 13
332.2524314704884
 23
423.1723137407129
 33
0
 14
332.9524314704884
 24
423.1723137407129
 34
0
100
AcDbRotatedDimension
  0
LINE
  5
220
100
AcDbEntity
  8
0
  6
ByLayer
 62
  256
370
   -1
100
AcDbLine
 10
332.1524314704884
 20
420.3723137407126
 11
332.0024314704884
 21
420.3723137407126
  0
LINE
  5
221
100
AcDbEntity
  8
0
  6
ByLayer
 62
  256
370
   -1
100
AcDbLine
 10
332.1524314704884
 20
420.9723137407126
 11
332.0024314704884
 21
420.9723137407126
  0
LINE
  5
222
100
AcDbEntity
  8
0
  6
ByLayer
 62
  256
370
   -1
100
AcDbLine
 10
332.1524314704884
 20
420.6723137407126
 11
332.0024314704884
 21
420.6723137407126
  0
LINE
  5
223
100
AcDbEntity
  8
0
  6
ByLayer
 62
  256
370
   -1
100
AcDbLine
 10
332.0774314704884
 20
420.3723137407126
 11
332.0774314704884
 21
420.9723137407126
  0
DIMENSION
  5
224
100
AcDbEntity
  8
0
  6
ByLayer
 62
  256
370
   -1
100
AcDbDimension
  2
*D30
 10
331.7382485598105
 20
420.9723137407126
 30
0
 11
331.4382485598105
 21
420.6723137407126
 31
0
 70
   32
 71
    5
 72
    0
  3
Standard
 53
0
210
0
220
0
230
1
100
AcDbAlignedDimension
 13
332.0024314704884
 23
420.3723137407126
 33
0
 14
332.0024314704884
 24
420.9723137407126
 34
0
 50
90
100
AcDbRotatedDimension
  0
LINE
  5
225
100
AcDbEntity
  8
0
  6
ByLayer
 62
  256
370
   -1
100
AcDbLine
 10
326.6024314704883
 20
425.0223137407129
 11
329.5824314704885
 21
425.0223137407128
  0
MTEXT
  5
226
100
AcDbEntity
  8
0
  6
ByLayer
 62
  256
370
   -1
100
AcDbMText
 10
327.5779395477954
 20
423.6878680807322
 30
0
 40
0.2
 41
0.866666666666676
 71
    1
 72
    1
  1
Quarto
  7
standard
210
0
220
0
230
1
 50
0
 73
    2
 44
1
  0
MTEXT
  5
227
100
AcDbEntity
  8
0
  6
ByLayer
 62
  256
370
   -1
100
AcDbMText
 10
331.0551439086108
 20
424.9017285121441
 30
0
 40
0.2
 41
0.6222221798217924
 71
    1
 72
    1
  1
Suite
  7
standard
210
0
220
0
230
1
 50
0
 73
    2
 44
1
  0
MTEXT
  5
228
100
AcDbEntity
  8
0
  6
ByLayer
 62
  256
370
   -1
100
AcDbMText
 10
332.2563599605289
 20
421.9429437105776
 30
0
 40
0.2
 41
1.088888888888917
 71
    1
 72
    1
  1
Banheiro\P
  7
standard
210
0
220
0
230
1
 50
0
 73
    2
 44
1
  0
MTEXT
  5
229
100
AcDbEntity
  8
0
  6
ByLayer
 62
  256
370
   -1
100
AcDbMText
 10
328.0331372095749
 20
420.9946152485371
 30
0
 40
0.2
 41
1.111111111111124
 71
    1
 72
    1
  1
Corredor
  7
standard
210
0
220
0
230
1
 50
0
 73
    2
 44
1
  0
MTEXT
  5
22A
100
AcDbEntity
  8
0
  6
ByLayer
 62
  256
370
   -1
100
AcDbMText
 10
326.2376353214448
 20
425.913278871654
 30
0
 40
0.2
 41
1.111111111111124
 71
    1
 72
    1
  1
Corredor
  7
standard
210
0
220
0
230
1
 50
0
 73
    2
 44
1
  0
MTEXT
  5
22B
100
AcDbEntity
  8
0
  6
ByLayer
 62
  256
370
   -1
100
AcDbMText
 10
318.2210987223286
 20
424.4338864708708
 30
0
 40
0.2
 41
0.4444444444444538
 71
    1
 72
    1
  1
Hall
  7
standard
210
0
220
0
230
1
 50
0
 73
    2
 44
1
  0
MTEXT
  5
22C
100
AcDbEntity
  8
0
  6
ByLayer
 62
  256
370
   -1
100
AcDbMText
 10
325.7697932801714
 20
424.7626403377115
 30
0
 40
0.2
 41
0.4444444444444538
 71
    1
 72
    1
  1
Hall
  7
standard
210
0
220
0
230
1
 50
0
 73
    2
 44
1
  0
LINE
  5
22D
100
AcDbEntity
  8
0
  6
ByLayer
 62
  256
370
   -1
100
AcDbLine
 10
325.2524314704884
 20
421.6723137407126
 11
325.1024314704885
 21
421.6723137407126
  0
LINE
  5
22E
100
AcDbEntity
  8
0
  6
ByLayer
 62
  256
370
   -1
100
AcDbLine
 10
325.1774314704884
 20
420.7723137407126
 11
325.1774314704884
 21
421.6723137407126
  0
LINE
  5
22F
100
AcDbEntity
  8
0
  6
ByLayer
 62
  256
370
   -1
100
AcDbLine
 10
322.7924314704885
 20
423.1623137407126
 11
320.0624314704886
 21
423.1623137407126
  0
LINE
  5
230
100
AcDbEntity
  8
0
  6
ByLayer
 62
  256
370
   -1
100
AcDbLine
 10
324.0117795851905
 20
422.7623137407126
 11
324.0117795851905
 21
423.4123137407126
  0
LINE
  5
231
100
AcDbEntity
  8
0
  6
ByLayer
 62
  256
370
   -1
100
AcDbLine
 10
322.7924314704885
 20
420.1723137407126
 11
322.7924314704885
 21
423.4123137407126
  0
LINE
  5
232
100
AcDbEntity
  8
0
  6
ByLayer
 62
  256
370
   -1
100
AcDbLine
 10
324.0117795851905
 20
423.4123137407126
 11
322.7924314704885
 21
423.4123137407126
  0
LINE
  5
233
100
AcDbEntity
  8
0
  6
ByLayer
 62
  256
370
   -1
100
AcDbLine
 10
324.0117795851905
 20
422.7623137407126
 11
323.3924314704885
 21
422.7623137407126
  0
DIMENSION
  5
234
100
AcDbEntity
  8
0
  6
ByLayer
 62
  256
370
   -1
100
AcDbDimension
  2
*D31
 10
322.7941161781984
 20
423.2593354191544
 30
0
 11
321.4286523298615
 21
423.5593354191544
 31
0
 70
   32
 71
    5
 72
    0
  3
Standard
 53
0
210
0
220
0
230
1
100
AcDbAlignedDimension
 13
320.0631884815245
 23
423.1649224679904
 33
0
 14
322.7941161781984
 24
422.8814252299512
 34
0
100
AcDbRotatedDimension
  0
LINE
  5
235
100
AcDbEntity
  8
0
  6
ByLayer
 62
  256
370
   -1
100
AcDbLine
 10
323.3924314704885
 20
420.1723137407126
 11
323.3924314704885
 21
422.7623137407126
  0
DIMENSION
  5
236
100
AcDbEntity
  8
0
  6
ByLayer
 62
  256
370
   -1
100
AcDbDimension
  2
*D32
 10
325.1024314704885
 20
420.4322866439531
 30
0
 11
324.2474314704886
 21
420.7322866439531
 31
0
 70
   32
 71
    5
 72
    0
  3
Standard
 53
0
210
0
220
0
230
1
100
AcDbAlignedDimension
 13
323.3924314704885
 23
420.1723137407126
 33
0
 14
325.1024314704885
 24
420.1723137407126
 34
0
100
AcDbRotatedDimension
  0
DIMENSION
  5
237
100
AcDbEntity
  8
0
  6
ByLayer
 62
  256
370
   -1
100
AcDbDimension
  2
*D33
 10
324.0117795851905
 20
423.5720994738476
 30
0
 11
324.5571055278395
 21
423.8720994738476
 31
0
 70
   32
 71
    5
 72
    0
  3
Standard
 53
0
210
0
220
0
230
1
100
AcDbAlignedDimension
 13
325.1024314704885
 23
423.405651564793
 33
0
 14
324.0117795851905
 24
423.405651564793
 34
0
100
AcDbRotatedDimension
  0
MTEXT
  5
238
100
AcDbEntity
  8
0
  6
ByLayer
 62
  256
370
   -1
100
AcDbMText
 10
323.761436809136
 20
421.6393226021247
 30
0
 40
0.2
 41
0.9333333333333735
 71
    1
 72
    1
  1
Cozinha
  7
standard
210
0
220
0
230
1
 50
0
 73
    2
 44
1
  0
MTEXT
  5
239
100
AcDbEntity
  8
0
  6
ByLayer
 62
  256
370
   -1
100
AcDbMText
 10
321.7861024082941
 20
425.1537688964175
 30
0
 40
0.2
 41
0.5111110687106999
 71
    1
 72
    1
  1
Sala
  7
standard
210
0
220
0
230
1
 50
0
 73
    2
 44
1
  0
LINE
  5
23A
100
AcDbEntity
  8
0
  6
ByLayer
 62
  256
370
   -1
100
AcDbLine
 10
333.5024314704884
 20
420.0223137407127
 11
317.9124314704885
 21
420.0223137407127
  0
LINE
  5
23B
100
AcDbEntity
  8
0
  6
ByLayer
 62
  256
370
   -1
100
AcDbLine
 10
317.9124314704885
 20
426.3121854313882
 11
333.5024314704884
 21
426.3223137407127
  0
LINE
  5
23C
100
AcDbEntity
  8
0
  6
ByLayer
 62
  256
370
   -1
100
AcDbLine
 10
318.0624314704885
 20
426.1723137407129
 11
319.9124314704886
 21
426.1723137407129
  0
LINE
  5
23D
100
AcDbEntity
  8
0
  6
ByLayer
 62
  256
370
   -1
100
AcDbLine
 10
318.0624314704885
 20
420.1723137407126
 11
318.0624314704885
 21
426.1723137407129
  0
LINE
  5
23E
100
AcDbEntity
  8
0
  6
ByLayer
 62
  256
370
   -1
100
AcDbLine
 10
322.6424314704885
 20
420.1723137407126
 11
318.0624314704885
 21
420.1723137407126
  0
LINE
  5
23F
100
AcDbEntity
  8
0
  6
ByLayer
 62
  256
370
   -1
100
AcDbLine
 10
318.0624314704885
 20
420.2723137407126
 11
317.9124314704885
 21
420.2723137407126
  0
LINE
  5
240
100
AcDbEntity
  8
0
  6
ByLayer
 62
  256
370
   -1
100
AcDbLine
 10
318.0624314704885
 20
422.9123137407126
 11
317.9124314704885
 21
422.9123137407126
  0
LINE
  5
241
100
AcDbEntity
  8
0
  6
ByLayer
 62
  256
370
   -1
100
AcDbLine
 10
317.9874314704885
 20
420.2723137407126
 11
317.9874314704885
 21
422.9123137407126
  0
DIMENSION
  5
242
100
AcDbEntity
  8
0
  6
ByLayer
 62
  256
370
   -1
100
AcDbDimension
  2
*D34
 10
322.6424314704885
 20
419.4410363849364
 30
0
 11
320.3524314704885
 21
419.7410363849364
 31
0
 70
   32
 71
    5
 72
    0
  3
Standard
 53
0
210
0
220
0
230
1
100
AcDbAlignedDimension
 13
318.0624314704885
 23
420.1723137407126
 33
0
 14
322.6424314704885
 24
420.1723137407126
 34
0
100
AcDbRotatedDimension
  0
DIMENSION
  5
243
100
AcDbEntity
  8
0
  6
ByLayer
 62
  256
370
   -1
100
AcDbDimension
  2
*D35
 10
319.9124314704886
 20
426.6113283847354
 30
0
 11
318.9874314704886
 21
426.9113283847354
 31
0
 70
   32
 71
    5
 72
    0
  3
Standard
 53
0
210
0
220
0
230
1
100
AcDbAlignedDimension
 13
318.0624314704885
 23
426.1723137407129
 33
0
 14
319.9124314704886
 24
426.1723137407129
 34
0
100
AcDbRotatedDimension
  0
DIMENSION
  5
244
100
AcDbEntity
  8
0
  6
ByLayer
 62
  256
370
   -1
100
AcDbDimension
  2
*D36
 10
333.5024314704884
 20
427.3174498590634
 30
0
 11
325.7074314704885
 21
427.6174498590634
 31
0
 70
   32
 71
    5
 72
    0
  3
Standard
 53
0
210
0
220
0
230
1
100
AcDbAlignedDimension
 13
317.9124314704885
 23
426.3121854313882
 33
0
 14
333.5024314704884
 24
426.3223137407127
 34
0
100
AcDbRotatedDimension
  0
DIMENSION
  5
245
100
AcDbEntity
  8
0
  6
ByLayer
 62
  256
370
   -1
100
AcDbDimension
  2
*D37
 10
320.5314394622603
 20
426.1723137407129
 30
0
 11
320.2314394622603
 21
425.7973137407129
 31
0
 70
   32
 71
    5
 72
    0
  3
Standard
 53
0
210
0
220
0
230
1
100
AcDbAlignedDimension
 13
320.0624314704886
 23
425.4223137407129
 33
0
 14
320.0624314704886
 24
426.1723137407129
 34
0
 50
90
100
AcDbRotatedDimension
  0
DIMENSION
  5
246
100
AcDbEntity
  8
0
  6
ByLayer
 62
  256
370
   -1
100
AcDbDimension
  2
*D38
 10
320.5314394622603
 20
423.1623137407126
 30
0
 11
320.2314394622603
 21
423.5423137407128
 31
0
 70
   32
 71
    5
 72
    0
  3
Standard
 53
0
210
0
220
0
230
1
100
AcDbAlignedDimension
 13
320.0624314704886
 23
423.9223137407129
 33
0
 14
320.0624314704886
 24
423.1623137407126
 34
0
 50
90
100
AcDbRotatedDimension
  0
LINE
  5
247
100
AcDbEntity
  8
0
  6
ByLayer
 62
  256
370
   -1
100
AcDbLine
 10
325.2524314704884
 20
420.7723137407126
 11
325.1024314704885
 21
420.7723137407126
  0
LINE
  5
248
100
AcDbEntity
  8
0
  6
ByLayer
 62
  256
370
   -1
100
AcDbLine
 10
332.0024314704884
 20
421.6723137407126
 11
325.2524314704884
 21
421.6723137407126
  0
LINE
  5
249
100
AcDbEntity
  8
0
  6
ByLayer
 62
  256
370
   -1
100
AcDbLine
 10
329.7324314704885
 20
426.1723137407129
 11
329.7324314704885
 21
421.8223137407126
  0
LINE
  5
24A
100
AcDbEntity
  8
0
  6
ByLayer
 62
  256
370
   -1
100
AcDbLine
 10
333.3524314704884
 20
422.8223137407126
 11
333.3524314704884
 21
426.1723137407129
  0
LINE
  5
24B
100
AcDbEntity
  8
0
  6
ByLayer
 62
  256
370
   -1
100
AcDbLine
 10
333.3524314704884
 20
420.1723137407126
 11
333.3524314704884
 21
422.6723137407126
  0
LINE
  5
24C
100
AcDbEntity
  8
0
  6
ByLayer
 62
  256
370
   -1
100
AcDbLine
 10
332.0024314704884
 20
421.8223137407126
 11
329.7324314704885
 21
421.8223137407126
  0
LINE
  5
24D
100
AcDbEntity
  8
0
  6
ByLayer
 62
  256
370
   -1
100
AcDbLine
 10
329.5824314704885
 20
421.8223137407126
 11
326.6024314704883
 21
421.8223137407126
  0
LINE
  5
24E
100
AcDbEntity
  8
0
  6
ByLayer
 62
  256
370
   -1
100
AcDbLine
 10
332.0024314704884
 20
420.1723137407126
 11
332.0024314704884
 21
421.6723137407126
  0
DIMENSION
  5
24F
100
AcDbEntity
  8
0
  6
ByLayer
 62
  256
370
   -1
100
AcDbDimension
  2
*D39
 10
334.1864627484958
 20
420.1723137407126
 30
0
 11
333.8864627484958
 21
421.4223137407126
 31
0
 70
   32
 71
    5
  3
Standard
 53
0
210
0
220
0
230
1
100
AcDbAlignedDimension
 13
333.5024314704884
 23
422.6723137407126
 33
0
 14
333.5024314704884
 24
420.1723137407126
 34
0
 50
90
100
AcDbRotatedDimension
  0
DIMENSION
  5
250
100
AcDbEntity
  8
0
  6
ByLayer
 62
  256
370
   -1
100
AcDbDimension
  2
*D40
 10
334.210363085542
 20
426.1723137407129
 30
0
 11
333.910363085542
 21
424.4973137407127
 31
0
 70
   32
 71
    5
  3
Standard
 53
0
210
0
220
0
230
1
100
AcDbAlignedDimension
 13
333.5024314704884
 23
422.8223137407126
 33
0
 14
333.5024314704884
 24
426.1723137407129
 34
0
 50
90
100
AcDbRotatedDimension
  0
LINE
  5
251
100
AcDbEntity
  8
0
  6
ByLayer
 62
  256
370
   -1
100
AcDbLine
 10
333.3524314704884
 20
422.6723137407126
 11
332.1524314704884
 21
422.6723137407126
  0
LINE
  5
252
100
AcDbEntity
  8
0
  6
ByLayer
 62
  256
370
   -1
100
AcDbLine
 10
333.3524314704884
 20
420.1723137407126
 11
332.1524314704884
 21
420.1723137407126
  0
LINE
  5
253
100
AcDbEntity
  8
0
  6
ByLayer
 62
  256
370
   -1
100
AcDbLine
 10
333.3524314704883
 20
422.8223137407126
 11
332.0024314704884
 21
422.8223137407126
  0
MTEXT
  5
254
100
AcDbEntity
  8
0
  6
ByLayer
 62
  256
370
   -1
100
AcDbMText
 10
330.2301435083326
 20
421.503191281901
 30
0
 40
0.2
 41
1.377777777777815
 71
    1
 72
    1
  1
Lavanderia
  7
standard
210
0
220
0
230
1
 50
0
 73
    2
 44
1
  0
LINE
  5
255
100
AcDbEntity
  8
0
  6
ByLayer
 62
  256
370
   -1
100
AcDbLine
 10
332.0024314704884
 20
421.6723137407126
 11
332.0024314704884
 21
422.8223137407126
  0
DIMENSION
  5
256
100
AcDbEntity
  8
0
  6
ByLayer
 62
  256
370
   -1
100
AcDbDimension
  2
*D41
 10
332.0024314704884
 20
422.1685489433971
 30
0
 11
330.8674314704884
 21
422.4685489433971
 31
0
 70
   32
 71
    5
  3
Standard
 53
0
210
0
220
0
230
1
100
AcDbAlignedDimension
 13
329.7324314704885
 23
421.8223137407126
 33
0
 14
332.0024314704884
 24
421.8223137407126
 34
0
100
AcDbRotatedDimension
  0
LINE
  5
257
100
AcDbEntity
  8
0
  6
ByLayer
 62
  256
370
   -1
100
AcDbLine
 10
330.8674314704884
 20
421.6723137407126
 11
330.8674314704884
 21
421.8223137407126
  0
LINE
  5
258
100
AcDbEntity
  8
0
  6
ByLayer
 62
  256
370
   -1
100
AcDbLine
 10
330.2674314704884
 20
421.6723137407126
 11
330.2674314704884
 21
421.8223137407126
  0
LINE
  5
259
100
AcDbEntity
  8
0
  6
ByLayer
 62
  256
370
   -1
100
AcDbLine
 10
331.4674314704884
 20
421.6723137407126
 11
331.4674314704884
 21
421.8223137407126
  0
LINE
  5
25A
100
AcDbEntity
  8
0
  6
ByLayer
 62
  256
370
   -1
100
AcDbLine
 10
331.4674314704884
 20
421.7473137407126
 11
330.2674314704884
 21
421.7473137407126
  0
LINE
  5
25B
100
AcDbEntity
  8
0
  6
ByLayer
 62
  256
370
   -1
100
AcDbLine
 10
332.2524314704884
 20
422.6723137407126
 11
332.2524314704884
 21
422.8223137407126
  0
LINE
  5
25C
100
AcDbEntity
  8
0
  6
ByLayer
 62
  256
370
   -1
100
AcDbLine
 10
332.1524314704884
 20
420.1723137407126
 11
332.1524314704884
 21
422.6723137407126
  0
LINE
  5
25D
100
AcDbEntity
  8
0
  6
ByLayer
 62
  256
370
   -1
100
AcDbLine
 10
332.9524314704884
 20
422.6723137407126
 11
332.9524314704884
 21
422.8223137407126
  0
LINE
  5
25E
100
AcDbEntity
  8
0
  6
ByLayer
 62
  256
370
   -1
100
AcDbLine
 10
332.9524314704884
 20
422.7473137407126
 11
332.2524314704884
 21
422.7473137407126
  0
LINE
  5
25F
100
AcDbEntity
  8
0
  6
ByLayer
 62
  256
370
   -1
100
AcDbLine
 10
329.7324314704885
 20
426.1723137407129
 11
333.3524314704883
 21
426.1723137407129
  0
LINE
  5
260
100
AcDbEntity
  8
0
  6
ByLayer
 62
  256
370
   -1
100
AcDbLine
 10
317.9124314704885
 20
420.0223137407127
 11
317.9124314704885
 21
426.3121854313882
  0
MTEXT
  5
261
100
AcDbEntity
  8
0
  6
ByLayer
 62
  256
370
   -1
100
AcDbMText
 10
325.7224199137859
 20
428.3197610782626
 30
0
 40
0.3
 41
1.92500000000006
 71
    5
 72
    1
  1
Planta 1.3\P
  7
standard
210
0
220
0
230
1
 50
0
 73
    2
 44
0.1
  0
LINE
  5
262
100
AcDbEntity
  8
0
  6
ByLayer
 62
  256
370
   -1
100
AcDbLine
 10
333.6752808349381
 20
409.9845968059113
 11
333.6752808349381
 21
416.2845968059113
  0
LINE
  5
263
100
AcDbEntity
  8
0
  6
ByLayer
 62
  256
370
   -1
100
AcDbLine
 10
325.2752808349382
 20
410.1345968059112
 11
322.9652808349382
 21
410.1345968059112
  0
LINE
  5
264
100
AcDbEntity
  8
0
  6
ByLayer
 62
  256
370
   -1
100
AcDbLine
 10
322.9652808349382
 20
411.5545968059112
 11
322.8152808349382
 21
411.5545968059112
  0
LINE
  5
265
100
AcDbEntity
  8
0
  6
ByLayer
 62
  256
370
   -1
100
AcDbLine
 10
322.9652808349382
 20
412.1545968059112
 11
322.8152808349382
 21
412.1545968059112
  0
LINE
  5
266
100
AcDbEntity
  8
0
  6
ByLayer
 62
  256
370
   -1
100
AcDbLine
 10
322.9652808349382
 20
410.9545968059112
 11
322.8152808349382
 21
410.9545968059112
  0
LINE
  5
267
100
AcDbEntity
  8
0
  6
ByLayer
 62
  256
370
   -1
100
AcDbLine
 10
322.8902808349382
 20
410.9545968059112
 11
322.8902808349382
 21
412.1545968059112
  0
LINE
  5
268
100
AcDbEntity
  8
0
  6
ByLayer
 62
  256
370
   -1
100
AcDbLine
 10
322.8152808349382
 20
410.1345968059112
 11
322.8152808349382
 21
412.9745968059112
  0
LINE
  5
269
100
AcDbEntity
  8
0
  6
ByLayer
 62
  256
370
   -1
100
AcDbLine
 10
320.0852808349383
 20
415.3845968059115
 11
320.2352808349383
 21
415.3845968059115
  0
LINE
  5
26A
100
AcDbEntity
  8
0
  6
ByLayer
 62
  256
370
   -1
100
AcDbLine
 10
320.0852808349383
 20
413.8845968059115
 11
320.2352808349383
 21
413.8845968059115
  0
LINE
  5
26B
100
AcDbEntity
  8
0
  6
ByLayer
 62
  256
370
   -1
100
AcDbLine
 10
320.1602808349383
 20
413.8845968059115
 11
320.1602808349383
 21
415.3845968059115
  0
LINE
  5
26C
100
AcDbEntity
  8
0
  6
ByLayer
 62
  256
370
   -1
100
AcDbLine
 10
322.8152808349382
 20
412.9745968059112
 11
320.0852808349383
 21
412.9745968059112
  0
LINE
  5
26D
100
AcDbEntity
  8
0
  6
ByLayer
 62
  256
370
   -1
100
AcDbLine
 10
325.2752808349382
 20
416.1345968059115
 11
325.4252808349381
 21
416.1345968059115
  0
LINE
  5
26E
100
AcDbEntity
  8
0
  6
ByLayer
 62
  256
370
   -1
100
AcDbLine
 10
320.2352808349383
 20
413.1245968059112
 11
320.2352808349383
 21
416.1345968059115
  0
LINE
  5
26F
100
AcDbEntity
  8
0
  6
ByLayer
 62
  256
370
   -1
100
AcDbLine
 10
320.2352808349383
 20
416.1345968059115
 11
325.2752808349382
 21
416.1345968059115
  0
LINE
  5
270
100
AcDbEntity
  8
0
  6
ByLayer
 62
  256
370
   -1
100
AcDbLine
 10
325.4252808349381
 20
416.1345968059115
 11
329.7552808349382
 21
416.1345968059115
  0
LINE
  5
271
100
AcDbEntity
  8
0
  6
ByLayer
 62
  256
370
   -1
100
AcDbLine
 10
325.2752808349383
 20
415.1345968059115
 11
325.4252808349381
 21
415.1345968059115
  0
LINE
  5
272
100
AcDbEntity
  8
0
  6
ByLayer
 62
  256
370
   -1
100
AcDbLine
 10
326.3152808349381
 20
411.6345968059112
 11
326.3152808349381
 21
411.7845968059112
  0
LINE
  5
273
100
AcDbEntity
  8
0
  6
ByLayer
 62
  256
370
   -1
100
AcDbLine
 10
326.015280834938
 20
411.6345968059112
 11
326.015280834938
 21
411.7845968059112
  0
LINE
  5
274
100
AcDbEntity
  8
0
  6
ByLayer
 62
  256
370
   -1
100
AcDbLine
 10
325.715280834938
 20
411.6345968059112
 11
325.715280834938
 21
411.7845968059112
  0
LINE
  5
275
100
AcDbEntity
  8
0
  6
ByLayer
 62
  256
370
   -1
100
AcDbLine
 10
328.8552808349382
 20
411.7845968059112
 11
328.8552808349382
 21
411.6345968059112
  0
LINE
  5
276
100
AcDbEntity
  8
0
  6
ByLayer
 62
  256
370
   -1
100
AcDbLine
 10
328.2552808349382
 20
411.7845968059112
 11
328.2552808349382
 21
411.6345968059112
  0
LINE
  5
277
100
AcDbEntity
  8
0
  6
ByLayer
 62
  256
370
   -1
100
AcDbLine
 10
327.6552808349382
 20
411.7845968059112
 11
327.6552808349382
 21
411.6345968059112
  0
LINE
  5
278
100
AcDbEntity
  8
0
  6
ByLayer
 62
  256
370
   -1
100
AcDbLine
 10
325.4252808349381
 20
410.1345968059112
 11
325.4252808349381
 21
411.6345968059112
  0
LINE
  5
279
100
AcDbEntity
  8
0
  6
ByLayer
 62
  256
370
   -1
100
AcDbLine
 10
326.3152808349381
 20
411.7095968059112
 11
325.715280834938
 21
411.7095968059112
  0
LINE
  5
27A
100
AcDbEntity
  8
0
  6
ByLayer
 62
  256
370
   -1
100
AcDbLine
 10
328.8552808349382
 20
411.7095968059112
 11
327.6552808349382
 21
411.7095968059112
  0
LINE
  5
27B
100
AcDbEntity
  8
0
  6
ByLayer
 62
  256
370
   -1
100
AcDbLine
 10
326.6252808349381
 20
414.0845968059112
 11
325.4252808349381
 21
414.0845968059112
  0
LINE
  5
27C
100
AcDbEntity
  8
0
  6
ByLayer
 62
  256
370
   -1
100
AcDbLine
 10
326.6252808349381
 20
415.1345968059115
 11
329.7552808349382
 21
415.1345968059115
  0
LINE
  5
27D
100
AcDbEntity
  8
0
  6
ByLayer
 62
  256
370
   -1
100
AcDbLine
 10
326.6252808349381
 20
411.7845968059112
 11
325.4252808349381
 21
411.7845968059112
  0
LINE
  5
27E
100
AcDbEntity
  8
0
  6
ByLayer
 62
  256
370
   -1
100
AcDbLine
 10
326.775280834938
 20
414.2345968059111
 11
326.6252808349381
 21
414.2345968059111
  0
LINE
  5
27F
100
AcDbEntity
  8
0
  6
ByLayer
 62
  256
370
   -1
100
AcDbLine
 10
326.6252808349381
 20
414.2345968059111
 11
325.4252808349381
 21
414.2345968059111
  0
LINE
  5
280
100
AcDbEntity
  8
0
  6
ByLayer
 62
  256
370
   -1
100
AcDbLine
 10
325.4252808349381
 20
411.7845968059112
 11
325.4252808349381
 21
414.0845968059112
  0
LINE
  5
281
100
AcDbEntity
  8
0
  6
ByLayer
 62
  256
370
   -1
100
AcDbLine
 10
326.6252808349381
 20
414.9845968059115
 11
326.775280834938
 21
414.9845968059115
  0
LINE
  5
282
100
AcDbEntity
  8
0
  6
ByLayer
 62
  256
370
   -1
100
AcDbLine
 10
326.775280834938
 20
411.7845968059112
 11
326.775280834938
 21
414.9845968059115
  0
LINE
  5
283
100
AcDbEntity
  8
0
  6
ByLayer
 62
  256
370
   -1
100
AcDbLine
 10
326.700280834938
 20
414.2345968059111
 11
326.7002808349381
 21
414.9845968059115
  0
LINE
  5
284
100
AcDbEntity
  8
0
  6
ByLayer
 62
  256
370
   -1
100
AcDbLine
 10
329.7552808349382
 20
416.0345968059115
 11
329.9052808349382
 21
416.0345968059115
  0
LINE
  5
285
100
AcDbEntity
  8
0
  6
ByLayer
 62
  256
370
   -1
100
AcDbLine
 10
329.7552808349382
 20
415.2345968059115
 11
329.9052808349382
 21
415.2345968059115
  0
LINE
  5
286
100
AcDbEntity
  8
0
  6
ByLayer
 62
  256
370
   -1
100
AcDbLine
 10
329.8302808349382
 20
416.0345968059115
 11
329.8302808349382
 21
415.2345968059115
  0
LINE
  5
287
100
AcDbEntity
  8
0
  6
ByLayer
 62
  256
370
   -1
100
AcDbLine
 10
332.1752808349381
 20
410.1345968059112
 11
325.4252808349381
 21
410.1345968059112
  0
LINE
  5
288
100
AcDbEntity
  8
0
  6
ByLayer
 62
  256
370
   -1
100
AcDbLine
 10
325.4252808349381
 20
414.2345968059111
 11
325.4252808349381
 21
415.1345968059115
  0
LINE
  5
289
100
AcDbEntity
  8
0
  6
ByLayer
 62
  256
370
   -1
100
AcDbLine
 10
329.7552808349382
 20
414.9845968059114
 11
329.7552808349382
 21
411.7845968059112
  0
LINE
  5
28A
100
AcDbEntity
  8
0
  6
ByLayer
 62
  256
370
   -1
100
AcDbLine
 10
329.7552808349382
 20
416.1345968059115
 11
329.7552808349382
 21
415.1345968059115
  0
LINE
  5
28B
100
AcDbEntity
  8
0
  6
ByLayer
 62
  256
370
   -1
100
AcDbLine
 10
326.525280834938
 20
414.0845968059112
 11
326.525280834938
 21
414.2345968059111
  0
LINE
  5
28C
100
AcDbEntity
  8
0
  6
ByLayer
 62
  256
370
   -1
100
AcDbLine
 10
326.525280834938
 20
414.1595968059111
 11
325.8252808349381
 21
414.1595968059111
  0
LINE
  5
28D
100
AcDbEntity
  8
0
  6
ByLayer
 62
  256
370
   -1
100
AcDbLine
 10
325.8252808349381
 20
414.0845968059112
 11
325.8252808349381
 21
414.2345968059111
  0
LINE
  5
28E
100
AcDbEntity
  8
0
  6
ByLayer
 62
  256
370
   -1
100
AcDbLine
 10
326.6252808349381
 20
411.7845968059112
 11
326.6252808349381
 21
414.0845968059112
  0
LINE
  5
28F
100
AcDbEntity
  8
0
  6
ByLayer
 62
  256
370
   -1
100
AcDbLine
 10
326.6252808349381
 20
414.2345968059111
 11
326.6252808349381
 21
415.1345968059115
  0
LINE
  5
290
100
AcDbEntity
  8
0
  6
ByLayer
 62
  256
370
   -1
100
AcDbLine
 10
332.3252808349381
 20
410.3345968059112
 11
332.1752808349381
 21
410.3345968059112
  0
LINE
  5
291
100
AcDbEntity
  8
0
  6
ByLayer
 62
  256
370
   -1
100
AcDbLine
 10
332.3252808349381
 20
410.9345968059112
 11
332.1752808349381
 21
410.9345968059112
  0
LINE
  5
292
100
AcDbEntity
  8
0
  6
ByLayer
 62
  256
370
   -1
100
AcDbLine
 10
332.3252808349381
 20
410.6345968059112
 11
332.1752808349381
 21
410.6345968059112
  0
LINE
  5
293
100
AcDbEntity
  8
0
  6
ByLayer
 62
  256
370
   -1
100
AcDbLine
 10
332.2502808349381
 20
410.3345968059112
 11
332.2502808349381
 21
410.9345968059112
  0
LINE
  5
294
100
AcDbEntity
  8
0
  6
ByLayer
 62
  256
370
   -1
100
AcDbLine
 10
326.775280834938
 20
414.9845968059115
 11
329.7552808349382
 21
414.9845968059114
  0
LINE
  5
295
100
AcDbEntity
  8
0
  6
ByLayer
 62
  256
370
   -1
100
AcDbLine
 10
325.4252808349381
 20
411.6345968059112
 11
325.2752808349382
 21
411.6345968059112
  0
LINE
  5
296
100
AcDbEntity
  8
0
  6
ByLayer
 62
  256
370
   -1
100
AcDbLine
 10
325.3502808349381
 20
410.7345968059112
 11
325.3502808349381
 21
411.6345968059112
  0
LINE
  5
297
100
AcDbEntity
  8
0
  6
ByLayer
 62
  256
370
   -1
100
AcDbLine
 10
333.6752808349381
 20
409.9845968059113
 11
318.0852808349382
 21
409.9845968059113
  0
LINE
  5
298
100
AcDbEntity
  8
0
  6
ByLayer
 62
  256
370
   -1
100
AcDbLine
 10
318.0852808349382
 20
416.2744684965868
 11
333.6752808349381
 21
416.2845968059113
  0
LINE
  5
299
100
AcDbEntity
  8
0
  6
ByLayer
 62
  256
370
   -1
100
AcDbLine
 10
318.2352808349382
 20
410.1345968059112
 11
318.2352808349382
 21
416.1345968059115
  0
LINE
  5
29A
100
AcDbEntity
  8
0
  6
ByLayer
 62
  256
370
   -1
100
AcDbLine
 10
322.8152808349382
 20
410.1345968059112
 11
318.2352808349382
 21
410.1345968059112
  0
LINE
  5
29B
100
AcDbEntity
  8
0
  6
ByLayer
 62
  256
370
   -1
100
AcDbLine
 10
318.2352808349382
 20
410.2345968059112
 11
318.0852808349382
 21
410.2345968059112
  0
LINE
  5
29C
100
AcDbEntity
  8
0
  6
ByLayer
 62
  256
370
   -1
100
AcDbLine
 10
318.2352808349382
 20
412.8745968059112
 11
318.0852808349382
 21
412.8745968059112
  0
LINE
  5
29D
100
AcDbEntity
  8
0
  6
ByLayer
 62
  256
370
   -1
100
AcDbLine
 10
318.1602808349382
 20
410.2345968059112
 11
318.1602808349382
 21
412.8745968059112
  0
LINE
  5
29E
100
AcDbEntity
  8
0
  6
ByLayer
 62
  256
370
   -1
100
AcDbLine
 10
325.4252808349381
 20
410.7345968059112
 11
325.2752808349382
 21
410.7345968059112
  0
LINE
  5
29F
100
AcDbEntity
  8
0
  6
ByLayer
 62
  256
370
   -1
100
AcDbLine
 10
332.1752808349381
 20
411.6345968059112
 11
325.4252808349381
 21
411.6345968059112
  0
LINE
  5
2A0
100
AcDbEntity
  8
0
  6
ByLayer
 62
  256
370
   -1
100
AcDbLine
 10
329.9052808349382
 20
416.1345968059115
 11
329.9052808349382
 21
411.7845968059112
  0
LINE
  5
2A1
100
AcDbEntity
  8
0
  6
ByLayer
 62
  256
370
   -1
100
AcDbLine
 10
333.5252808349381
 20
412.7845968059112
 11
333.5252808349381
 21
416.1345968059115
  0
LINE
  5
2A2
100
AcDbEntity
  8
0
  6
ByLayer
 62
  256
370
   -1
100
AcDbLine
 10
333.5252808349381
 20
410.1345968059112
 11
333.5252808349381
 21
412.6345968059112
  0
LINE
  5
2A3
100
AcDbEntity
  8
0
  6
ByLayer
 62
  256
370
   -1
100
AcDbLine
 10
332.1752808349381
 20
411.7845968059112
 11
329.9052808349382
 21
411.7845968059112
  0
LINE
  5
2A4
100
AcDbEntity
  8
0
  6
ByLayer
 62
  256
370
   -1
100
AcDbLine
 10
329.7552808349382
 20
411.7845968059112
 11
326.775280834938
 21
411.7845968059112
  0
LINE
  5
2A5
100
AcDbEntity
  8
0
  6
ByLayer
 62
  256
370
   -1
100
AcDbLine
 10
332.1752808349381
 20
410.1345968059112
 11
332.1752808349381
 21
411.6345968059112
  0
LINE
  5
2A6
100
AcDbEntity
  8
0
  6
ByLayer
 62
  256
370
   -1
100
AcDbLine
 10
333.5252808349381
 20
412.6345968059112
 11
332.3252808349381
 21
412.6345968059112
  0
LINE
  5
2A7
100
AcDbEntity
  8
0
  6
ByLayer
 62
  256
370
   -1
100
AcDbLine
 10
333.5252808349381
 20
410.1345968059112
 11
332.3252808349381
 21
410.1345968059112
  0
LINE
  5
2A8
100
AcDbEntity
  8
0
  6
ByLayer
 62
  256
370
   -1
100
AcDbLine
 10
331.0402808349381
 20
411.6345968059112
 11
331.0402808349381
 21
411.7845968059112
  0
LINE
  5
2A9
100
AcDbEntity
  8
0
  6
ByLayer
 62
  256
370
   -1
100
AcDbLine
 10
330.4402808349381
 20
411.6345968059112
 11
330.4402808349381
 21
411.7845968059112
  0
LINE
  5
2AA
100
AcDbEntity
  8
0
  6
ByLayer
 62
  256
370
   -1
100
AcDbLine
 10
331.6402808349381
 20
411.6345968059112
 11
331.6402808349381
 21
411.7845968059112
  0
LINE
  5
2AB
100
AcDbEntity
  8
0
  6
ByLayer
 62
  256
370
   -1
100
AcDbLine
 10
331.6402808349381
 20
411.7095968059112
 11
330.4402808349381
 21
411.7095968059112
  0
LINE
  5
2AC
100
AcDbEntity
  8
0
  6
ByLayer
 62
  256
370
   -1
100
AcDbLine
 10
332.4252808349381
 20
412.6345968059112
 11
332.4252808349381
 21
412.7845968059112
  0
LINE
  5
2AD
100
AcDbEntity
  8
0
  6
ByLayer
 62
  256
370
   -1
100
AcDbLine
 10
332.3252808349381
 20
410.1345968059112
 11
332.3252808349381
 21
412.6345968059112
  0
LINE
  5
2AE
100
AcDbEntity
  8
0
  6
ByLayer
 62
  256
370
   -1
100
AcDbLine
 10
333.1252808349381
 20
412.6345968059112
 11
333.1252808349381
 21
412.7845968059112
  0
LINE
  5
2AF
100
AcDbEntity
  8
0
  6
ByLayer
 62
  256
370
   -1
100
AcDbLine
 10
333.1252808349381
 20
412.7095968059112
 11
332.4252808349381
 21
412.7095968059112
  0
LINE
  5
2B0
100
AcDbEntity
  8
0
  6
ByLayer
 62
  256
370
   -1
100
AcDbLine
 10
329.9052808349382
 20
416.1345968059115
 11
333.525280834938
 21
416.1345968059115
  0
CIRCLE
  5
2B1
100
AcDbEntity
  8
0
  6
ByLayer
 62
  256
370
   -1
100
AcDbCircle
 10
319.7367552193967
 20
414.6088912669099
 40
0.2337828777944209
  0
CIRCLE
  5
2B2
100
AcDbEntity
  8
0
  6
ByLayer
 62
  256
370
   -1
100
AcDbCircle
 10
329.0678348959098
 20
415.6285125560653
 40
0.2337828777944209
  0
MTEXT
  5
2B3
100
AcDbEntity
  8
0
  6
ByLayer
 62
  256
370
   -1
100
AcDbMText
 10
328.2059865740246
 20
410.9568983137357
 30
0
 40
0.15
 41
0.8333333333333427
 71
    1
 72
    1
  1
Corredor
  7
standard
210
0
220
0
230
1
 50
0
 73
    2
 44
1
  0
CIRCLE
  5
2B4
100
AcDbEntity
  8
0
  6
ByLayer
 62
  256
370
   -1
100
AcDbCircle
 10
326.9811045586726
 20
415.6438119027231
 40
0.2337828777944209
  0
CIRCLE
  5
2B5
100
AcDbEntity
  8
0
  6
ByLayer
 62
  256
370
   -1
100
AcDbCircle
 10
326.0556830106648
 20
414.7071319260283
 40
0.2337828777944209
  0
CIRCLE
  5
2B6
100
AcDbEntity
  8
0
  6
ByLayer
 62
  256
370
   -1
100
AcDbCircle
 10
321.6002808349382
 20
414.6295968059114
 40
0.2337828777944209
  0
CIRCLE
  5
2B7
100
AcDbEntity
  8
0
  6
ByLayer
 62
  256
370
   -1
100
AcDbCircle
 10
321.4502808349382
 20
411.5545968059112
 40
0.2337828777944209
  0
CIRCLE
  5
2B8
100
AcDbEntity
  8
0
  6
ByLayer
 62
  256
370
   -1
100
AcDbCircle
 10
326.0252808349381
 20
412.9345968059113
 40
0.2337828777944209
  0
CIRCLE
  5
2B9
100
AcDbEntity
  8
0
  6
ByLayer
 62
  256
370
   -1
100
AcDbCircle
 10
324.1202808349382
 20
411.6295968059113
 40
0.2337828777944209
  0
CIRCLE
  5
2BA
100
AcDbEntity
  8
0
  6
ByLayer
 62
  256
370
   -1
100
AcDbCircle
 10
331.7152808349383
 20
414.4595968059114
 40
0.2337828777944209
  0
CIRCLE
  5
2BB
100
AcDbEntity
  8
0
  6
ByLayer
 62
  256
370
   -1
100
AcDbCircle
 10
328.2652808349382
 20
413.3845968059113
 40
0.2337828777944209
  0
CIRCLE
  5
2BC
100
AcDbEntity
  8
0
  6
ByLayer
 62
  256
370
   -1
100
AcDbCircle
 10
332.9513677914598
 20
411.4389446319981
 40
0.2337828777944209
  0
CIRCLE
  5
2BD
100
AcDbEntity
  8
0
  6
ByLayer
 62
  256
370
   -1
100
AcDbCircle
 10
324.1202808351361
 20
414.6295968056535
 40
0.2337828777944209
  0
CIRCLE
  5
2BE
100
AcDbEntity
  8
0
  6
ByLayer
 62
  256
370
   -1
100
AcDbCircle
 10
331.0402808349381
 20
412.2845968059112
 40
0.2337828777944209
  0
CIRCLE
  5
2BF
100
AcDbEntity
  8
0
  6
ByLayer
 62
  256
370
   -1
100
AcDbCircle
 10
321.596058417538
 20
415.7790235401566
 40
0.2337828777944209
  0
CIRCLE
  5
2C0
100
AcDbEntity
  8
0
  6
ByLayer
 62
  256
370
   -1
100
AcDbCircle
 10
319.7357419456034
 20
411.5433877311757
 40
0.2337828777944209
  0
CIRCLE
  5
2C1
100
AcDbEntity
  8
0
  6
ByLayer
 62
  256
370
   -1
100
AcDbCircle
 10
317.7493023230292
 20
411.5644082562823
 40
0.2337828777944209
  0
CIRCLE
  5
2C2
100
AcDbEntity
  8
0
  6
ByLayer
 62
  256
370
   -1
100
AcDbCircle
 10
326.3572073541935
 20
411.3121619550148
 40
0.2337828777944209
  0
CIRCLE
  5
2C3
100
AcDbEntity
  8
0
  6
ByLayer
 62
  256
370
   -1
100
AcDbCircle
 10
330.9396818274335
 20
411.3226722175681
 40
0.2337828777944209
  0
LINE
  5
2C4
100
AcDbEntity
  8
0
  6
ByLayer
 62
  256
370
   -1
100
AcDbLine
 10
333.525280834938
 20
412.7845968059112
 11
332.1752808349381
 21
412.7845968059112
  0
LINE
  5
2C5
100
AcDbEntity
  8
0
  6
ByLayer
 62
  256
370
   -1
100
AcDbLine
 10
322.9652808349382
 20
413.1245968059112
 11
320.2352808349383
 21
413.1245968059112
  0
LINE
  5
2C6
100
AcDbEntity
  8
0
  6
ByLayer
 62
  256
370
   -1
100
AcDbLine
 10
325.2752808349382
 20
410.1345968059112
 11
325.2752808349382
 21
415.1345968059115
  0
LINE
  5
2C7
100
AcDbEntity
  8
0
  6
ByLayer
 62
  256
370
   -1
100
AcDbLine
 10
322.9652808349382
 20
410.1345968059112
 11
322.9652808349382
 21
413.1245968059112
  0
LINE
  5
2C8
100
AcDbEntity
  8
0
  6
ByLayer
 62
  256
370
   -1
100
AcDbLine
 10
320.0852808349383
 20
412.9745968059112
 11
320.0852808349383
 21
416.1345968059115
  0
LINE
  5
2C9
100
AcDbEntity
  8
0
  6
ByLayer
 62
  256
370
   -1
100
AcDbLine
 10
332.1752808349381
 20
411.7845968059112
 11
332.1752808349381
 21
412.7845968059112
  0
LINE
  5
2CA
100
AcDbEntity
  8
0
  6
ByLayer
 62
  256
370
   -1
100
AcDbLine
 10
318.0852808349382
 20
409.9845968059113
 11
318.0852808349382
 21
416.2744684965868
  0
LWPOLYLINE
  5
2CB
100
AcDbEntity
  8
0
  6
ByLayer
 62
  256
370
   -1
100
AcDbPolyline
 90
    4
 70
    1
 43
0
 10
320.5659507890483
 20
413.1690672415235
 10
320.2806166152221
 20
413.1690672415235
 10
320.2806166152221
 20
413.9571330549483
 10
320.5659507890483
 20
413.9571330549483
  0
LINE
  5
2CC
100
AcDbEntity
  8
0
  6
ByLayer
 62
  256
370
   -1
100
AcDbLine
 10
325.96638753305
 20
413.1563878812401
 11
325.6004684504003
 21
414.1184020568034
  0
LINE
  5
2CD
100
AcDbEntity
  8
0
  6
ByLayer
 62
  256
370
   -1
100
AcDbLine
 10
325.8468992536824
 20
413.0746327427254
 11
325.3748259623463
 21
413.6698532616184
  0
LINE
  5
2CE
100
AcDbEntity
  8
0
  6
ByLayer
 62
  256
370
   -1
100
AcDbLine
 10
325.8700883202239
 20
414.5629854219236
 11
325.6137801262842
 21
414.1893810092612
  0
LINE
  5
2CF
100
AcDbEntity
  8
0
  6
ByLayer
 62
   40
420
16559934
370
   -1
100
AcDbLine
 10
325.7930476766966
 20
412.9255763145008
 11
324.2480476766966
 21
414.4295763145008
  0
LINE
  5
2D0
100
AcDbEntity
  8
0
  6
ByLayer
 62
  256
370
   -1
100
AcDbLine
 10
324.2531303683572
 20
411.8165405776677
 11
325.3377118865691
 21
413.0568655389214
  0
LINE
  5
2D1
100
AcDbEntity
  8
0
  6
ByLayer
 62
   40
420
16559934
370
   -1
100
AcDbLine
 10
324.3526901067555
 20
411.5842345214051
 11
326.128172108191
 21
411.3740528514532
  0
LINE
  5
2D2
100
AcDbEntity
  8
0
  6
ByLayer
 62
   40
420
16559934
370
   -1
100
AcDbLine
 10
326.5949180404789
 20
411.3167283911921
 11
330.7006766243979
 21
411.3231346563375
  0
LINE
  5
2D3
100
AcDbEntity
  8
0
  6
ByLayer
 62
   40
420
16559934
370
   -1
100
AcDbLine
 10
321.7915268795341
 20
414.4928467876007
 11
323.9240476766966
 21
414.4895763145008
  0
LWPOLYLINE
  5
2D4
100
AcDbEntity
  8
0
  6
ByLayer
 62
  256
370
   -1
100
AcDbPolyline
 90
    4
 70
    1
 43
0
 10
318.5140922149174
 20
413.3513424427242
 10
318.3191376538438
 20
413.3513424427242
 10
318.3191376538438
 20
412.8796781820624
 10
318.5140922149174
 20
412.8796781820624
  0
CIRCLE
  5
2D5
100
AcDbEntity
  8
0
  6
ByLayer
 62
    3
370
    9
100
AcDbCircle
 10
318.4350977336115
 20
410.356073703815
 40
0.103035
  0
CIRCLE
  5
2D6
100
AcDbEntity
  8
0
  6
ByLayer
 62
    3
370
    9
100
AcDbCircle
 10
322.6205082730753
 20
410.3599357800965
 40
0.103035
  0
LINE
  5
2D7
100
AcDbEntity
  8
0
  6
ByLayer
 62
    3
370
   -1
100
AcDbLine
 10
318.563397854617
 20
410.3502064985175
 11
322.5086215349164
 21
410.3502064985175
  0
CIRCLE
  5
2D8
100
AcDbEntity
  8
0
  6
ByLayer
 62
    3
370
    9
100
AcDbCircle
 10
318.4320525533209
 20
413.6095158275219
 40
0.103035
  0
LINE
  5
2D9
100
AcDbEntity
  8
0
  6
ByLayer
 62
    3
370
   -1
100
AcDbLine
 10
318.4320525533209
 20
413.5122230117315
 11
318.4320525533209
 21
410.4572285959138
  0
CIRCLE
  5
2DA
100
AcDbEntity
  8
0
  6
ByLayer
 62
    3
370
    9
100
AcDbCircle
 10
318.4261739967602
 20
415.9584572102868
 40
0.103035
  0
LINE
  5
2DB
100
AcDbEntity
  8
0
  6
ByLayer
 62
    3
370
   -1
100
AcDbLine
 10
318.4261739967602
 20
415.8726520479872
 11
318.4233545755929
 21
413.7081756073789
  0
LINE
  5
2DC
100
AcDbEntity
  8
0
  6
ByLayer
 62
    3
370
   -1
100
AcDbLine
 10
318.5200476766966
 20
413.5945763145008
 11
320.2760476766966
 21
413.5945763145008
  0
LINE
  5
2DD
100
AcDbEntity
  8
0
  6
ByLayer
 62
    2
370
   -1
100
AcDbLine
 10
320.2836794507134
 20
413.2542430243331
 11
318.5123854429203
 21
413.2542430243331
  0
LWPOLYLINE
  5
2DE
100
AcDbEntity
  8
0
  6
ByLayer
 62
  256
370
   -1
100
AcDbPolyline
 90
    4
 70
    1
 43
0
 10
318.0196081444937
 20
413.1123658840465
 10
317.7342739706675
 20
413.1123658840465
 10
317.7342739706675
 20
413.9004316974713
 10
318.0196081444937
 20
413.9004316974713
  0
LINE
  5
2DF
100
AcDbEntity
  8
0
  6
ByLayer
 62
  256
370
   -1
100
AcDbLine
 10
318.0852808349382
 20
416.1345968059115
 11
320.0852808349383
 21
416.1345968059115
  0
LINE
  5
2E0
100
AcDbEntity
  8
0
  6
ByLayer
 62
  256
370
   -1
100
AcDbLine
 10
318.0852808349382
 20
416.0345968059115
 11
318.2352808349382
 21
416.0345968059115
  0
LINE
  5
2E1
100
AcDbEntity
  8
0
  6
ByLayer
 62
  256
370
   -1
100
AcDbLine
 10
318.0852808349382
 20
415.0345968059115
 11
318.2352808349382
 21
415.0345968059115
  0
LINE
  5
2E2
100
AcDbEntity
  8
0
  6
ByLayer
 62
  256
370
   -1
100
AcDbLine
 10
318.0852808349382
 20
415.5345968059115
 11
318.2352808349382
 21
415.5345968059115
  0
LINE
  5
2E3
100
AcDbEntity
  8
0
  6
ByLayer
 62
  256
370
   -1
100
AcDbLine
 10
318.1602808349382
 20
415.0345968059115
 11
318.1602808349382
 21
416.0345968059115
  0
LINE
  5
2E4
100
AcDbEntity
  8
0
  6
ByLayer
 62
  256
370
   -1
100
AcDbLine
 10
319.5060352881052
 20
414.6547840430198
 11
318.1609699355774
 21
414.9648329270888
  0
LINE
  5
2E5
100
AcDbEntity
  8
0
  6
ByLayer
 62
  256
370
   -1
100
AcDbLine
 10
321.4517066588328
 20
411.3203664748664
 11
321.4517066588328
 21
410.0368200924073
  0
LINE
  5
2E6
100
AcDbEntity
  8
0
  6
ByLayer
 62
  256
370
   -1
100
AcDbLine
 10
321.623256911344
 20
411.7074412789463
 11
322.8783342350402
 21
412.6414523105342
  0
MTEXT
  5
2E7
100
AcDbEntity
  8
0
  6
ByLayer
 62
  256
370
   -1
100
AcDbMText
 10
320.1496096012498
 20
411.9575683473731
 30
0
 40
0.15
 41
0.8000000000000372
 71
    4
 72
    1
  1
Garagem
  7
standard
210
0
220
0
230
1
 50
0
 73
    2
 44
0.1
  0
CIRCLE
  5
2E8
100
AcDbEntity
  8
0
  6
ByLayer
 62
  256
370
   -1
100
AcDbCircle
 10
317.7468831286905
 20
415.5365818291573
 40
0.2337828777944209
  0
LINE
  5
2E9
100
AcDbEntity
  8
0
  6
ByLayer
 62
   40
420
16559934
370
   -1
100
AcDbLine
 10
320.3640476766966
 20
413.9605763145008
 11
319.9670476766966
 21
414.5775763145008
  0
LINE
  5
2EA
100
AcDbEntity
  8
0
  6
ByLayer
 62
   40
420
16559934
370
   -1
100
AcDbLine
 10
319.5840476766966
 20
414.7925763145008
 11
317.9400476766966
 21
415.4145763145008
  0
LINE
  5
2EB
100
AcDbEntity
  8
0
  6
ByLayer
 62
   40
420
16559934
370
   -1
100
AcDbLine
 10
319.7280476766966
 20
414.3645763145008
 11
319.7260476766966
 21
411.7705763145008
  0
LINE
  5
2EC
100
AcDbEntity
  8
0
  6
ByLayer
 62
   40
420
16559934
370
   -1
100
AcDbLine
 10
319.5070476766966
 20
411.5565763145008
 11
317.9840476766966
 21
411.5565763145008
  0
LINE
  5
2ED
100
AcDbEntity
  8
0
  6
ByLayer
 62
   40
420
16559934
370
   -1
100
AcDbLine
 10
319.9640476766966
 20
411.5565763145008
 11
321.2190476766966
 21
411.5565763145008
  0
LINE
  5
2EE
100
AcDbEntity
  8
0
  6
ByLayer
 62
  256
370
   -1
100
AcDbLine
 10
321.4520476766966
 20
411.7825763145008
 11
321.4490476766966
 21
413.0495763145008
  0
LINE
  5
2EF
100
AcDbEntity
  8
0
  6
ByLayer
 62
    1
370
   -1
100
AcDbLine
 10
325.8470476766966
 20
412.7665763145008
 11
325.3380476766966
 21
412.2585763145008
  0
LINE
  5
2F0
100
AcDbEntity
  8
0
  6
ByLayer
 62
    1
370
   -1
100
AcDbLine
 10
324.3120476766966
 20
414.5295763145008
 11
325.3190476766966
 21
413.8735763145008
  0
LINE
  5
2F1
100
AcDbEntity
  8
0
  6
ByLayer
 62
  256
370
   -1
100
AcDbLine
 10
319.8116598168479
 20
414.8309882129807
 11
320.1269323217761
 21
415.7768057277652
  0
LINE
  5
2F2
100
AcDbEntity
  8
0
  6
ByLayer
 62
  256
370
   -1
100
AcDbLine
 10
321.5982040114479
 20
415.5500307680891
 11
321.5982040114479
 21
414.8586436958781
  0
LINE
  5
2F3
100
AcDbEntity
  8
0
  6
ByLayer
 62
  256
370
   -1
100
AcDbLine
 10
321.6037351080256
 20
416.1805757779454
 11
321.6037351080256
 21
416.0091117840371
  0
LINE
  5
2F4
100
AcDbEntity
  8
0
  6
ByLayer
 62
  256
370
   -1
100
AcDbLine
 10
320.182243287553
 20
415.7823368243428
 11
321.4156778243843
 21
414.7756772472128
  0
LINE
  5
2F5
100
AcDbEntity
  8
0
  6
ByLayer
 62
  256
370
   -1
100
AcDbLine
 10
324.1489079159276
 20
414.8543792204207
 11
325.2683244273367
 21
416.2001945767919
  0
MTEXT
  5
2F6
100
AcDbEntity
  8
0
  6
ByLayer
 62
  256
370
   -1
100
AcDbMText
 10
325.9177478628353
 20
414.4396371065303
 30
0
 40
0.15
 41
0.3333333333333404
 71
    1
 72
    1
  1
Hall
  7
standard
210
0
220
0
230
1
 50
0
 73
    2
 44
1
  0
MTEXT
  5
2F7
100
AcDbEntity
  8
0
  6
ByLayer
 62
  256
370
   -1
100
AcDbMText
 10
321.688839103677
 20
415.3378975254969
 30
0
 40
0.2
 41
0.5111110687106999
 71
    1
 72
    1
  1
Sala
  7
standard
210
0
220
0
230
1
 50
0
 73
    2
 44
1
  0
LINE
  5
2F8
100
AcDbEntity
  8
0
  6
ByLayer
 62
  256
370
   -1
100
AcDbLine
 10
321.632986192923
 20
411.396104268417
 11
322.8394171089211
 21
410.5107396449744
  0
LINE
  5
2F9
100
AcDbEntity
  8
0
  6
ByLayer
 62
  256
370
   -1
100
AcDbLine
 10
323.9290966457743
 20
411.4885324436685
 11
322.9269806431325
 21
410.5010103633953
  0
LINE
  5
2FA
100
AcDbEntity
  8
0
  6
ByLayer
 62
  256
370
   -1
100
AcDbLine
 10
323.9047734418266
 20
411.7171705607761
 11
322.9269806431325
 21
412.6171291068379
  0
LINE
  5
2FB
100
AcDbEntity
  8
0
  6
ByLayer
 62
  256
370
   -1
100
AcDbLine
 10
324.2550275786723
 20
411.4350213949838
 11
325.3155192707883
 21
410.5837092568173
  0
LINE
  5
2FC
100
AcDbEntity
  8
0
  6
ByLayer
 62
  256
370
   -1
100
AcDbLine
 10
324.1188176365657
 20
411.3912396278781
 11
324.1188176365657
 21
410.0485987699697
  0
LINE
  5
2FD
100
AcDbEntity
  8
0
  6
ByLayer
 62
  256
370
   -1
100
AcDbLine
 10
326.196019253692
 20
411.1382783068229
 11
325.3884888826312
 21
410.5739799752382
  0
LINE
  5
2FE
100
AcDbEntity
  8
0
  6
ByLayer
 62
  256
370
   -1
100
AcDbLine
 10
326.1814253313336
 20
411.4739385213127
 11
325.5538866694851
 21
411.6685241528936
  0
LINE
  5
2FF
100
AcDbEntity
  8
0
  6
ByLayer
 62
  256
370
   -1
100
AcDbLine
 10
331.1467893080022
 20
411.4179340390012
 11
331.8645849321735
 21
411.6905314069948
  0
MTEXT
  5
300
100
AcDbEntity
  8
0
  6
ByLayer
 62
  256
370
   -1
100
AcDbMText
 10
327.4407657191655
 20
414.4138052552864
 30
0
 40
0.15
 41
0.650000000000007
 71
    1
 72
    1
  1
Quarto
  7
standard
210
0
220
0
230
1
 50
0
 73
    2
 44
1
  0
LINE
  5
301
100
AcDbEntity
  8
0
  6
ByLayer
 62
   40
420
16559934
370
   -1
100
AcDbLine
 10
326.227293336166
 20
414.8572909611972
 11
326.785026891114
 21
415.4936792482534
  0
LINE
  5
302
100
AcDbEntity
  8
0
  6
ByLayer
 62
   40
420
16559934
370
   -1
100
AcDbLine
 10
327.2069022724208
 20
415.6366878520862
 11
328.8443507863068
 21
415.6295374218946
  0
MTEXT
  5
303
100
AcDbEntity
  8
0
  6
ByLayer
 62
  256
370
   -1
100
AcDbMText
 10
327.6101692715096
 20
415.9225460257273
 30
0
 40
0.15
 41
0.8333333333333427
 71
    1
 72
    1
  1
Corredor
  7
standard
210
0
220
0
230
1
 50
0
 73
    2
 44
1
  0
LINE
  5
304
100
AcDbEntity
  8
0
  6
ByLayer
 62
  256
370
   -1
100
AcDbLine
 10
329.1979307092539
 20
415.42834664346
 11
329.6308981067607
 21
415.0861047265424
  0
LINE
  5
305
100
AcDbEntity
  8
0
  6
ByLayer
 62
  256
370
   -1
100
AcDbLine
 10
327.1071762028877
 20
415.4394088366153
 11
327.5551950256805
 21
415.0467009795994
  0
LINE
  5
306
100
AcDbEntity
  8
0
  6
ByLayer
 62
  256
370
   -1
100
AcDbLine
 10
326.7765178791938
 20
415.7300295678178
 11
325.3537610318118
 21
416.2015718372358
  0
LINE
  5
307
100
AcDbEntity
  8
0
  6
ByLayer
 62
   40
420
16559934
370
   -1
100
AcDbLine
 10
324.3537662190884
 20
414.6324742855618
 11
325.8214419129441
 21
414.7089246463904
  0
LINE
  5
308
100
AcDbEntity
  8
0
  6
ByLayer
 62
  256
370
   -1
100
AcDbLine
 10
328.4201242355686
 20
413.2097174381557
 11
329.3293501644944
 21
411.7300503158211
  0
LINE
  5
309
100
AcDbEntity
  8
0
  6
ByLayer
 62
  256
370
   -1
100
AcDbLine
 10
328.4978080615997
 20
413.3914527719061
 11
329.8025084319831
 21
413.3914527719061
  0
LINE
  5
30A
100
AcDbEntity
  8
0
  6
ByLayer
 62
   40
420
16559934
370
   -1
100
AcDbLine
 10
326.2560476766966
 20
412.9425763145008
 11
328.0420476766966
 21
413.310682601306
  0
LINE
  5
30B
100
AcDbEntity
  8
0
  6
ByLayer
 62
  256
370
   -1
100
AcDbLine
 10
328.2633462026749
 20
413.6182202056985
 11
328.2651659407802
 21
415.0718038669419
  0
LINE
  5
30C
100
AcDbEntity
  8
0
  6
ByLayer
 62
  256
370
   -1
100
AcDbLine
 10
328.0895517778982
 20
413.5352676695555
 11
326.7358676827021
 21
414.022721349882
  0
LINE
  5
30D
100
AcDbEntity
  8
0
  6
ByLayer
 62
    1
370
   -1
100
AcDbLine
 10
331.5680476766966
 20
414.2759716165711
 11
330.2190476766966
 21
411.7195763145008
  0
LINE
  5
30E
100
AcDbEntity
  8
0
  6
ByLayer
 62
  256
370
   -1
100
AcDbLine
 10
331.4887484330989
 20
414.4093616206899
 11
329.8580953892177
 21
415.0194560169239
  0
LINE
  5
30F
100
AcDbEntity
  8
0
  6
ByLayer
 62
  256
370
   -1
100
AcDbLine
 10
331.7126065957765
 20
414.2224605678863
 11
331.9841819215484
 21
411.7193999645671
  0
LINE
  5
310
100
AcDbEntity
  8
0
  6
ByLayer
 62
  256
370
   -1
100
AcDbLine
 10
331.0761798594505
 20
412.5149244880504
 11
331.647785733674
 21
414.2332675057716
  0
LINE
  5
311
100
AcDbEntity
  8
0
  6
ByLayer
 62
   40
420
16559934
370
   -1
100
AcDbLine
 10
329.3049600479777
 20
415.6162090200373
 11
331.5083475625779
 21
414.566751641792
  0
LINE
  5
312
100
AcDbEntity
  8
0
  6
ByLayer
 62
  256
370
   -1
100
AcDbLine
 10
331.9413546122917
 20
414.4604047429928
 11
333.6062146821784
 21
414.4604047429928
  0
LINE
  5
313
100
AcDbEntity
  8
0
  6
ByLayer
 62
  256
370
   -1
100
AcDbLine
 10
331.7201107491838
 20
414.692710799256
 11
331.7201107491838
 21
416.1805757786564
  0
LINE
  5
314
100
AcDbEntity
  8
0
  6
ByLayer
 62
   40
420
16559934
370
   -1
100
AcDbLine
 10
331.880512549937
 20
414.2944718456618
 11
332.8967500090459
 21
411.6660216192357
  0
LINE
  5
315
100
AcDbEntity
  8
0
  6
ByLayer
 62
  256
370
   -1
100
AcDbLine
 10
333.062664291796
 20
411.6427354041128
 11
333.2875654044121
 21
412.6900046858485
  0
LINE
  5
316
100
AcDbEntity
  8
0
  6
ByLayer
 62
    1
370
   -1
100
AcDbLine
 10
333.0635229329256
 20
411.2390752049374
 11
333.5930476766966
 21
410.4155763145008
  0
LINE
  5
317
100
AcDbEntity
  8
0
  6
ByLayer
 62
  256
370
   -1
100
AcDbLine
 10
333.1441660447258
 20
411.5583228742926
 11
333.6111003115059
 21
412.2185681069404
  0
LINE
  5
318
100
AcDbEntity
  8
0
  6
ByLayer
 62
   40
420
16559934
370
   -1
100
AcDbLine
 10
321.794026617901
 20
414.7428840788421
 11
323.9105539546306
 21
414.7357336486504
  0
LINE
  5
319
100
AcDbEntity
  8
0
  6
ByLayer
 62
   40
420
16559934
370
   -1
100
AcDbLine
 10
321.7150476766966
 20
414.4325763145008
 11
324.1139529963763
 21
411.8533805036437
  0
LINE
  5
31A
100
AcDbEntity
  8
0
  6
ByLayer
 62
  256
370
   -1
100
AcDbLine
 10
319.8622569463539
 20
414.4024522773956
 11
320.1366172725422
 21
413.8104289909913
  0
LINE
  5
31B
100
AcDbEntity
  8
0
  6
ByLayer
 62
  256
370
    5
100
AcDbLine
 10
317.9464810950618
 20
413.4521221520702
 11
320.2880476766966
 21
413.4515763145008
  0
LINE
  5
31C
100
AcDbEntity
  8
0
  6
ByLayer
 62
    2
370
   -1
100
AcDbLine
 10
320.2832805776452
 20
413.6666109934667
 11
318.1490476766966
 21
414.8545763145008
  0
LINE
  5
31D
100
AcDbEntity
  8
0
  6
ByLayer
 62
   40
420
16559934
370
   -1
100
AcDbLine
 10
320.5528267589654
 20
413.8353908299082
 11
321.371429052465
 21
414.631868737097
  0
LINE
  5
31E
100
AcDbEntity
  8
0
  6
ByLayer
 62
   40
420
16559934
370
   -1
100
AcDbLine
 10
320.5638889521208
 20
413.5588360010233
 11
321.443333307975
 21
414.4493425500329
  0
LINE
  5
31F
100
AcDbEntity
  8
0
  6
ByLayer
 62
   40
420
16559934
370
   -1
100
AcDbLine
 10
320.5528267589654
 20
413.287812268716
 11
321.6424527847722
 21
414.3940315842559
  0
LINE
  5
320
100
AcDbEntity
  8
0
  6
ByLayer
 62
    1
370
   -1
100
AcDbLine
 10
320.5570476766966
 20
413.2095763145008
 11
321.3620476766966
 21
413.0875763145008
  0
MTEXT
  5
321
100
AcDbEntity
  8
0
  6
ByLayer
 62
  256
370
   -1
100
AcDbMText
 10
330.9351524236423
 20
410.6584550284775
 30
0
 40
0.15
 41
1.033333333333361
 71
    1
 72
    1
  1
Lavanderia
  7
standard
210
0
220
0
230
1
 50
0
 73
    2
 44
1
  0
MTEXT
  5
322
100
AcDbEntity
  8
0
  6
ByLayer
 62
  256
370
   -1
100
AcDbMText
 10
330.6988702521758
 20
415.6593803067221
 30
0
 40
0.15
 41
0.4666666348663443
 71
    1
 72
    1
  1
Suite
  7
standard
210
0
220
0
230
1
 50
0
 73
    2
 44
1
  0
MTEXT
  5
323
100
AcDbEntity
  8
0
  6
ByLayer
 62
  256
370
   -1
100
AcDbMText
 10
332.464446427667
 20
410.732405864385
 30
0
 40
0.15
 41
0.8166666666666876
 71
    1
 72
    1
  1
Banheiro\P
  7
standard
210
0
220
0
230
1
 50
0
 73
    2
 44
1
  0
MTEXT
  5
324
100
AcDbEntity
  8
0
  6
ByLayer
 62
  256
370
   -1
100
AcDbMText
 10
325.6644729658602
 20
412.2565926908846
 30
0
 40
0.15
 41
0.8166666666666876
 71
    4
 72
    1
  1
Banheiro
  7
standard
210
0
220
0
230
1
 50
0
 73
    2
 44
0.1
  0
MTEXT
  5
325
100
AcDbEntity
  8
0
  6
ByLayer
 62
  256
370
   -1
100
AcDbMText
 10
323.7386637193944
 20
410.6933321182462
 30
0
 40
0.1
 41
0.4666666666666868
 71
    5
 72
    1
  1
Cozinha
  7
STANDARD
210
0
220
0
230
1
 50
0
 73
    2
 44
1
  0
MTEXT
  5
326
100
AcDbEntity
  8
0
  6
ByLayer
 62
  256
370
   -1
100
AcDbMText
 10
319.0350498006921
 20
415.44054102285
 30
0
 40
0.15
 41
0.3333333333333404
 71
    1
 72
    1
  1
Hall
  7
standard
210
0
220
0
230
1
 50
0
 73
    2
 44
1
  0
MTEXT
  5
327
100
AcDbEntity
  8
0
  6
ByLayer
 62
  256
370
   -1
100
AcDbMText
 10
325.5470602181642
 20
417.0899795071595
 30
0
 40
0.3
 41
1.92500000000006
 71
    5
 72
    1
  1
Planta 1.3\P\PEltrica
  7
standard
210
0
220
0
230
1
 50
0
 73
    2
 44
0.5
  0
LINE
  5
328
100
AcDbEntity
  8
0
  6
ByLayer
 62
  256
370
   -1
100
AcDbLine
 10
333.7754142439952
 20
400.8057009756847
 11
333.7754142439952
 21
407.1057009756847
  0
LINE
  5
329
100
AcDbEntity
  8
0
  6
ByLayer
 62
  256
370
   -1
100
AcDbLine
 10
325.3754142439952
 20
400.9557009756846
 11
323.0654142439952
 21
400.9557009756846
  0
LINE
  5
32A
100
AcDbEntity
  8
0
  6
ByLayer
 62
  256
370
   -1
100
AcDbLine
 10
323.0654142439952
 20
402.3757009756847
 11
322.9154142439953
 21
402.3757009756847
  0
LINE
  5
32B
100
AcDbEntity
  8
0
  6
ByLayer
 62
  256
370
   -1
100
AcDbLine
 10
323.0654142439952
 20
402.9757009756846
 11
322.9154142439953
 21
402.9757009756846
  0
LINE
  5
32C
100
AcDbEntity
  8
0
  6
ByLayer
 62
  256
370
   -1
100
AcDbLine
 10
323.0654142439952
 20
401.7757009756846
 11
322.9154142439953
 21
401.7757009756846
  0
LINE
  5
32D
100
AcDbEntity
  8
0
  6
ByLayer
 62
  256
370
   -1
100
AcDbLine
 10
322.9904142439952
 20
401.7757009756846
 11
322.9904142439952
 21
402.9757009756846
  0
LINE
  5
32E
100
AcDbEntity
  8
0
  6
ByLayer
 62
  256
370
   -1
100
AcDbLine
 10
322.9154142439953
 20
400.9557009756846
 11
322.9154142439953
 21
403.7957009756847
  0
LINE
  5
32F
100
AcDbEntity
  8
0
  6
ByLayer
 62
  256
370
   -1
100
AcDbLine
 10
320.1854142439954
 20
406.2057009756849
 11
320.3354142439953
 21
406.2057009756849
  0
LINE
  5
330
100
AcDbEntity
  8
0
  6
ByLayer
 62
  256
370
   -1
100
AcDbLine
 10
320.1854142439954
 20
404.7057009756849
 11
320.3354142439953
 21
404.7057009756849
  0
LINE
  5
331
100
AcDbEntity
  8
0
  6
ByLayer
 62
  256
370
   -1
100
AcDbLine
 10
320.2604142439953
 20
404.7057009756849
 11
320.2604142439953
 21
406.2057009756849
  0
LINE
  5
332
100
AcDbEntity
  8
0
  6
ByLayer
 62
  256
370
   -1
100
AcDbLine
 10
322.9154142439953
 20
403.7957009756847
 11
320.1854142439954
 21
403.7957009756847
  0
LINE
  5
333
100
AcDbEntity
  8
0
  6
ByLayer
 62
  256
370
   -1
100
AcDbLine
 10
325.3754142439952
 20
406.9557009756849
 11
325.5254142439952
 21
406.9557009756849
  0
LINE
  5
334
100
AcDbEntity
  8
0
  6
ByLayer
 62
  256
370
   -1
100
AcDbLine
 10
320.3354142439953
 20
403.9457009756846
 11
320.3354142439953
 21
406.9557009756849
  0
LINE
  5
335
100
AcDbEntity
  8
0
  6
ByLayer
 62
  256
370
   -1
100
AcDbLine
 10
320.3354142439953
 20
406.9557009756849
 11
325.3754142439952
 21
406.9557009756849
  0
LINE
  5
336
100
AcDbEntity
  8
0
  6
ByLayer
 62
  256
370
   -1
100
AcDbLine
 10
325.5254142439952
 20
406.9557009756849
 11
329.8554142439953
 21
406.9557009756849
  0
LINE
  5
337
100
AcDbEntity
  8
0
  6
ByLayer
 62
  256
370
   -1
100
AcDbLine
 10
325.3754142439954
 20
405.9557009756849
 11
325.5254142439952
 21
405.9557009756849
  0
LINE
  5
338
100
AcDbEntity
  8
0
  6
ByLayer
 62
  256
370
   -1
100
AcDbLine
 10
326.4154142439951
 20
402.4557009756846
 11
326.4154142439951
 21
402.6057009756847
  0
LINE
  5
339
100
AcDbEntity
  8
0
  6
ByLayer
 62
  256
370
   -1
100
AcDbLine
 10
326.115414243995
 20
402.4557009756846
 11
326.115414243995
 21
402.6057009756847
  0
LINE
  5
33A
100
AcDbEntity
  8
0
  6
ByLayer
 62
  256
370
   -1
100
AcDbLine
 10
325.815414243995
 20
402.4557009756846
 11
325.815414243995
 21
402.6057009756847
  0
LINE
  5
33B
100
AcDbEntity
  8
0
  6
ByLayer
 62
  256
370
   -1
100
AcDbLine
 10
328.9554142439952
 20
402.6057009756847
 11
328.9554142439952
 21
402.4557009756846
  0
LINE
  5
33C
100
AcDbEntity
  8
0
  6
ByLayer
 62
  256
370
   -1
100
AcDbLine
 10
328.3554142439953
 20
402.6057009756847
 11
328.3554142439953
 21
402.4557009756846
  0
LINE
  5
33D
100
AcDbEntity
  8
0
  6
ByLayer
 62
  256
370
   -1
100
AcDbLine
 10
327.7554142439952
 20
402.6057009756847
 11
327.7554142439952
 21
402.4557009756846
  0
LINE
  5
33E
100
AcDbEntity
  8
0
  6
ByLayer
 62
  256
370
   -1
100
AcDbLine
 10
325.5254142439952
 20
400.9557009756846
 11
325.5254142439952
 21
402.4557009756846
  0
LINE
  5
33F
100
AcDbEntity
  8
0
  6
ByLayer
 62
  256
370
   -1
100
AcDbLine
 10
326.4154142439951
 20
402.5307009756846
 11
325.815414243995
 21
402.5307009756846
  0
LINE
  5
340
100
AcDbEntity
  8
0
  6
ByLayer
 62
  256
370
   -1
100
AcDbLine
 10
328.9554142439952
 20
402.5307009756846
 11
327.7554142439952
 21
402.5307009756846
  0
LINE
  5
341
100
AcDbEntity
  8
0
  6
ByLayer
 62
  256
370
   -1
100
AcDbLine
 10
326.7254142439951
 20
404.9057009756846
 11
325.5254142439952
 21
404.9057009756846
  0
LINE
  5
342
100
AcDbEntity
  8
0
  6
ByLayer
 62
  256
370
   -1
100
AcDbLine
 10
326.7254142439951
 20
405.9557009756849
 11
329.8554142439953
 21
405.9557009756849
  0
LINE
  5
343
100
AcDbEntity
  8
0
  6
ByLayer
 62
  256
370
   -1
100
AcDbLine
 10
326.7254142439951
 20
402.6057009756847
 11
325.5254142439952
 21
402.6057009756847
  0
LINE
  5
344
100
AcDbEntity
  8
0
  6
ByLayer
 62
  256
370
   -1
100
AcDbLine
 10
326.875414243995
 20
405.0557009756845
 11
326.7254142439951
 21
405.0557009756845
  0
LINE
  5
345
100
AcDbEntity
  8
0
  6
ByLayer
 62
  256
370
   -1
100
AcDbLine
 10
326.7254142439951
 20
405.0557009756845
 11
325.5254142439952
 21
405.0557009756845
  0
LINE
  5
346
100
AcDbEntity
  8
0
  6
ByLayer
 62
  256
370
   -1
100
AcDbLine
 10
325.5254142439952
 20
402.6057009756847
 11
325.5254142439952
 21
404.9057009756846
  0
LINE
  5
347
100
AcDbEntity
  8
0
  6
ByLayer
 62
  256
370
   -1
100
AcDbLine
 10
326.7254142439951
 20
405.8057009756849
 11
326.875414243995
 21
405.8057009756849
  0
LINE
  5
348
100
AcDbEntity
  8
0
  6
ByLayer
 62
  256
370
   -1
100
AcDbLine
 10
326.875414243995
 20
402.6057009756847
 11
326.875414243995
 21
405.8057009756849
  0
LINE
  5
349
100
AcDbEntity
  8
0
  6
ByLayer
 62
  256
370
   -1
100
AcDbLine
 10
326.800414243995
 20
405.0557009756845
 11
326.8004142439951
 21
405.8057009756849
  0
LINE
  5
34A
100
AcDbEntity
  8
0
  6
ByLayer
 62
  256
370
   -1
100
AcDbLine
 10
329.8554142439953
 20
406.855700975685
 11
330.0054142439952
 21
406.855700975685
  0
LINE
  5
34B
100
AcDbEntity
  8
0
  6
ByLayer
 62
  256
370
   -1
100
AcDbLine
 10
329.8554142439953
 20
406.0557009756849
 11
330.0054142439952
 21
406.0557009756849
  0
LINE
  5
34C
100
AcDbEntity
  8
0
  6
ByLayer
 62
  256
370
   -1
100
AcDbLine
 10
329.9304142439952
 20
406.855700975685
 11
329.9304142439952
 21
406.0557009756849
  0
LINE
  5
34D
100
AcDbEntity
  8
0
  6
ByLayer
 62
  256
370
   -1
100
AcDbLine
 10
332.2754142439952
 20
400.9557009756846
 11
325.5254142439952
 21
400.9557009756846
  0
LINE
  5
34E
100
AcDbEntity
  8
0
  6
ByLayer
 62
  256
370
   -1
100
AcDbLine
 10
325.5254142439952
 20
405.0557009756845
 11
325.5254142439952
 21
405.9557009756849
  0
LINE
  5
34F
100
AcDbEntity
  8
0
  6
ByLayer
 62
  256
370
   -1
100
AcDbLine
 10
329.8554142439953
 20
405.8057009756848
 11
329.8554142439953
 21
402.6057009756847
  0
LINE
  5
350
100
AcDbEntity
  8
0
  6
ByLayer
 62
  256
370
   -1
100
AcDbLine
 10
329.8554142439953
 20
406.9557009756849
 11
329.8554142439953
 21
405.9557009756849
  0
LINE
  5
351
100
AcDbEntity
  8
0
  6
ByLayer
 62
  256
370
   -1
100
AcDbLine
 10
326.625414243995
 20
404.9057009756846
 11
326.625414243995
 21
405.0557009756845
  0
LINE
  5
352
100
AcDbEntity
  8
0
  6
ByLayer
 62
  256
370
   -1
100
AcDbLine
 10
326.625414243995
 20
404.9807009756846
 11
325.9254142439951
 21
404.9807009756846
  0
LINE
  5
353
100
AcDbEntity
  8
0
  6
ByLayer
 62
  256
370
   -1
100
AcDbLine
 10
325.9254142439951
 20
404.9057009756846
 11
325.9254142439951
 21
405.0557009756845
  0
LINE
  5
354
100
AcDbEntity
  8
0
  6
ByLayer
 62
  256
370
   -1
100
AcDbLine
 10
326.7254142439951
 20
402.6057009756847
 11
326.7254142439951
 21
404.9057009756846
  0
LINE
  5
355
100
AcDbEntity
  8
0
  6
ByLayer
 62
  256
370
   -1
100
AcDbLine
 10
326.7254142439951
 20
405.0557009756845
 11
326.7254142439951
 21
405.9557009756849
  0
LINE
  5
356
100
AcDbEntity
  8
0
  6
ByLayer
 62
  256
370
   -1
100
AcDbLine
 10
332.4254142439951
 20
401.1557009756846
 11
332.2754142439952
 21
401.1557009756846
  0
LINE
  5
357
100
AcDbEntity
  8
0
  6
ByLayer
 62
  256
370
   -1
100
AcDbLine
 10
332.4254142439951
 20
401.7557009756846
 11
332.2754142439952
 21
401.7557009756846
  0
LINE
  5
358
100
AcDbEntity
  8
0
  6
ByLayer
 62
  256
370
   -1
100
AcDbLine
 10
332.4254142439951
 20
401.4557009756846
 11
332.2754142439952
 21
401.4557009756846
  0
LINE
  5
359
100
AcDbEntity
  8
0
  6
ByLayer
 62
  256
370
   -1
100
AcDbLine
 10
332.3504142439951
 20
401.1557009756846
 11
332.3504142439951
 21
401.7557009756846
  0
LINE
  5
35A
100
AcDbEntity
  8
0
  6
ByLayer
 62
  256
370
   -1
100
AcDbLine
 10
326.875414243995
 20
405.8057009756849
 11
329.8554142439953
 21
405.8057009756848
  0
LINE
  5
35B
100
AcDbEntity
  8
0
  6
ByLayer
 62
  256
370
   -1
100
AcDbLine
 10
325.5254142439952
 20
402.4557009756846
 11
325.3754142439952
 21
402.4557009756846
  0
LINE
  5
35C
100
AcDbEntity
  8
0
  6
ByLayer
 62
  256
370
   -1
100
AcDbLine
 10
325.4504142439951
 20
401.5557009756847
 11
325.4504142439951
 21
402.4557009756846
  0
LINE
  5
35D
100
AcDbEntity
  8
0
  6
ByLayer
 62
  256
370
   -1
100
AcDbLine
 10
333.7754142439952
 20
400.8057009756847
 11
318.1854142439952
 21
400.8057009756847
  0
LINE
  5
35E
100
AcDbEntity
  8
0
  6
ByLayer
 62
  256
370
   -1
100
AcDbLine
 10
318.1854142439952
 20
407.0955726663602
 11
333.7754142439952
 21
407.1057009756847
  0
LINE
  5
35F
100
AcDbEntity
  8
0
  6
ByLayer
 62
  256
370
   -1
100
AcDbLine
 10
318.3354142439952
 20
400.9557009756846
 11
318.3354142439952
 21
406.9557009756849
  0
LINE
  5
360
100
AcDbEntity
  8
0
  6
ByLayer
 62
  256
370
   -1
100
AcDbLine
 10
322.9154142439953
 20
400.9557009756846
 11
318.3354142439952
 21
400.9557009756846
  0
LINE
  5
361
100
AcDbEntity
  8
0
  6
ByLayer
 62
  256
370
   -1
100
AcDbLine
 10
318.3354142439952
 20
401.0557009756847
 11
318.1854142439952
 21
401.0557009756847
  0
LINE
  5
362
100
AcDbEntity
  8
0
  6
ByLayer
 62
  256
370
   -1
100
AcDbLine
 10
318.3354142439952
 20
403.6957009756846
 11
318.1854142439952
 21
403.6957009756846
  0
LINE
  5
363
100
AcDbEntity
  8
0
  6
ByLayer
 62
  256
370
   -1
100
AcDbLine
 10
318.2604142439952
 20
401.0557009756847
 11
318.2604142439952
 21
403.6957009756846
  0
LINE
  5
364
100
AcDbEntity
  8
0
  6
ByLayer
 62
  256
370
   -1
100
AcDbLine
 10
325.5254142439952
 20
401.5557009756847
 11
325.3754142439952
 21
401.5557009756847
  0
LINE
  5
365
100
AcDbEntity
  8
0
  6
ByLayer
 62
  256
370
   -1
100
AcDbLine
 10
332.2754142439952
 20
402.4557009756846
 11
325.5254142439952
 21
402.4557009756846
  0
LINE
  5
366
100
AcDbEntity
  8
0
  6
ByLayer
 62
  256
370
   -1
100
AcDbLine
 10
330.0054142439952
 20
406.9557009756849
 11
330.0054142439952
 21
402.6057009756847
  0
LINE
  5
367
100
AcDbEntity
  8
0
  6
ByLayer
 62
  256
370
   -1
100
AcDbLine
 10
333.6254142439951
 20
403.6057009756847
 11
333.6254142439951
 21
406.9557009756849
  0
LINE
  5
368
100
AcDbEntity
  8
0
  6
ByLayer
 62
  256
370
   -1
100
AcDbLine
 10
333.6254142439951
 20
400.9557009756846
 11
333.6254142439951
 21
403.4557009756846
  0
LINE
  5
369
100
AcDbEntity
  8
0
  6
ByLayer
 62
  256
370
   -1
100
AcDbLine
 10
332.2754142439952
 20
402.6057009756847
 11
330.0054142439952
 21
402.6057009756847
  0
LINE
  5
36A
100
AcDbEntity
  8
0
  6
ByLayer
 62
  256
370
   -1
100
AcDbLine
 10
329.8554142439953
 20
402.6057009756847
 11
326.875414243995
 21
402.6057009756847
  0
LINE
  5
36B
100
AcDbEntity
  8
0
  6
ByLayer
 62
  256
370
   -1
100
AcDbLine
 10
332.2754142439952
 20
400.9557009756846
 11
332.2754142439952
 21
402.4557009756846
  0
LINE
  5
36C
100
AcDbEntity
  8
0
  6
ByLayer
 62
  256
370
   -1
100
AcDbLine
 10
333.6254142439951
 20
403.4557009756846
 11
332.4254142439951
 21
403.4557009756846
  0
LINE
  5
36D
100
AcDbEntity
  8
0
  6
ByLayer
 62
  256
370
   -1
100
AcDbLine
 10
333.6254142439951
 20
400.9557009756846
 11
332.4254142439951
 21
400.9557009756846
  0
LINE
  5
36E
100
AcDbEntity
  8
0
  6
ByLayer
 62
  256
370
   -1
100
AcDbLine
 10
331.1404142439951
 20
402.4557009756846
 11
331.1404142439951
 21
402.6057009756847
  0
LINE
  5
36F
100
AcDbEntity
  8
0
  6
ByLayer
 62
  256
370
   -1
100
AcDbLine
 10
330.5404142439951
 20
402.4557009756846
 11
330.5404142439951
 21
402.6057009756847
  0
LINE
  5
370
100
AcDbEntity
  8
0
  6
ByLayer
 62
  256
370
   -1
100
AcDbLine
 10
331.7404142439951
 20
402.4557009756846
 11
331.7404142439951
 21
402.6057009756847
  0
LINE
  5
371
100
AcDbEntity
  8
0
  6
ByLayer
 62
  256
370
   -1
100
AcDbLine
 10
331.7404142439951
 20
402.5307009756846
 11
330.5404142439951
 21
402.5307009756846
  0
LINE
  5
372
100
AcDbEntity
  8
0
  6
ByLayer
 62
  256
370
   -1
100
AcDbLine
 10
332.5254142439952
 20
403.4557009756846
 11
332.5254142439952
 21
403.6057009756847
  0
LINE
  5
373
100
AcDbEntity
  8
0
  6
ByLayer
 62
  256
370
   -1
100
AcDbLine
 10
332.4254142439951
 20
400.9557009756846
 11
332.4254142439951
 21
403.4557009756846
  0
LINE
  5
374
100
AcDbEntity
  8
0
  6
ByLayer
 62
  256
370
   -1
100
AcDbLine
 10
333.2254142439951
 20
403.4557009756846
 11
333.2254142439951
 21
403.6057009756847
  0
LINE
  5
375
100
AcDbEntity
  8
0
  6
ByLayer
 62
  256
370
   -1
100
AcDbLine
 10
333.2254142439951
 20
403.5307009756846
 11
332.5254142439952
 21
403.5307009756846
  0
LINE
  5
376
100
AcDbEntity
  8
0
  6
ByLayer
 62
  256
370
   -1
100
AcDbLine
 10
330.0054142439952
 20
406.9557009756849
 11
333.625414243995
 21
406.9557009756849
  0
LINE
  5
377
100
AcDbEntity
  8
0
  6
ByLayer
 62
  256
370
   -1
100
AcDbLine
 10
333.625414243995
 20
403.6057009756847
 11
332.2754142439952
 21
403.6057009756847
  0
LINE
  5
378
100
AcDbEntity
  8
0
  6
ByLayer
 62
  256
370
   -1
100
AcDbLine
 10
323.0654142439952
 20
403.9457009756846
 11
320.3354142439953
 21
403.9457009756846
  0
LINE
  5
379
100
AcDbEntity
  8
0
  6
ByLayer
 62
  256
370
   -1
100
AcDbLine
 10
325.3754142439952
 20
400.9557009756846
 11
325.3754142439952
 21
405.9557009756849
  0
LINE
  5
37A
100
AcDbEntity
  8
0
  6
ByLayer
 62
  256
370
   -1
100
AcDbLine
 10
323.0654142439952
 20
400.9557009756846
 11
323.0654142439952
 21
403.9457009756846
  0
LINE
  5
37B
100
AcDbEntity
  8
0
  6
ByLayer
 62
  256
370
   -1
100
AcDbLine
 10
320.1854142439954
 20
403.7957009756847
 11
320.1854142439954
 21
406.9557009756849
  0
LINE
  5
37C
100
AcDbEntity
  8
0
  6
ByLayer
 62
  256
370
   -1
100
AcDbLine
 10
332.2754142439952
 20
402.6057009756847
 11
332.2754142439952
 21
403.6057009756847
  0
LINE
  5
37D
100
AcDbEntity
  8
0
  6
ByLayer
 62
  256
370
   -1
100
AcDbLine
 10
318.1854142439952
 20
400.8057009756847
 11
318.1854142439952
 21
407.0955726663602
  0
LWPOLYLINE
  5
37E
100
AcDbEntity
  8
0
  6
ByLayer
 62
  256
370
   -1
100
AcDbPolyline
 90
    4
 70
    1
 43
0
 10
320.6660841981054
 20
403.990171411297
 10
320.3807500242792
 20
403.990171411297
 10
320.3807500242792
 20
404.7782372247217
 10
320.6660841981054
 20
404.7782372247217
  0
LWPOLYLINE
  5
37F
100
AcDbEntity
  8
0
  6
ByLayer
 62
  256
370
   -1
100
AcDbPolyline
 90
    4
 70
    1
 43
0
 10
318.6142256239744
 20
404.1724466124977
 10
318.4192710629008
 20
404.1724466124977
 10
318.4192710629008
 20
403.7007823518358
 10
318.6142256239744
 20
403.7007823518358
  0
CIRCLE
  5
380
100
AcDbEntity
  8
0
  6
ByLayer
 62
  256
370
   -1
100
AcDbCircle
 10
318.5352311426686
 20
401.1771778735884
 40
0.103035
  0
CIRCLE
  5
381
100
AcDbEntity
  8
0
  6
ByLayer
 62
  256
370
   -1
100
AcDbCircle
 10
322.7206416821323
 20
401.18103994987
 40
0.103035
  0
LINE
  5
382
100
AcDbEntity
  8
0
  6
ByLayer
 62
  256
370
   -1
100
AcDbLine
 10
318.663531263674
 20
401.1713106682909
 11
322.6087549439734
 21
401.1713106682909
  0
CIRCLE
  5
383
100
AcDbEntity
  8
0
  6
ByLayer
 62
  256
370
   -1
100
AcDbCircle
 10
318.5321859623779
 20
404.4306199972954
 40
0.103035
  0
LINE
  5
384
100
AcDbEntity
  8
0
  6
ByLayer
 62
  256
370
   -1
100
AcDbLine
 10
318.5321859623779
 20
404.333327181505
 11
318.5321859623779
 21
401.2783327656873
  0
CIRCLE
  5
385
100
AcDbEntity
  8
0
  6
ByLayer
 62
  256
370
   -1
100
AcDbCircle
 10
318.5263074058172
 20
406.7795613800602
 40
0.103035
  0
LINE
  5
386
100
AcDbEntity
  8
0
  6
ByLayer
 62
  256
370
   -1
100
AcDbLine
 10
318.5263074058172
 20
406.6937562177606
 11
318.5234879846499
 21
404.5292797771523
  0
LWPOLYLINE
  5
387
100
AcDbEntity
  8
0
  6
ByLayer
 62
  256
370
   -1
100
AcDbPolyline
 90
    4
 70
    1
 43
0
 10
318.1197415535507
 20
403.93347005382
 10
317.8344073797246
 20
403.93347005382
 10
317.8344073797246
 20
404.7215358672447
 10
318.1197415535507
 20
404.7215358672447
  0
LINE
  5
388
100
AcDbEntity
  8
0
  6
ByLayer
 62
  256
370
   -1
100
AcDbLine
 10
318.1854142439952
 20
406.9557009756849
 11
320.1854142439954
 21
406.9557009756849
  0
LINE
  5
389
100
AcDbEntity
  8
0
  6
ByLayer
 62
  256
370
   -1
100
AcDbLine
 10
318.1854142439952
 20
406.8557009756849
 11
318.3354142439952
 21
406.8557009756849
  0
LINE
  5
38A
100
AcDbEntity
  8
0
  6
ByLayer
 62
  256
370
   -1
100
AcDbLine
 10
318.1854142439952
 20
405.8557009756849
 11
318.3354142439952
 21
405.8557009756849
  0
LINE
  5
38B
100
AcDbEntity
  8
0
  6
ByLayer
 62
  256
370
   -1
100
AcDbLine
 10
318.1854142439952
 20
406.3557009756849
 11
318.3354142439952
 21
406.3557009756849
  0
LINE
  5
38C
100
AcDbEntity
  8
0
  6
ByLayer
 62
  256
370
   -1
100
AcDbLine
 10
318.2604142439952
 20
405.8557009756849
 11
318.2604142439952
 21
406.8557009756849
  0
MTEXT
  5
38D
100
AcDbEntity
  8
0
  6
ByLayer
 62
  256
370
   -1
100
AcDbMText
 10
320.2497430103068
 20
402.7786725171466
 30
0
 40
0.15
 41
0.8000000000000372
 71
    4
 72
    1
  1
Garagem
  7
standard
210
0
220
0
230
1
 50
0
 73
    2
 44
0.1
  0
CIRCLE
  5
38E
100
AcDbEntity
  8
0
  6
ByLayer
 62
  256
370
   -1
100
AcDbCircle
 10
317.8470165377475
 20
406.3576859989307
 40
0.2337828777944209
  0
MTEXT
  5
38F
100
AcDbEntity
  8
0
  6
ByLayer
 62
  256
370
   -1
100
AcDbMText
 10
327.7103026805667
 20
406.7436501955008
 30
0
 40
0.15
 41
0.8333333333333427
 71
    1
 72
    1
  1
Corredor
  7
standard
210
0
220
0
230
1
 50
0
 73
    2
 44
1
  0
MTEXT
  5
390
100
AcDbEntity
  8
0
  6
ByLayer
 62
  256
370
   -1
100
AcDbMText
 10
323.8387971284515
 20
401.5144362880197
 30
0
 40
0.1
 41
0.4666666666666868
 71
    5
 72
    1
  1
Cozinha
  7
STANDARD
210
0
220
0
230
1
 50
0
 73
    2
 44
1
  0
MTEXT
  5
391
100
AcDbEntity
  8
0
  6
ByLayer
 62
  256
370
   -1
100
AcDbMText
 10
319.1351832097491
 20
406.2616451926234
 30
0
 40
0.15
 41
0.3333333333333404
 71
    1
 72
    1
  1
Hall
  7
standard
210
0
220
0
230
1
 50
0
 73
    2
 44
1
  0
MTEXT
  5
392
100
AcDbEntity
  8
0
  6
ByLayer
 62
  256
370
   -1
100
AcDbMText
 10
325.6471936272212
 20
407.9110836769329
 30
0
 40
0.3
 41
1.92500000000006
 71
    5
 72
    1
  1
Planta 1.3\P\PEsgoto
  7
standard
210
0
220
0
230
1
 50
0
 73
    2
 44
0.5
  0
MTEXT
  5
393
100
AcDbEntity
  8
0
  6
ByLayer
 62
  256
370
   -1
100
AcDbMText
 10
325.8869606849116
 20
405.6098610089758
 30
0
 40
0.15
 41
0.3333333333333404
 71
    1
 72
    1
  1
Hall
  7
standard
210
0
220
0
230
1
 50
0
 73
    2
 44
1
  0
MTEXT
  5
394
100
AcDbEntity
  8
0
  6
ByLayer
 62
  256
370
   -1
100
AcDbMText
 10
328.0227134005879
 20
404.4141749472221
 30
0
 40
0.15
 41
0.650000000000007
 71
    1
 72
    1
  1
Quarto
  7
standard
210
0
220
0
230
1
 50
0
 73
    2
 44
1
  0
MTEXT
  5
395
100
AcDbEntity
  8
0
  6
ByLayer
 62
  256
370
   -1
100
AcDbMText
 10
321.5100274449543
 20
405.8229091083058
 30
0
 40
0.2
 41
0.5111110687106999
 71
    1
 72
    1
  1
Sala
  7
standard
210
0
220
0
230
1
 50
0
 73
    2
 44
1
  0
DIMENSION
  5
396
100
AcDbEntity
  8
0
  6
ByLayer
 62
  256
370
   -1
100
AcDbDimension
  2
*D42
 10
332.2754142439952
 20
399.9721404702764
 30
0
 11
328.9004142439952
 21
400.2721404702764
 31
0
 70
   32
 71
    5
 72
    0
  3
Standard
 53
0
210
0
220
0
230
1
100
AcDbAlignedDimension
 13
325.5254142439952
 23
400.9557009756846
 33
0
 14
332.2754142439952
 24
400.9557009756846
 34
0
100
AcDbRotatedDimension
  0
CIRCLE
  5
397
100
AcDbEntity
  8
0
  6
ByLayer
 62
  256
370
   -1
100
AcDbCircle
 10
333.4674624181297
 20
402.1473444089981
 40
0.1
  0
CIRCLE
  5
398
100
AcDbEntity
  8
0
  6
ByLayer
 62
  256
370
   -1
100
AcDbCircle
 10
326.1189853178319
 20
401.7014200521168
 40
0.4
  0
CIRCLE
  5
399
100
AcDbEntity
  8
0
  6
ByLayer
 62
  256
370
   -1
100
AcDbCircle
 10
331.6051306736606
 20
401.7070175218711
 40
0.4
  0
MTEXT
  5
39A
100
AcDbEntity
  8
0
  6
ByLayer
 62
  256
370
   -1
100
AcDbMText
 10
328.2911340841806
 20
402.2115392467632
 30
0
 40
0.15
 41
0.8333333333333427
 71
    1
 72
    1
  1
Corredor
  7
standard
210
0
220
0
230
1
 50
0
 73
    2
 44
1
  0
CIRCLE
  5
39B
100
AcDbEntity
  8
0
  6
ByLayer
 62
  256
370
   -1
100
AcDbCircle
 10
333.4567931880306
 20
403.1405262919524
 40
0.1
  0
CIRCLE
  5
39C
100
AcDbEntity
  8
0
  6
ByLayer
 62
  256
370
   -1
100
AcDbCircle
 10
333.4781856277383
 20
401.24943462179
 40
0.1
  0
MTEXT
  5
39D
100
AcDbEntity
  8
0
  6
ByLayer
 62
  256
370
   -1
100
AcDbMText
 10
332.4697457698401
 20
403.2734123401862
 30
0
 40
0.15
 41
0.8166666666666876
 71
    1
 72
    1
  1
Banheiro\P
  7
standard
210
0
220
0
230
1
 50
0
 73
    2
 44
1
  0
LINE
  5
39E
100
AcDbEntity
  8
0
  6
ByLayer
 62
  256
370
    5
100
AcDbLine
 10
333.41
 20
403.046
 11
332.99
 21
402.015
  0
LINE
  5
39F
100
AcDbEntity
  8
0
  6
ByLayer
 62
  256
370
    5
100
AcDbLine
 10
333.41
 20
401.322
 11
332.862
 21
401.968
  0
LINE
  5
3A0
100
AcDbEntity
  8
0
  6
ByLayer
 62
  256
370
   13
100
AcDbLine
 10
331.921
 20
401.703
 11
333.401
 21
402.127
  0
LINE
  5
3A1
100
AcDbEntity
  8
0
  6
ByLayer
 62
  256
370
   13
100
AcDbLine
 10
331.208
 20
401.704
 11
326.51
 21
401.704
  0
LINE
  5
3A2
100
AcDbEntity
  8
0
  6
ByLayer
 62
  256
370
    5
100
AcDbLine
 10
333.53
 20
403.133
 11
333.6787599114276
 21
403.1332662023581
  0
LINE
  5
3A3
100
AcDbEntity
  8
0
  6
ByLayer
 62
  256
370
    5
100
AcDbLine
 10
325.628
 20
404.669
 11
325.455
 21
404.669
  0
CIRCLE
  5
3A4
100
AcDbEntity
  8
0
  6
ByLayer
 62
  256
370
   -1
100
AcDbCircle
 10
325.6501184544279
 20
402.8884739377194
 40
0.1
  0
CIRCLE
  5
3A5
100
AcDbEntity
  8
0
  6
ByLayer
 62
  256
370
   -1
100
AcDbCircle
 10
325.6548077160105
 20
404.6824002891447
 40
0.1
  0
CIRCLE
  5
3A6
100
AcDbEntity
  8
0
  6
ByLayer
 62
  256
370
   -1
100
AcDbCircle
 10
322.5809782877583
 20
403.2262228596978
 40
0.2337828777944209
  0
DIMENSION
  5
3A7
100
AcDbEntity
  8
0
  6
ByLayer
 62
  256
370
   -1
100
AcDbDimension
  2
*D43
 10
321.4774007196565
 20
400.9557009756846
 30
0
 11
321.1774007196565
 21
402.3757009756847
 31
0
 70
   32
 71
    5
 72
    0
  3
Standard
 53
0
210
0
220
0
230
1
100
AcDbAlignedDimension
 13
322.9154142439953
 23
403.7957009756847
 33
0
 14
322.9154142439953
 24
400.9557009756846
 34
0
 50
90
100
AcDbRotatedDimension
  0
CIRCLE
  5
3A8
100
AcDbEntity
  8
0
  6
ByLayer
 62
  256
370
   -1
100
AcDbCircle
 10
322.1310646854758
 20
402.3867064040602
 40
0.4
  0
CIRCLE
  5
3A9
100
AcDbEntity
  8
0
  6
ByLayer
 62
  256
370
   -1
100
AcDbCircle
 10
317.3723374366092
 20
402.3643813303237
 40
0.4
  0
CIRCLE
  5
3AA
100
AcDbEntity
  8
0
  6
ByLayer
 62
  256
370
   -1
100
AcDbCircle
 10
323.2283734044583
 20
402.3761581753636
 40
0.1
  0
LINE
  5
3AB
100
AcDbEntity
  8
0
  6
ByLayer
 62
  256
370
   13
100
AcDbLine
 10
325.788
 20
401.704
 11
322.434
 21
402.326
  0
LINE
  5
3AC
100
AcDbEntity
  8
0
  6
ByLayer
 62
  256
370
    5
100
AcDbLine
 10
322.502
 20
403.079
 11
322.218
 21
402.681
  0
CIRCLE
  5
3AD
100
AcDbEntity
  8
0
  6
ByLayer
 62
    1
370
    5
100
AcDbCircle
 10
331.856
 20
401.693
 40
0.1
  0
CIRCLE
  5
3AE
100
AcDbEntity
  8
0
  6
ByLayer
 62
    1
370
    5
100
AcDbCircle
 10
326.449
 20
401.71
 40
0.1
  0
CIRCLE
  5
3AF
100
AcDbEntity
  8
0
  6
ByLayer
 62
    1
370
    5
100
AcDbCircle
 10
322.413
 20
402.343
 40
0.1
  0
CIRCLE
  5
3B0
100
AcDbEntity
  8
0
  6
ByLayer
 62
    1
370
    5
100
AcDbCircle
 10
322.218
 20
402.681
 40
0.1
  0
LINE
  5
3B1
100
AcDbEntity
  8
0
  6
ByLayer
 62
    5
370
   13
100
AcDbLine
 10
326.768
 20
401.256
 11
320.779
 21
401.256
  0
LINE
  5
3B2
100
AcDbEntity
  8
0
  6
ByLayer
 62
    5
370
   13
100
AcDbLine
 10
320.563
 20
401.256
 11
317.581
 21
401.256
  0
CIRCLE
  5
3B3
100
AcDbEntity
  8
0
  6
ByLayer
 62
    5
370
   -1
100
AcDbCircle
 10
320.683
 20
401.287
 40
0.233783
  0
CIRCLE
  5
3B4
100
AcDbEntity
  8
0
  6
ByLayer
 62
    5
370
   -1
100
AcDbCircle
 10
326.868
 20
401.263
 40
0.233783
  0
CIRCLE
  5
3B5
100
AcDbEntity
  8
0
  6
ByLayer
 62
    1
370
    5
100
AcDbCircle
 10
320.7898053711152
 20
401.2568837954688
 40
0.1
  0
MTEXT
  5
3B6
100
AcDbEntity
  8
0
  6
ByLayer
 62
  256
370
   -1
100
AcDbMText
 10
330.0346032717462
 20
402.2206948296878
 30
0
 40
0.15
 41
1.033333333333361
 71
    1
 72
    1
  1
Lavanderia
  7
standard
210
0
220
0
230
1
 50
0
 73
    2
 44
1
  0
CIRCLE
  5
3B7
100
AcDbEntity
  8
0
  6
ByLayer
 62
    5
370
   -1
100
AcDbCircle
 10
331.0825874953829
 20
401.287
 40
0.233783
  0
LINE
  5
3B8
100
AcDbEntity
  8
0
  6
ByLayer
 62
    5
370
   13
100
AcDbLine
 10
330.965836116434
 20
401.256
 11
326.989
 21
401.256
  0
LINE
  5
3B9
100
AcDbEntity
  8
0
  6
ByLayer
 62
  256
370
    5
100
AcDbLine
 10
325.683915484914
 20
404.595076982434
 11
326.1525723325371
 21
403.8634476555813
  0
LINE
  5
3BA
100
AcDbEntity
  8
0
  6
ByLayer
 62
  256
370
   13
100
AcDbLine
 10
326.145
 20
402.03
 11
326.1454219023455
 21
403.9421023876897
  0
CIRCLE
  5
3BB
100
AcDbEntity
  8
0
  6
ByLayer
 62
  256
370
   -1
100
AcDbCircle
 10
325.6591926493121
 20
403.6918373309813
 40
0.1
  0
LINE
  5
3BC
100
AcDbEntity
  8
0
  6
ByLayer
 62
  256
370
   13
100
AcDbLine
 10
325.7306969512288
 20
403.6489347498313
 11
326.145
 21
403.277
  0
LINE
  5
3BD
100
AcDbEntity
  8
0
  6
ByLayer
 62
  256
370
    5
100
AcDbLine
 10
325.6997617542929
 20
402.8553784044761
 11
326.1096697513872
 21
402.6979275343395
  0
LINE
  5
3BE
100
AcDbEntity
  8
0
  6
ByLayer
 62
    3
370
   13
100
AcDbLine
 10
325.8756170688714
 20
401.9337261089456
 11
325.629
 21
402.533
  0
CIRCLE
  5
3BF
100
AcDbEntity
  8
0
  6
ByLayer
 62
    1
370
    5
100
AcDbCircle
 10
326.16
 20
401.997
 40
0.1
  0
CIRCLE
  5
3C0
100
AcDbEntity
  8
0
  6
ByLayer
 62
    1
370
    5
100
AcDbCircle
 10
325.878
 20
401.914
 40
0.1
  0
MTEXT
  5
3C1
100
AcDbEntity
  8
0
  6
ByLayer
 62
  256
370
   -1
100
AcDbMText
 10
325.7773326680386
 20
404.5404038356454
 30
0
 40
0.15
 41
0.8166666666666876
 71
    4
 72
    1
  1
Banheiro
  7
standard
210
0
220
0
230
1
 50
0
 73
    2
 44
0.1
  0
LINE
  5
3C2
100
AcDbEntity
  8
0
  6
ByLayer
 62
  256
370
    5
100
AcDbLine
 10
331.605
 20
401.368
 11
331.928
 21
400.887
  0
CIRCLE
  5
3C3
100
AcDbEntity
  8
0
  6
ByLayer
 62
    1
370
    9
100
AcDbCircle
 10
318.008
 20
401.262
 40
0.1
  0
LINE
  5
3C4
100
AcDbEntity
  8
0
  6
ByLayer
 62
  256
370
   13
100
AcDbLine
 10
321.919
 20
402.375
 11
318.0867878014435
 21
402.3799757693239
  0
LINE
  5
3C5
100
AcDbEntity
  8
0
  6
ByLayer
 62
  256
370
   13
100
AcDbLine
 10
317.9208735186931
 20
402.3770649924335
 11
317.575
 21
402.38
  0
CIRCLE
  5
3C6
100
AcDbEntity
  8
0
  6
ByLayer
 62
    1
370
    9
100
AcDbCircle
 10
318.009
 20
402.376
 40
0.1
  0
CIRCLE
  5
3C7
100
AcDbEntity
  8
0
  6
ByLayer
 62
    1
370
    5
100
AcDbCircle
 10
327.006
 20
401.257
 40
0.1
  0
LINE
  5
3C8
100
AcDbEntity
  8
0
  6
ByLayer
 62
  256
370
    5
100
AcDbLine
 10
323.1986368312441
 20
402.429625379805
 11
322.746
 21
403.112
  0
CIRCLE
  5
3C9
100
AcDbEntity
  8
0
  6
ByLayer
 62
    1
370
    5
100
AcDbCircle
 10
322.727
 20
403.122
 40
0.1
  0
LINE
  5
3CA
100
AcDbEntity
  8
0
  6
ByLayer
 62
    1
370
   -1
100
AcDbLine
 10
326.1509179162999
 20
412.7565906186726
 11
327.1180476766966
 21
411.7215763145008
  0
ENDSEC
  0
SECTION
  2
OBJECTS
  0
DICTIONARY
  5
C
330
0
100
AcDbDictionary
281
    1
  3
ACAD_GROUP
350
D
  0
DICTIONARY
  5
D
330
C
100
AcDbDictionary
281
    1
  0
ENDSEC
  0
EOF
