999
dxfrw 0.6.3
  0
SECTION
  2
HEADER
  9
$ACADVER
  1
AC1021
  9
$DWGCODEPAGE
  3
ANSI_1252
  9
$INSBASE
 10
0
 20
0
 30
0
  9
$EXTMIN
 10
0
 20
405.3450493953949
 30
0
  9
$EXTMAX
 10
334.1230807878488
 20
440.8492804895948
 30
0
  9
$LIMMIN
 10
0
 20
0
  9
$LIMMAX
 10
420
 20
297
  9
$ORTHOMODE
 70
    0
  9
$REGENMODE
 70
    1
  9
$FILLMODE
 70
    1
  9
$QTEXTMODE
 70
    0
  9
$MIRRTEXT
 70
    0
  9
$LTSCALE
 40
1
  9
$ATTMODE
 70
    0
  9
$TEXTSIZE
 40
2.5
  9
$TRACEWID
 40
15.68
  9
$TEXTSTYLE
  7
STANDARD
  9
$CLAYER
  8
0
  9
$CELTYPE
  6
BYLAYER
  9
$CECOLOR
 62
  256
  9
$CELTSCALE
 40
1
  9
$DISPSILH
 70
    0
  9
$DIMSCALE
 40
1
  9
$DIMASZ
 40
0.1
  9
$DIMEXO
 40
0.2
  9
$DIMDLI
 40
3.75
  9
$DIMRND
 40
0
  9
$DIMDLE
 40
0
  9
$DIMEXE
 40
0.1
  9
$DIMTP
 40
0
  9
$DIMTM
 40
0
  9
$DIMTXT
 40
0.2
  9
$DIMCEN
 40
2.5
  9
$DIMTSZ
 40
0
  9
$DIMTOL
 70
    0
  9
$DIMLIM
 70
    0
  9
$DIMTIH
 70
    0
  9
$DIMTOH
 70
    0
  9
$DIMSE1
 70
    0
  9
$DIMSE2
 70
    0
  9
$DIMTAD
 70
    1
  9
$DIMZIN
 70
    8
  9
$DIMBLK
  1

  9
$DIMASO
 70
    1
  9
$DIMSHO
 70
    1
  9
$DIMPOST
  1

  9
$DIMAPOST
  1

  9
$DIMALT
 70
    0
  9
$DIMALTD
 70
    3
  9
$DIMALTF
 40
0.03937
  9
$DIMLFAC
 40
1
  9
$DIMTOFL
 70
    1
  9
$DIMTVP
 40
0
  9
$DIMTIX
 70
    0
  9
$DIMSOXD
 70
    0
  9
$DIMSAH
 70
    0
  9
$DIMBLK1
  1

  9
$DIMBLK2
  1

  9
$DIMSTYLE
  2
STANDARD
  9
$DIMCLRD
 70
    5
  9
$DIMCLRE
 70
    0
  9
$DIMCLRT
 70
    5
  9
$DIMTFAC
 40
1
  9
$DIMGAP
 40
0.2
  9
$DIMJUST
 70
    0
  9
$DIMSD1
 70
    0
  9
$DIMSD2
 70
    0
  9
$DIMTOLJ
 70
    0
  9
$DIMTZIN
 70
    8
  9
$DIMALTZ
 70
    0
  9
$DIMALTTZ
 70
    0
  9
$DIMUPT
 70
    0
  9
$DIMDEC
 70
    2
  9
$DIMTDEC
 70
    2
  9
$DIMALTU
 70
    2
  9
$DIMALTTD
 70
    3
  9
$DIMTXSTY
  7
standard
  9
$DIMAUNIT
 70
    0
  9
$DIMADEC
 70
    0
  9
$DIMALTRND
 40
0
  9
$DIMAZIN
 70
    0
  9
$DIMDSEP
 70
   44
  9
$DIMATFIT
 70
    3
  9
$DIMFRAC
 70
    0
  9
$DIMLDRBLK
  1
STANDARD
  9
$DIMLUNIT
 70
    2
  9
$DIMLWD
 70
   -2
  9
$DIMLWE
 70
   -2
  9
$DIMTMOVE
 70
    0
  9
$DIMFXL
 40
1
  9
$DIMFXLON
 70
    0
  9
$DIMJOGANG
 40
0.7854
  9
$DIMTFILL
 70
    0
  9
$DIMTFILLCLR
 70
    0
  9
$DIMARCSYM
 70
    0
  9
$DIMLTYPE
  6

  9
$DIMLTEX1
  6

  9
$DIMLTEX2
  6

  9
$LUNITS
 70
    2
  9
$LUPREC
 70
    4
  9
$SKETCHINC
 40
1
  9
$FILLETRAD
 40
0
  9
$AUNITS
 70
    0
  9
$AUPREC
 70
    2
  9
$MENU
  1
.
  9
$ELEVATION
 40
0
  9
$PELEVATION
 40
0
  9
$THICKNESS
 40
0
  9
$LIMCHECK
 70
    0
  9
$CHAMFERA
 40
0
  9
$CHAMFERB
 40
0
  9
$CHAMFERC
 40
0
  9
$CHAMFERD
 40
0
  9
$SKPOLY
 70
    0
  9
$USRTIMER
 70
    1
  9
$ANGBASE
 50
0
  9
$ANGDIR
 70
    0
  9
$PDMODE
 70
   34
  9
$PDSIZE
 40
0
  9
$PLINEWID
 40
0
  9
$SPLFRAME
 70
    0
  9
$SPLINETYPE
 70
    2
  9
$SPLINESEGS
 70
    8
  9
$HANDSEED
  5
20000
  9
$SURFTAB1
 70
    6
  9
$SURFTAB2
 70
    6
  9
$SURFTYPE
 70
    6
  9
$SURFU
 70
    6
  9
$SURFV
 70
    6
  9
$UCSBASE
  2

  9
$UCSNAME
  2

  9
$UCSORG
 10
0
 20
0
 30
0
  9
$UCSXDIR
 10
1
 20
0
 30
0
  9
$UCSYDIR
 10
0
 20
1
 30
0
  9
$UCSORTHOREF
  2

  9
$UCSORTHOVIEW
 70
    0
  9
$UCSORGTOP
 10
0
 20
0
 30
0
  9
$UCSORGBOTTOM
 10
0
 20
0
 30
0
  9
$UCSORGLEFT
 10
0
 20
0
 30
0
  9
$UCSORGRIGHT
 10
0
 20
0
 30
0
  9
$UCSORGFRONT
 10
0
 20
0
 30
0
  9
$UCSORGBACK
 10
0
 20
0
 30
0
  9
$PUCSBASE
  2

  9
$PUCSNAME
  2

  9
$PUCSORG
 10
0
 20
0
 30
0
  9
$PUCSXDIR
 10
1
 20
0
 30
0
  9
$PUCSYDIR
 10
0
 20
1
 30
0
  9
$PUCSORTHOREF
  2

  9
$PUCSORTHOVIEW
 70
    0
  9
$PUCSORGTOP
 10
0
 20
0
 30
0
  9
$PUCSORGBOTTOM
 10
0
 20
0
 30
0
  9
$PUCSORGLEFT
 10
0
 20
0
 30
0
  9
$PUCSORGRIGHT
 10
0
 20
0
 30
0
  9
$PUCSORGFRONT
 10
0
 20
0
 30
0
  9
$PUCSORGBACK
 10
0
 20
0
 30
0
  9
$USERI1
 70
    0
  9
$USERI2
 70
    0
  9
$USERI3
 70
    0
  9
$USERI4
 70
    0
  9
$USERI5
 70
    0
  9
$USERR1
 40
0
  9
$USERR2
 40
0
  9
$USERR3
 40
0
  9
$USERR4
 40
0
  9
$USERR5
 40
0
  9
$WORLDVIEW
 70
    1
  9
$SHADEDGE
 70
    3
  9
$SHADEDIF
 70
   70
  9
$TILEMODE
 70
    1
  9
$MAXACTVP
 70
   64
  9
$PINSBASE
 10
12.5
 20
-85.76389859029493
 30
0
  9
$PLIMCHECK
 70
    0
  9
$PEXTMIN
 10
0
 20
0
 30
0
  9
$PEXTMAX
 10
0
 20
0
 30
0
  9
$GRIDMODE
 70
    0
  9
$SNAPSTYLE
 70
    0
  9
$GRIDUNIT
 10
0
 20
0
  9
$PLIMMIN
 10
0
 20
0
  9
$PLIMMAX
 10
210
 20
297
  9
$UNITMODE
 70
    0
  9
$VISRETAIN
 70
    1
  9
$PLINEGEN
 70
    0
  9
$PSLTSCALE
 70
    1
  9
$TREEDEPTH
 70
 3020
  9
$CMLSTYLE
  2
Standard
  9
$CMLJUST
 70
    0
  9
$CMLSCALE
 40
20
  9
$PROXYGRAPHICS
 70
    1
  9
$MEASUREMENT
 70
    1
  9
$CELWEIGHT
370
   -1
  9
$ENDCAPS
280
    0
  9
$JOINSTYLE
280
    0
  9
$LWDISPLAY
290
    0
  9
$INSUNITS
 70
    0
  9
$HYPERLINKBASE
  1

  9
$STYLESHEET
  1

  9
$XEDIT
290
    1
  9
$CEPSNTYPE
380
    0
  9
$PSTYLEMODE
290
    1
  9
$EXTNAMES
290
    1
  9
$PSVPSCALE
 40
0.5536883952449241
  9
$OLESTARTUP
290
    0
  9
$SORTENTS
280
  127
  9
$INDEXCTL
280
    0
  9
$HIDETEXT
280
    1
  9
$XCLIPFRAME
290
    0
  9
$HALOGAP
280
    0
  9
$OBSCOLOR
 70
  257
  9
$OBSLTYPE
280
    0
  9
$INTERSECTIONDISPLAY
280
    0
  9
$INTERSECTIONCOLOR
 70
  257
  9
$DIMASSOC
280
    1
  9
$PROJECTNAME
  1

  9
$CAMERADISPLAY
290
    0
  9
$LENSLENGTH
 40
50
  9
$CAMERAHEIGHT
 40
0
  9
$STEPSPERSEC
 40
2
  9
$STEPSIZE
 40
50
  9
$3DDWFPREC
 40
2
  9
$PSOLWIDTH
 40
5
  9
$PSOLHEIGHT
 40
80
  9
$LOFTANG1
 40
1.570796326794897
  9
$LOFTANG2
 40
1.570796326794897
  9
$LOFTMAG1
 40
0
  9
$LOFTMAG2
 40
0
  9
$LOFTPARAM
 70
    7
  9
$LOFTNORMALS
280
    1
  9
$LATITUDE
 40
1
  9
$LONGITUDE
 40
1
  9
$NORTHDIRECTION
 40
0
  9
$TIMEZONE
 70
-8000
  9
$LIGHTGLYPHDISPLAY
280
    1
  9
$TILEMODELIGHTSYNCH
280
    1
  9
$SOLIDHIST
280
    1
  9
$SHOWHIST
280
    1
  9
$DWFFRAME
280
    2
  9
$DGNFRAME
280
    0
  9
$REALWORLDSCALE
290
    1
  9
$INTERFERECOLOR
 62
    1
  9
$CSHADOW
280
    0
  9
$SHADOWPLANELOCATION
 40
0
  0
ENDSEC
  0
SECTION
  2
CLASSES
  0
ENDSEC
  0
SECTION
  2
TABLES
  0
TABLE
  2
VPORT
  5
8
330
0
100
AcDbSymbolTable
 70
    1
  0
VPORT
  5
31
330
2
100
AcDbSymbolTableRecord
100
AcDbViewportTableRecord
  2
*ACTIVE
 70
    0
 10
0
 20
0
 11
1
 21
1
 12
169.026417599822
 22
208.2490541042959
 13
0
 23
0
 14
10
 24
10
 15
10
 25
10
 16
0
 26
0
 36
1
 17
0
 27
0
 37
0
 40
11.83004205752517
 41
2.055229142185664
 42
50
 43
0
 44
0
 50
0
 51
0
 71
    0
 72
  100
 73
    1
 74
    3
 75
    0
 76
    0
 77
    0
 78
    0
281
    0
 65
    1
110
0
120
0
130
0
111
1
121
0
131
0
112
0
122
1
132
0
 79
    0
146
0
348
10020
 60
    7
 61
    5
292
1
282
    1
141
0
142
0
 63
  250
421
3358443
  0
ENDTAB
  0
TABLE
  2
LTYPE
  5
5
330
0
100
AcDbSymbolTable
 70
    4
  0
LTYPE
  5
14
330
5
100
AcDbSymbolTableRecord
100
AcDbLinetypeTableRecord
  2
ByBlock
 70
    0
  3

 72
   65
 73
    0
 40
0
  0
LTYPE
  5
15
330
5
100
AcDbSymbolTableRecord
100
AcDbLinetypeTableRecord
  2
ByLayer
 70
    0
  3

 72
   65
 73
    0
 40
0
  0
LTYPE
  5
16
330
5
100
AcDbSymbolTableRecord
100
AcDbLinetypeTableRecord
  2
Continuous
 70
    0
  3
Solid line
 72
   65
 73
    0
 40
0
  0
LTYPE
  5
32
330
5
100
AcDbSymbolTableRecord
100
AcDbLinetypeTableRecord
  2
DOT
 70
    0
  3
Dot . . . . . . . . . . . . . . . . . . . . . .
 72
   65
 73
    2
 40
6.35
 49
0
 74
    0
 49
-6.35
 74
    0
  0
LTYPE
  5
33
330
5
100
AcDbSymbolTableRecord
100
AcDbLinetypeTableRecord
  2
DOTTINY
 70
    0
  3
Dot (.15x) .....................................
 72
   65
 73
    2
 40
0.9525
 49
0
 74
    0
 49
-0.9525
 74
    0
  0
LTYPE
  5
34
330
5
100
AcDbSymbolTableRecord
100
AcDbLinetypeTableRecord
  2
DOT2
 70
    0
  3
Dot (.5x) .....................................
 72
   65
 73
    2
 40
3.175
 49
0
 74
    0
 49
-3.175
 74
    0
  0
LTYPE
  5
35
330
5
100
AcDbSymbolTableRecord
100
AcDbLinetypeTableRecord
  2
DOTX2
 70
    0
  3
Dot (2x) .  .  .  .  .  .  .  .  .  .  .  .  .
 72
   65
 73
    2
 40
12.7
 49
0
 74
    0
 49
-12.7
 74
    0
  0
LTYPE
  5
36
330
5
100
AcDbSymbolTableRecord
100
AcDbLinetypeTableRecord
  2
DASHED
 70
    0
  3
Dashed _ _ _ _ _ _ _ _ _ _ _ _ _ _ _ _ _
 72
   65
 73
    2
 40
19.05
 49
12.7
 74
    0
 49
-6.35
 74
    0
  0
LTYPE
  5
37
330
5
100
AcDbSymbolTableRecord
100
AcDbLinetypeTableRecord
  2
DASHEDTINY
 70
    0
  3
Dashed (.15x) _ _ _ _ _ _ _ _ _ _ _ _ _ _ _ _ _
 72
   65
 73
    2
 40
2.8575
 49
1.905
 74
    0
 49
-0.9525
 74
    0
  0
LTYPE
  5
38
330
5
100
AcDbSymbolTableRecord
100
AcDbLinetypeTableRecord
  2
DASHED2
 70
    0
  3
Dashed (.5x) _ _ _ _ _ _ _ _ _ _ _ _ _ _ _ _ _
 72
   65
 73
    2
 40
9.524999999999999
 49
6.35
 74
    0
 49
-3.175
 74
    0
  0
LTYPE
  5
39
330
5
100
AcDbSymbolTableRecord
100
AcDbLinetypeTableRecord
  2
DASHEDX2
 70
    0
  3
Dashed (2x) ____  ____  ____  ____  ____  ___
 72
   65
 73
    2
 40
38.09999999999999
 49
25.4
 74
    0
 49
-12.7
 74
    0
  0
LTYPE
  5
3A
330
5
100
AcDbSymbolTableRecord
100
AcDbLinetypeTableRecord
  2
DASHDOT
 70
    0
  3
Dash dot __ . __ . __ . __ . __ . __ . __ . __
 72
   65
 73
    4
 40
25.4
 49
12.7
 74
    0
 49
-6.35
 74
    0
 49
0
 74
    0
 49
-6.35
 74
    0
  0
LTYPE
  5
3B
330
5
100
AcDbSymbolTableRecord
100
AcDbLinetypeTableRecord
  2
DASHDOTTINY
 70
    0
  3
Dash dot (.15x) _._._._._._._._._._._._._._._.
 72
   65
 73
    4
 40
3.81
 49
1.905
 74
    0
 49
-0.9525
 74
    0
 49
0
 74
    0
 49
-0.9525
 74
    0
  0
LTYPE
  5
3C
330
5
100
AcDbSymbolTableRecord
100
AcDbLinetypeTableRecord
  2
DASHDOT2
 70
    0
  3
Dash dot (.5x) _._._._._._._._._._._._._._._.
 72
   65
 73
    4
 40
12.7
 49
6.35
 74
    0
 49
-3.175
 74
    0
 49
0
 74
    0
 49
-3.175
 74
    0
  0
LTYPE
  5
3D
330
5
100
AcDbSymbolTableRecord
100
AcDbLinetypeTableRecord
  2
DASHDOTX2
 70
    0
  3
Dash dot (2x) ____  .  ____  .  ____  .  ___
 72
   65
 73
    4
 40
50.8
 49
25.4
 74
    0
 49
-12.7
 74
    0
 49
0
 74
    0
 49
-12.7
 74
    0
  0
LTYPE
  5
3E
330
5
100
AcDbSymbolTableRecord
100
AcDbLinetypeTableRecord
  2
DIVIDE
 70
    0
  3
Divide ____ . . ____ . . ____ . . ____ . . ____
 72
   65
 73
    6
 40
31.75
 49
12.7
 74
    0
 49
-6.35
 74
    0
 49
0
 74
    0
 49
-6.35
 74
    0
 49
0
 74
    0
 49
-6.35
 74
    0
  0
LTYPE
  5
3F
330
5
100
AcDbSymbolTableRecord
100
AcDbLinetypeTableRecord
  2
DIVIDETINY
 70
    0
  3
Divide (.15x) __..__..__..__..__..__..__..__.._
 72
   65
 73
    6
 40
4.7625
 49
1.905
 74
    0
 49
-0.9525
 74
    0
 49
0
 74
    0
 49
-0.9525
 74
    0
 49
0
 74
    0
 49
-0.9525
 74
    0
  0
LTYPE
  5
40
330
5
100
AcDbSymbolTableRecord
100
AcDbLinetypeTableRecord
  2
DIVIDE2
 70
    0
  3
Divide (.5x) __..__..__..__..__..__..__..__.._
 72
   65
 73
    6
 40
15.875
 49
6.35
 74
    0
 49
-3.175
 74
    0
 49
0
 74
    0
 49
-3.175
 74
    0
 49
0
 74
    0
 49
-3.175
 74
    0
  0
LTYPE
  5
41
330
5
100
AcDbSymbolTableRecord
100
AcDbLinetypeTableRecord
  2
DIVIDEX2
 70
    0
  3
Divide (2x) ________  .  .  ________  .  .  _
 72
   65
 73
    6
 40
63.5
 49
25.4
 74
    0
 49
-12.7
 74
    0
 49
0
 74
    0
 49
-12.7
 74
    0
 49
0
 74
    0
 49
-12.7
 74
    0
  0
LTYPE
  5
42
330
5
100
AcDbSymbolTableRecord
100
AcDbLinetypeTableRecord
  2
BORDER
 70
    0
  3
Border __ __ . __ __ . __ __ . __ __ . __ __ .
 72
   65
 73
    6
 40
44.45
 49
12.7
 74
    0
 49
-6.35
 74
    0
 49
12.7
 74
    0
 49
-6.35
 74
    0
 49
0
 74
    0
 49
-6.35
 74
    0
  0
LTYPE
  5
43
330
5
100
AcDbSymbolTableRecord
100
AcDbLinetypeTableRecord
  2
BORDERTINY
 70
    0
  3
Border (.15x) __.__.__.__.__.__.__.__.__.__.__.
 72
   65
 73
    6
 40
6.6675
 49
1.905
 74
    0
 49
-0.9525
 74
    0
 49
1.905
 74
    0
 49
-0.9525
 74
    0
 49
0
 74
    0
 49
-0.9525
 74
    0
  0
LTYPE
  5
44
330
5
100
AcDbSymbolTableRecord
100
AcDbLinetypeTableRecord
  2
BORDER2
 70
    0
  3
Border (.5x) __.__.__.__.__.__.__.__.__.__.__.
 72
   65
 73
    6
 40
22.225
 49
6.35
 74
    0
 49
-3.175
 74
    0
 49
6.35
 74
    0
 49
-3.175
 74
    0
 49
0
 74
    0
 49
-3.175
 74
    0
  0
LTYPE
  5
45
330
5
100
AcDbSymbolTableRecord
100
AcDbLinetypeTableRecord
  2
BORDERX2
 70
    0
  3
Border (2x) ____  ____  .  ____  ____  .  ___
 72
   65
 73
    6
 40
88.89999999999999
 49
25.4
 74
    0
 49
-12.7
 74
    0
 49
25.4
 74
    0
 49
-12.7
 74
    0
 49
0
 74
    0
 49
-12.7
 74
    0
  0
LTYPE
  5
46
330
5
100
AcDbSymbolTableRecord
100
AcDbLinetypeTableRecord
  2
CENTER
 70
    0
  3
Center ____ _ ____ _ ____ _ ____ _ ____ _ ____
 72
   65
 73
    4
 40
50.8
 49
31.75
 74
    0
 49
-6.35
 74
    0
 49
6.35
 74
    0
 49
-6.35
 74
    0
  0
LTYPE
  5
47
330
5
100
AcDbSymbolTableRecord
100
AcDbLinetypeTableRecord
  2
CENTERTINY
 70
    0
  3
Center (.15x) ___ _ ___ _ ___ _ ___ _ ___ _ ___
 72
   65
 73
    4
 40
7.619999999999999
 49
4.7625
 74
    0
 49
-0.9525
 74
    0
 49
0.9525
 74
    0
 49
-0.9525
 74
    0
  0
LTYPE
  5
48
330
5
100
AcDbSymbolTableRecord
100
AcDbLinetypeTableRecord
  2
CENTER2
 70
    0
  3
Center (.5x) ___ _ ___ _ ___ _ ___ _ ___ _ ___
 72
   65
 73
    4
 40
28.575
 49
19.05
 74
    0
 49
-3.175
 74
    0
 49
3.175
 74
    0
 49
-3.175
 74
    0
  0
LTYPE
  5
49
330
5
100
AcDbSymbolTableRecord
100
AcDbLinetypeTableRecord
  2
CENTERX2
 70
    0
  3
Center (2x) ________  __  ________  __  _____
 72
   65
 73
    4
 40
101.6
 49
63.5
 74
    0
 49
-12.7
 74
    0
 49
12.7
 74
    0
 49
-12.7
 74
    0
  0
ENDTAB
  0
TABLE
  2
LAYER
  5
2
330
0
100
AcDbSymbolTable
 70
    1
  0
LAYER
  5
10
330
2
100
AcDbSymbolTableRecord
100
AcDbLayerTableRecord
  2
0
 70
    0
 62
    7
  6
CONTINUOUS
370
    0
390
F
  0
ENDTAB
  0
TABLE
  2
STYLE
  5
3
330
0
100
AcDbSymbolTable
 70
    3
  0
STYLE
  5
4A
330
2
100
AcDbSymbolTableRecord
100
AcDbTextStyleTableRecord
  2
standard
 70
    0
 40
0
 41
1
 50
0
 71
    0
 42
1
  3
standard
  4

  0
STYLE
  5
4B
330
2
100
AcDbSymbolTableRecord
100
AcDbTextStyleTableRecord
  2
STANDARD
 70
    0
 40
0
 41
1
 50
0
 71
    0
 42
1
  3
STANDARD
  4

  0
ENDTAB
  0
TABLE
  2
VIEW
  5
6
330
0
100
AcDbSymbolTable
 70
    0
  0
ENDTAB
  0
TABLE
  2
UCS
  5
7
330
0
100
AcDbSymbolTable
 70
    0
  0
ENDTAB
  0
TABLE
  2
APPID
  5
9
330
0
100
AcDbSymbolTable
 70
    1
  0
APPID
  5
12
330
9
100
AcDbSymbolTableRecord
100
AcDbRegAppTableRecord
  2
ACAD
 70
    0
  0
APPID
  5
4C
330
9
100
AcDbSymbolTableRecord
100
AcDbRegAppTableRecord
  2
LibreCad
 70
    0
  0
ENDTAB
  0
TABLE
  2
DIMSTYLE
  5
A
330
0
100
AcDbSymbolTable
 70
    1
100
AcDbDimStyleTable
 71
    1
  0
DIMSTYLE
105
4D
330
A
100
AcDbSymbolTableRecord
100
AcDbDimStyleTableRecord
  2
Standard
 70
    0
 40
1
 41
0.1
 42
0.2
 43
0.38
 44
0.1
 45
0
 46
0
 47
0
 48
0
 49
1
140
0.2
141
0.09
142
0
143
25.4
144
1
145
0
146
1
147
0.2
148
0
 71
    0
 72
    0
 73
    0
 74
    1
 75
    0
 76
    0
 77
    0
 78
    8
 79
    0
170
    0
171
    2
172
    0
173
    0
174
    0
175
    0
176
    5
177
    0
178
    5
179
    0
271
    2
272
    4
273
    2
274
    2
275
    0
276
    0
277
    2
278
   44
279
    0
280
    0
281
    0
282
    0
283
    1
284
    0
285
    0
286
    0
288
    0
289
    3
340
standard
341

371
   -2
372
   -2
  0
ENDTAB
  0
TABLE
  2
BLOCK_RECORD
  5
1
330
0
100
AcDbSymbolTable
 70
    2
  0
BLOCK_RECORD
  5
1F
330
1
100
AcDbSymbolTableRecord
100
AcDbBlockTableRecord
  2
*Model_Space
 70
    0
280
    1
281
    0
  0
BLOCK_RECORD
  5
1E
330
1
100
AcDbSymbolTableRecord
100
AcDbBlockTableRecord
  2
*Paper_Space
 70
    0
280
    1
281
    0
  0
BLOCK_RECORD
  5
4E
330
1
100
AcDbSymbolTableRecord
100
AcDbBlockTableRecord
  2
*D10
 70
    0
280
    1
281
    0
  0
BLOCK_RECORD
  5
51
330
1
100
AcDbSymbolTableRecord
100
AcDbBlockTableRecord
  2
*D47
 70
    0
280
    1
281
    0
  0
BLOCK_RECORD
  5
54
330
1
100
AcDbSymbolTableRecord
100
AcDbBlockTableRecord
  2
*D16
 70
    0
280
    1
281
    0
  0
BLOCK_RECORD
  5
57
330
1
100
AcDbSymbolTableRecord
100
AcDbBlockTableRecord
  2
*D44
 70
    0
280
    1
281
    0
  0
BLOCK_RECORD
  5
5A
330
1
100
AcDbSymbolTableRecord
100
AcDbBlockTableRecord
  2
*D53
 70
    0
280
    1
281
    0
  0
BLOCK_RECORD
  5
5D
330
1
100
AcDbSymbolTableRecord
100
AcDbBlockTableRecord
  2
*D20
 70
    0
280
    1
281
    0
  0
BLOCK_RECORD
  5
60
330
1
100
AcDbSymbolTableRecord
100
AcDbBlockTableRecord
  2
*D45
 70
    0
280
    1
281
    0
  0
BLOCK_RECORD
  5
63
330
1
100
AcDbSymbolTableRecord
100
AcDbBlockTableRecord
  2
*D30
 70
    0
280
    1
281
    0
  0
BLOCK_RECORD
  5
66
330
1
100
AcDbSymbolTableRecord
100
AcDbBlockTableRecord
  2
*D65
 70
    0
280
    1
281
    0
  0
BLOCK_RECORD
  5
69
330
1
100
AcDbSymbolTableRecord
100
AcDbBlockTableRecord
  2
*D21
 70
    0
280
    1
281
    0
  0
BLOCK_RECORD
  5
6C
330
1
100
AcDbSymbolTableRecord
100
AcDbBlockTableRecord
  2
*D36
 70
    0
280
    1
281
    0
  0
BLOCK_RECORD
  5
6F
330
1
100
AcDbSymbolTableRecord
100
AcDbBlockTableRecord
  2
*D29
 70
    0
280
    1
281
    0
  0
BLOCK_RECORD
  5
72
330
1
100
AcDbSymbolTableRecord
100
AcDbBlockTableRecord
  2
*D34
 70
    0
280
    1
281
    0
  0
BLOCK_RECORD
  5
75
330
1
100
AcDbSymbolTableRecord
100
AcDbBlockTableRecord
  2
*D50
 70
    0
280
    1
281
    0
  0
BLOCK_RECORD
  5
78
330
1
100
AcDbSymbolTableRecord
100
AcDbBlockTableRecord
  2
*D64
 70
    0
280
    1
281
    0
  0
BLOCK_RECORD
  5
7B
330
1
100
AcDbSymbolTableRecord
100
AcDbBlockTableRecord
  2
*D46
 70
    0
280
    1
281
    0
  0
BLOCK_RECORD
  5
7E
330
1
100
AcDbSymbolTableRecord
100
AcDbBlockTableRecord
  2
*D48
 70
    0
280
    1
281
    0
  0
BLOCK_RECORD
  5
81
330
1
100
AcDbSymbolTableRecord
100
AcDbBlockTableRecord
  2
*D28
 70
    0
280
    1
281
    0
  0
BLOCK_RECORD
  5
84
330
1
100
AcDbSymbolTableRecord
100
AcDbBlockTableRecord
  2
*D9
 70
    0
280
    1
281
    0
  0
BLOCK_RECORD
  5
87
330
1
100
AcDbSymbolTableRecord
100
AcDbBlockTableRecord
  2
*D40
 70
    0
280
    1
281
    0
  0
BLOCK_RECORD
  5
8A
330
1
100
AcDbSymbolTableRecord
100
AcDbBlockTableRecord
  2
*D13
 70
    0
280
    1
281
    0
  0
BLOCK_RECORD
  5
8D
330
1
100
AcDbSymbolTableRecord
100
AcDbBlockTableRecord
  2
*D35
 70
    0
280
    1
281
    0
  0
BLOCK_RECORD
  5
90
330
1
100
AcDbSymbolTableRecord
100
AcDbBlockTableRecord
  2
*D52
 70
    0
280
    1
281
    0
  0
BLOCK_RECORD
  5
93
330
1
100
AcDbSymbolTableRecord
100
AcDbBlockTableRecord
  2
*D58
 70
    0
280
    1
281
    0
  0
BLOCK_RECORD
  5
96
330
1
100
AcDbSymbolTableRecord
100
AcDbBlockTableRecord
  2
*D8
 70
    0
280
    1
281
    0
  0
BLOCK_RECORD
  5
99
330
1
100
AcDbSymbolTableRecord
100
AcDbBlockTableRecord
  2
*D6
 70
    0
280
    1
281
    0
  0
BLOCK_RECORD
  5
9C
330
1
100
AcDbSymbolTableRecord
100
AcDbBlockTableRecord
  2
*D27
 70
    0
280
    1
281
    0
  0
BLOCK_RECORD
  5
9F
330
1
100
AcDbSymbolTableRecord
100
AcDbBlockTableRecord
  2
*D41
 70
    0
280
    1
281
    0
  0
BLOCK_RECORD
  5
A2
330
1
100
AcDbSymbolTableRecord
100
AcDbBlockTableRecord
  2
*D54
 70
    0
280
    1
281
    0
  0
BLOCK_RECORD
  5
A5
330
1
100
AcDbSymbolTableRecord
100
AcDbBlockTableRecord
  2
*D61
 70
    0
280
    1
281
    0
  0
BLOCK_RECORD
  5
A8
330
1
100
AcDbSymbolTableRecord
100
AcDbBlockTableRecord
  2
*D14
 70
    0
280
    1
281
    0
  0
BLOCK_RECORD
  5
AB
330
1
100
AcDbSymbolTableRecord
100
AcDbBlockTableRecord
  2
*D25
 70
    0
280
    1
281
    0
  0
BLOCK_RECORD
  5
AE
330
1
100
AcDbSymbolTableRecord
100
AcDbBlockTableRecord
  2
*D5
 70
    0
280
    1
281
    0
  0
BLOCK_RECORD
  5
B1
330
1
100
AcDbSymbolTableRecord
100
AcDbBlockTableRecord
  2
*D66
 70
    0
280
    1
281
    0
  0
BLOCK_RECORD
  5
B4
330
1
100
AcDbSymbolTableRecord
100
AcDbBlockTableRecord
  2
*D24
 70
    0
280
    1
281
    0
  0
BLOCK_RECORD
  5
B7
330
1
100
AcDbSymbolTableRecord
100
AcDbBlockTableRecord
  2
*D22
 70
    0
280
    1
281
    0
  0
BLOCK_RECORD
  5
BA
330
1
100
AcDbSymbolTableRecord
100
AcDbBlockTableRecord
  2
*D1
 70
    0
280
    1
281
    0
  0
BLOCK_RECORD
  5
BD
330
1
100
AcDbSymbolTableRecord
100
AcDbBlockTableRecord
  2
*D39
 70
    0
280
    1
281
    0
  0
BLOCK_RECORD
  5
C0
330
1
100
AcDbSymbolTableRecord
100
AcDbBlockTableRecord
  2
*D37
 70
    0
280
    1
281
    0
  0
BLOCK_RECORD
  5
C3
330
1
100
AcDbSymbolTableRecord
100
AcDbBlockTableRecord
  2
*D55
 70
    0
280
    1
281
    0
  0
BLOCK_RECORD
  5
C6
330
1
100
AcDbSymbolTableRecord
100
AcDbBlockTableRecord
  2
*D26
 70
    0
280
    1
281
    0
  0
BLOCK_RECORD
  5
C9
330
1
100
AcDbSymbolTableRecord
100
AcDbBlockTableRecord
  2
*D23
 70
    0
280
    1
281
    0
  0
BLOCK_RECORD
  5
CC
330
1
100
AcDbSymbolTableRecord
100
AcDbBlockTableRecord
  2
*D17
 70
    0
280
    1
281
    0
  0
BLOCK_RECORD
  5
CF
330
1
100
AcDbSymbolTableRecord
100
AcDbBlockTableRecord
  2
*D19
 70
    0
280
    1
281
    0
  0
BLOCK_RECORD
  5
D2
330
1
100
AcDbSymbolTableRecord
100
AcDbBlockTableRecord
  2
*D31
 70
    0
280
    1
281
    0
  0
BLOCK_RECORD
  5
D5
330
1
100
AcDbSymbolTableRecord
100
AcDbBlockTableRecord
  2
*D57
 70
    0
280
    1
281
    0
  0
BLOCK_RECORD
  5
D8
330
1
100
AcDbSymbolTableRecord
100
AcDbBlockTableRecord
  2
*D67
 70
    0
280
    1
281
    0
  0
BLOCK_RECORD
  5
DB
330
1
100
AcDbSymbolTableRecord
100
AcDbBlockTableRecord
  2
*D33
 70
    0
280
    1
281
    0
  0
BLOCK_RECORD
  5
DE
330
1
100
AcDbSymbolTableRecord
100
AcDbBlockTableRecord
  2
*D7
 70
    0
280
    1
281
    0
  0
BLOCK_RECORD
  5
E1
330
1
100
AcDbSymbolTableRecord
100
AcDbBlockTableRecord
  2
*D18
 70
    0
280
    1
281
    0
  0
BLOCK_RECORD
  5
E4
330
1
100
AcDbSymbolTableRecord
100
AcDbBlockTableRecord
  2
*D11
 70
    0
280
    1
281
    0
  0
BLOCK_RECORD
  5
E7
330
1
100
AcDbSymbolTableRecord
100
AcDbBlockTableRecord
  2
*D59
 70
    0
280
    1
281
    0
  0
BLOCK_RECORD
  5
EA
330
1
100
AcDbSymbolTableRecord
100
AcDbBlockTableRecord
  2
*D62
 70
    0
280
    1
281
    0
  0
BLOCK_RECORD
  5
ED
330
1
100
AcDbSymbolTableRecord
100
AcDbBlockTableRecord
  2
*D60
 70
    0
280
    1
281
    0
  0
BLOCK_RECORD
  5
F0
330
1
100
AcDbSymbolTableRecord
100
AcDbBlockTableRecord
  2
*D49
 70
    0
280
    1
281
    0
  0
BLOCK_RECORD
  5
F3
330
1
100
AcDbSymbolTableRecord
100
AcDbBlockTableRecord
  2
*D32
 70
    0
280
    1
281
    0
  0
BLOCK_RECORD
  5
F6
330
1
100
AcDbSymbolTableRecord
100
AcDbBlockTableRecord
  2
*D38
 70
    0
280
    1
281
    0
  0
BLOCK_RECORD
  5
F9
330
1
100
AcDbSymbolTableRecord
100
AcDbBlockTableRecord
  2
*D4
 70
    0
280
    1
281
    0
  0
BLOCK_RECORD
  5
FC
330
1
100
AcDbSymbolTableRecord
100
AcDbBlockTableRecord
  2
*D56
 70
    0
280
    1
281
    0
  0
BLOCK_RECORD
  5
FF
330
1
100
AcDbSymbolTableRecord
100
AcDbBlockTableRecord
  2
*D3
 70
    0
280
    1
281
    0
  0
BLOCK_RECORD
  5
102
330
1
100
AcDbSymbolTableRecord
100
AcDbBlockTableRecord
  2
*D12
 70
    0
280
    1
281
    0
  0
BLOCK_RECORD
  5
105
330
1
100
AcDbSymbolTableRecord
100
AcDbBlockTableRecord
  2
*D63
 70
    0
280
    1
281
    0
  0
BLOCK_RECORD
  5
108
330
1
100
AcDbSymbolTableRecord
100
AcDbBlockTableRecord
  2
*D2
 70
    0
280
    1
281
    0
  0
BLOCK_RECORD
  5
10B
330
1
100
AcDbSymbolTableRecord
100
AcDbBlockTableRecord
  2
*D42
 70
    0
280
    1
281
    0
  0
BLOCK_RECORD
  5
10E
330
1
100
AcDbSymbolTableRecord
100
AcDbBlockTableRecord
  2
*D15
 70
    0
280
    1
281
    0
  0
BLOCK_RECORD
  5
111
330
1
100
AcDbSymbolTableRecord
100
AcDbBlockTableRecord
  2
*D43
 70
    0
280
    1
281
    0
  0
BLOCK_RECORD
  5
114
330
1
100
AcDbSymbolTableRecord
100
AcDbBlockTableRecord
  2
*D51
 70
    0
280
    1
281
    0
  0
ENDTAB
  0
ENDSEC
  0
SECTION
  2
BLOCKS
  0
BLOCK
  5
20
330
1F
100
AcDbEntity
  8
0
100
AcDbBlockBegin
  2
*Model_Space
 70
    0
 10
0
 20
0
 30
0
  3
*Model_Space
  1

  0
ENDBLK
  5
21
330
1F
100
AcDbEntity
  8
0
100
AcDbBlockEnd
  0
BLOCK
  5
1C
330
1B
100
AcDbEntity
  8
0
100
AcDbBlockBegin
  2
*Paper_Space
 70
    0
 10
0
 20
0
 30
0
  3
*Paper_Space
  1

  0
ENDBLK
  5
1D
330
1F
100
AcDbEntity
  8
0
100
AcDbBlockEnd
  0
BLOCK
  5
4F
330
4E
100
AcDbEntity
  8
0
100
AcDbBlockBegin
  2
*D10
 70
    1
 10
0
 20
0
  3
*D10
  1

  0
LINE
  5
117
100
AcDbEntity
  8
0
  6
ByBlock
 62
    5
370
   -2
100
AcDbLine
 10
322.2624314704885
 20
426.7524439471685
 11
325.1024314704885
 21
426.7524439471685
  0
SOLID
  5
118
100
AcDbEntity
  8
0
  6
ByBlock
 62
    5
370
   -2
100
AcDbTrace
 10
322.2624314704885
 20
426.7524439471685
 30
0
 11
322.3624314704885
 21
426.7690953334794
 31
0
 12
322.3624314704885
 22
426.7357925608576
 32
0
 13
322.3624314704885
 23
426.7357925608576
 33
0
  0
SOLID
  5
119
100
AcDbEntity
  8
0
  6
ByBlock
 62
    5
370
   -2
100
AcDbTrace
 10
325.1024314704885
 20
426.7524439471685
 30
0
 11
325.0024314704885
 21
426.7357925608576
 31
0
 12
325.0024314704885
 22
426.7690953334794
 32
0
 13
325.0024314704885
 23
426.7690953334794
 33
0
  0
MTEXT
  5
11A
100
AcDbEntity
  8
0
  6
CONTINUOUS
 62
    5
370
   -2
100
AcDbMText
 10
323.6824314704885
 20
427.0524439471685
 30
0
 40
0.2
 41
0.5
 71
    5
 72
    1
  1
2,84
  7
standard
210
0
220
0
230
1
 50
0
 73
    2
 44
1
  0
LINE
  5
11B
100
AcDbEntity
  8
0
  6
ByBlock
 62
    0
370
   -2
100
AcDbLine
 10
322.2624314704885
 20
426.5223137407127
 11
322.2624314704885
 21
426.8524439471685
  0
LINE
  5
11C
100
AcDbEntity
  8
0
  6
ByBlock
 62
    0
370
   -2
100
AcDbLine
 10
325.1024314704885
 20
426.5223137407127
 11
325.1024314704885
 21
426.8524439471685
  0
ENDBLK
  5
50
330
4E
100
AcDbEntity
  8
0
100
AcDbBlockEnd
  0
BLOCK
  5
52
330
51
100
AcDbEntity
  8
0
100
AcDbBlockBegin
  2
*D47
 70
    1
 10
0
 20
0
  3
*D47
  1

  0
LINE
  5
11D
100
AcDbEntity
  8
0
  6
ByBlock
 62
    5
370
   -2
100
AcDbLine
 10
318.8215965742313
 20
413.2735190904156
 11
322.1715965742314
 21
413.2735190904156
  0
SOLID
  5
11E
100
AcDbEntity
  8
0
  6
ByBlock
 62
    5
370
   -2
100
AcDbTrace
 10
318.8215965742313
 20
413.2735190904156
 30
0
 11
318.9215965742313
 21
413.2901704767265
 31
0
 12
318.9215965742313
 22
413.2568677041047
 32
0
 13
318.9215965742313
 23
413.2568677041047
 33
0
  0
SOLID
  5
11F
100
AcDbEntity
  8
0
  6
ByBlock
 62
    5
370
   -2
100
AcDbTrace
 10
322.1715965742314
 20
413.2735190904156
 30
0
 11
322.0715965742314
 21
413.2568677041047
 31
0
 12
322.0715965742314
 22
413.2901704767265
 32
0
 13
322.0715965742314
 23
413.2901704767265
 33
0
  0
MTEXT
  5
120
100
AcDbEntity
  8
0
  6
CONTINUOUS
 62
    5
370
   -2
100
AcDbMText
 10
320.4965965742314
 20
413.5735190904156
 30
0
 40
0.2
 41
0.477777777777815
 71
    5
 72
    1
  1
3,35
  7
standard
210
0
220
0
230
1
 50
0
 73
    2
 44
1
  0
LINE
  5
121
100
AcDbEntity
  8
0
  6
ByBlock
 62
    0
370
   -2
100
AcDbLine
 10
318.8215965742313
 20
413.0601653985923
 11
318.8215965742313
 21
413.3735190904156
  0
LINE
  5
122
100
AcDbEntity
  8
0
  6
ByBlock
 62
    0
370
   -2
100
AcDbLine
 10
322.1715965742314
 20
413.0601653985925
 11
322.1715965742314
 21
413.3735190904156
  0
ENDBLK
  5
53
330
51
100
AcDbEntity
  8
0
100
AcDbBlockEnd
  0
BLOCK
  5
55
330
54
100
AcDbEntity
  8
0
100
AcDbBlockBegin
  2
*D16
 70
    1
 10
0
 20
0
  3
*D16
  1

  0
LINE
  5
123
100
AcDbEntity
  8
0
  6
ByBlock
 62
    5
370
   -2
100
AcDbLine
 10
325.2524314704884
 20
419.4200368943797
 11
328.2524314704884
 21
419.4200368943797
  0
SOLID
  5
124
100
AcDbEntity
  8
0
  6
ByBlock
 62
    5
370
   -2
100
AcDbTrace
 10
325.2524314704884
 20
419.4200368943797
 30
0
 11
325.3524314704884
 21
419.4366882806906
 31
0
 12
325.3524314704884
 22
419.4033855080688
 32
0
 13
325.3524314704884
 23
419.4033855080688
 33
0
  0
SOLID
  5
125
100
AcDbEntity
  8
0
  6
ByBlock
 62
    5
370
   -2
100
AcDbTrace
 10
328.2524314704884
 20
419.4200368943797
 30
0
 11
328.1524314704884
 21
419.4033855080688
 31
0
 12
328.1524314704884
 22
419.4366882806906
 32
0
 13
328.1524314704884
 23
419.4366882806906
 33
0
  0
MTEXT
  5
126
100
AcDbEntity
  8
0
  6
CONTINUOUS
 62
    5
370
   -2
100
AcDbMText
 10
326.7524314704884
 20
419.7200368943797
 30
0
 40
0.2
 41
0.08888888888890129
 71
    5
 72
    1
  1
3
  7
standard
210
0
220
0
230
1
 50
0
 73
    2
 44
1
  0
LINE
  5
127
100
AcDbEntity
  8
0
  6
ByBlock
 62
    0
370
   -2
100
AcDbLine
 10
325.2524314704884
 20
419.8223137407127
 11
325.2524314704884
 21
419.3200368943797
  0
LINE
  5
128
100
AcDbEntity
  8
0
  6
ByBlock
 62
    0
370
   -2
100
AcDbLine
 10
328.2524314704884
 20
419.8223137407127
 11
328.2524314704884
 21
419.3200368943797
  0
ENDBLK
  5
56
330
54
100
AcDbEntity
  8
0
100
AcDbBlockEnd
  0
BLOCK
  5
58
330
57
100
AcDbEntity
  8
0
100
AcDbBlockBegin
  2
*D44
 70
    1
 10
0
 20
0
  3
*D44
  1

  0
LINE
  5
129
100
AcDbEntity
  8
0
  6
ByBlock
 62
    5
370
   -2
100
AcDbLine
 10
318.3617782972656
 20
407.0601653985923
 11
318.3617782972656
 21
409.5001653985923
  0
SOLID
  5
12A
100
AcDbEntity
  8
0
  6
ByBlock
 62
    5
370
   -2
100
AcDbTrace
 10
318.3617782972656
 20
407.0601653985923
 30
0
 11
318.3451269109547
 21
407.1601653985923
 31
0
 12
318.3784296835765
 22
407.1601653985923
 32
0
 13
318.3784296835765
 23
407.1601653985923
 33
0
  0
SOLID
  5
12B
100
AcDbEntity
  8
0
  6
ByBlock
 62
    5
370
   -2
100
AcDbTrace
 10
318.3617782972656
 20
409.5001653985923
 30
0
 11
318.3784296835765
 21
409.4001653985923
 31
0
 12
318.3451269109547
 22
409.4001653985923
 32
0
 13
318.3451269109547
 23
409.4001653985923
 33
0
  0
MTEXT
  5
12C
100
AcDbEntity
  8
0
  6
CONTINUOUS
 62
    5
370
   -2
100
AcDbMText
 10
318.0617782972656
 20
408.2801653985923
 30
0
 40
0.2
 41
0.5222222222222223
 71
    5
 72
    1
  1
2,44
  7
standard
210
0
220
0
230
1
 50
90
 73
    2
 44
1
  0
LINE
  5
12D
100
AcDbEntity
  8
0
  6
ByBlock
 62
    0
370
   -2
100
AcDbLine
 10
318.4715965742314
 20
407.0601653985923
 11
318.2617782972656
 21
407.0601653985923
  0
LINE
  5
12E
100
AcDbEntity
  8
0
  6
ByBlock
 62
    0
370
   -2
100
AcDbLine
 10
318.4715965742314
 20
409.5001653985923
 11
318.2617782972656
 21
409.5001653985923
  0
ENDBLK
  5
59
330
57
100
AcDbEntity
  8
0
100
AcDbBlockEnd
  0
BLOCK
  5
5B
330
5A
100
AcDbEntity
  8
0
100
AcDbBlockBegin
  2
*D53
 70
    1
 10
0
 20
0
  3
*D53
  1

  0
LINE
  5
12F
100
AcDbEntity
  8
0
  6
ByBlock
 62
    5
370
   -2
100
AcDbLine
 10
329.4547264600488
 20
408.5101653985923
 11
329.4547264600488
 21
411.7101653985926
  0
SOLID
  5
130
100
AcDbEntity
  8
0
  6
ByBlock
 62
    5
370
   -2
100
AcDbTrace
 10
329.4547264600488
 20
408.5101653985923
 30
0
 11
329.4380750737379
 21
408.6101653985923
 31
0
 12
329.4713778463597
 22
408.6101653985923
 32
0
 13
329.4713778463597
 23
408.6101653985923
 33
0
  0
SOLID
  5
131
100
AcDbEntity
  8
0
  6
ByBlock
 62
    5
370
   -2
100
AcDbTrace
 10
329.4547264600488
 20
411.7101653985926
 30
0
 11
329.4713778463597
 21
411.6101653985925
 31
0
 12
329.4380750737379
 22
411.6101653985925
 32
0
 13
329.4380750737379
 23
411.6101653985925
 33
0
  0
MTEXT
  5
132
100
AcDbEntity
  8
0
  6
CONTINUOUS
 62
    5
370
   -2
100
AcDbMText
 10
329.1547264600488
 20
410.1101653985924
 30
0
 40
0.2
 41
0.3222222222222346
 71
    5
 72
    1
  1
3,2
  7
standard
210
0
220
0
230
1
 50
90
 73
    2
 44
1
  0
LINE
  5
133
100
AcDbEntity
  8
0
  6
ByBlock
 62
    0
370
   -2
100
AcDbLine
 10
329.4615965742311
 20
408.5101653985923
 11
329.3547264600488
 21
408.5101653985923
  0
LINE
  5
134
100
AcDbEntity
  8
0
  6
ByBlock
 62
    0
370
   -2
100
AcDbLine
 10
329.4615965742311
 20
411.7101653985926
 11
329.3547264600488
 21
411.7101653985926
  0
ENDBLK
  5
5C
330
5A
100
AcDbEntity
  8
0
100
AcDbBlockEnd
  0
BLOCK
  5
5E
330
5D
100
AcDbEntity
  8
0
100
AcDbBlockBegin
  2
*D20
 70
    1
 10
0
 20
0
  3
*D20
  1

  0
LINE
  5
135
100
AcDbEntity
  8
0
  6
ByBlock
 62
    5
370
   -2
100
AcDbLine
 10
322.3198459952482
 20
423.0123137407126
 11
322.3198459952482
 21
421.2323137407126
  0
SOLID
  5
136
100
AcDbEntity
  8
0
  6
ByBlock
 62
    5
370
   -2
100
AcDbTrace
 10
322.3198459952482
 20
423.0123137407126
 30
0
 11
322.3364973815591
 21
422.9123137407126
 31
0
 12
322.3031946089373
 22
422.9123137407126
 32
0
 13
322.3031946089373
 23
422.9123137407126
 33
0
  0
SOLID
  5
137
100
AcDbEntity
  8
0
  6
ByBlock
 62
    5
370
   -2
100
AcDbTrace
 10
322.3198459952482
 20
421.2323137407126
 30
0
 11
322.3031946089373
 21
421.3323137407126
 31
0
 12
322.3364973815591
 22
421.3323137407126
 32
0
 13
322.3364973815591
 23
421.3323137407126
 33
0
  0
MTEXT
  5
138
100
AcDbEntity
  8
0
  6
CONTINUOUS
 62
    5
370
   -2
100
AcDbMText
 10
322.0198459952482
 20
422.1223137407126
 30
0
 40
0.2
 41
0.4333333333333333
 71
    5
 72
    1
  1
1,78
  7
standard
210
0
220
0
230
1
 50
90
 73
    2
 44
1
  0
LINE
  5
139
100
AcDbEntity
  8
0
  6
ByBlock
 62
    0
370
   -2
100
AcDbLine
 10
322.4424314704885
 20
423.0123137407126
 11
322.2198459952482
 21
423.0123137407126
  0
LINE
  5
13A
100
AcDbEntity
  8
0
  6
ByBlock
 62
    0
370
   -2
100
AcDbLine
 10
322.4424314704885
 20
421.2323137407126
 11
322.2198459952482
 21
421.2323137407126
  0
ENDBLK
  5
5F
330
5D
100
AcDbEntity
  8
0
100
AcDbBlockEnd
  0
BLOCK
  5
61
330
60
100
AcDbEntity
  8
0
100
AcDbBlockBegin
  2
*D45
 70
    1
 10
0
 20
0
  3
*D45
  1

  0
LINE
  5
13B
100
AcDbEntity
  8
0
  6
ByBlock
 62
    5
370
   -2
100
AcDbLine
 10
316.8166199807922
 20
406.8601653985923
 11
316.8166199807922
 21
412.8601653985924
  0
SOLID
  5
13C
100
AcDbEntity
  8
0
  6
ByBlock
 62
    5
370
   -2
100
AcDbTrace
 10
316.8166199807922
 20
406.8601653985923
 30
0
 11
316.7999685944813
 21
406.9601653985923
 31
0
 12
316.8332713671031
 22
406.9601653985923
 32
0
 13
316.8332713671031
 23
406.9601653985923
 33
0
  0
SOLID
  5
13D
100
AcDbEntity
  8
0
  6
ByBlock
 62
    5
370
   -2
100
AcDbTrace
 10
316.8166199807922
 20
412.8601653985924
 30
0
 11
316.8332713671031
 21
412.7601653985924
 31
0
 12
316.7999685944813
 22
412.7601653985924
 32
0
 13
316.7999685944813
 23
412.7601653985924
 33
0
  0
MTEXT
  5
13E
100
AcDbEntity
  8
0
  6
CONTINUOUS
 62
    5
370
   -2
100
AcDbMText
 10
316.5166199807921
 20
409.8601653985923
 30
0
 40
0.2
 41
0.08888888888890129
 71
    5
 72
    1
  1
6
  7
standard
210
0
220
0
230
1
 50
90
 73
    2
 44
1
  0
LINE
  5
13F
100
AcDbEntity
  8
0
  6
ByBlock
 62
    0
370
   -2
100
AcDbLine
 10
318.6215965742313
 20
406.8601653985923
 11
316.7166199807922
 21
406.8601653985923
  0
LINE
  5
140
100
AcDbEntity
  8
0
  6
ByBlock
 62
    0
370
   -2
100
AcDbLine
 10
318.6215965742313
 20
412.8601653985924
 11
316.7166199807922
 21
412.8601653985924
  0
ENDBLK
  5
62
330
60
100
AcDbEntity
  8
0
100
AcDbBlockEnd
  0
BLOCK
  5
64
330
63
100
AcDbEntity
  8
0
100
AcDbBlockBegin
  2
*D30
 70
    1
 10
0
 20
0
  3
*D30
  1

  0
LINE
  5
141
100
AcDbEntity
  8
0
  6
ByBlock
 62
    5
370
   -2
100
AcDbLine
 10
324.6546504791845
 20
425.1123137407128
 11
324.6546504791845
 21
425.7123137407128
  0
SOLID
  5
142
100
AcDbEntity
  8
0
  6
ByBlock
 62
    5
370
   -2
100
AcDbTrace
 10
324.6546504791845
 20
425.1123137407128
 30
0
 11
324.6379990928736
 21
425.2123137407128
 31
0
 12
324.6713018654954
 22
425.2123137407128
 32
0
 13
324.6713018654954
 23
425.2123137407128
 33
0
  0
SOLID
  5
143
100
AcDbEntity
  8
0
  6
ByBlock
 62
    5
370
   -2
100
AcDbTrace
 10
324.6546504791845
 20
425.7123137407128
 30
0
 11
324.6713018654954
 21
425.6123137407128
 31
0
 12
324.6379990928736
 22
425.6123137407128
 32
0
 13
324.6379990928736
 23
425.6123137407128
 33
0
  0
MTEXT
  5
144
100
AcDbEntity
  8
0
  6
CONTINUOUS
 62
    5
370
   -2
100
AcDbMText
 10
324.3546504791845
 20
425.4123137407128
 30
0
 40
0.2
 41
0.3222222222222346
 71
    5
 72
    1
  1
0,6
  7
standard
210
0
220
0
230
1
 50
90
 73
    2
 44
1
  0
LINE
  5
145
100
AcDbEntity
  8
0
  6
ByBlock
 62
    0
370
   -2
100
AcDbLine
 10
324.9024314704885
 20
425.1123137407128
 11
324.5546504791845
 21
425.1123137407128
  0
LINE
  5
146
100
AcDbEntity
  8
0
  6
ByBlock
 62
    0
370
   -2
100
AcDbLine
 10
324.9024314704885
 20
425.7123137407128
 11
324.5546504791845
 21
425.7123137407128
  0
ENDBLK
  5
65
330
63
100
AcDbEntity
  8
0
100
AcDbBlockEnd
  0
BLOCK
  5
67
330
66
100
AcDbEntity
  8
0
100
AcDbBlockBegin
  2
*D65
 70
    1
 10
0
 20
0
  3
*D65
  1

  0
LINE
  5
147
100
AcDbEntity
  8
0
  6
ByBlock
 62
    5
370
   -2
100
AcDbLine
 10
318.8215965742313
 20
406.0791427405786
 11
324.1615965742313
 21
406.0791427405786
  0
SOLID
  5
148
100
AcDbEntity
  8
0
  6
ByBlock
 62
    5
370
   -2
100
AcDbTrace
 10
318.8215965742313
 20
406.0791427405786
 30
0
 11
318.9215965742313
 21
406.0957941268895
 31
0
 12
318.9215965742313
 22
406.0624913542677
 32
0
 13
318.9215965742313
 23
406.0624913542677
 33
0
  0
SOLID
  5
149
100
AcDbEntity
  8
0
  6
ByBlock
 62
    5
370
   -2
100
AcDbTrace
 10
324.1615965742313
 20
406.0791427405786
 30
0
 11
324.0615965742313
 21
406.0624913542677
 31
0
 12
324.0615965742313
 22
406.0957941268895
 32
0
 13
324.0615965742313
 23
406.0957941268895
 33
0
  0
MTEXT
  5
14A
100
AcDbEntity
  8
0
  6
CONTINUOUS
 62
    5
370
   -2
100
AcDbMText
 10
321.4915965742313
 20
406.3791427405786
 30
0
 40
0.2
 41
0.5000000000000249
 71
    5
 72
    1
  1
5,34
  7
standard
210
0
220
0
230
1
 50
0
 73
    2
 44
1
  0
LINE
  5
14B
100
AcDbEntity
  8
0
  6
ByBlock
 62
    0
370
   -2
100
AcDbLine
 10
318.8215965742313
 20
406.6601653985923
 11
318.8215965742313
 21
405.9791427405786
  0
LINE
  5
14C
100
AcDbEntity
  8
0
  6
ByBlock
 62
    0
370
   -2
100
AcDbLine
 10
324.1615965742313
 20
406.6601653985923
 11
324.1615965742313
 21
405.9791427405786
  0
ENDBLK
  5
68
330
66
100
AcDbEntity
  8
0
100
AcDbBlockEnd
  0
BLOCK
  5
6A
330
69
100
AcDbEntity
  8
0
100
AcDbBlockBegin
  2
*D21
 70
    1
 10
0
 20
0
  3
*D21
  1

  0
LINE
  5
14D
100
AcDbEntity
  8
0
  6
ByBlock
 62
    5
370
   -2
100
AcDbLine
 10
331.9550930075146
 20
420.1723137407125
 11
331.9550930075146
 21
422.0723137407125
  0
SOLID
  5
14E
100
AcDbEntity
  8
0
  6
ByBlock
 62
    5
370
   -2
100
AcDbTrace
 10
331.9550930075146
 20
420.1723137407125
 30
0
 11
331.9384416212037
 21
420.2723137407125
 31
0
 12
331.9717443938255
 22
420.2723137407125
 32
0
 13
331.9717443938255
 23
420.2723137407125
 33
0
  0
SOLID
  5
14F
100
AcDbEntity
  8
0
  6
ByBlock
 62
    5
370
   -2
100
AcDbTrace
 10
331.9550930075146
 20
422.0723137407125
 30
0
 11
331.9717443938255
 21
421.9723137407125
 31
0
 12
331.9384416212037
 22
421.9723137407125
 32
0
 13
331.9384416212037
 23
421.9723137407125
 33
0
  0
MTEXT
  5
150
100
AcDbEntity
  8
0
  6
CONTINUOUS
 62
    5
370
   -2
100
AcDbMText
 10
331.6550930075146
 20
421.1223137407125
 30
0
 40
0.2
 41
0.2777777777777778
 71
    5
 72
    1
  1
1,9
  7
standard
210
0
220
0
230
1
 50
90
 73
    2
 44
1
  0
LINE
  5
151
100
AcDbEntity
  8
0
  6
ByBlock
 62
    0
370
   -2
100
AcDbLine
 10
331.6524314704884
 20
420.1723137407125
 11
332.0550930075146
 21
420.1723137407125
  0
LINE
  5
152
100
AcDbEntity
  8
0
  6
ByBlock
 62
    0
370
   -2
100
AcDbLine
 10
331.6524314704884
 20
422.0723137407125
 11
332.0550930075146
 21
422.0723137407125
  0
ENDBLK
  5
6B
330
69
100
AcDbEntity
  8
0
100
AcDbBlockEnd
  0
BLOCK
  5
6D
330
6C
100
AcDbEntity
  8
0
100
AcDbBlockBegin
  2
*D36
 70
    1
 10
0
 20
0
  3
*D36
  1

  0
LINE
  5
153
100
AcDbEntity
  8
0
  6
ByBlock
 62
    5
370
   -2
100
AcDbLine
 10
317.6845498669334
 20
420.1723137407126
 11
317.6845498669334
 21
423.0123137407126
  0
SOLID
  5
154
100
AcDbEntity
  8
0
  6
ByBlock
 62
    5
370
   -2
100
AcDbTrace
 10
317.6845498669334
 20
420.1723137407126
 30
0
 11
317.6678984806225
 21
420.2723137407126
 31
0
 12
317.7012012532443
 22
420.2723137407126
 32
0
 13
317.7012012532443
 23
420.2723137407126
 33
0
  0
SOLID
  5
155
100
AcDbEntity
  8
0
  6
ByBlock
 62
    5
370
   -2
100
AcDbTrace
 10
317.6845498669334
 20
423.0123137407126
 30
0
 11
317.7012012532443
 21
422.9123137407126
 31
0
 12
317.6678984806225
 22
422.9123137407126
 32
0
 13
317.6678984806225
 23
422.9123137407126
 33
0
  0
MTEXT
  5
156
100
AcDbEntity
  8
0
  6
CONTINUOUS
 62
    5
370
   -2
100
AcDbMText
 10
317.3845498669334
 20
421.5923137407126
 30
0
 40
0.2
 41
0.5
 71
    5
 72
    1
  1
2,84
  7
standard
210
0
220
0
230
1
 50
90
 73
    2
 44
1
  0
LINE
  5
157
100
AcDbEntity
  8
0
  6
ByBlock
 62
    0
370
   -2
100
AcDbLine
 10
318.5624314704885
 20
420.1723137407126
 11
317.5845498669334
 21
420.1723137407126
  0
LINE
  5
158
100
AcDbEntity
  8
0
  6
ByBlock
 62
    0
370
   -2
100
AcDbLine
 10
318.5624314704885
 20
423.0123137407126
 11
317.5845498669334
 21
423.0123137407126
  0
ENDBLK
  5
6E
330
6C
100
AcDbEntity
  8
0
100
AcDbBlockEnd
  0
BLOCK
  5
70
330
6F
100
AcDbEntity
  8
0
100
AcDbBlockBegin
  2
*D29
 70
    1
 10
0
 20
0
  3
*D29
  1

  0
LINE
  5
159
100
AcDbEntity
  8
0
  6
ByBlock
 62
    5
370
   -2
100
AcDbLine
 10
321.212315527119
 20
423.1623137407126
 11
321.212315527119
 21
424.8623137407126
  0
SOLID
  5
15A
100
AcDbEntity
  8
0
  6
ByBlock
 62
    5
370
   -2
100
AcDbTrace
 10
321.212315527119
 20
423.1623137407126
 30
0
 11
321.1956641408081
 21
423.2623137407126
 31
0
 12
321.2289669134299
 22
423.2623137407126
 32
0
 13
321.2289669134299
 23
423.2623137407126
 33
0
  0
SOLID
  5
15B
100
AcDbEntity
  8
0
  6
ByBlock
 62
    5
370
   -2
100
AcDbTrace
 10
321.212315527119
 20
424.8623137407126
 30
0
 11
321.2289669134299
 21
424.7623137407126
 31
0
 12
321.1956641408081
 22
424.7623137407126
 32
0
 13
321.1956641408081
 23
424.7623137407126
 33
0
  0
MTEXT
  5
15C
100
AcDbEntity
  8
0
  6
CONTINUOUS
 62
    5
370
   -2
100
AcDbMText
 10
320.912315527119
 20
424.0123137407126
 30
0
 40
0.2
 41
0.2777777777777778
 71
    5
 72
    1
  1
1,7
  7
standard
210
0
220
0
230
1
 50
90
 73
    2
 44
1
  0
LINE
  5
15D
100
AcDbEntity
  8
0
  6
ByBlock
 62
    0
370
   -2
100
AcDbLine
 10
322.0624314704885
 20
423.1623137407126
 11
321.112315527119
 21
423.1623137407126
  0
LINE
  5
15E
100
AcDbEntity
  8
0
  6
ByBlock
 62
    0
370
   -2
100
AcDbLine
 10
322.0624314704885
 20
424.8623137407126
 11
321.112315527119
 21
424.8623137407126
  0
ENDBLK
  5
71
330
6F
100
AcDbEntity
  8
0
100
AcDbBlockEnd
  0
BLOCK
  5
73
330
72
100
AcDbEntity
  8
0
100
AcDbBlockBegin
  2
*D34
 70
    1
 10
0
 20
0
  3
*D34
  1

  0
LINE
  5
15F
100
AcDbEntity
  8
0
  6
ByBlock
 62
    5
370
   -2
100
AcDbLine
 10
327.4761544498936
 20
422.0923137407127
 11
327.4761544498936
 21
426.1723137407128
  0
SOLID
  5
160
100
AcDbEntity
  8
0
  6
ByBlock
 62
    5
370
   -2
100
AcDbTrace
 10
327.4761544498936
 20
422.0923137407127
 30
0
 11
327.4595030635827
 21
422.1923137407127
 31
0
 12
327.4928058362045
 22
422.1923137407127
 32
0
 13
327.4928058362045
 23
422.1923137407127
 33
0
  0
SOLID
  5
161
100
AcDbEntity
  8
0
  6
ByBlock
 62
    5
370
   -2
100
AcDbTrace
 10
327.4761544498936
 20
426.1723137407128
 30
0
 11
327.4928058362045
 21
426.0723137407128
 31
0
 12
327.4595030635827
 22
426.0723137407128
 32
0
 13
327.4595030635827
 23
426.0723137407128
 33
0
  0
MTEXT
  5
162
100
AcDbEntity
  8
0
  6
CONTINUOUS
 62
    5
370
   -2
100
AcDbMText
 10
327.1761544498936
 20
424.1323137407128
 30
0
 40
0.2
 41
0.5
 71
    5
 72
    1
  1
4,08
  7
standard
210
0
220
0
230
1
 50
90
 73
    2
 44
1
  0
LINE
  5
163
100
AcDbEntity
  8
0
  6
ByBlock
 62
    0
370
   -2
100
AcDbLine
 10
328.0524314704884
 20
422.0923137407127
 11
327.3761544498936
 21
422.0923137407127
  0
LINE
  5
164
100
AcDbEntity
  8
0
  6
ByBlock
 62
    0
370
   -2
100
AcDbLine
 10
328.0524314704884
 20
426.1723137407128
 11
327.3761544498936
 21
426.1723137407128
  0
ENDBLK
  5
74
330
72
100
AcDbEntity
  8
0
100
AcDbBlockEnd
  0
BLOCK
  5
76
330
75
100
AcDbEntity
  8
0
100
AcDbBlockBegin
  2
*D50
 70
    1
 10
0
 20
0
  3
*D50
  1

  0
LINE
  5
165
100
AcDbEntity
  8
0
  6
ByBlock
 62
    5
370
   -2
100
AcDbLine
 10
334.0230807878488
 20
409.3601653985922
 11
334.0230807878488
 21
406.8601653985922
  0
SOLID
  5
166
100
AcDbEntity
  8
0
  6
ByBlock
 62
    5
370
   -2
100
AcDbTrace
 10
334.0230807878488
 20
409.3601653985922
 30
0
 11
334.0397321741597
 21
409.2601653985922
 31
0
 12
334.0064294015379
 22
409.2601653985922
 32
0
 13
334.0064294015379
 23
409.2601653985922
 33
0
  0
SOLID
  5
167
100
AcDbEntity
  8
0
  6
ByBlock
 62
    5
370
   -2
100
AcDbTrace
 10
334.0230807878488
 20
406.8601653985922
 30
0
 11
334.0064294015379
 21
406.9601653985923
 31
0
 12
334.0397321741597
 22
406.9601653985923
 32
0
 13
334.0397321741597
 23
406.9601653985923
 33
0
  0
MTEXT
  5
168
100
AcDbEntity
  8
0
  6
CONTINUOUS
 62
    5
370
   -2
100
AcDbMText
 10
333.7230807878488
 20
408.1101653985922
 30
0
 40
0.2
 41
0.3222222222222346
 71
    5
 72
    1
  1
2,5
  7
standard
210
0
220
0
230
1
 50
90
 73
    2
 44
1
  0
LINE
  5
169
100
AcDbEntity
  8
0
  6
ByBlock
 62
    0
370
   -2
100
AcDbLine
 10
333.4215965742314
 20
409.3601653985922
 11
334.1230807878488
 21
409.3601653985922
  0
LINE
  5
16A
100
AcDbEntity
  8
0
  6
ByBlock
 62
    0
370
   -2
100
AcDbLine
 10
333.4215965742314
 20
406.8601653985922
 11
334.1230807878488
 21
406.8601653985922
  0
ENDBLK
  5
77
330
75
100
AcDbEntity
  8
0
100
AcDbBlockEnd
  0
BLOCK
  5
79
330
78
100
AcDbEntity
  8
0
100
AcDbBlockBegin
  2
*D64
 70
    1
 10
0
 20
0
  3
*D64
  1

  0
LINE
  5
16B
100
AcDbEntity
  8
0
  6
ByBlock
 62
    5
370
   -2
100
AcDbLine
 10
325.3115965742311
 20
413.2735190904388
 11
329.6615965742311
 21
413.2735190904388
  0
SOLID
  5
16C
100
AcDbEntity
  8
0
  6
ByBlock
 62
    5
370
   -2
100
AcDbTrace
 10
325.3115965742311
 20
413.2735190904388
 30
0
 11
325.4115965742311
 21
413.2901704767497
 31
0
 12
325.4115965742311
 22
413.2568677041279
 32
0
 13
325.4115965742311
 23
413.2568677041279
 33
0
  0
SOLID
  5
16D
100
AcDbEntity
  8
0
  6
ByBlock
 62
    5
370
   -2
100
AcDbTrace
 10
329.6615965742311
 20
413.2735190904388
 30
0
 11
329.561596574231
 21
413.2568677041279
 31
0
 12
329.561596574231
 22
413.2901704767497
 32
0
 13
329.561596574231
 23
413.2901704767497
 33
0
  0
MTEXT
  5
16E
100
AcDbEntity
  8
0
  6
CONTINUOUS
 62
    5
370
   -2
100
AcDbMText
 10
327.486596574231
 20
413.5735190904388
 30
0
 40
0.2
 41
0.5000000000000249
 71
    5
 72
    1
  1
4,35
  7
standard
210
0
220
0
230
1
 50
0
 73
    2
 44
1
  0
LINE
  5
16F
100
AcDbEntity
  8
0
  6
ByBlock
 62
    0
370
   -2
100
AcDbLine
 10
325.3115965742311
 20
413.0601653985925
 11
325.3115965742311
 21
413.3735190904388
  0
LINE
  5
170
100
AcDbEntity
  8
0
  6
ByBlock
 62
    0
370
   -2
100
AcDbLine
 10
329.6615965742311
 20
413.0601653985924
 11
329.6615965742311
 21
413.3735190904388
  0
ENDBLK
  5
7A
330
78
100
AcDbEntity
  8
0
100
AcDbBlockEnd
  0
BLOCK
  5
7C
330
7B
100
AcDbEntity
  8
0
100
AcDbBlockBegin
  2
*D46
 70
    1
 10
0
 20
0
  3
*D46
  1

  0
LINE
  5
171
100
AcDbEntity
  8
0
  6
ByBlock
 62
    5
370
   -2
100
AcDbLine
 10
316.1642198027256
 20
406.7101653985924
 11
316.1642198027256
 21
413.0101653985924
  0
SOLID
  5
172
100
AcDbEntity
  8
0
  6
ByBlock
 62
    5
370
   -2
100
AcDbTrace
 10
316.1642198027256
 20
406.7101653985924
 30
0
 11
316.1475684164147
 21
406.8101653985924
 31
0
 12
316.1808711890365
 22
406.8101653985924
 32
0
 13
316.1808711890365
 23
406.8101653985924
 33
0
  0
SOLID
  5
173
100
AcDbEntity
  8
0
  6
ByBlock
 62
    5
370
   -2
100
AcDbTrace
 10
316.1642198027256
 20
413.0101653985924
 30
0
 11
316.1808711890365
 21
412.9101653985924
 31
0
 12
316.1475684164147
 22
412.9101653985924
 32
0
 13
316.1475684164147
 23
412.9101653985924
 33
0
  0
MTEXT
  5
174
100
AcDbEntity
  8
0
  6
CONTINUOUS
 62
    5
370
   -2
100
AcDbMText
 10
315.8642198027256
 20
409.8601653985924
 30
0
 40
0.2
 41
0.3222222222222471
 71
    5
 72
    1
  1
6,3
  7
standard
210
0
220
0
230
1
 50
90
 73
    2
 44
1
  0
LINE
  5
175
100
AcDbEntity
  8
0
  6
ByBlock
 62
    0
370
   -2
100
AcDbLine
 10
318.4715965742314
 20
406.7101653985924
 11
316.0642198027256
 21
406.7101653985924
  0
LINE
  5
176
100
AcDbEntity
  8
0
  6
ByBlock
 62
    0
370
   -2
100
AcDbLine
 10
318.4715965742314
 20
413.0101653985924
 11
316.0642198027256
 21
413.0101653985924
  0
ENDBLK
  5
7D
330
7B
100
AcDbEntity
  8
0
100
AcDbBlockEnd
  0
BLOCK
  5
7F
330
7E
100
AcDbEntity
  8
0
100
AcDbBlockBegin
  2
*D48
 70
    1
 10
0
 20
0
  3
*D48
  1

  0
LINE
  5
177
100
AcDbEntity
  8
0
  6
ByBlock
 62
    5
370
   -2
100
AcDbLine
 10
329.8115965742311
 20
413.2703377234075
 11
333.2215965742314
 21
413.2703377234075
  0
SOLID
  5
178
100
AcDbEntity
  8
0
  6
ByBlock
 62
    5
370
   -2
100
AcDbTrace
 10
329.8115965742311
 20
413.2703377234075
 30
0
 11
329.9115965742311
 21
413.2869891097184
 31
0
 12
329.9115965742311
 22
413.2536863370966
 32
0
 13
329.9115965742311
 23
413.2536863370966
 33
0
  0
SOLID
  5
179
100
AcDbEntity
  8
0
  6
ByBlock
 62
    5
370
   -2
100
AcDbTrace
 10
333.2215965742314
 20
413.2703377234075
 30
0
 11
333.1215965742314
 21
413.2536863370966
 31
0
 12
333.1215965742314
 22
413.2869891097184
 32
0
 13
333.1215965742314
 23
413.2869891097184
 33
0
  0
MTEXT
  5
17A
100
AcDbEntity
  8
0
  6
CONTINUOUS
 62
    5
370
   -2
100
AcDbMText
 10
331.5165965742312
 20
413.5703377234075
 30
0
 40
0.2
 41
0.4555555555555679
 71
    5
 72
    1
  1
3,41
  7
standard
210
0
220
0
230
1
 50
0
 73
    2
 44
1
  0
LINE
  5
17B
100
AcDbEntity
  8
0
  6
ByBlock
 62
    0
370
   -2
100
AcDbLine
 10
329.8115965742311
 20
413.0601653985924
 11
329.8115965742311
 21
413.3703377234075
  0
LINE
  5
17C
100
AcDbEntity
  8
0
  6
ByBlock
 62
    0
370
   -2
100
AcDbLine
 10
333.2215965742314
 20
413.0601653985924
 11
333.2215965742314
 21
413.3703377234075
  0
ENDBLK
  5
80
330
7E
100
AcDbEntity
  8
0
100
AcDbBlockEnd
  0
BLOCK
  5
82
330
81
100
AcDbEntity
  8
0
100
AcDbBlockBegin
  2
*D28
 70
    1
 10
0
 20
0
  3
*D28
  1

  0
LINE
  5
17D
100
AcDbEntity
  8
0
  6
ByBlock
 62
    5
370
   -2
100
AcDbLine
 10
321.8227393473461
 20
423.2623137407126
 11
321.8227393473461
 21
424.0623137407126
  0
SOLID
  5
17E
100
AcDbEntity
  8
0
  6
ByBlock
 62
    5
370
   -2
100
AcDbTrace
 10
321.8227393473461
 20
423.2623137407126
 30
0
 11
321.8060879610352
 21
423.3623137407126
 31
0
 12
321.839390733657
 22
423.3623137407126
 32
0
 13
321.839390733657
 23
423.3623137407126
 33
0
  0
SOLID
  5
17F
100
AcDbEntity
  8
0
  6
ByBlock
 62
    5
370
   -2
100
AcDbTrace
 10
321.8227393473461
 20
424.0623137407126
 30
0
 11
321.839390733657
 21
423.9623137407126
 31
0
 12
321.8060879610352
 22
423.9623137407126
 32
0
 13
321.8060879610352
 23
423.9623137407126
 33
0
  0
MTEXT
  5
180
100
AcDbEntity
  8
0
  6
CONTINUOUS
 62
    5
370
   -2
100
AcDbMText
 10
321.5227393473461
 20
423.6623137407126
 30
0
 40
0.2
 41
0.3222222222222222
 71
    5
 72
    1
  1
0,8
  7
standard
210
0
220
0
230
1
 50
90
 73
    2
 44
1
  0
LINE
  5
181
100
AcDbEntity
  8
0
  6
ByBlock
 62
    0
370
   -2
100
AcDbLine
 10
321.9124314704886
 20
423.2623137407126
 11
321.7227393473461
 21
423.2623137407126
  0
LINE
  5
182
100
AcDbEntity
  8
0
  6
ByBlock
 62
    0
370
   -2
100
AcDbLine
 10
321.9124314704887
 20
424.0623137407126
 11
321.7227393473461
 21
424.0623137407126
  0
ENDBLK
  5
83
330
81
100
AcDbEntity
  8
0
100
AcDbBlockEnd
  0
BLOCK
  5
85
330
84
100
AcDbEntity
  8
0
100
AcDbBlockBegin
  2
*D9
 70
    1
 10
0
 20
0
  3
*D9
  1

  0
LINE
  5
183
100
AcDbEntity
  8
0
  6
ByBlock
 62
    5
370
   -2
100
AcDbLine
 10
318.6124314704886
 20
427.5164027454043
 11
333.3124314704885
 21
427.5164027454043
  0
SOLID
  5
184
100
AcDbEntity
  8
0
  6
ByBlock
 62
    5
370
   -2
100
AcDbTrace
 10
318.6124314704886
 20
427.5164027454043
 30
0
 11
318.7124314704886
 21
427.5330541317152
 31
0
 12
318.7124314704886
 22
427.4997513590934
 32
0
 13
318.7124314704886
 23
427.4997513590934
 33
0
  0
SOLID
  5
185
100
AcDbEntity
  8
0
  6
ByBlock
 62
    5
370
   -2
100
AcDbTrace
 10
333.3124314704885
 20
427.5164027454043
 30
0
 11
333.2124314704885
 21
427.4997513590934
 31
0
 12
333.2124314704885
 22
427.5330541317152
 32
0
 13
333.2124314704885
 23
427.5330541317152
 33
0
  0
MTEXT
  5
186
100
AcDbEntity
  8
0
  6
CONTINUOUS
 62
    5
370
   -2
100
AcDbMText
 10
325.9624314704886
 20
427.8164027454043
 30
0
 40
0.2
 41
0.4555555555555556
 71
    5
 72
    1
  1
14,7
  7
standard
210
0
220
0
230
1
 50
0
 73
    2
 44
1
  0
LINE
  5
187
100
AcDbEntity
  8
0
  6
ByBlock
 62
    0
370
   -2
100
AcDbLine
 10
318.6124314704886
 20
426.5223137407127
 11
318.6124314704886
 21
427.6164027454043
  0
LINE
  5
188
100
AcDbEntity
  8
0
  6
ByBlock
 62
    0
370
   -2
100
AcDbLine
 10
333.3124314704885
 20
426.5223137407127
 11
333.3124314704885
 21
427.6164027454043
  0
ENDBLK
  5
86
330
84
100
AcDbEntity
  8
0
100
AcDbBlockEnd
  0
BLOCK
  5
88
330
87
100
AcDbEntity
  8
0
100
AcDbBlockBegin
  2
*D40
 70
    1
 10
0
 20
0
  3
*D40
  1

  0
LINE
  5
189
100
AcDbEntity
  8
0
  6
ByBlock
 62
    5
370
   -2
100
AcDbLine
 10
325.1154354727753
 20
421.9423137407127
 11
325.1154354727753
 21
420.1723137407126
  0
SOLID
  5
18A
100
AcDbEntity
  8
0
  6
ByBlock
 62
    5
370
   -2
100
AcDbTrace
 10
325.1154354727753
 20
421.9423137407127
 30
0
 11
325.1320868590862
 21
421.8423137407127
 31
0
 12
325.0987840864644
 22
421.8423137407127
 32
0
 13
325.0987840864644
 23
421.8423137407127
 33
0
  0
SOLID
  5
18B
100
AcDbEntity
  8
0
  6
ByBlock
 62
    5
370
   -2
100
AcDbTrace
 10
325.1154354727753
 20
420.1723137407126
 30
0
 11
325.0987840864644
 21
420.2723137407126
 31
0
 12
325.1320868590862
 22
420.2723137407126
 32
0
 13
325.1320868590862
 23
420.2723137407126
 33
0
  0
MTEXT
  5
18C
100
AcDbEntity
  8
0
  6
CONTINUOUS
 62
    5
370
   -2
100
AcDbMText
 10
324.8154354727753
 20
421.0573137407126
 30
0
 40
0.2
 41
0.4333333333333333
 71
    5
 72
    1
  1
1,77
  7
standard
210
0
220
0
230
1
 50
90
 73
    2
 44
1
  0
LINE
  5
18D
100
AcDbEntity
  8
0
  6
ByBlock
 62
    0
370
   -2
100
AcDbLine
 10
325.0524314704884
 20
421.9423137407127
 11
325.0154354727753
 21
421.9423137407127
  0
LINE
  5
18E
100
AcDbEntity
  8
0
  6
ByBlock
 62
    0
370
   -2
100
AcDbLine
 10
325.0524314704884
 20
420.1723137407126
 11
325.0154354727753
 21
420.1723137407126
  0
ENDBLK
  5
89
330
87
100
AcDbEntity
  8
0
100
AcDbBlockEnd
  0
BLOCK
  5
8B
330
8A
100
AcDbEntity
  8
0
100
AcDbBlockBegin
  2
*D13
 70
    1
 10
0
 20
0
  3
*D13
  1

  0
LINE
  5
18F
100
AcDbEntity
  8
0
  6
ByBlock
 62
    5
370
   -2
100
AcDbLine
 10
318.7624314704885
 20
426.7524439471831
 11
322.1124314704886
 21
426.7524439471831
  0
SOLID
  5
190
100
AcDbEntity
  8
0
  6
ByBlock
 62
    5
370
   -2
100
AcDbTrace
 10
318.7624314704885
 20
426.7524439471831
 30
0
 11
318.8624314704885
 21
426.769095333494
 31
0
 12
318.8624314704885
 22
426.7357925608722
 32
0
 13
318.8624314704885
 23
426.7357925608722
 33
0
  0
SOLID
  5
191
100
AcDbEntity
  8
0
  6
ByBlock
 62
    5
370
   -2
100
AcDbTrace
 10
322.1124314704886
 20
426.7524439471831
 30
0
 11
322.0124314704886
 21
426.7357925608722
 31
0
 12
322.0124314704886
 22
426.769095333494
 32
0
 13
322.0124314704886
 23
426.769095333494
 33
0
  0
MTEXT
  5
192
100
AcDbEntity
  8
0
  6
CONTINUOUS
 62
    5
370
   -2
100
AcDbMText
 10
320.4374314704885
 20
427.0524439471831
 30
0
 40
0.2
 41
0.477777777777815
 71
    5
 72
    1
  1
3,35
  7
standard
210
0
220
0
230
1
 50
0
 73
    2
 44
1
  0
LINE
  5
193
100
AcDbEntity
  8
0
  6
ByBlock
 62
    0
370
   -2
100
AcDbLine
 10
318.7624314704885
 20
426.5223137407127
 11
318.7624314704885
 21
426.8524439471831
  0
LINE
  5
194
100
AcDbEntity
  8
0
  6
ByBlock
 62
    0
370
   -2
100
AcDbLine
 10
322.1124314704886
 20
426.5223137407127
 11
322.1124314704886
 21
426.8524439471831
  0
ENDBLK
  5
8C
330
8A
100
AcDbEntity
  8
0
100
AcDbBlockEnd
  0
BLOCK
  5
8E
330
8D
100
AcDbEntity
  8
0
100
AcDbBlockBegin
  2
*D35
 70
    1
 10
0
 20
0
  3
*D35
  1

  0
LINE
  5
195
100
AcDbEntity
  8
0
  6
ByBlock
 62
    5
370
   -2
100
AcDbLine
 10
317.6845498669334
 20
423.1623137407126
 11
317.6845498669334
 21
426.1723137407127
  0
SOLID
  5
196
100
AcDbEntity
  8
0
  6
ByBlock
 62
    5
370
   -2
100
AcDbTrace
 10
317.6845498669334
 20
423.1623137407126
 30
0
 11
317.6678984806225
 21
423.2623137407126
 31
0
 12
317.7012012532443
 22
423.2623137407126
 32
0
 13
317.7012012532443
 23
423.2623137407126
 33
0
  0
SOLID
  5
197
100
AcDbEntity
  8
0
  6
ByBlock
 62
    5
370
   -2
100
AcDbTrace
 10
317.6845498669334
 20
426.1723137407127
 30
0
 11
317.7012012532443
 21
426.0723137407127
 31
0
 12
317.6678984806225
 22
426.0723137407127
 32
0
 13
317.6678984806225
 23
426.0723137407127
 33
0
  0
MTEXT
  5
198
100
AcDbEntity
  8
0
  6
CONTINUOUS
 62
    5
370
   -2
100
AcDbMText
 10
317.3845498669334
 20
424.6673137407126
 30
0
 40
0.2
 41
0.4333333333333458
 71
    5
 72
    1
  1
3,01
  7
standard
210
0
220
0
230
1
 50
90
 73
    2
 44
1
  0
LINE
  5
199
100
AcDbEntity
  8
0
  6
ByBlock
 62
    0
370
   -2
100
AcDbLine
 10
318.5624314704885
 20
423.1623137407126
 11
317.5845498669334
 21
423.1623137407126
  0
LINE
  5
19A
100
AcDbEntity
  8
0
  6
ByBlock
 62
    0
370
   -2
100
AcDbLine
 10
318.5624314704885
 20
426.1723137407127
 11
317.5845498669334
 21
426.1723137407127
  0
ENDBLK
  5
8F
330
8D
100
AcDbEntity
  8
0
100
AcDbBlockEnd
  0
BLOCK
  5
91
330
90
100
AcDbEntity
  8
0
100
AcDbBlockBegin
  2
*D52
 70
    1
 10
0
 20
0
  3
*D52
  1

  0
LINE
  5
19B
100
AcDbEntity
  8
0
  6
ByBlock
 62
    5
370
   -2
100
AcDbLine
 10
331.6884643805819
 20
408.5101653985922
 11
331.6884643805819
 21
409.5101653985922
  0
SOLID
  5
19C
100
AcDbEntity
  8
0
  6
ByBlock
 62
    5
370
   -2
100
AcDbTrace
 10
331.6884643805819
 20
408.5101653985922
 30
0
 11
331.671812994271
 21
408.6101653985922
 31
0
 12
331.7051157668928
 22
408.6101653985922
 32
0
 13
331.7051157668928
 23
408.6101653985922
 33
0
  0
SOLID
  5
19D
100
AcDbEntity
  8
0
  6
ByBlock
 62
    5
370
   -2
100
AcDbTrace
 10
331.6884643805819
 20
409.5101653985922
 30
0
 11
331.7051157668928
 21
409.4101653985922
 31
0
 12
331.671812994271
 22
409.4101653985922
 32
0
 13
331.671812994271
 23
409.4101653985922
 33
0
  0
MTEXT
  5
19E
100
AcDbEntity
  8
0
  6
CONTINUOUS
 62
    5
370
   -2
100
AcDbMText
 10
331.3884643805819
 20
409.0101653985922
 30
0
 40
0.2
 41
0.04444444444444445
 71
    5
 72
    1
  1
1
  7
standard
210
0
220
0
230
1
 50
90
 73
    2
 44
1
  0
LINE
  5
19F
100
AcDbEntity
  8
0
  6
ByBlock
 62
    0
370
   -2
100
AcDbLine
 10
331.6715965742314
 20
408.5101653985922
 11
331.5884643805819
 21
408.5101653985922
  0
LINE
  5
1A0
100
AcDbEntity
  8
0
  6
ByBlock
 62
    0
370
   -2
100
AcDbLine
 10
331.6715965742314
 20
409.5101653985922
 11
331.5884643805819
 21
409.5101653985922
  0
ENDBLK
  5
92
330
90
100
AcDbEntity
  8
0
100
AcDbBlockEnd
  0
BLOCK
  5
94
330
93
100
AcDbEntity
  8
0
100
AcDbBlockBegin
  2
*D58
 70
    1
 10
0
 20
0
  3
*D58
  1

  0
LINE
  5
1A1
100
AcDbEntity
  8
0
  6
ByBlock
 62
    5
370
   -2
100
AcDbLine
 10
326.6615965742311
 20
408.7375070341496
 11
329.6615965742311
 21
408.7375070341496
  0
SOLID
  5
1A2
100
AcDbEntity
  8
0
  6
ByBlock
 62
    5
370
   -2
100
AcDbTrace
 10
326.6615965742311
 20
408.7375070341496
 30
0
 11
326.7615965742311
 21
408.7541584204605
 31
0
 12
326.7615965742311
 22
408.7208556478387
 32
0
 13
326.7615965742311
 23
408.7208556478387
 33
0
  0
SOLID
  5
1A3
100
AcDbEntity
  8
0
  6
ByBlock
 62
    5
370
   -2
100
AcDbTrace
 10
329.6615965742311
 20
408.7375070341496
 30
0
 11
329.5615965742311
 21
408.7208556478387
 31
0
 12
329.5615965742311
 22
408.7541584204605
 32
0
 13
329.5615965742311
 23
408.7541584204605
 33
0
  0
MTEXT
  5
1A4
100
AcDbEntity
  8
0
  6
CONTINUOUS
 62
    5
370
   -2
100
AcDbMText
 10
328.1615965742311
 20
409.0375070341496
 30
0
 40
0.2
 41
0.08888888888890129
 71
    5
 72
    1
  1
3
  7
standard
210
0
220
0
230
1
 50
0
 73
    2
 44
1
  0
LINE
  5
1A5
100
AcDbEntity
  8
0
  6
ByBlock
 62
    0
370
   -2
100
AcDbLine
 10
326.6615965742311
 20
408.7101653985923
 11
326.6615965742311
 21
408.8375070341496
  0
LINE
  5
1A6
100
AcDbEntity
  8
0
  6
ByBlock
 62
    0
370
   -2
100
AcDbLine
 10
329.6615965742311
 20
408.7101653985923
 11
329.6615965742311
 21
408.8375070341496
  0
ENDBLK
  5
95
330
93
100
AcDbEntity
  8
0
100
AcDbBlockEnd
  0
BLOCK
  5
97
330
96
100
AcDbEntity
  8
0
100
AcDbBlockBegin
  2
*D8
 70
    1
 10
0
 20
0
  3
*D8
  1

  0
LINE
  5
1A7
100
AcDbEntity
  8
0
  6
ByBlock
 62
    5
370
   -2
100
AcDbLine
 10
322.2624314704885
 20
423.3377403609533
 11
322.7924314704885
 21
423.3377403609533
  0
SOLID
  5
1A8
100
AcDbEntity
  8
0
  6
ByBlock
 62
    5
370
   -2
100
AcDbTrace
 10
322.2624314704885
 20
423.3377403609533
 30
0
 11
322.3624314704885
 21
423.3543917472642
 31
0
 12
322.3624314704885
 22
423.3210889746424
 32
0
 13
322.3624314704885
 23
423.3210889746424
 33
0
  0
SOLID
  5
1A9
100
AcDbEntity
  8
0
  6
ByBlock
 62
    5
370
   -2
100
AcDbTrace
 10
322.7924314704885
 20
423.3377403609533
 30
0
 11
322.6924314704885
 21
423.3210889746424
 31
0
 12
322.6924314704885
 22
423.3543917472642
 32
0
 13
322.6924314704885
 23
423.3543917472642
 33
0
  0
MTEXT
  5
1AA
100
AcDbEntity
  8
0
  6
CONTINUOUS
 62
    5
370
   -2
100
AcDbMText
 10
322.5274314704885
 20
423.6377403609533
 30
0
 40
0.2
 41
0.4777777777778027
 71
    5
 72
    1
  1
0,53
  7
standard
210
0
220
0
230
1
 50
0
 73
    2
 44
1
  0
LINE
  5
1AB
100
AcDbEntity
  8
0
  6
ByBlock
 62
    0
370
   -2
100
AcDbLine
 10
322.2624314704885
 20
423.3623137407126
 11
322.2624314704885
 21
423.4377403609533
  0
LINE
  5
1AC
100
AcDbEntity
  8
0
  6
ByBlock
 62
    0
370
   -2
100
AcDbLine
 10
322.7924314704885
 20
423.3623137407126
 11
322.7924314704885
 21
423.4377403609533
  0
ENDBLK
  5
98
330
96
100
AcDbEntity
  8
0
100
AcDbBlockEnd
  0
BLOCK
  5
9A
330
99
100
AcDbEntity
  8
0
100
AcDbBlockBegin
  2
*D6
 70
    1
 10
0
 20
0
  3
*D6
  1

  0
LINE
  5
1AD
100
AcDbEntity
  8
0
  6
ByBlock
 62
    5
370
   -2
100
AcDbLine
 10
330.9214061111121
 20
420.1723137407126
 11
330.9214061111121
 21
426.1723137407127
  0
SOLID
  5
1AE
100
AcDbEntity
  8
0
  6
ByBlock
 62
    5
370
   -2
100
AcDbTrace
 10
330.9214061111121
 20
420.1723137407126
 30
0
 11
330.9047547248012
 21
420.2723137407126
 31
0
 12
330.938057497423
 22
420.2723137407126
 32
0
 13
330.938057497423
 23
420.2723137407126
 33
0
  0
SOLID
  5
1AF
100
AcDbEntity
  8
0
  6
ByBlock
 62
    5
370
   -2
100
AcDbTrace
 10
330.9214061111121
 20
426.1723137407127
 30
0
 11
330.938057497423
 21
426.0723137407127
 31
0
 12
330.9047547248012
 22
426.0723137407127
 32
0
 13
330.9047547248012
 23
426.0723137407127
 33
0
  0
MTEXT
  5
1B0
100
AcDbEntity
  8
0
  6
CONTINUOUS
 62
    5
370
   -2
100
AcDbMText
 10
330.6214061111121
 20
423.1723137407126
 30
0
 40
0.2
 41
0.08888888888890129
 71
    5
 72
    1
  1
6
  7
standard
210
0
220
0
230
1
 50
90
 73
    2
 44
1
  0
LINE
  5
1B1
100
AcDbEntity
  8
0
  6
ByBlock
 62
    0
370
   -2
100
AcDbLine
 10
331.1124314704885
 20
420.1723137407126
 11
330.8214061111121
 21
420.1723137407126
  0
LINE
  5
1B2
100
AcDbEntity
  8
0
  6
ByBlock
 62
    0
370
   -2
100
AcDbLine
 10
331.1124314704885
 20
426.1723137407127
 11
330.8214061111121
 21
426.1723137407127
  0
ENDBLK
  5
9B
330
99
100
AcDbEntity
  8
0
100
AcDbBlockEnd
  0
BLOCK
  5
9D
330
9C
100
AcDbEntity
  8
0
100
AcDbBlockBegin
  2
*D27
 70
    1
 10
0
 20
0
  3
*D27
  1

  0
LINE
  5
1B3
100
AcDbEntity
  8
0
  6
ByBlock
 62
    5
370
   -2
100
AcDbLine
 10
323.0445316149133
 20
420.3323137407127
 11
323.0445316149133
 21
421.2323137407126
  0
SOLID
  5
1B4
100
AcDbEntity
  8
0
  6
ByBlock
 62
    5
370
   -2
100
AcDbTrace
 10
323.0445316149133
 20
420.3323137407127
 30
0
 11
323.0278802286024
 21
420.4323137407127
 31
0
 12
323.0611830012242
 22
420.4323137407127
 32
0
 13
323.0611830012242
 23
420.4323137407127
 33
0
  0
SOLID
  5
1B5
100
AcDbEntity
  8
0
  6
ByBlock
 62
    5
370
   -2
100
AcDbTrace
 10
323.0445316149133
 20
421.2323137407126
 30
0
 11
323.0611830012242
 21
421.1323137407126
 31
0
 12
323.0278802286024
 22
421.1323137407126
 32
0
 13
323.0278802286024
 23
421.1323137407126
 33
0
  0
MTEXT
  5
1B6
100
AcDbEntity
  8
0
  6
CONTINUOUS
 62
    5
370
   -2
100
AcDbMText
 10
322.7445316149133
 20
420.7823137407127
 30
0
 40
0.2
 41
0.3222222222222222
 71
    5
 72
    1
  1
0,9
  7
standard
210
0
220
0
230
1
 50
90
 73
    2
 44
1
  0
LINE
  5
1B7
100
AcDbEntity
  8
0
  6
ByBlock
 62
    0
370
   -2
100
AcDbLine
 10
322.9924314704885
 20
420.3323137407127
 11
323.1445316149133
 21
420.3323137407127
  0
LINE
  5
1B8
100
AcDbEntity
  8
0
  6
ByBlock
 62
    0
370
   -2
100
AcDbLine
 10
322.9924314704885
 20
421.2323137407126
 11
323.1445316149133
 21
421.2323137407126
  0
ENDBLK
  5
9E
330
9C
100
AcDbEntity
  8
0
100
AcDbBlockEnd
  0
BLOCK
  5
A0
330
9F
100
AcDbEntity
  8
0
100
AcDbBlockBegin
  2
*D41
 70
    1
 10
0
 20
0
  3
*D41
  1

  0
LINE
  5
1B9
100
AcDbEntity
  8
0
  6
ByBlock
 62
    5
370
   -2
100
AcDbLine
 10
318.6715965742314
 20
414.204254403284
 11
333.3715965742313
 21
414.204254403284
  0
SOLID
  5
1BA
100
AcDbEntity
  8
0
  6
ByBlock
 62
    5
370
   -2
100
AcDbTrace
 10
318.6715965742314
 20
414.204254403284
 30
0
 11
318.7715965742314
 21
414.2209057895949
 31
0
 12
318.7715965742314
 22
414.1876030169731
 32
0
 13
318.7715965742314
 23
414.1876030169731
 33
0
  0
SOLID
  5
1BB
100
AcDbEntity
  8
0
  6
ByBlock
 62
    5
370
   -2
100
AcDbTrace
 10
333.3715965742313
 20
414.204254403284
 30
0
 11
333.2715965742313
 21
414.1876030169731
 31
0
 12
333.2715965742313
 22
414.2209057895949
 32
0
 13
333.2715965742313
 23
414.2209057895949
 33
0
  0
MTEXT
  5
1BC
100
AcDbEntity
  8
0
  6
CONTINUOUS
 62
    5
370
   -2
100
AcDbMText
 10
326.0215965742314
 20
414.504254403284
 30
0
 40
0.2
 41
0.4555555555555556
 71
    5
 72
    1
  1
14,7
  7
standard
210
0
220
0
230
1
 50
0
 73
    2
 44
1
  0
LINE
  5
1BD
100
AcDbEntity
  8
0
  6
ByBlock
 62
    0
370
   -2
100
AcDbLine
 10
318.6715965742314
 20
413.2101653985924
 11
318.6715965742314
 21
414.304254403284
  0
LINE
  5
1BE
100
AcDbEntity
  8
0
  6
ByBlock
 62
    0
370
   -2
100
AcDbLine
 10
333.3715965742313
 20
413.2101653985924
 11
333.3715965742313
 21
414.304254403284
  0
ENDBLK
  5
A1
330
9F
100
AcDbEntity
  8
0
100
AcDbBlockEnd
  0
BLOCK
  5
A3
330
A2
100
AcDbEntity
  8
0
100
AcDbBlockBegin
  2
*D54
 70
    1
 10
0
 20
0
  3
*D54
  1

  0
LINE
  5
1BF
100
AcDbEntity
  8
0
  6
ByBlock
 62
    5
370
   -2
100
AcDbLine
 10
326.2986709465214
 20
408.5101653985922
 11
326.2986709465214
 21
410.7101653985922
  0
SOLID
  5
1C0
100
AcDbEntity
  8
0
  6
ByBlock
 62
    5
370
   -2
100
AcDbTrace
 10
326.2986709465214
 20
408.5101653985922
 30
0
 11
326.2820195602105
 21
408.6101653985922
 31
0
 12
326.3153223328323
 22
408.6101653985922
 32
0
 13
326.3153223328323
 23
408.6101653985922
 33
0
  0
SOLID
  5
1C1
100
AcDbEntity
  8
0
  6
ByBlock
 62
    5
370
   -2
100
AcDbTrace
 10
326.2986709465214
 20
410.7101653985922
 30
0
 11
326.3153223328323
 21
410.6101653985922
 31
0
 12
326.2820195602105
 22
410.6101653985922
 32
0
 13
326.2820195602105
 23
410.6101653985922
 33
0
  0
MTEXT
  5
1C2
100
AcDbEntity
  8
0
  6
CONTINUOUS
 62
    5
370
   -2
100
AcDbMText
 10
325.9986709465214
 20
409.6101653985922
 30
0
 40
0.2
 41
0.3222222222222222
 71
    5
 72
    1
  1
2,2
  7
standard
210
0
220
0
230
1
 50
90
 73
    2
 44
1
  0
LINE
  5
1C3
100
AcDbEntity
  8
0
  6
ByBlock
 62
    0
370
   -2
100
AcDbLine
 10
326.311596574231
 20
408.5101653985922
 11
326.1986709465214
 21
408.5101653985922
  0
LINE
  5
1C4
100
AcDbEntity
  8
0
  6
ByBlock
 62
    0
370
   -2
100
AcDbLine
 10
326.3115965742311
 20
410.7101653985922
 11
326.1986709465214
 21
410.7101653985922
  0
ENDBLK
  5
A4
330
A2
100
AcDbEntity
  8
0
100
AcDbBlockEnd
  0
BLOCK
  5
A6
330
A5
100
AcDbEntity
  8
0
100
AcDbBlockBegin
  2
*D61
 70
    1
 10
0
 20
0
  3
*D61
  1

  0
LINE
  5
1C5
100
AcDbEntity
  8
0
  6
ByBlock
 62
    5
370
   -2
100
AcDbLine
 10
325.3115965742311
 20
406.0830481790871
 11
331.8715965742314
 21
406.0830481790871
  0
SOLID
  5
1C6
100
AcDbEntity
  8
0
  6
ByBlock
 62
    5
370
   -2
100
AcDbTrace
 10
325.3115965742311
 20
406.0830481790871
 30
0
 11
325.4115965742311
 21
406.0996995653981
 31
0
 12
325.4115965742311
 22
406.0663967927762
 32
0
 13
325.4115965742311
 23
406.0663967927762
 33
0
  0
SOLID
  5
1C7
100
AcDbEntity
  8
0
  6
ByBlock
 62
    5
370
   -2
100
AcDbTrace
 10
331.8715965742314
 20
406.0830481790871
 30
0
 11
331.7715965742314
 21
406.0663967927762
 31
0
 12
331.7715965742314
 22
406.0996995653981
 32
0
 13
331.7715965742314
 23
406.0996995653981
 33
0
  0
MTEXT
  5
1C8
100
AcDbEntity
  8
0
  6
CONTINUOUS
 62
    5
370
   -2
100
AcDbMText
 10
328.5915965742312
 20
406.3830481790872
 30
0
 40
0.2
 41
0.477777777777815
 71
    5
 72
    1
  1
6,56
  7
standard
210
0
220
0
230
1
 50
0
 73
    2
 44
1
  0
LINE
  5
1C9
100
AcDbEntity
  8
0
  6
ByBlock
 62
    0
370
   -2
100
AcDbLine
 10
325.3115965742311
 20
406.6601653985923
 11
325.3115965742311
 21
405.9830481790871
  0
LINE
  5
1CA
100
AcDbEntity
  8
0
  6
ByBlock
 62
    0
370
   -2
100
AcDbLine
 10
331.8715965742314
 20
406.6601653985923
 11
331.8715965742314
 21
405.9830481790871
  0
ENDBLK
  5
A7
330
A5
100
AcDbEntity
  8
0
100
AcDbBlockEnd
  0
BLOCK
  5
A9
330
A8
100
AcDbEntity
  8
0
100
AcDbBlockBegin
  2
*D14
 70
    1
 10
0
 20
0
  3
*D14
  1

  0
LINE
  5
1CB
100
AcDbEntity
  8
0
  6
ByBlock
 62
    5
370
   -2
100
AcDbLine
 10
318.7624314704885
 20
419.4279412141905
 11
322.6424314704885
 21
419.4279412141905
  0
SOLID
  5
1CC
100
AcDbEntity
  8
0
  6
ByBlock
 62
    5
370
   -2
100
AcDbTrace
 10
318.7624314704885
 20
419.4279412141905
 30
0
 11
318.8624314704885
 21
419.4445926005014
 31
0
 12
318.8624314704885
 22
419.4112898278796
 32
0
 13
318.8624314704885
 23
419.4112898278796
 33
0
  0
SOLID
  5
1CD
100
AcDbEntity
  8
0
  6
ByBlock
 62
    5
370
   -2
100
AcDbTrace
 10
322.6424314704885
 20
419.4279412141905
 30
0
 11
322.5424314704885
 21
419.4112898278796
 31
0
 12
322.5424314704885
 22
419.4445926005014
 32
0
 13
322.5424314704885
 23
419.4445926005014
 33
0
  0
MTEXT
  5
1CE
100
AcDbEntity
  8
0
  6
CONTINUOUS
 62
    5
370
   -2
100
AcDbMText
 10
320.7024314704885
 20
419.7279412141905
 30
0
 40
0.2
 41
0.4777777777777902
 71
    5
 72
    1
  1
3,88
  7
standard
210
0
220
0
230
1
 50
0
 73
    2
 44
1
  0
LINE
  5
1CF
100
AcDbEntity
  8
0
  6
ByBlock
 62
    0
370
   -2
100
AcDbLine
 10
318.7624314704885
 20
419.8223137407127
 11
318.7624314704885
 21
419.3279412141905
  0
LINE
  5
1D0
100
AcDbEntity
  8
0
  6
ByBlock
 62
    0
370
   -2
100
AcDbLine
 10
322.6424314704885
 20
419.8223137407127
 11
322.6424314704885
 21
419.3279412141905
  0
ENDBLK
  5
AA
330
A8
100
AcDbEntity
  8
0
100
AcDbBlockEnd
  0
BLOCK
  5
AC
330
AB
100
AcDbEntity
  8
0
100
AcDbBlockBegin
  2
*D25
 70
    1
 10
0
 20
0
  3
*D25
  1

  0
LINE
  5
1D1
100
AcDbEntity
  8
0
  6
ByBlock
 62
    5
370
   -2
100
AcDbLine
 10
325.6324314704884
 20
422.2537997110535
 11
326.4324314704884
 21
422.2537997110535
  0
SOLID
  5
1D2
100
AcDbEntity
  8
0
  6
ByBlock
 62
    5
370
   -2
100
AcDbTrace
 10
325.6324314704884
 20
422.2537997110535
 30
0
 11
325.7324314704885
 21
422.2704510973644
 31
0
 12
325.7324314704885
 22
422.2371483247426
 32
0
 13
325.7324314704885
 23
422.2371483247426
 33
0
  0
SOLID
  5
1D3
100
AcDbEntity
  8
0
  6
ByBlock
 62
    5
370
   -2
100
AcDbTrace
 10
326.4324314704884
 20
422.2537997110535
 30
0
 11
326.3324314704884
 21
422.2371483247426
 31
0
 12
326.3324314704884
 22
422.2704510973644
 32
0
 13
326.3324314704884
 23
422.2704510973644
 33
0
  0
MTEXT
  5
1D4
100
AcDbEntity
  8
0
  6
CONTINUOUS
 62
    5
370
   -2
100
AcDbMText
 10
326.0324314704884
 20
422.5537997110535
 30
0
 40
0.2
 41
0.3222222222222222
 71
    5
 72
    1
  1
0,8
  7
standard
210
0
220
0
230
1
 50
0
 73
    2
 44
1
  0
LINE
  5
1D5
100
AcDbEntity
  8
0
  6
ByBlock
 62
    0
370
   -2
100
AcDbLine
 10
325.6324314704884
 20
422.1423137407127
 11
325.6324314704884
 21
422.3537997110535
  0
LINE
  5
1D6
100
AcDbEntity
  8
0
  6
ByBlock
 62
    0
370
   -2
100
AcDbLine
 10
326.4324314704884
 20
422.1423137407127
 11
326.4324314704884
 21
422.3537997110535
  0
ENDBLK
  5
AD
330
AB
100
AcDbEntity
  8
0
100
AcDbBlockEnd
  0
BLOCK
  5
AF
330
AE
100
AcDbEntity
  8
0
100
AcDbBlockBegin
  2
*D5
 70
    1
 10
0
 20
0
  3
*D5
  1

  0
LINE
  5
1D7
100
AcDbEntity
  8
0
  6
ByBlock
 62
    5
370
   -2
100
AcDbLine
 10
329.3247425174242
 20
424.5423137407129
 11
329.3247425174242
 21
426.1723137407129
  0
SOLID
  5
1D8
100
AcDbEntity
  8
0
  6
ByBlock
 62
    5
370
   -2
100
AcDbTrace
 10
329.3247425174242
 20
424.5423137407129
 30
0
 11
329.3080911311133
 21
424.642313740713
 31
0
 12
329.3413939037351
 22
424.642313740713
 32
0
 13
329.3413939037351
 23
424.642313740713
 33
0
  0
SOLID
  5
1D9
100
AcDbEntity
  8
0
  6
ByBlock
 62
    5
370
   -2
100
AcDbTrace
 10
329.3247425174242
 20
426.1723137407129
 30
0
 11
329.3413939037351
 21
426.0723137407129
 31
0
 12
329.3080911311133
 22
426.0723137407129
 32
0
 13
329.3080911311133
 23
426.0723137407129
 33
0
  0
MTEXT
  5
1DA
100
AcDbEntity
  8
0
  6
CONTINUOUS
 62
    5
370
   -2
100
AcDbMText
 10
329.0247425174242
 20
425.3573137407129
 30
0
 40
0.2
 41
0.4333333333333582
 71
    5
 72
    1
  1
1,63
  7
standard
210
0
220
0
230
1
 50
90
 73
    2
 44
1
  0
LINE
  5
1DB
100
AcDbEntity
  8
0
  6
ByBlock
 62
    0
370
   -2
100
AcDbLine
 10
328.6124314704885
 20
424.5423137407129
 11
329.4247425174242
 21
424.5423137407129
  0
LINE
  5
1DC
100
AcDbEntity
  8
0
  6
ByBlock
 62
    0
370
   -2
100
AcDbLine
 10
328.6124314704885
 20
426.1723137407129
 11
329.4247425174242
 21
426.1723137407129
  0
ENDBLK
  5
B0
330
AE
100
AcDbEntity
  8
0
100
AcDbBlockEnd
  0
BLOCK
  5
B2
330
B1
100
AcDbEntity
  8
0
100
AcDbBlockBegin
  2
*D66
 70
    1
 10
0
 20
0
  3
*D66
  1

  0
LINE
  5
1DD
100
AcDbEntity
  8
0
  6
ByBlock
 62
    5
370
   -2
100
AcDbLine
 10
318.8215965742313
 20
405.4450493953949
 11
325.1615965742313
 21
405.4450493953949
  0
SOLID
  5
1DE
100
AcDbEntity
  8
0
  6
ByBlock
 62
    5
370
   -2
100
AcDbTrace
 10
318.8215965742313
 20
405.4450493953949
 30
0
 11
318.9215965742313
 21
405.4617007817058
 31
0
 12
318.9215965742313
 22
405.428398009084
 32
0
 13
318.9215965742313
 23
405.428398009084
 33
0
  0
SOLID
  5
1DF
100
AcDbEntity
  8
0
  6
ByBlock
 62
    5
370
   -2
100
AcDbTrace
 10
325.1615965742313
 20
405.4450493953949
 30
0
 11
325.0615965742313
 21
405.428398009084
 31
0
 12
325.0615965742313
 22
405.4617007817058
 32
0
 13
325.0615965742313
 23
405.4617007817058
 33
0
  0
MTEXT
  5
1E0
100
AcDbEntity
  8
0
  6
CONTINUOUS
 62
    5
370
   -2
100
AcDbMText
 10
321.9915965742313
 20
405.7450493953949
 30
0
 40
0.2
 41
0.5000000000000249
 71
    5
 72
    1
  1
6,34
  7
standard
210
0
220
0
230
1
 50
0
 73
    2
 44
1
  0
LINE
  5
1E1
100
AcDbEntity
  8
0
  6
ByBlock
 62
    0
370
   -2
100
AcDbLine
 10
318.8215965742313
 20
406.6601653985923
 11
318.8215965742313
 21
405.3450493953949
  0
LINE
  5
1E2
100
AcDbEntity
  8
0
  6
ByBlock
 62
    0
370
   -2
100
AcDbLine
 10
325.1615965742313
 20
406.6601653985923
 11
325.1615965742313
 21
405.3450493953949
  0
ENDBLK
  5
B3
330
B1
100
AcDbEntity
  8
0
100
AcDbBlockEnd
  0
BLOCK
  5
B5
330
B4
100
AcDbEntity
  8
0
100
AcDbBlockBegin
  2
*D24
 70
    1
 10
0
 20
0
  3
*D24
  1

  0
LINE
  5
1E3
100
AcDbEntity
  8
0
  6
ByBlock
 62
    5
370
   -2
100
AcDbLine
 10
331.6160907772352
 20
422.0723137407125
 11
331.6160907772352
 21
422.8723137407125
  0
SOLID
  5
1E4
100
AcDbEntity
  8
0
  6
ByBlock
 62
    5
370
   -2
100
AcDbTrace
 10
331.6160907772352
 20
422.0723137407125
 30
0
 11
331.5994393909243
 21
422.1723137407125
 31
0
 12
331.6327421635461
 22
422.1723137407125
 32
0
 13
331.6327421635461
 23
422.1723137407125
 33
0
  0
SOLID
  5
1E5
100
AcDbEntity
  8
0
  6
ByBlock
 62
    5
370
   -2
100
AcDbTrace
 10
331.6160907772352
 20
422.8723137407125
 30
0
 11
331.6327421635461
 21
422.7723137407125
 31
0
 12
331.5994393909243
 22
422.7723137407125
 32
0
 13
331.5994393909243
 23
422.7723137407125
 33
0
  0
MTEXT
  5
1E6
100
AcDbEntity
  8
0
  6
CONTINUOUS
 62
    5
370
   -2
100
AcDbMText
 10
331.3160907772352
 20
422.4723137407125
 30
0
 40
0.2
 41
0.3222222222222222
 71
    5
 72
    1
  1
0,8
  7
standard
210
0
220
0
230
1
 50
90
 73
    2
 44
1
  0
LINE
  5
1E7
100
AcDbEntity
  8
0
  6
ByBlock
 62
    0
370
   -2
100
AcDbLine
 10
331.6524314704884
 20
422.0723137407125
 11
331.7160907772352
 21
422.0723137407125
  0
LINE
  5
1E8
100
AcDbEntity
  8
0
  6
ByBlock
 62
    0
370
   -2
100
AcDbLine
 10
331.6524314704884
 20
422.8723137407125
 11
331.7160907772352
 21
422.8723137407125
  0
ENDBLK
  5
B6
330
B4
100
AcDbEntity
  8
0
100
AcDbBlockEnd
  0
BLOCK
  5
B8
330
B7
100
AcDbEntity
  8
0
100
AcDbBlockBegin
  2
*D22
 70
    1
 10
0
 20
0
  3
*D22
  1

  0
LINE
  5
1E9
100
AcDbEntity
  8
0
  6
ByBlock
 62
    5
370
   -2
100
AcDbLine
 10
331.9859113920854
 20
422.8723137407125
 11
331.9859113920854
 21
424.8423137407127
  0
SOLID
  5
1EA
100
AcDbEntity
  8
0
  6
ByBlock
 62
    5
370
   -2
100
AcDbTrace
 10
331.9859113920854
 20
422.8723137407125
 30
0
 11
331.9692600057745
 21
422.9723137407125
 31
0
 12
332.0025627783963
 22
422.9723137407125
 32
0
 13
332.0025627783963
 23
422.9723137407125
 33
0
  0
SOLID
  5
1EB
100
AcDbEntity
  8
0
  6
ByBlock
 62
    5
370
   -2
100
AcDbTrace
 10
331.9859113920854
 20
424.8423137407127
 30
0
 11
332.0025627783963
 21
424.7423137407127
 31
0
 12
331.9692600057745
 22
424.7423137407127
 32
0
 13
331.9692600057745
 23
424.7423137407127
 33
0
  0
MTEXT
  5
1EC
100
AcDbEntity
  8
0
  6
CONTINUOUS
 62
    5
370
   -2
100
AcDbMText
 10
331.6859113920854
 20
423.8573137407126
 30
0
 40
0.2
 41
0.4333333333333333
 71
    5
 72
    1
  1
1,97
  7
standard
210
0
220
0
230
1
 50
90
 73
    2
 44
1
  0
LINE
  5
1ED
100
AcDbEntity
  8
0
  6
ByBlock
 62
    0
370
   -2
100
AcDbLine
 10
331.6524314704884
 20
422.8723137407125
 11
332.0859113920854
 21
422.8723137407125
  0
LINE
  5
1EE
100
AcDbEntity
  8
0
  6
ByBlock
 62
    0
370
   -2
100
AcDbLine
 10
331.6524314704884
 20
424.8423137407127
 11
332.0859113920854
 21
424.8423137407127
  0
ENDBLK
  5
B9
330
B7
100
AcDbEntity
  8
0
100
AcDbBlockEnd
  0
BLOCK
  5
BB
330
BA
100
AcDbEntity
  8
0
100
AcDbBlockBegin
  2
*D1
 70
    1
 10
0
 20
0
  3
*D1
  1

  0
LINE
  5
1EF
100
AcDbEntity
  8
0
  6
ByBlock
 62
    5
370
   -2
100
AcDbLine
 10
324.5801816698853
 20
421.9423137407127
 11
324.5801816698853
 21
424.8623137407126
  0
SOLID
  5
1F0
100
AcDbEntity
  8
0
  6
ByBlock
 62
    5
370
   -2
100
AcDbTrace
 10
324.5801816698853
 20
421.9423137407127
 30
0
 11
324.5635302835744
 21
422.0423137407127
 31
0
 12
324.5968330561962
 22
422.0423137407127
 32
0
 13
324.5968330561962
 23
422.0423137407127
 33
0
  0
SOLID
  5
1F1
100
AcDbEntity
  8
0
  6
ByBlock
 62
    5
370
   -2
100
AcDbTrace
 10
324.5801816698853
 20
424.8623137407126
 30
0
 11
324.5968330561962
 21
424.7623137407126
 31
0
 12
324.5635302835744
 22
424.7623137407126
 32
0
 13
324.5635302835744
 23
424.7623137407126
 33
0
  0
MTEXT
  5
1F2
100
AcDbEntity
  8
0
  6
CONTINUOUS
 62
    5
370
   -2
100
AcDbMText
 10
324.2801816698853
 20
423.4023137407127
 30
0
 40
0.2
 41
0.4777777777777777
 71
    5
 72
    1
  1
2,92
  7
standard
210
0
220
0
230
1
 50
90
 73
    2
 44
1
  0
LINE
  5
1F3
100
AcDbEntity
  8
0
  6
ByBlock
 62
    0
370
   -2
100
AcDbLine
 10
324.9124314704886
 20
421.9423137407127
 11
324.4801816698853
 21
421.9423137407127
  0
LINE
  5
1F4
100
AcDbEntity
  8
0
  6
ByBlock
 62
    0
370
   -2
100
AcDbLine
 10
324.9124314704886
 20
424.8623137407126
 11
324.4801816698853
 21
424.8623137407126
  0
ENDBLK
  5
BC
330
BA
100
AcDbEntity
  8
0
100
AcDbBlockEnd
  0
BLOCK
  5
BE
330
BD
100
AcDbEntity
  8
0
100
AcDbBlockBegin
  2
*D39
 70
    1
 10
0
 20
0
  3
*D39
  1

  0
LINE
  5
1F5
100
AcDbEntity
  8
0
  6
ByBlock
 62
    5
370
   -2
100
AcDbLine
 10
316.1050546989828
 20
420.0223137407127
 11
316.1050546989828
 21
426.3223137407127
  0
SOLID
  5
1F6
100
AcDbEntity
  8
0
  6
ByBlock
 62
    5
370
   -2
100
AcDbTrace
 10
316.1050546989828
 20
420.0223137407127
 30
0
 11
316.0884033126719
 21
420.1223137407127
 31
0
 12
316.1217060852937
 22
420.1223137407127
 32
0
 13
316.1217060852937
 23
420.1223137407127
 33
0
  0
SOLID
  5
1F7
100
AcDbEntity
  8
0
  6
ByBlock
 62
    5
370
   -2
100
AcDbTrace
 10
316.1050546989828
 20
426.3223137407127
 30
0
 11
316.1217060852937
 21
426.2223137407127
 31
0
 12
316.0884033126719
 22
426.2223137407127
 32
0
 13
316.0884033126719
 23
426.2223137407127
 33
0
  0
MTEXT
  5
1F8
100
AcDbEntity
  8
0
  6
CONTINUOUS
 62
    5
370
   -2
100
AcDbMText
 10
315.8050546989828
 20
423.1723137407127
 30
0
 40
0.2
 41
0.3222222222222471
 71
    5
 72
    1
  1
6,3
  7
standard
210
0
220
0
230
1
 50
90
 73
    2
 44
1
  0
LINE
  5
1F9
100
AcDbEntity
  8
0
  6
ByBlock
 62
    0
370
   -2
100
AcDbLine
 10
318.4124314704886
 20
420.0223137407127
 11
316.0050546989828
 21
420.0223137407127
  0
LINE
  5
1FA
100
AcDbEntity
  8
0
  6
ByBlock
 62
    0
370
   -2
100
AcDbLine
 10
318.4124314704886
 20
426.3223137407127
 11
316.0050546989828
 21
426.3223137407127
  0
ENDBLK
  5
BF
330
BD
100
AcDbEntity
  8
0
100
AcDbBlockEnd
  0
BLOCK
  5
C1
330
C0
100
AcDbEntity
  8
0
100
AcDbBlockBegin
  2
*D37
 70
    1
 10
0
 20
0
  3
*D37
  1

  0
LINE
  5
1FB
100
AcDbEntity
  8
0
  6
ByBlock
 62
    5
370
   -2
100
AcDbLine
 10
318.3026131935228
 20
420.3723137407126
 11
318.3026131935228
 21
422.8123137407126
  0
SOLID
  5
1FC
100
AcDbEntity
  8
0
  6
ByBlock
 62
    5
370
   -2
100
AcDbTrace
 10
318.3026131935228
 20
420.3723137407126
 30
0
 11
318.2859618072119
 21
420.4723137407127
 31
0
 12
318.3192645798337
 22
420.4723137407127
 32
0
 13
318.3192645798337
 23
420.4723137407127
 33
0
  0
SOLID
  5
1FD
100
AcDbEntity
  8
0
  6
ByBlock
 62
    5
370
   -2
100
AcDbTrace
 10
318.3026131935228
 20
422.8123137407126
 30
0
 11
318.3192645798337
 21
422.7123137407126
 31
0
 12
318.2859618072119
 22
422.7123137407126
 32
0
 13
318.2859618072119
 23
422.7123137407126
 33
0
  0
MTEXT
  5
1FE
100
AcDbEntity
  8
0
  6
CONTINUOUS
 62
    5
370
   -2
100
AcDbMText
 10
318.0026131935228
 20
421.5923137407126
 30
0
 40
0.2
 41
0.5222222222222223
 71
    5
 72
    1
  1
2,44
  7
standard
210
0
220
0
230
1
 50
90
 73
    2
 44
1
  0
LINE
  5
1FF
100
AcDbEntity
  8
0
  6
ByBlock
 62
    0
370
   -2
100
AcDbLine
 10
318.4124314704886
 20
420.3723137407126
 11
318.2026131935228
 21
420.3723137407126
  0
LINE
  5
200
100
AcDbEntity
  8
0
  6
ByBlock
 62
    0
370
   -2
100
AcDbLine
 10
318.4124314704886
 20
422.8123137407126
 11
318.2026131935228
 21
422.8123137407126
  0
ENDBLK
  5
C2
330
C0
100
AcDbEntity
  8
0
100
AcDbBlockEnd
  0
BLOCK
  5
C4
330
C3
100
AcDbEntity
  8
0
100
AcDbBlockBegin
  2
*D55
 70
    1
 10
0
 20
0
  3
*D55
  1

  0
LINE
  5
201
100
AcDbEntity
  8
0
  6
ByBlock
 62
    5
370
   -2
100
AcDbLine
 10
324.972839406592
 20
409.8501653985923
 11
324.972839406592
 21
411.8601653985926
  0
SOLID
  5
202
100
AcDbEntity
  8
0
  6
ByBlock
 62
    5
370
   -2
100
AcDbTrace
 10
324.972839406592
 20
409.8501653985923
 30
0
 11
324.9561880202811
 21
409.9501653985923
 31
0
 12
324.9894907929029
 22
409.9501653985923
 32
0
 13
324.9894907929029
 23
409.9501653985923
 33
0
  0
SOLID
  5
203
100
AcDbEntity
  8
0
  6
ByBlock
 62
    5
370
   -2
100
AcDbTrace
 10
324.972839406592
 20
411.8601653985926
 30
0
 11
324.9894907929029
 21
411.7601653985926
 31
0
 12
324.9561880202811
 22
411.7601653985926
 32
0
 13
324.9561880202811
 23
411.7601653985926
 33
0
  0
MTEXT
  5
204
100
AcDbEntity
  8
0
  6
CONTINUOUS
 62
    5
370
   -2
100
AcDbMText
 10
324.672839406592
 20
410.8551653985924
 30
0
 40
0.2
 41
0.4333333333333333
 71
    5
 72
    1
  1
2,01
  7
standard
210
0
220
0
230
1
 50
90
 73
    2
 44
1
  0
LINE
  5
205
100
AcDbEntity
  8
0
  6
ByBlock
 62
    0
370
   -2
100
AcDbLine
 10
324.9615965742313
 20
409.8501653985923
 11
324.872839406592
 21
409.8501653985923
  0
LINE
  5
206
100
AcDbEntity
  8
0
  6
ByBlock
 62
    0
370
   -2
100
AcDbLine
 10
324.9615965742313
 20
411.8601653985926
 11
324.872839406592
 21
411.8601653985926
  0
ENDBLK
  5
C5
330
C3
100
AcDbEntity
  8
0
100
AcDbBlockEnd
  0
BLOCK
  5
C7
330
C6
100
AcDbEntity
  8
0
100
AcDbBlockBegin
  2
*D26
 70
    1
 10
0
 20
0
  3
*D26
  1

  0
LINE
  5
207
100
AcDbEntity
  8
0
  6
ByBlock
 62
    5
370
   -2
100
AcDbLine
 10
328.0018426303281
 20
422.8223137407128
 11
328.0018426303281
 21
423.8223137407128
  0
SOLID
  5
208
100
AcDbEntity
  8
0
  6
ByBlock
 62
    5
370
   -2
100
AcDbTrace
 10
328.0018426303281
 20
422.8223137407128
 30
0
 11
327.9851912440172
 21
422.9223137407128
 31
0
 12
328.018494016639
 22
422.9223137407128
 32
0
 13
328.018494016639
 23
422.9223137407128
 33
0
  0
SOLID
  5
209
100
AcDbEntity
  8
0
  6
ByBlock
 62
    5
370
   -2
100
AcDbTrace
 10
328.0018426303281
 20
423.8223137407128
 30
0
 11
328.018494016639
 21
423.7223137407128
 31
0
 12
327.9851912440172
 22
423.7223137407128
 32
0
 13
327.9851912440172
 23
423.7223137407128
 33
0
  0
MTEXT
  5
20A
100
AcDbEntity
  8
0
  6
CONTINUOUS
 62
    5
370
   -2
100
AcDbMText
 10
327.7018426303281
 20
423.3223137407128
 30
0
 40
0.2
 41
0.04444444444444445
 71
    5
 72
    1
  1
1
  7
standard
210
0
220
0
230
1
 50
90
 73
    2
 44
1
  0
LINE
  5
20B
100
AcDbEntity
  8
0
  6
ByBlock
 62
    0
370
   -2
100
AcDbLine
 10
328.0524314704884
 20
422.8223137407128
 11
327.9018426303281
 21
422.8223137407128
  0
LINE
  5
20C
100
AcDbEntity
  8
0
  6
ByBlock
 62
    0
370
   -2
100
AcDbLine
 10
328.0524314704884
 20
423.8223137407128
 11
327.9018426303281
 21
423.8223137407128
  0
ENDBLK
  5
C8
330
C6
100
AcDbEntity
  8
0
100
AcDbBlockEnd
  0
BLOCK
  5
CA
330
C9
100
AcDbEntity
  8
0
100
AcDbBlockBegin
  2
*D23
 70
    1
 10
0
 20
0
  3
*D23
  1

  0
LINE
  5
20D
100
AcDbEntity
  8
0
  6
ByBlock
 62
    5
370
   -2
100
AcDbLine
 10
331.9859113920854
 20
424.9923137407127
 11
331.9859113920854
 21
426.1723137407126
  0
SOLID
  5
20E
100
AcDbEntity
  8
0
  6
ByBlock
 62
    5
370
   -2
100
AcDbTrace
 10
331.9859113920854
 20
424.9923137407127
 30
0
 11
331.9692600057745
 21
425.0923137407127
 31
0
 12
332.0025627783963
 22
425.0923137407127
 32
0
 13
332.0025627783963
 23
425.0923137407127
 33
0
  0
SOLID
  5
20F
100
AcDbEntity
  8
0
  6
ByBlock
 62
    5
370
   -2
100
AcDbTrace
 10
331.9859113920854
 20
426.1723137407126
 30
0
 11
332.0025627783963
 21
426.0723137407126
 31
0
 12
331.9692600057745
 22
426.0723137407126
 32
0
 13
331.9692600057745
 23
426.0723137407126
 33
0
  0
MTEXT
  5
210
100
AcDbEntity
  8
0
  6
CONTINUOUS
 62
    5
370
   -2
100
AcDbMText
 10
331.6859113920854
 20
425.5823137407126
 30
0
 40
0.2
 41
0.3888888888888889
 71
    5
 72
    1
  1
1,18
  7
standard
210
0
220
0
230
1
 50
90
 73
    2
 44
1
  0
LINE
  5
211
100
AcDbEntity
  8
0
  6
ByBlock
 62
    0
370
   -2
100
AcDbLine
 10
331.6524314704884
 20
424.9923137407127
 11
332.0859113920854
 21
424.9923137407127
  0
LINE
  5
212
100
AcDbEntity
  8
0
  6
ByBlock
 62
    0
370
   -2
100
AcDbLine
 10
331.6524314704884
 20
426.1723137407126
 11
332.0859113920854
 21
426.1723137407126
  0
ENDBLK
  5
CB
330
C9
100
AcDbEntity
  8
0
100
AcDbBlockEnd
  0
BLOCK
  5
CD
330
CC
100
AcDbEntity
  8
0
100
AcDbBlockBegin
  2
*D17
 70
    1
 10
0
 20
0
  3
*D17
  1

  0
LINE
  5
213
100
AcDbEntity
  8
0
  6
ByBlock
 62
    5
370
   -2
100
AcDbLine
 10
328.4024314704884
 20
419.4200368943797
 11
331.3024314704883
 21
419.4200368943797
  0
SOLID
  5
214
100
AcDbEntity
  8
0
  6
ByBlock
 62
    5
370
   -2
100
AcDbTrace
 10
328.4024314704884
 20
419.4200368943797
 30
0
 11
328.5024314704884
 21
419.4366882806906
 31
0
 12
328.5024314704884
 22
419.4033855080688
 32
0
 13
328.5024314704884
 23
419.4033855080688
 33
0
  0
SOLID
  5
215
100
AcDbEntity
  8
0
  6
ByBlock
 62
    5
370
   -2
100
AcDbTrace
 10
331.3024314704883
 20
419.4200368943797
 30
0
 11
331.2024314704882
 21
419.4033855080688
 31
0
 12
331.2024314704882
 22
419.4366882806906
 32
0
 13
331.2024314704882
 23
419.4366882806906
 33
0
  0
MTEXT
  5
216
100
AcDbEntity
  8
0
  6
CONTINUOUS
 62
    5
370
   -2
100
AcDbMText
 10
329.8524314704883
 20
419.7200368943797
 30
0
 40
0.2
 41
0.3222222222222222
 71
    5
 72
    1
  1
2,9
  7
standard
210
0
220
0
230
1
 50
0
 73
    2
 44
1
  0
LINE
  5
217
100
AcDbEntity
  8
0
  6
ByBlock
 62
    0
370
   -2
100
AcDbLine
 10
328.4024314704884
 20
419.8223137407127
 11
328.4024314704884
 21
419.3200368943797
  0
LINE
  5
218
100
AcDbEntity
  8
0
  6
ByBlock
 62
    0
370
   -2
100
AcDbLine
 10
331.3024314704883
 20
419.8223137407127
 11
331.3024314704883
 21
419.3200368943797
  0
ENDBLK
  5
CE
330
CC
100
AcDbEntity
  8
0
100
AcDbBlockEnd
  0
BLOCK
  5
D0
330
CF
100
AcDbEntity
  8
0
100
AcDbBlockBegin
  2
*D19
 70
    1
 10
0
 20
0
  3
*D19
  1

  0
LINE
  5
219
100
AcDbEntity
  8
0
  6
ByBlock
 62
    5
370
   -2
100
AcDbLine
 10
322.7924314704885
 20
418.489814727188
 11
331.3024314704883
 21
418.489814727188
  0
SOLID
  5
21A
100
AcDbEntity
  8
0
  6
ByBlock
 62
    5
370
   -2
100
AcDbTrace
 10
322.7924314704885
 20
418.489814727188
 30
0
 11
322.8924314704885
 21
418.5064661134989
 31
0
 12
322.8924314704885
 22
418.4731633408771
 32
0
 13
322.8924314704885
 23
418.4731633408771
 33
0
  0
SOLID
  5
21B
100
AcDbEntity
  8
0
  6
ByBlock
 62
    5
370
   -2
100
AcDbTrace
 10
331.3024314704883
 20
418.489814727188
 30
0
 11
331.2024314704882
 21
418.4731633408771
 31
0
 12
331.2024314704882
 22
418.5064661134989
 32
0
 13
331.2024314704882
 23
418.5064661134989
 33
0
  0
MTEXT
  5
21C
100
AcDbEntity
  8
0
  6
CONTINUOUS
 62
    5
370
   -2
100
AcDbMText
 10
327.0474314704884
 20
418.789814727188
 30
0
 40
0.2
 41
0.4333333333333458
 71
    5
 72
    1
  1
8,51
  7
standard
210
0
220
0
230
1
 50
0
 73
    2
 44
1
  0
LINE
  5
21D
100
AcDbEntity
  8
0
  6
ByBlock
 62
    0
370
   -2
100
AcDbLine
 10
322.7924314704885
 20
419.8223137407127
 11
322.7924314704885
 21
418.389814727188
  0
LINE
  5
21E
100
AcDbEntity
  8
0
  6
ByBlock
 62
    0
370
   -2
100
AcDbLine
 10
331.3024314704883
 20
419.8223137407127
 11
331.3024314704883
 21
418.389814727188
  0
ENDBLK
  5
D1
330
CF
100
AcDbEntity
  8
0
100
AcDbBlockEnd
  0
BLOCK
  5
D3
330
D2
100
AcDbEntity
  8
0
100
AcDbBlockBegin
  2
*D31
 70
    1
 10
0
 20
0
  3
*D31
  1

  0
LINE
  5
21F
100
AcDbEntity
  8
0
  6
ByBlock
 62
    5
370
   -2
100
AcDbLine
 10
319.7624314704885
 20
423.4343041036779
 11
320.8624314704885
 21
423.4343041036779
  0
SOLID
  5
220
100
AcDbEntity
  8
0
  6
ByBlock
 62
    5
370
   -2
100
AcDbTrace
 10
319.7624314704885
 20
423.4343041036779
 30
0
 11
319.8624314704885
 21
423.4509554899888
 31
0
 12
319.8624314704885
 22
423.417652717367
 32
0
 13
319.8624314704885
 23
423.417652717367
 33
0
  0
SOLID
  5
221
100
AcDbEntity
  8
0
  6
ByBlock
 62
    5
370
   -2
100
AcDbTrace
 10
320.8624314704885
 20
423.4343041036779
 30
0
 11
320.7624314704885
 21
423.417652717367
 31
0
 12
320.7624314704885
 22
423.4509554899888
 32
0
 13
320.7624314704885
 23
423.4509554899888
 33
0
  0
MTEXT
  5
222
100
AcDbEntity
  8
0
  6
CONTINUOUS
 62
    5
370
   -2
100
AcDbMText
 10
320.3124314704885
 20
423.7343041036779
 30
0
 40
0.2
 41
0.2333333333333333
 71
    5
 72
    1
  1
1,1
  7
standard
210
0
220
0
230
1
 50
0
 73
    2
 44
1
  0
LINE
  5
223
100
AcDbEntity
  8
0
  6
ByBlock
 62
    0
370
   -2
100
AcDbLine
 10
319.7624314704885
 20
423.3623137407126
 11
319.7624314704885
 21
423.5343041036779
  0
LINE
  5
224
100
AcDbEntity
  8
0
  6
ByBlock
 62
    0
370
   -2
100
AcDbLine
 10
320.8624314704885
 20
423.3623137407126
 11
320.8624314704885
 21
423.5343041036779
  0
ENDBLK
  5
D4
330
D2
100
AcDbEntity
  8
0
100
AcDbBlockEnd
  0
BLOCK
  5
D6
330
D5
100
AcDbEntity
  8
0
100
AcDbBlockBegin
  2
*D57
 70
    1
 10
0
 20
0
  3
*D57
  1

  0
LINE
  5
225
100
AcDbEntity
  8
0
  6
ByBlock
 62
    5
370
   -2
100
AcDbLine
 10
329.8115965742311
 20
408.7538925826376
 11
331.8715965742314
 21
408.7538925826376
  0
SOLID
  5
226
100
AcDbEntity
  8
0
  6
ByBlock
 62
    5
370
   -2
100
AcDbTrace
 10
329.8115965742311
 20
408.7538925826376
 30
0
 11
329.9115965742311
 21
408.7705439689485
 31
0
 12
329.9115965742311
 22
408.7372411963267
 32
0
 13
329.9115965742311
 23
408.7372411963267
 33
0
  0
SOLID
  5
227
100
AcDbEntity
  8
0
  6
ByBlock
 62
    5
370
   -2
100
AcDbTrace
 10
331.8715965742314
 20
408.7538925826376
 30
0
 11
331.7715965742314
 21
408.7372411963267
 31
0
 12
331.7715965742314
 22
408.7705439689485
 32
0
 13
331.7715965742314
 23
408.7705439689485
 33
0
  0
MTEXT
  5
228
100
AcDbEntity
  8
0
  6
CONTINUOUS
 62
    5
370
   -2
100
AcDbMText
 10
330.8415965742312
 20
409.0538925826376
 30
0
 40
0.2
 41
0.4777777777777902
 71
    5
 72
    1
  1
2,06
  7
standard
210
0
220
0
230
1
 50
0
 73
    2
 44
1
  0
LINE
  5
229
100
AcDbEntity
  8
0
  6
ByBlock
 62
    0
370
   -2
100
AcDbLine
 10
329.8115965742311
 20
408.7101653985922
 11
329.8115965742311
 21
408.8538925826376
  0
LINE
  5
22A
100
AcDbEntity
  8
0
  6
ByBlock
 62
    0
370
   -2
100
AcDbLine
 10
331.8715965742314
 20
408.7101653985922
 11
331.8715965742314
 21
408.8538925826376
  0
ENDBLK
  5
D7
330
D5
100
AcDbEntity
  8
0
100
AcDbBlockEnd
  0
BLOCK
  5
D9
330
D8
100
AcDbEntity
  8
0
100
AcDbBlockBegin
  2
*D67
 70
    1
 10
0
 20
0
  3
*D67
  1

  0
LINE
  5
22B
100
AcDbEntity
  8
0
  6
ByBlock
 62
    5
370
   -2
100
AcDbLine
 10
318.8215965742313
 20
409.1288696166992
 11
321.1615965742313
 21
409.1288696166992
  0
SOLID
  5
22C
100
AcDbEntity
  8
0
  6
ByBlock
 62
    5
370
   -2
100
AcDbTrace
 10
318.8215965742313
 20
409.1288696166992
 30
0
 11
318.9215965742313
 21
409.1455210030101
 31
0
 12
318.9215965742313
 22
409.1122182303883
 32
0
 13
318.9215965742313
 23
409.1122182303883
 33
0
  0
SOLID
  5
22D
100
AcDbEntity
  8
0
  6
ByBlock
 62
    5
370
   -2
100
AcDbTrace
 10
321.1615965742313
 20
409.1288696166992
 30
0
 11
321.0615965742313
 21
409.1122182303883
 31
0
 12
321.0615965742313
 22
409.1455210030101
 32
0
 13
321.0615965742313
 23
409.1455210030101
 33
0
  0
MTEXT
  5
22E
100
AcDbEntity
  8
0
  6
CONTINUOUS
 62
    5
370
   -2
100
AcDbMText
 10
319.9915965742313
 20
409.4288696166992
 30
0
 40
0.2
 41
0.5000000000000125
 71
    5
 72
    1
  1
2,34
  7
standard
210
0
220
0
230
1
 50
0
 73
    2
 44
1
  0
LINE
  5
22F
100
AcDbEntity
  8
0
  6
ByBlock
 62
    0
370
   -2
100
AcDbLine
 10
318.8215965742313
 20
409.5001653985923
 11
318.8215965742313
 21
409.0288696166992
  0
LINE
  5
230
100
AcDbEntity
  8
0
  6
ByBlock
 62
    0
370
   -2
100
AcDbLine
 10
321.1615965742313
 20
409.5001653985923
 11
321.1615965742313
 21
409.0288696166992
  0
ENDBLK
  5
DA
330
D8
100
AcDbEntity
  8
0
100
AcDbBlockEnd
  0
BLOCK
  5
DC
330
DB
100
AcDbEntity
  8
0
100
AcDbBlockBegin
  2
*D33
 70
    1
 10
0
 20
0
  3
*D33
  1

  0
LINE
  5
231
100
AcDbEntity
  8
0
  6
ByBlock
 62
    5
370
   -2
100
AcDbLine
 10
325.698960939641
 20
422.0923137407128
 11
325.698960939641
 21
425.1123137407128
  0
SOLID
  5
232
100
AcDbEntity
  8
0
  6
ByBlock
 62
    5
370
   -2
100
AcDbTrace
 10
325.698960939641
 20
422.0923137407128
 30
0
 11
325.6823095533301
 21
422.1923137407128
 31
0
 12
325.7156123259519
 22
422.1923137407128
 32
0
 13
325.7156123259519
 23
422.1923137407128
 33
0
  0
SOLID
  5
233
100
AcDbEntity
  8
0
  6
ByBlock
 62
    5
370
   -2
100
AcDbTrace
 10
325.698960939641
 20
425.1123137407128
 30
0
 11
325.7156123259519
 21
425.0123137407128
 31
0
 12
325.6823095533301
 22
425.0123137407128
 32
0
 13
325.6823095533301
 23
425.0123137407128
 33
0
  0
MTEXT
  5
234
100
AcDbEntity
  8
0
  6
CONTINUOUS
 62
    5
370
   -2
100
AcDbMText
 10
325.398960939641
 20
423.6023137407128
 30
0
 40
0.2
 41
0.4777777777777902
 71
    5
 72
    1
  1
3,02
  7
standard
210
0
220
0
230
1
 50
90
 73
    2
 44
1
  0
LINE
  5
235
100
AcDbEntity
  8
0
  6
ByBlock
 62
    0
370
   -2
100
AcDbLine
 10
325.4524314704884
 20
422.0923137407128
 11
325.798960939641
 21
422.0923137407128
  0
LINE
  5
236
100
AcDbEntity
  8
0
  6
ByBlock
 62
    0
370
   -2
100
AcDbLine
 10
325.4524314704884
 20
425.1123137407128
 11
325.798960939641
 21
425.1123137407128
  0
ENDBLK
  5
DD
330
DB
100
AcDbEntity
  8
0
100
AcDbBlockEnd
  0
BLOCK
  5
DF
330
DE
100
AcDbEntity
  8
0
100
AcDbBlockBegin
  2
*D7
 70
    1
 10
0
 20
0
  3
*D7
  1

  0
LINE
  5
237
100
AcDbEntity
  8
0
  6
ByBlock
 62
    5
370
   -2
100
AcDbLine
 10
330.7497218537263
 20
424.1423137407127
 11
330.7497218537263
 21
424.5423137407127
  0
SOLID
  5
238
100
AcDbEntity
  8
0
  6
ByBlock
 62
    5
370
   -2
100
AcDbTrace
 10
330.7497218537263
 20
424.1423137407127
 30
0
 11
330.7330704674154
 21
424.2423137407127
 31
0
 12
330.7663732400372
 22
424.2423137407127
 32
0
 13
330.7663732400372
 23
424.2423137407127
 33
0
  0
SOLID
  5
239
100
AcDbEntity
  8
0
  6
ByBlock
 62
    5
370
   -2
100
AcDbTrace
 10
330.7497218537263
 20
424.5423137407127
 30
0
 11
330.7663732400372
 21
424.4423137407127
 31
0
 12
330.7330704674154
 22
424.4423137407127
 32
0
 13
330.7330704674154
 23
424.4423137407127
 33
0
  0
MTEXT
  5
23A
100
AcDbEntity
  8
0
  6
CONTINUOUS
 62
    5
370
   -2
100
AcDbMText
 10
330.4497218537263
 20
424.3423137407127
 30
0
 40
0.2
 41
0.3444444444444444
 71
    5
 72
    1
  1
0,4
  7
standard
210
0
220
0
230
1
 50
90
 73
    2
 44
1
  0
LINE
  5
23B
100
AcDbEntity
  8
0
  6
ByBlock
 62
    0
370
   -2
100
AcDbLine
 10
330.3424314704885
 20
424.1423137407127
 11
330.8497218537264
 21
424.1423137407127
  0
LINE
  5
23C
100
AcDbEntity
  8
0
  6
ByBlock
 62
    0
370
   -2
100
AcDbLine
 10
330.3424314704885
 20
424.5423137407127
 11
330.8497218537264
 21
424.5423137407127
  0
ENDBLK
  5
E0
330
DE
100
AcDbEntity
  8
0
100
AcDbBlockEnd
  0
BLOCK
  5
E2
330
E1
100
AcDbEntity
  8
0
100
AcDbBlockBegin
  2
*D18
 70
    1
 10
0
 20
0
  3
*D18
  1

  0
LINE
  5
23D
100
AcDbEntity
  8
0
  6
ByBlock
 62
    5
370
   -2
100
AcDbLine
 10
331.4524314704884
 20
419.4259997718601
 11
333.1624314704886
 21
419.4259997718601
  0
SOLID
  5
23E
100
AcDbEntity
  8
0
  6
ByBlock
 62
    5
370
   -2
100
AcDbTrace
 10
331.4524314704884
 20
419.4259997718601
 30
0
 11
331.5524314704884
 21
419.442651158171
 31
0
 12
331.5524314704884
 22
419.4093483855492
 32
0
 13
331.5524314704884
 23
419.4093483855492
 33
0
  0
SOLID
  5
23F
100
AcDbEntity
  8
0
  6
ByBlock
 62
    5
370
   -2
100
AcDbTrace
 10
333.1624314704886
 20
419.4259997718601
 30
0
 11
333.0624314704886
 21
419.4093483855492
 31
0
 12
333.0624314704886
 22
419.442651158171
 32
0
 13
333.0624314704886
 23
419.442651158171
 33
0
  0
MTEXT
  5
240
100
AcDbEntity
  8
0
  6
CONTINUOUS
 62
    5
370
   -2
100
AcDbMText
 10
332.3074314704885
 20
419.7259997718601
 30
0
 40
0.2
 41
0.3888888888888889
 71
    5
 72
    1
  1
1,71
  7
standard
210
0
220
0
230
1
 50
0
 73
    2
 44
1
  0
LINE
  5
241
100
AcDbEntity
  8
0
  6
ByBlock
 62
    0
370
   -2
100
AcDbLine
 10
331.4524314704884
 20
419.8223137407127
 11
331.4524314704884
 21
419.3259997718601
  0
LINE
  5
242
100
AcDbEntity
  8
0
  6
ByBlock
 62
    0
370
   -2
100
AcDbLine
 10
333.1624314704886
 20
419.8223137407127
 11
333.1624314704886
 21
419.3259997718601
  0
ENDBLK
  5
E3
330
E1
100
AcDbEntity
  8
0
100
AcDbBlockEnd
  0
BLOCK
  5
E5
330
E4
100
AcDbEntity
  8
0
100
AcDbBlockBegin
  2
*D11
 70
    1
 10
0
 20
0
  3
*D11
  1

  0
LINE
  5
243
100
AcDbEntity
  8
0
  6
ByBlock
 62
    5
370
   -2
100
AcDbLine
 10
325.2524314704884
 20
426.7524439471685
 11
328.2524314704884
 21
426.7524439471685
  0
SOLID
  5
244
100
AcDbEntity
  8
0
  6
ByBlock
 62
    5
370
   -2
100
AcDbTrace
 10
325.2524314704884
 20
426.7524439471685
 30
0
 11
325.3524314704884
 21
426.7690953334794
 31
0
 12
325.3524314704884
 22
426.7357925608576
 32
0
 13
325.3524314704884
 23
426.7357925608576
 33
0
  0
SOLID
  5
245
100
AcDbEntity
  8
0
  6
ByBlock
 62
    5
370
   -2
100
AcDbTrace
 10
328.2524314704884
 20
426.7524439471685
 30
0
 11
328.1524314704884
 21
426.7357925608576
 31
0
 12
328.1524314704884
 22
426.7690953334794
 32
0
 13
328.1524314704884
 23
426.7690953334794
 33
0
  0
MTEXT
  5
246
100
AcDbEntity
  8
0
  6
CONTINUOUS
 62
    5
370
   -2
100
AcDbMText
 10
326.7524314704884
 20
427.0524439471685
 30
0
 40
0.2
 41
0.08888888888890129
 71
    5
 72
    1
  1
3
  7
standard
210
0
220
0
230
1
 50
0
 73
    2
 44
1
  0
LINE
  5
247
100
AcDbEntity
  8
0
  6
ByBlock
 62
    0
370
   -2
100
AcDbLine
 10
325.2524314704884
 20
426.5223137407127
 11
325.2524314704884
 21
426.8524439471685
  0
LINE
  5
248
100
AcDbEntity
  8
0
  6
ByBlock
 62
    0
370
   -2
100
AcDbLine
 10
328.2524314704884
 20
426.5223137407127
 11
328.2524314704884
 21
426.8524439471685
  0
ENDBLK
  5
E6
330
E4
100
AcDbEntity
  8
0
100
AcDbBlockEnd
  0
BLOCK
  5
E8
330
E7
100
AcDbEntity
  8
0
100
AcDbBlockBegin
  2
*D59
 70
    1
 10
0
 20
0
  3
*D59
  1

  0
LINE
  5
249
100
AcDbEntity
  8
0
  6
ByBlock
 62
    5
370
   -2
100
AcDbLine
 10
329.6615965742311
 20
412.1620866681499
 11
326.5115965742311
 21
412.1620866681499
  0
SOLID
  5
24A
100
AcDbEntity
  8
0
  6
ByBlock
 62
    5
370
   -2
100
AcDbTrace
 10
329.6615965742311
 20
412.1620866681499
 30
0
 11
329.5615965742311
 21
412.145435281839
 31
0
 12
329.5615965742311
 22
412.1787380544608
 32
0
 13
329.5615965742311
 23
412.1787380544608
 33
0
  0
SOLID
  5
24B
100
AcDbEntity
  8
0
  6
ByBlock
 62
    5
370
   -2
100
AcDbTrace
 10
326.5115965742311
 20
412.1620866681499
 30
0
 11
326.6115965742311
 21
412.1787380544608
 31
0
 12
326.6115965742311
 22
412.145435281839
 32
0
 13
326.6115965742311
 23
412.145435281839
 33
0
  0
MTEXT
  5
24C
100
AcDbEntity
  8
0
  6
CONTINUOUS
 62
    5
370
   -2
100
AcDbMText
 10
328.0865965742311
 20
412.4620866681499
 30
0
 40
0.2
 41
0.4333333333333582
 71
    5
 72
    1
  1
3,15
  7
standard
210
0
220
0
230
1
 50
360
 73
    2
 44
1
  0
LINE
  5
24D
100
AcDbEntity
  8
0
  6
ByBlock
 62
    0
370
   -2
100
AcDbLine
 10
329.6615965742311
 20
411.9101653985925
 11
329.6615965742311
 21
412.2620866681499
  0
LINE
  5
24E
100
AcDbEntity
  8
0
  6
ByBlock
 62
    0
370
   -2
100
AcDbLine
 10
326.5115965742311
 20
411.9101653985927
 11
326.5115965742311
 21
412.2620866681499
  0
ENDBLK
  5
E9
330
E7
100
AcDbEntity
  8
0
100
AcDbBlockEnd
  0
BLOCK
  5
EB
330
EA
100
AcDbEntity
  8
0
100
AcDbBlockBegin
  2
*D62
 70
    1
 10
0
 20
0
  3
*D62
  1

  0
LINE
  5
24F
100
AcDbEntity
  8
0
  6
ByBlock
 62
    5
370
   -2
100
AcDbLine
 10
332.0215965742314
 20
406.0831014376543
 11
333.2215965742314
 21
406.0831014376543
  0
SOLID
  5
250
100
AcDbEntity
  8
0
  6
ByBlock
 62
    5
370
   -2
100
AcDbTrace
 10
332.0215965742314
 20
406.0831014376543
 30
0
 11
332.1215965742314
 21
406.0997528239652
 31
0
 12
332.1215965742314
 22
406.0664500513434
 32
0
 13
332.1215965742314
 23
406.0664500513434
 33
0
  0
SOLID
  5
251
100
AcDbEntity
  8
0
  6
ByBlock
 62
    5
370
   -2
100
AcDbTrace
 10
333.2215965742314
 20
406.0831014376543
 30
0
 11
333.1215965742314
 21
406.0664500513434
 31
0
 12
333.1215965742314
 22
406.0997528239652
 32
0
 13
333.1215965742314
 23
406.0997528239652
 33
0
  0
MTEXT
  5
252
100
AcDbEntity
  8
0
  6
CONTINUOUS
 62
    5
370
   -2
100
AcDbMText
 10
332.6215965742314
 20
406.3831014376543
 30
0
 40
0.2
 41
0.2777777777777778
 71
    5
 72
    1
  1
1,2
  7
standard
210
0
220
0
230
1
 50
0
 73
    2
 44
1
  0
LINE
  5
253
100
AcDbEntity
  8
0
  6
ByBlock
 62
    0
370
   -2
100
AcDbLine
 10
332.0215965742314
 20
406.6601653985922
 11
332.0215965742314
 21
405.9831014376543
  0
LINE
  5
254
100
AcDbEntity
  8
0
  6
ByBlock
 62
    0
370
   -2
100
AcDbLine
 10
333.2215965742314
 20
406.6601653985923
 11
333.2215965742314
 21
405.9831014376543
  0
ENDBLK
  5
EC
330
EA
100
AcDbEntity
  8
0
100
AcDbBlockEnd
  0
BLOCK
  5
EE
330
ED
100
AcDbEntity
  8
0
100
AcDbBlockBegin
  2
*D60
 70
    1
 10
0
 20
0
  3
*D60
  1

  0
LINE
  5
255
100
AcDbEntity
  8
0
  6
ByBlock
 62
    5
370
   -2
100
AcDbLine
 10
326.5115965742311
 20
412.1620866681499
 11
325.3115965742311
 21
412.1620866681499
  0
SOLID
  5
256
100
AcDbEntity
  8
0
  6
ByBlock
 62
    5
370
   -2
100
AcDbTrace
 10
326.5115965742311
 20
412.1620866681499
 30
0
 11
326.4115965742311
 21
412.145435281839
 31
0
 12
326.4115965742311
 22
412.1787380544608
 32
0
 13
326.4115965742311
 23
412.1787380544608
 33
0
  0
SOLID
  5
257
100
AcDbEntity
  8
0
  6
ByBlock
 62
    5
370
   -2
100
AcDbTrace
 10
325.3115965742311
 20
412.1620866681499
 30
0
 11
325.4115965742311
 21
412.1787380544608
 31
0
 12
325.4115965742311
 22
412.145435281839
 32
0
 13
325.4115965742311
 23
412.145435281839
 33
0
  0
MTEXT
  5
258
100
AcDbEntity
  8
0
  6
CONTINUOUS
 62
    5
370
   -2
100
AcDbMText
 10
325.9115965742311
 20
412.4620866681499
 30
0
 40
0.2
 41
0.2777777777777778
 71
    5
 72
    1
  1
1,2
  7
standard
210
0
220
0
230
1
 50
360
 73
    2
 44
1
  0
LINE
  5
259
100
AcDbEntity
  8
0
  6
ByBlock
 62
    0
370
   -2
100
AcDbLine
 10
326.5115965742311
 20
412.0601653985925
 11
326.5115965742311
 21
412.2620866681499
  0
LINE
  5
25A
100
AcDbEntity
  8
0
  6
ByBlock
 62
    0
370
   -2
100
AcDbLine
 10
325.3115965742311
 20
412.0601653985926
 11
325.3115965742311
 21
412.2620866681499
  0
ENDBLK
  5
EF
330
ED
100
AcDbEntity
  8
0
100
AcDbBlockEnd
  0
BLOCK
  5
F1
330
F0
100
AcDbEntity
  8
0
100
AcDbBlockBegin
  2
*D49
 70
    1
 10
0
 20
0
  3
*D49
  1

  0
LINE
  5
25B
100
AcDbEntity
  8
0
  6
ByBlock
 62
    5
370
   -2
100
AcDbLine
 10
334.0086695754583
 20
409.5101653985923
 11
334.0086695754583
 21
412.8601653985924
  0
SOLID
  5
25C
100
AcDbEntity
  8
0
  6
ByBlock
 62
    5
370
   -2
100
AcDbTrace
 10
334.0086695754583
 20
409.5101653985923
 30
0
 11
333.9920181891474
 21
409.6101653985924
 31
0
 12
334.0253209617692
 22
409.6101653985924
 32
0
 13
334.0253209617692
 23
409.6101653985924
 33
0
  0
SOLID
  5
25D
100
AcDbEntity
  8
0
  6
ByBlock
 62
    5
370
   -2
100
AcDbTrace
 10
334.0086695754583
 20
412.8601653985924
 30
0
 11
334.0253209617692
 21
412.7601653985924
 31
0
 12
333.9920181891474
 22
412.7601653985924
 32
0
 13
333.9920181891474
 23
412.7601653985924
 33
0
  0
MTEXT
  5
25E
100
AcDbEntity
  8
0
  6
CONTINUOUS
 62
    5
370
   -2
100
AcDbMText
 10
333.7086695754583
 20
411.1851653985924
 30
0
 40
0.2
 41
0.477777777777815
 71
    5
 72
    1
  1
3,35
  7
standard
210
0
220
0
230
1
 50
90
 73
    2
 44
1
  0
LINE
  5
25F
100
AcDbEntity
  8
0
  6
ByBlock
 62
    0
370
   -2
100
AcDbLine
 10
333.4215965742314
 20
409.5101653985923
 11
334.1086695754583
 21
409.5101653985923
  0
LINE
  5
260
100
AcDbEntity
  8
0
  6
ByBlock
 62
    0
370
   -2
100
AcDbLine
 10
333.4215965742314
 20
412.8601653985924
 11
334.1086695754583
 21
412.8601653985924
  0
ENDBLK
  5
F2
330
F0
100
AcDbEntity
  8
0
100
AcDbBlockEnd
  0
BLOCK
  5
F4
330
F3
100
AcDbEntity
  8
0
100
AcDbBlockBegin
  2
*D32
 70
    1
 10
0
 20
0
  3
*D32
  1

  0
LINE
  5
261
100
AcDbEntity
  8
0
  6
ByBlock
 62
    5
370
   -2
100
AcDbLine
 10
321.8158444837134
 20
424.0623137407126
 11
321.8158444837134
 21
426.1723137407128
  0
SOLID
  5
262
100
AcDbEntity
  8
0
  6
ByBlock
 62
    5
370
   -2
100
AcDbTrace
 10
321.8158444837134
 20
424.0623137407126
 30
0
 11
321.7991930974025
 21
424.1623137407126
 31
0
 12
321.8324958700243
 22
424.1623137407126
 32
0
 13
321.8324958700243
 23
424.1623137407126
 33
0
  0
SOLID
  5
263
100
AcDbEntity
  8
0
  6
ByBlock
 62
    5
370
   -2
100
AcDbTrace
 10
321.8158444837134
 20
426.1723137407128
 30
0
 11
321.8324958700243
 21
426.0723137407128
 31
0
 12
321.7991930974025
 22
426.0723137407128
 32
0
 13
321.7991930974025
 23
426.0723137407128
 33
0
  0
MTEXT
  5
264
100
AcDbEntity
  8
0
  6
CONTINUOUS
 62
    5
370
   -2
100
AcDbMText
 10
321.5158444837134
 20
425.1173137407127
 30
0
 40
0.2
 41
0.3888888888888889
 71
    5
 72
    1
  1
2,11
  7
standard
210
0
220
0
230
1
 50
90
 73
    2
 44
1
  0
LINE
  5
265
100
AcDbEntity
  8
0
  6
ByBlock
 62
    0
370
   -2
100
AcDbLine
 10
321.9124314704887
 20
424.0623137407126
 11
321.7158444837134
 21
424.0623137407126
  0
LINE
  5
266
100
AcDbEntity
  8
0
  6
ByBlock
 62
    0
370
   -2
100
AcDbLine
 10
321.9124314704886
 20
426.1723137407128
 11
321.7158444837134
 21
426.1723137407128
  0
ENDBLK
  5
F5
330
F3
100
AcDbEntity
  8
0
100
AcDbBlockEnd
  0
BLOCK
  5
F7
330
F6
100
AcDbEntity
  8
0
100
AcDbBlockBegin
  2
*D38
 70
    1
 10
0
 20
0
  3
*D38
  1

  0
LINE
  5
267
100
AcDbEntity
  8
0
  6
ByBlock
 62
    5
370
   -2
100
AcDbLine
 10
316.7574548770494
 20
420.1723137407126
 11
316.7574548770494
 21
426.1723137407127
  0
SOLID
  5
268
100
AcDbEntity
  8
0
  6
ByBlock
 62
    5
370
   -2
100
AcDbTrace
 10
316.7574548770494
 20
420.1723137407126
 30
0
 11
316.7408034907385
 21
420.2723137407126
 31
0
 12
316.7741062633603
 22
420.2723137407126
 32
0
 13
316.7741062633603
 23
420.2723137407126
 33
0
  0
SOLID
  5
269
100
AcDbEntity
  8
0
  6
ByBlock
 62
    5
370
   -2
100
AcDbTrace
 10
316.7574548770494
 20
426.1723137407127
 30
0
 11
316.7741062633603
 21
426.0723137407127
 31
0
 12
316.7408034907385
 22
426.0723137407127
 32
0
 13
316.7408034907385
 23
426.0723137407127
 33
0
  0
MTEXT
  5
26A
100
AcDbEntity
  8
0
  6
CONTINUOUS
 62
    5
370
   -2
100
AcDbMText
 10
316.4574548770494
 20
423.1723137407126
 30
0
 40
0.2
 41
0.08888888888890129
 71
    5
 72
    1
  1
6
  7
standard
210
0
220
0
230
1
 50
90
 73
    2
 44
1
  0
LINE
  5
26B
100
AcDbEntity
  8
0
  6
ByBlock
 62
    0
370
   -2
100
AcDbLine
 10
318.5624314704885
 20
420.1723137407126
 11
316.6574548770494
 21
420.1723137407126
  0
LINE
  5
26C
100
AcDbEntity
  8
0
  6
ByBlock
 62
    0
370
   -2
100
AcDbLine
 10
318.5624314704885
 20
426.1723137407127
 11
316.6574548770494
 21
426.1723137407127
  0
ENDBLK
  5
F8
330
F6
100
AcDbEntity
  8
0
100
AcDbBlockEnd
  0
BLOCK
  5
FA
330
F9
100
AcDbEntity
  8
0
100
AcDbBlockBegin
  2
*D4
 70
    1
 10
0
 20
0
  3
*D4
  1

  0
LINE
  5
26D
100
AcDbEntity
  8
0
  6
ByBlock
 62
    5
370
   -2
100
AcDbLine
 10
329.3247425174242
 20
421.9423137407127
 11
329.3247425174242
 21
424.1423137407128
  0
SOLID
  5
26E
100
AcDbEntity
  8
0
  6
ByBlock
 62
    5
370
   -2
100
AcDbTrace
 10
329.3247425174242
 20
421.9423137407127
 30
0
 11
329.3080911311133
 21
422.0423137407127
 31
0
 12
329.3413939037351
 22
422.0423137407127
 32
0
 13
329.3413939037351
 23
422.0423137407127
 33
0
  0
SOLID
  5
26F
100
AcDbEntity
  8
0
  6
ByBlock
 62
    5
370
   -2
100
AcDbTrace
 10
329.3247425174242
 20
424.1423137407128
 30
0
 11
329.3413939037351
 21
424.0423137407128
 31
0
 12
329.3080911311133
 22
424.0423137407128
 32
0
 13
329.3080911311133
 23
424.0423137407128
 33
0
  0
MTEXT
  5
270
100
AcDbEntity
  8
0
  6
CONTINUOUS
 62
    5
370
   -2
100
AcDbMText
 10
329.0247425174242
 20
423.0423137407128
 30
0
 40
0.2
 41
0.3222222222222222
 71
    5
 72
    1
  1
2,2
  7
standard
210
0
220
0
230
1
 50
90
 73
    2
 44
1
  0
LINE
  5
271
100
AcDbEntity
  8
0
  6
ByBlock
 62
    0
370
   -2
100
AcDbLine
 10
328.6124314704885
 20
421.9423137407127
 11
329.4247425174242
 21
421.9423137407127
  0
LINE
  5
272
100
AcDbEntity
  8
0
  6
ByBlock
 62
    0
370
   -2
100
AcDbLine
 10
328.6124314704885
 20
424.1423137407128
 11
329.4247425174242
 21
424.1423137407128
  0
ENDBLK
  5
FB
330
F9
100
AcDbEntity
  8
0
100
AcDbBlockEnd
  0
BLOCK
  5
FD
330
FC
100
AcDbEntity
  8
0
100
AcDbBlockBegin
  2
*D56
 70
    1
 10
0
 20
0
  3
*D56
  1

  0
LINE
  5
273
100
AcDbEntity
  8
0
  6
ByBlock
 62
    5
370
   -2
100
AcDbLine
 10
325.3115965742311
 20
408.6719648401974
 11
326.511596574231
 21
408.6719648401974
  0
SOLID
  5
274
100
AcDbEntity
  8
0
  6
ByBlock
 62
    5
370
   -2
100
AcDbTrace
 10
325.3115965742311
 20
408.6719648401974
 30
0
 11
325.4115965742311
 21
408.6886162265083
 31
0
 12
325.4115965742311
 22
408.6553134538865
 32
0
 13
325.4115965742311
 23
408.6553134538865
 33
0
  0
SOLID
  5
275
100
AcDbEntity
  8
0
  6
ByBlock
 62
    5
370
   -2
100
AcDbTrace
 10
326.511596574231
 20
408.6719648401974
 30
0
 11
326.411596574231
 21
408.6553134538865
 31
0
 12
326.411596574231
 22
408.6886162265083
 32
0
 13
326.411596574231
 23
408.6886162265083
 33
0
  0
MTEXT
  5
276
100
AcDbEntity
  8
0
  6
CONTINUOUS
 62
    5
370
   -2
100
AcDbMText
 10
325.9115965742311
 20
408.9719648401974
 30
0
 40
0.2
 41
0.2777777777777778
 71
    5
 72
    1
  1
1,2
  7
standard
210
0
220
0
230
1
 50
0
 73
    2
 44
1
  0
LINE
  5
277
100
AcDbEntity
  8
0
  6
ByBlock
 62
    0
370
   -2
100
AcDbLine
 10
325.3115965742311
 20
408.7101653985922
 11
325.3115965742311
 21
408.7719648401974
  0
LINE
  5
278
100
AcDbEntity
  8
0
  6
ByBlock
 62
    0
370
   -2
100
AcDbLine
 10
326.511596574231
 20
408.7101653985922
 11
326.511596574231
 21
408.7719648401974
  0
ENDBLK
  5
FE
330
FC
100
AcDbEntity
  8
0
100
AcDbBlockEnd
  0
BLOCK
  5
100
330
FF
100
AcDbEntity
  8
0
100
AcDbBlockBegin
  2
*D3
 70
    1
 10
0
 20
0
  3
*D3
  1

  0
LINE
  5
279
100
AcDbEntity
  8
0
  6
ByBlock
 62
    5
370
   -2
100
AcDbLine
 10
326.1803646519564
 20
425.0123137407127
 11
326.1803646519564
 21
426.1723137407128
  0
SOLID
  5
27A
100
AcDbEntity
  8
0
  6
ByBlock
 62
    5
370
   -2
100
AcDbTrace
 10
326.1803646519564
 20
425.0123137407127
 30
0
 11
326.1637132656455
 21
425.1123137407128
 31
0
 12
326.1970160382673
 22
425.1123137407128
 32
0
 13
326.1970160382673
 23
425.1123137407128
 33
0
  0
SOLID
  5
27B
100
AcDbEntity
  8
0
  6
ByBlock
 62
    5
370
   -2
100
AcDbTrace
 10
326.1803646519564
 20
426.1723137407128
 30
0
 11
326.1970160382673
 21
426.0723137407128
 31
0
 12
326.1637132656455
 22
426.0723137407128
 32
0
 13
326.1637132656455
 23
426.0723137407128
 33
0
  0
MTEXT
  5
27C
100
AcDbEntity
  8
0
  6
CONTINUOUS
 62
    5
370
   -2
100
AcDbMText
 10
325.8803646519564
 20
425.5923137407128
 30
0
 40
0.2
 41
0.3888888888889013
 71
    5
 72
    1
  1
1,16
  7
standard
210
0
220
0
230
1
 50
90
 73
    2
 44
1
  0
LINE
  5
27D
100
AcDbEntity
  8
0
  6
ByBlock
 62
    0
370
   -2
100
AcDbLine
 10
325.4624314704885
 20
425.0123137407127
 11
326.2803646519564
 21
425.0123137407127
  0
LINE
  5
27E
100
AcDbEntity
  8
0
  6
ByBlock
 62
    0
370
   -2
100
AcDbLine
 10
325.4624314704885
 20
426.1723137407128
 11
326.2803646519564
 21
426.1723137407128
  0
ENDBLK
  5
101
330
FF
100
AcDbEntity
  8
0
100
AcDbBlockEnd
  0
BLOCK
  5
103
330
102
100
AcDbEntity
  8
0
100
AcDbBlockBegin
  2
*D12
 70
    1
 10
0
 20
0
  3
*D12
  1

  0
LINE
  5
27F
100
AcDbEntity
  8
0
  6
ByBlock
 62
    5
370
   -2
100
AcDbLine
 10
328.4024314704884
 20
426.7466089996946
 11
331.3024314704883
 21
426.7466089996946
  0
SOLID
  5
280
100
AcDbEntity
  8
0
  6
ByBlock
 62
    5
370
   -2
100
AcDbTrace
 10
328.4024314704884
 20
426.7466089996946
 30
0
 11
328.5024314704884
 21
426.7632603860055
 31
0
 12
328.5024314704884
 22
426.7299576133837
 32
0
 13
328.5024314704884
 23
426.7299576133837
 33
0
  0
SOLID
  5
281
100
AcDbEntity
  8
0
  6
ByBlock
 62
    5
370
   -2
100
AcDbTrace
 10
331.3024314704883
 20
426.7466089996946
 30
0
 11
331.2024314704882
 21
426.7299576133837
 31
0
 12
331.2024314704882
 22
426.7632603860055
 32
0
 13
331.2024314704882
 23
426.7632603860055
 33
0
  0
MTEXT
  5
282
100
AcDbEntity
  8
0
  6
CONTINUOUS
 62
    5
370
   -2
100
AcDbMText
 10
329.8524314704883
 20
427.0466089996946
 30
0
 40
0.2
 41
0.3222222222222222
 71
    5
 72
    1
  1
2,9
  7
standard
210
0
220
0
230
1
 50
0
 73
    2
 44
1
  0
LINE
  5
283
100
AcDbEntity
  8
0
  6
ByBlock
 62
    0
370
   -2
100
AcDbLine
 10
328.4024314704884
 20
426.5223137407127
 11
328.4024314704884
 21
426.8466089996946
  0
LINE
  5
284
100
AcDbEntity
  8
0
  6
ByBlock
 62
    0
370
   -2
100
AcDbLine
 10
331.3024314704883
 20
426.5223137407127
 11
331.3024314704883
 21
426.8466089996946
  0
ENDBLK
  5
104
330
102
100
AcDbEntity
  8
0
100
AcDbBlockEnd
  0
BLOCK
  5
106
330
105
100
AcDbEntity
  8
0
100
AcDbBlockBegin
  2
*D63
 70
    1
 10
0
 20
0
  3
*D63
  1

  0
LINE
  5
285
100
AcDbEntity
  8
0
  6
ByBlock
 62
    5
370
   -2
100
AcDbLine
 10
322.3215965742313
 20
413.2735190904388
 11
325.1615965742313
 21
413.2735190904388
  0
SOLID
  5
286
100
AcDbEntity
  8
0
  6
ByBlock
 62
    5
370
   -2
100
AcDbTrace
 10
322.3215965742313
 20
413.2735190904388
 30
0
 11
322.4215965742313
 21
413.2901704767497
 31
0
 12
322.4215965742313
 22
413.2568677041279
 32
0
 13
322.4215965742313
 23
413.2568677041279
 33
0
  0
SOLID
  5
287
100
AcDbEntity
  8
0
  6
ByBlock
 62
    5
370
   -2
100
AcDbTrace
 10
325.1615965742313
 20
413.2735190904388
 30
0
 11
325.0615965742313
 21
413.2568677041279
 31
0
 12
325.0615965742313
 22
413.2901704767497
 32
0
 13
325.0615965742313
 23
413.2901704767497
 33
0
  0
MTEXT
  5
288
100
AcDbEntity
  8
0
  6
CONTINUOUS
 62
    5
370
   -2
100
AcDbMText
 10
323.7415965742313
 20
413.5735190904388
 30
0
 40
0.2
 41
0.5
 71
    5
 72
    1
  1
2,84
  7
standard
210
0
220
0
230
1
 50
0
 73
    2
 44
1
  0
LINE
  5
289
100
AcDbEntity
  8
0
  6
ByBlock
 62
    0
370
   -2
100
AcDbLine
 10
322.3215965742313
 20
413.0601653985925
 11
322.3215965742313
 21
413.3735190904388
  0
LINE
  5
28A
100
AcDbEntity
  8
0
  6
ByBlock
 62
    0
370
   -2
100
AcDbLine
 10
325.1615965742313
 20
413.0601653985925
 11
325.1615965742313
 21
413.3735190904388
  0
ENDBLK
  5
107
330
105
100
AcDbEntity
  8
0
100
AcDbBlockEnd
  0
BLOCK
  5
109
330
108
100
AcDbEntity
  8
0
100
AcDbBlockBegin
  2
*D2
 70
    1
 10
0
 20
0
  3
*D2
  1

  0
LINE
  5
28B
100
AcDbEntity
  8
0
  6
ByBlock
 62
    5
370
   -2
100
AcDbLine
 10
323.5990475786884
 20
420.1723137407126
 11
323.5990475786884
 21
423.1623137407126
  0
SOLID
  5
28C
100
AcDbEntity
  8
0
  6
ByBlock
 62
    5
370
   -2
100
AcDbTrace
 10
323.5990475786884
 20
420.1723137407126
 30
0
 11
323.5823961923775
 21
420.2723137407126
 31
0
 12
323.6156989649993
 22
420.2723137407126
 32
0
 13
323.6156989649993
 23
420.2723137407126
 33
0
  0
SOLID
  5
28D
100
AcDbEntity
  8
0
  6
ByBlock
 62
    5
370
   -2
100
AcDbTrace
 10
323.5990475786884
 20
423.1623137407126
 30
0
 11
323.6156989649993
 21
423.0623137407126
 31
0
 12
323.5823961923775
 22
423.0623137407126
 32
0
 13
323.5823961923775
 23
423.0623137407126
 33
0
  0
MTEXT
  5
28E
100
AcDbEntity
  8
0
  6
CONTINUOUS
 62
    5
370
   -2
100
AcDbMText
 10
323.2990475786884
 20
421.6673137407126
 30
0
 40
0.2
 41
0.4777777777777778
 71
    5
 72
    1
  1
2,99
  7
standard
210
0
220
0
230
1
 50
90
 73
    2
 44
1
  0
LINE
  5
28F
100
AcDbEntity
  8
0
  6
ByBlock
 62
    0
370
   -2
100
AcDbLine
 10
322.9924314704885
 20
420.1723137407126
 11
323.6990475786884
 21
420.1723137407126
  0
LINE
  5
290
100
AcDbEntity
  8
0
  6
ByBlock
 62
    0
370
   -2
100
AcDbLine
 10
322.9924314704885
 20
423.1623137407126
 11
323.6990475786884
 21
423.1623137407126
  0
ENDBLK
  5
10A
330
108
100
AcDbEntity
  8
0
100
AcDbBlockEnd
  0
BLOCK
  5
10C
330
10B
100
AcDbEntity
  8
0
100
AcDbBlockBegin
  2
*D42
 70
    1
 10
0
 20
0
  3
*D42
  1

  0
LINE
  5
291
100
AcDbEntity
  8
0
  6
ByBlock
 62
    5
370
   -2
100
AcDbLine
 10
317.7437149706762
 20
409.8501653985923
 11
317.7437149706762
 21
412.8601653985924
  0
SOLID
  5
292
100
AcDbEntity
  8
0
  6
ByBlock
 62
    5
370
   -2
100
AcDbTrace
 10
317.7437149706762
 20
409.8501653985923
 30
0
 11
317.7270635843653
 21
409.9501653985923
 31
0
 12
317.7603663569871
 22
409.9501653985923
 32
0
 13
317.7603663569871
 23
409.9501653985923
 33
0
  0
SOLID
  5
293
100
AcDbEntity
  8
0
  6
ByBlock
 62
    5
370
   -2
100
AcDbTrace
 10
317.7437149706762
 20
412.8601653985924
 30
0
 11
317.7603663569871
 21
412.7601653985924
 31
0
 12
317.7270635843653
 22
412.7601653985924
 32
0
 13
317.7270635843653
 23
412.7601653985924
 33
0
  0
MTEXT
  5
294
100
AcDbEntity
  8
0
  6
CONTINUOUS
 62
    5
370
   -2
100
AcDbMText
 10
317.4437149706762
 20
411.3551653985923
 30
0
 40
0.2
 41
0.4333333333333458
 71
    5
 72
    1
  1
3,01
  7
standard
210
0
220
0
230
1
 50
90
 73
    2
 44
1
  0
LINE
  5
295
100
AcDbEntity
  8
0
  6
ByBlock
 62
    0
370
   -2
100
AcDbLine
 10
318.6215965742313
 20
409.8501653985923
 11
317.6437149706762
 21
409.8501653985923
  0
LINE
  5
296
100
AcDbEntity
  8
0
  6
ByBlock
 62
    0
370
   -2
100
AcDbLine
 10
318.6215965742313
 20
412.8601653985924
 11
317.6437149706762
 21
412.8601653985924
  0
ENDBLK
  5
10D
330
10B
100
AcDbEntity
  8
0
100
AcDbBlockEnd
  0
BLOCK
  5
10F
330
10E
100
AcDbEntity
  8
0
100
AcDbBlockBegin
  2
*D15
 70
    1
 10
0
 20
0
  3
*D15
  1

  0
LINE
  5
297
100
AcDbEntity
  8
0
  6
ByBlock
 62
    5
370
   -2
100
AcDbLine
 10
322.7924314704885
 20
419.4231438189941
 11
325.1024314704885
 21
419.4231438189941
  0
SOLID
  5
298
100
AcDbEntity
  8
0
  6
ByBlock
 62
    5
370
   -2
100
AcDbTrace
 10
322.7924314704885
 20
419.4231438189941
 30
0
 11
322.8924314704885
 21
419.439795205305
 31
0
 12
322.8924314704885
 22
419.4064924326832
 32
0
 13
322.8924314704885
 23
419.4064924326832
 33
0
  0
SOLID
  5
299
100
AcDbEntity
  8
0
  6
ByBlock
 62
    5
370
   -2
100
AcDbTrace
 10
325.1024314704885
 20
419.4231438189941
 30
0
 11
325.0024314704885
 21
419.4064924326832
 31
0
 12
325.0024314704885
 22
419.439795205305
 32
0
 13
325.0024314704885
 23
419.439795205305
 33
0
  0
MTEXT
  5
29A
100
AcDbEntity
  8
0
  6
CONTINUOUS
 62
    5
370
   -2
100
AcDbMText
 10
323.9474314704885
 20
419.7231438189941
 30
0
 40
0.2
 41
0.4333333333333458
 71
    5
 72
    1
  1
2,31
  7
standard
210
0
220
0
230
1
 50
0
 73
    2
 44
1
  0
LINE
  5
29B
100
AcDbEntity
  8
0
  6
ByBlock
 62
    0
370
   -2
100
AcDbLine
 10
322.7924314704885
 20
419.8223137407127
 11
322.7924314704885
 21
419.3231438189941
  0
LINE
  5
29C
100
AcDbEntity
  8
0
  6
ByBlock
 62
    0
370
   -2
100
AcDbLine
 10
325.1024314704885
 20
419.8223137407127
 11
325.1024314704885
 21
419.3231438189941
  0
ENDBLK
  5
110
330
10E
100
AcDbEntity
  8
0
100
AcDbBlockEnd
  0
BLOCK
  5
112
330
111
100
AcDbEntity
  8
0
100
AcDbBlockBegin
  2
*D43
 70
    1
 10
0
 20
0
  3
*D43
  1

  0
LINE
  5
29D
100
AcDbEntity
  8
0
  6
ByBlock
 62
    5
370
   -2
100
AcDbLine
 10
317.7437149706762
 20
406.8601653985923
 11
317.7437149706762
 21
409.7001653985923
  0
SOLID
  5
29E
100
AcDbEntity
  8
0
  6
ByBlock
 62
    5
370
   -2
100
AcDbTrace
 10
317.7437149706762
 20
406.8601653985923
 30
0
 11
317.7270635843653
 21
406.9601653985923
 31
0
 12
317.7603663569871
 22
406.9601653985923
 32
0
 13
317.7603663569871
 23
406.9601653985923
 33
0
  0
SOLID
  5
29F
100
AcDbEntity
  8
0
  6
ByBlock
 62
    5
370
   -2
100
AcDbTrace
 10
317.7437149706762
 20
409.7001653985923
 30
0
 11
317.7603663569871
 21
409.6001653985923
 31
0
 12
317.7270635843653
 22
409.6001653985923
 32
0
 13
317.7270635843653
 23
409.6001653985923
 33
0
  0
MTEXT
  5
2A0
100
AcDbEntity
  8
0
  6
CONTINUOUS
 62
    5
370
   -2
100
AcDbMText
 10
317.4437149706762
 20
408.2801653985923
 30
0
 40
0.2
 41
0.5
 71
    5
 72
    1
  1
2,84
  7
standard
210
0
220
0
230
1
 50
90
 73
    2
 44
1
  0
LINE
  5
2A1
100
AcDbEntity
  8
0
  6
ByBlock
 62
    0
370
   -2
100
AcDbLine
 10
318.6215965742313
 20
406.8601653985923
 11
317.6437149706762
 21
406.8601653985923
  0
LINE
  5
2A2
100
AcDbEntity
  8
0
  6
ByBlock
 62
    0
370
   -2
100
AcDbLine
 10
318.6215965742313
 20
409.7001653985923
 11
317.6437149706762
 21
409.7001653985923
  0
ENDBLK
  5
113
330
111
100
AcDbEntity
  8
0
100
AcDbBlockEnd
  0
BLOCK
  5
115
330
114
100
AcDbEntity
  8
0
100
AcDbBlockBegin
  2
*D51
 70
    1
 10
0
 20
0
  3
*D51
  1

  0
LINE
  5
2A3
100
AcDbEntity
  8
0
  6
ByBlock
 62
    5
370
   -2
100
AcDbLine
 10
331.6884643805819
 20
406.8601653985922
 11
331.6884643805819
 21
408.3601653985922
  0
SOLID
  5
2A4
100
AcDbEntity
  8
0
  6
ByBlock
 62
    5
370
   -2
100
AcDbTrace
 10
331.6884643805819
 20
406.8601653985922
 30
0
 11
331.671812994271
 21
406.9601653985923
 31
0
 12
331.7051157668928
 22
406.9601653985923
 32
0
 13
331.7051157668928
 23
406.9601653985923
 33
0
  0
SOLID
  5
2A5
100
AcDbEntity
  8
0
  6
ByBlock
 62
    5
370
   -2
100
AcDbTrace
 10
331.6884643805819
 20
408.3601653985922
 30
0
 11
331.7051157668928
 21
408.2601653985922
 31
0
 12
331.671812994271
 22
408.2601653985922
 32
0
 13
331.671812994271
 23
408.2601653985922
 33
0
  0
MTEXT
  5
2A6
100
AcDbEntity
  8
0
  6
CONTINUOUS
 62
    5
370
   -2
100
AcDbMText
 10
331.3884643805819
 20
407.6101653985922
 30
0
 40
0.2
 41
0.2777777777777902
 71
    5
 72
    1
  1
1,5
  7
standard
210
0
220
0
230
1
 50
90
 73
    2
 44
1
  0
LINE
  5
2A7
100
AcDbEntity
  8
0
  6
ByBlock
 62
    0
370
   -2
100
AcDbLine
 10
331.6715965742314
 20
406.8601653985922
 11
331.5884643805819
 21
406.8601653985922
  0
LINE
  5
2A8
100
AcDbEntity
  8
0
  6
ByBlock
 62
    0
370
   -2
100
AcDbLine
 10
331.6715965742314
 20
408.3601653985922
 11
331.5884643805819
 21
408.3601653985922
  0
ENDBLK
  5
116
330
114
100
AcDbEntity
  8
0
100
AcDbBlockEnd
  0
ENDSEC
  0
SECTION
  2
ENTITIES
  0
LINE
  5
2A9
100
AcDbEntity
  8
0
  6
ByLayer
 62
  256
370
   -1
100
AcDbLine
 10
333.3124314704885
 20
420.0223137407127
 11
318.6124314704886
 21
420.0223137407127
  0
LINE
  5
2AA
100
AcDbEntity
  8
0
  6
ByLayer
 62
  256
370
   -1
100
AcDbLine
 10
318.6124314704886
 20
420.0223137407127
 11
318.6124314704886
 21
426.3223137407127
  0
LINE
  5
2AB
100
AcDbEntity
  8
0
  6
ByLayer
 62
  256
370
   -1
100
AcDbLine
 10
318.6124314704886
 20
426.3223137407127
 11
333.3124314704885
 21
426.3223137407127
  0
LINE
  5
2AC
100
AcDbEntity
  8
0
  6
ByLayer
 62
  256
370
   -1
100
AcDbLine
 10
333.3124314704885
 20
426.3223137407127
 11
333.3124314704885
 21
420.0223137407127
  0
LINE
  5
2AD
100
AcDbEntity
  8
0
  6
ByLayer
 62
  256
370
   -1
100
AcDbLine
 10
328.4124314704885
 20
424.5423137407128
 11
330.1424314704885
 21
424.5423137407127
  0
LINE
  5
2AE
100
AcDbEntity
  8
0
  6
ByLayer
 62
  256
370
   -1
100
AcDbLine
 10
328.4124314704885
 20
424.1423137407128
 11
330.1424314704885
 21
424.1423137407127
  0
LINE
  5
2AF
100
AcDbEntity
  8
0
  6
ByLayer
 62
  256
370
   -1
100
AcDbLine
 10
330.1424314704885
 20
424.1423137407127
 11
330.1424314704885
 21
424.5423137407127
  0
LINE
  5
2B0
100
AcDbEntity
  8
0
  6
ByLayer
 62
  256
370
   -1
100
AcDbLine
 10
328.2624314704885
 20
421.9423137407127
 11
328.4124314704885
 21
421.9423137407127
  0
DIMENSION
  5
2B1
100
AcDbEntity
  8
0
  6
ByLayer
 62
  256
370
   -1
100
AcDbDimension
  2
*D1
 10
324.5801816698853
 20
424.8623137407126
 30
0
 11
324.2801816698853
 21
423.4023137407127
 31
0
 70
   32
 71
    5
  3
Standard
 53
0
210
0
220
0
230
1
100
AcDbAlignedDimension
 13
325.1124314704886
 23
421.9423137407127
 33
0
 14
325.1124314704886
 24
424.8623137407126
 34
0
 50
90
100
AcDbRotatedDimension
  0
DIMENSION
  5
2B2
100
AcDbEntity
  8
0
  6
ByLayer
 62
  256
370
   -1
100
AcDbDimension
  2
*D2
 10
323.5990475786884
 20
423.1623137407126
 30
0
 11
323.2990475786884
 21
421.6673137407126
 31
0
 70
   32
 71
    5
  3
Standard
 53
0
210
0
220
0
230
1
100
AcDbAlignedDimension
 13
322.7924314704885
 23
420.1723137407126
 33
0
 14
322.7924314704885
 24
423.1623137407126
 34
0
 50
90
100
AcDbRotatedDimension
  0
DIMENSION
  5
2B3
100
AcDbEntity
  8
0
  6
ByLayer
 62
  256
370
   -1
100
AcDbDimension
  2
*D3
 10
326.1803646519564
 20
426.1723137407128
 30
0
 11
325.8803646519564
 21
425.5923137407128
 31
0
 70
   32
 71
    5
  3
Standard
 53
0
210
0
220
0
230
1
100
AcDbAlignedDimension
 13
325.2624314704885
 23
425.0123137407127
 33
0
 14
325.2624314704885
 24
426.1723137407128
 34
0
 50
90
100
AcDbRotatedDimension
  0
DIMENSION
  5
2B4
100
AcDbEntity
  8
0
  6
ByLayer
 62
  256
370
   -1
100
AcDbDimension
  2
*D4
 10
329.3247425174242
 20
424.1423137407128
 30
0
 11
329.0247425174242
 21
423.0423137407128
 31
0
 70
   32
 71
    5
  3
Standard
 53
0
210
0
220
0
230
1
100
AcDbAlignedDimension
 13
328.4124314704885
 23
421.9423137407127
 33
0
 14
328.4124314704885
 24
424.1423137407128
 34
0
 50
90
100
AcDbRotatedDimension
  0
DIMENSION
  5
2B5
100
AcDbEntity
  8
0
  6
ByLayer
 62
  256
370
   -1
100
AcDbDimension
  2
*D5
 10
329.3247425174242
 20
426.1723137407129
 30
0
 11
329.0247425174242
 21
425.3573137407129
 31
0
 70
   32
 71
    5
  3
Standard
 53
0
210
0
220
0
230
1
100
AcDbAlignedDimension
 13
328.4124314704885
 23
424.5423137407129
 33
0
 14
328.4124314704885
 24
426.1723137407129
 34
0
 50
90
100
AcDbRotatedDimension
  0
DIMENSION
  5
2B6
100
AcDbEntity
  8
0
  6
ByLayer
 62
  256
370
   -1
100
AcDbDimension
  2
*D6
 10
330.9214061111121
 20
426.1723137407127
 30
0
 11
330.6214061111121
 21
423.1723137407126
 31
0
 70
   32
 71
    5
  3
Standard
 53
0
210
0
220
0
230
1
100
AcDbAlignedDimension
 13
331.3124314704885
 23
420.1723137407126
 33
0
 14
331.3124314704885
 24
426.1723137407127
 34
0
 50
90
100
AcDbRotatedDimension
  0
DIMENSION
  5
2B7
100
AcDbEntity
  8
0
  6
ByLayer
 62
  256
370
   -1
100
AcDbDimension
  2
*D7
 10
330.7497218537263
 20
424.5423137407127
 30
0
 11
330.4497218537263
 21
424.3423137407127
 31
0
 70
   32
 71
    5
  3
Standard
 53
0
210
0
220
0
230
1
100
AcDbAlignedDimension
 13
330.1424314704885
 23
424.1423137407127
 33
0
 14
330.1424314704885
 24
424.5423137407127
 34
0
 50
90
100
AcDbRotatedDimension
  0
DIMENSION
  5
2B8
100
AcDbEntity
  8
0
  6
ByLayer
 62
  256
370
   -1
100
AcDbDimension
  2
*D8
 10
322.7924314704885
 20
423.3377403609533
 30
0
 11
322.5274314704885
 21
423.6377403609533
 31
0
 70
   32
 71
    5
  3
Standard
 53
0
210
0
220
0
230
1
100
AcDbAlignedDimension
 13
322.2624314704885
 23
423.1623137407126
 33
0
 14
322.7924314704885
 24
423.1623137407126
 34
0
100
AcDbRotatedDimension
  0
DIMENSION
  5
2B9
100
AcDbEntity
  8
0
  6
ByLayer
 62
  256
370
   -1
100
AcDbDimension
  2
*D9
 10
333.3124314704885
 20
427.5164027454043
 30
0
 11
325.9624314704886
 21
427.8164027454043
 31
0
 70
   32
 71
    5
  3
Standard
 53
0
210
0
220
0
230
1
100
AcDbAlignedDimension
 13
318.6124314704886
 23
426.3223137407127
 33
0
 14
333.3124314704885
 24
426.3223137407127
 34
0
100
AcDbRotatedDimension
  0
DIMENSION
  5
2BA
100
AcDbEntity
  8
0
  6
ByLayer
 62
  256
370
   -1
100
AcDbDimension
  2
*D10
 10
325.1024314704885
 20
426.7524439471685
 30
0
 11
323.6824314704885
 21
427.0524439471685
 31
0
 70
   32
 71
    5
  3
Standard
 53
0
210
0
220
0
230
1
100
AcDbAlignedDimension
 13
322.2624314704885
 23
426.3223137407127
 33
0
 14
325.1024314704885
 24
426.3223137407127
 34
0
100
AcDbRotatedDimension
  0
DIMENSION
  5
2BB
100
AcDbEntity
  8
0
  6
ByLayer
 62
  256
370
   -1
100
AcDbDimension
  2
*D11
 10
328.2524314704884
 20
426.7524439471685
 30
0
 11
326.7524314704884
 21
427.0524439471685
 31
0
 70
   32
 71
    5
  3
Standard
 53
0
210
0
220
0
230
1
100
AcDbAlignedDimension
 13
325.2524314704884
 23
426.3223137407127
 33
0
 14
328.2524314704884
 24
426.3223137407127
 34
0
100
AcDbRotatedDimension
  0
DIMENSION
  5
2BC
100
AcDbEntity
  8
0
  6
ByLayer
 62
  256
370
   -1
100
AcDbDimension
  2
*D12
 10
331.3024314704883
 20
426.7466089996946
 30
0
 11
329.8524314704883
 21
427.0466089996946
 31
0
 70
   32
 71
    5
  3
Standard
 53
0
210
0
220
0
230
1
100
AcDbAlignedDimension
 13
328.4024314704884
 23
426.3223137407127
 33
0
 14
331.3024314704883
 24
426.3223137407127
 34
0
100
AcDbRotatedDimension
  0
DIMENSION
  5
2BD
100
AcDbEntity
  8
0
  6
ByLayer
 62
  256
370
   -1
100
AcDbDimension
  2
*D13
 10
322.1124314704886
 20
426.7524439471831
 30
0
 11
320.4374314704885
 21
427.0524439471831
 31
0
 70
   32
 71
    5
  3
Standard
 53
0
210
0
220
0
230
1
100
AcDbAlignedDimension
 13
318.7624314704885
 23
426.3223137407127
 33
0
 14
322.1124314704886
 24
426.3223137407127
 34
0
100
AcDbRotatedDimension
  0
DIMENSION
  5
2BE
100
AcDbEntity
  8
0
  6
ByLayer
 62
  256
370
   -1
100
AcDbDimension
  2
*D14
 10
322.6424314704885
 20
419.4279412141905
 30
0
 11
320.7024314704885
 21
419.7279412141905
 31
0
 70
   32
 71
    5
  3
Standard
 53
0
210
0
220
0
230
1
100
AcDbAlignedDimension
 13
318.7624314704885
 23
420.0223137407127
 33
0
 14
322.6424314704885
 24
420.0223137407127
 34
0
100
AcDbRotatedDimension
  0
DIMENSION
  5
2BF
100
AcDbEntity
  8
0
  6
ByLayer
 62
  256
370
   -1
100
AcDbDimension
  2
*D15
 10
325.1024314704885
 20
419.4231438189941
 30
0
 11
323.9474314704885
 21
419.7231438189941
 31
0
 70
   32
 71
    5
  3
Standard
 53
0
210
0
220
0
230
1
100
AcDbAlignedDimension
 13
322.7924314704885
 23
420.0223137407127
 33
0
 14
325.1024314704885
 24
420.0223137407127
 34
0
100
AcDbRotatedDimension
  0
DIMENSION
  5
2C0
100
AcDbEntity
  8
0
  6
ByLayer
 62
  256
370
   -1
100
AcDbDimension
  2
*D16
 10
328.2524314704884
 20
419.4200368943797
 30
0
 11
326.7524314704884
 21
419.7200368943797
 31
0
 70
   32
 71
    5
  3
Standard
 53
0
210
0
220
0
230
1
100
AcDbAlignedDimension
 13
325.2524314704884
 23
420.0223137407127
 33
0
 14
328.2524314704884
 24
420.0223137407127
 34
0
100
AcDbRotatedDimension
  0
DIMENSION
  5
2C1
100
AcDbEntity
  8
0
  6
ByLayer
 62
  256
370
   -1
100
AcDbDimension
  2
*D17
 10
331.3024314704883
 20
419.4200368943797
 30
0
 11
329.8524314704883
 21
419.7200368943797
 31
0
 70
   32
 71
    5
  3
Standard
 53
0
210
0
220
0
230
1
100
AcDbAlignedDimension
 13
328.4024314704884
 23
420.0223137407127
 33
0
 14
331.3024314704883
 24
420.0223137407127
 34
0
100
AcDbRotatedDimension
  0
DIMENSION
  5
2C2
100
AcDbEntity
  8
0
  6
ByLayer
 62
  256
370
   -1
100
AcDbDimension
  2
*D18
 10
333.1624314704886
 20
419.4259997718601
 30
0
 11
332.3074314704885
 21
419.7259997718601
 31
0
 70
   32
 71
    5
  3
Standard
 53
0
210
0
220
0
230
1
100
AcDbAlignedDimension
 13
331.4524314704884
 23
420.0223137407127
 33
0
 14
333.1624314704886
 24
420.0223137407127
 34
0
100
AcDbRotatedDimension
  0
DIMENSION
  5
2C3
100
AcDbEntity
  8
0
  6
ByLayer
 62
  256
370
   -1
100
AcDbDimension
  2
*D19
 10
331.3024314704883
 20
418.489814727188
 30
0
 11
327.0474314704884
 21
418.789814727188
 31
0
 70
   32
 71
    5
  3
Standard
 53
0
210
0
220
0
230
1
100
AcDbAlignedDimension
 13
322.7924314704885
 23
420.0223137407127
 33
0
 14
331.3024314704883
 24
420.0223137407127
 34
0
100
AcDbRotatedDimension
  0
LINE
  5
2C4
100
AcDbEntity
  8
0
  6
ByLayer
 62
  256
370
   -1
100
AcDbLine
 10
322.1124314704886
 20
423.1623137407126
 11
318.7624314704885
 21
423.1623137407126
  0
LINE
  5
2C5
100
AcDbEntity
  8
0
  6
ByLayer
 62
  256
370
   -1
100
AcDbLine
 10
322.1124314704886
 20
423.0123137407126
 11
318.7624314704885
 21
423.0123137407126
  0
LINE
  5
2C6
100
AcDbEntity
  8
0
  6
ByLayer
 62
  256
370
   -1
100
AcDbLine
 10
318.7624314704885
 20
420.1723137407126
 11
318.7624314704885
 21
423.0123137407126
  0
LINE
  5
2C7
100
AcDbEntity
  8
0
  6
ByLayer
 62
  256
370
   -1
100
AcDbLine
 10
322.6424314704885
 20
420.1723137407126
 11
318.7624314704885
 21
420.1723137407126
  0
LINE
  5
2C8
100
AcDbEntity
  8
0
  6
ByLayer
 62
  256
370
   -1
100
AcDbLine
 10
328.2524314704884
 20
420.1723137407126
 11
322.7924314704885
 21
420.1723137407126
  0
LINE
  5
2C9
100
AcDbEntity
  8
0
  6
ByLayer
 62
  256
370
   -1
100
AcDbLine
 10
328.4024314704884
 20
420.1723137407125
 11
328.2524314704884
 21
420.1723137407126
  0
LINE
  5
2CA
100
AcDbEntity
  8
0
  6
ByLayer
 62
  256
370
   -1
100
AcDbLine
 10
322.7924314704885
 20
423.1623137407126
 11
322.2624314704885
 21
423.1623137407126
  0
LINE
  5
2CB
100
AcDbEntity
  8
0
  6
ByLayer
 62
  256
370
   -1
100
AcDbLine
 10
322.2624314704885
 20
423.1623137407126
 11
322.1124314704886
 21
423.1623137407126
  0
LINE
  5
2CC
100
AcDbEntity
  8
0
  6
ByLayer
 62
  256
370
   -1
100
AcDbLine
 10
322.6424314704885
 20
423.0123137407126
 11
322.1124314704886
 21
423.0123137407126
  0
LINE
  5
2CD
100
AcDbEntity
  8
0
  6
ByLayer
 62
  256
370
   -1
100
AcDbLine
 10
318.7624314704885
 20
423.1623137407126
 11
318.7624314704885
 21
426.1723137407127
  0
LINE
  5
2CE
100
AcDbEntity
  8
0
  6
ByLayer
 62
  256
370
   -1
100
AcDbLine
 10
322.1124314704886
 20
424.8623137407126
 11
322.1124314704886
 21
426.1723137407128
  0
LINE
  5
2CF
100
AcDbEntity
  8
0
  6
ByLayer
 62
  256
370
   -1
100
AcDbLine
 10
318.7624314704885
 20
426.1723137407127
 11
322.1124314704886
 21
426.1723137407128
  0
LINE
  5
2D0
100
AcDbEntity
  8
0
  6
ByLayer
 62
  256
370
   -1
100
AcDbLine
 10
322.2624314704885
 20
426.1723137407128
 11
325.1024314704885
 21
426.1723137407128
  0
LINE
  5
2D1
100
AcDbEntity
  8
0
  6
ByLayer
 62
  256
370
   -1
100
AcDbLine
 10
318.7624314704885
 20
420.3723137407126
 11
318.6124314704886
 21
420.3723137407126
  0
LINE
  5
2D2
100
AcDbEntity
  8
0
  6
ByLayer
 62
  256
370
   -1
100
AcDbLine
 10
318.7624314704885
 20
422.8123137407126
 11
318.6124314704886
 21
422.8123137407126
  0
LINE
  5
2D3
100
AcDbEntity
  8
0
  6
ByLayer
 62
  256
370
   -1
100
AcDbLine
 10
318.7624314704885
 20
421.5923137407126
 11
318.6124314704886
 21
421.5923137407126
  0
LINE
  5
2D4
100
AcDbEntity
  8
0
  6
ByLayer
 62
  256
370
   -1
100
AcDbLine
 10
318.6874314704885
 20
420.3723137407126
 11
318.6874314704885
 21
422.8123137407126
  0
LINE
  5
2D5
100
AcDbEntity
  8
0
  6
ByLayer
 62
  256
370
   -1
100
AcDbLine
 10
322.7924314704885
 20
420.3323137407127
 11
322.6424314704884
 21
420.3323137407126
  0
LINE
  5
2D6
100
AcDbEntity
  8
0
  6
ByLayer
 62
  256
370
   -1
100
AcDbLine
 10
322.7924314704881
 20
421.2323137407126
 11
322.6424314704881
 21
421.2323137407126
  0
LINE
  5
2D7
100
AcDbEntity
  8
0
  6
ByLayer
 62
  256
370
   -1
100
AcDbLine
 10
322.7924314704885
 20
421.2323137407126
 11
322.7924314704885
 21
423.1623137407126
  0
LINE
  5
2D8
100
AcDbEntity
  8
0
  6
ByLayer
 62
  256
370
   -1
100
AcDbLine
 10
322.7924314704885
 20
420.1723137407126
 11
322.7924314704885
 21
420.3323137407127
  0
LINE
  5
2D9
100
AcDbEntity
  8
0
  6
ByLayer
 62
  256
370
   -1
100
AcDbLine
 10
322.6424314704885
 20
421.2323137407126
 11
322.6424314704885
 21
423.0123137407126
  0
LINE
  5
2DA
100
AcDbEntity
  8
0
  6
ByLayer
 62
  256
370
   -1
100
AcDbLine
 10
322.6424314704885
 20
420.1723137407126
 11
322.6424314704885
 21
420.3323137407126
  0
LINE
  5
2DB
100
AcDbEntity
  8
0
  6
ByLayer
 62
  256
370
   -1
100
AcDbLine
 10
319.7624314704885
 20
423.0123137407126
 11
319.7624314704885
 21
423.1623137407126
  0
LINE
  5
2DC
100
AcDbEntity
  8
0
  6
ByLayer
 62
  256
370
   -1
100
AcDbLine
 10
320.8624314704885
 20
423.0123137407126
 11
320.8624314704885
 21
423.1623137407126
  0
LINE
  5
2DD
100
AcDbEntity
  8
0
  6
ByLayer
 62
  256
370
   -1
100
AcDbLine
 10
320.3124314704885
 20
423.0123137407126
 11
320.3124314704885
 21
423.1623137407126
  0
LINE
  5
2DE
100
AcDbEntity
  8
0
  6
ByLayer
 62
  256
370
   -1
100
AcDbLine
 10
320.8624314704885
 20
423.0873137407126
 11
319.7624314704885
 21
423.0873137407126
  0
DIMENSION
  5
2DF
100
AcDbEntity
  8
0
  6
ByLayer
 62
  256
370
   -1
100
AcDbDimension
  2
*D20
 10
322.3198459952482
 20
421.2323137407126
 30
0
 11
322.0198459952482
 21
422.1223137407126
 31
0
 70
   32
 71
    5
  3
Standard
 53
0
210
0
220
0
230
1
100
AcDbAlignedDimension
 13
322.6424314704885
 23
423.0123137407126
 33
0
 14
322.6424314704885
 24
421.2323137407126
 34
0
 50
90
100
AcDbRotatedDimension
  0
LINE
  5
2E0
100
AcDbEntity
  8
0
  6
ByLayer
 62
  256
370
   -1
100
AcDbLine
 10
322.2624314704885
 20
423.2623137407126
 11
322.1124314704886
 21
423.2623137407126
  0
LINE
  5
2E1
100
AcDbEntity
  8
0
  6
ByLayer
 62
  256
370
   -1
100
AcDbLine
 10
322.2624314704885
 20
424.0623137407126
 11
322.1124314704886
 21
424.0623137407126
  0
LINE
  5
2E2
100
AcDbEntity
  8
0
  6
ByLayer
 62
  256
370
   -1
100
AcDbLine
 10
322.1124314704887
 20
424.0623137407126
 11
322.1124314704886
 21
424.8623137407126
  0
LINE
  5
2E3
100
AcDbEntity
  8
0
  6
ByLayer
 62
  256
370
   -1
100
AcDbLine
 10
322.1124314704886
 20
423.1623137407126
 11
322.1124314704886
 21
423.2623137407126
  0
LINE
  5
2E4
100
AcDbEntity
  8
0
  6
ByLayer
 62
  256
370
   -1
100
AcDbLine
 10
322.2624314704885
 20
423.1623137407126
 11
322.2624314704885
 21
423.2623137407126
  0
LINE
  5
2E5
100
AcDbEntity
  8
0
  6
ByLayer
 62
  256
370
   -1
100
AcDbLine
 10
322.2624314704885
 20
424.8623137407126
 11
325.1024314704885
 21
424.8623137407126
  0
LINE
  5
2E6
100
AcDbEntity
  8
0
  6
ByLayer
 62
  256
370
   -1
100
AcDbLine
 10
322.2624314704885
 20
425.0123137407127
 11
325.1024314704885
 21
425.0123137407127
  0
LINE
  5
2E7
100
AcDbEntity
  8
0
  6
ByLayer
 62
  256
370
   -1
100
AcDbLine
 10
322.2624314704885
 20
425.0123137407127
 11
322.2624314704885
 21
426.1723137407128
  0
LINE
  5
2E8
100
AcDbEntity
  8
0
  6
ByLayer
 62
  256
370
   -1
100
AcDbLine
 10
322.2624314704885
 20
424.0623137407126
 11
322.2624314704885
 21
424.8623137407126
  0
LINE
  5
2E9
100
AcDbEntity
  8
0
  6
ByLayer
 62
  256
370
   -1
100
AcDbLine
 10
325.1024314704885
 20
425.1123137407128
 11
325.2624314704885
 21
425.1123137407128
  0
LINE
  5
2EA
100
AcDbEntity
  8
0
  6
ByLayer
 62
  256
370
   -1
100
AcDbLine
 10
325.1024314704885
 20
425.7123137407128
 11
325.2624314704885
 21
425.7123137407128
  0
LINE
  5
2EB
100
AcDbEntity
  8
0
  6
ByLayer
 62
  256
370
   -1
100
AcDbLine
 10
325.1024314704885
 20
425.7123137407128
 11
325.1024314704885
 21
426.1723137407128
  0
LINE
  5
2EC
100
AcDbEntity
  8
0
  6
ByLayer
 62
  256
370
   -1
100
AcDbLine
 10
325.1024314704885
 20
425.0123137407127
 11
325.1024314704885
 21
425.1123137407128
  0
LINE
  5
2ED
100
AcDbEntity
  8
0
  6
ByLayer
 62
  256
370
   -1
100
AcDbLine
 10
325.2524314704884
 20
425.7123137407128
 11
325.2524314704884
 21
426.1723137407128
  0
LINE
  5
2EE
100
AcDbEntity
  8
0
  6
ByLayer
 62
  256
370
   -1
100
AcDbLine
 10
325.2524314704884
 20
424.8623137407126
 11
325.2524314704884
 21
425.1123137407128
  0
LINE
  5
2EF
100
AcDbEntity
  8
0
  6
ByLayer
 62
  256
370
   -1
100
AcDbLine
 10
325.1024314704885
 20
421.9423137407127
 11
325.1024314704885
 21
424.8623137407126
  0
LINE
  5
2F0
100
AcDbEntity
  8
0
  6
ByLayer
 62
  256
370
   -1
100
AcDbLine
 10
325.2524314704884
 20
422.0923137407128
 11
325.2524314704884
 21
424.8623137407126
  0
LINE
  5
2F1
100
AcDbEntity
  8
0
  6
ByLayer
 62
  256
370
   -1
100
AcDbLine
 10
325.6324314704884
 20
421.9423137407127
 11
325.6324314704884
 21
422.0923137407128
  0
LINE
  5
2F2
100
AcDbEntity
  8
0
  6
ByLayer
 62
  256
370
   -1
100
AcDbLine
 10
326.4324314704884
 20
421.9423137407127
 11
326.4324314704884
 21
422.0923137407128
  0
LINE
  5
2F3
100
AcDbEntity
  8
0
  6
ByLayer
 62
  256
370
   -1
100
AcDbLine
 10
325.2624314704885
 20
422.0923137407127
 11
325.6324314704884
 21
422.0923137407128
  0
LINE
  5
2F4
100
AcDbEntity
  8
0
  6
ByLayer
 62
  256
370
   -1
100
AcDbLine
 10
325.1024314704885
 20
421.9423137407127
 11
325.6324314704884
 21
421.9423137407127
  0
LINE
  5
2F5
100
AcDbEntity
  8
0
  6
ByLayer
 62
  256
370
   -1
100
AcDbLine
 10
326.4324314704884
 20
422.0923137407127
 11
328.2624314704885
 21
422.0923137407127
  0
LINE
  5
2F6
100
AcDbEntity
  8
0
  6
ByLayer
 62
  256
370
   -1
100
AcDbLine
 10
326.4324314704884
 20
421.9423137407127
 11
328.4024314704884
 21
421.9423137407127
  0
LINE
  5
2F7
100
AcDbEntity
  8
0
  6
ByLayer
 62
  256
370
   -1
100
AcDbLine
 10
328.4024314704884
 20
421.9423137407127
 11
328.4024314704884
 21
422.0923137407127
  0
LINE
  5
2F8
100
AcDbEntity
  8
0
  6
ByLayer
 62
  256
370
   -1
100
AcDbLine
 10
325.2524314704884
 20
422.0923137407128
 11
325.6324314704884
 21
422.0923137407128
  0
LINE
  5
2F9
100
AcDbEntity
  8
0
  6
ByLayer
 62
  256
370
   -1
100
AcDbLine
 10
328.2524314704884
 20
422.8223137407128
 11
328.4024314704884
 21
422.8223137407128
  0
LINE
  5
2FA
100
AcDbEntity
  8
0
  6
ByLayer
 62
  256
370
   -1
100
AcDbLine
 10
328.2524314704884
 20
423.8223137407128
 11
328.4024314704884
 21
423.8223137407128
  0
LINE
  5
2FB
100
AcDbEntity
  8
0
  6
ByLayer
 62
  256
370
   -1
100
AcDbLine
 10
328.2524314704884
 20
423.3223137407128
 11
328.4024314704884
 21
423.3223137407128
  0
LINE
  5
2FC
100
AcDbEntity
  8
0
  6
ByLayer
 62
  256
370
   -1
100
AcDbLine
 10
328.3274314704884
 20
422.8223137407128
 11
328.3274314704884
 21
423.8223137407128
  0
LINE
  5
2FD
100
AcDbEntity
  8
0
  6
ByLayer
 62
  256
370
   -1
100
AcDbLine
 10
328.4024314704884
 20
422.0923137407127
 11
328.4024314704884
 21
426.1723137407128
  0
LINE
  5
2FE
100
AcDbEntity
  8
0
  6
ByLayer
 62
  256
370
   -1
100
AcDbLine
 10
328.2524314704884
 20
422.0923137407127
 11
328.2524314704884
 21
426.1723137407128
  0
LINE
  5
2FF
100
AcDbEntity
  8
0
  6
ByLayer
 62
  256
370
   -1
100
AcDbLine
 10
325.2524314704884
 20
426.1723137407129
 11
328.2524314704884
 21
426.1723137407128
  0
LINE
  5
300
100
AcDbEntity
  8
0
  6
ByLayer
 62
  256
370
   -1
100
AcDbLine
 10
328.4124314704885
 20
426.1723137407128
 11
331.3024314704883
 21
426.1723137407128
  0
LINE
  5
301
100
AcDbEntity
  8
0
  6
ByLayer
 62
  256
370
   -1
100
AcDbLine
 10
331.3024314704883
 20
426.1723137407128
 11
331.3124314704885
 21
426.1723137407127
  0
LINE
  5
302
100
AcDbEntity
  8
0
  6
ByLayer
 62
  256
370
   -1
100
AcDbLine
 10
331.3024314704883
 20
420.1723137407125
 11
328.4024314704884
 21
420.1723137407125
  0
LINE
  5
303
100
AcDbEntity
  8
0
  6
ByLayer
 62
  256
370
   -1
100
AcDbLine
 10
333.1624314704886
 20
420.1723137407126
 11
331.4524314704884
 21
420.1723137407125
  0
LINE
  5
304
100
AcDbEntity
  8
0
  6
ByLayer
 62
  256
370
   -1
100
AcDbLine
 10
333.1624314704886
 20
426.1723137407127
 11
333.1624314704886
 21
420.1723137407126
  0
LINE
  5
305
100
AcDbEntity
  8
0
  6
ByLayer
 62
  256
370
   -1
100
AcDbLine
 10
331.4524314704884
 20
426.1723137407127
 11
333.1624314704886
 21
426.1723137407127
  0
LINE
  5
306
100
AcDbEntity
  8
0
  6
ByLayer
 62
  256
370
   -1
100
AcDbLine
 10
331.4524314704884
 20
422.0723137407125
 11
331.3024314704883
 21
422.0723137407125
  0
LINE
  5
307
100
AcDbEntity
  8
0
  6
ByLayer
 62
  256
370
   -1
100
AcDbLine
 10
331.4524314704884
 20
422.8723137407125
 11
331.3024314704883
 21
422.8723137407125
  0
LINE
  5
308
100
AcDbEntity
  8
0
  6
ByLayer
 62
  256
370
   -1
100
AcDbLine
 10
331.4524314704884
 20
420.1723137407125
 11
331.4524314704884
 21
422.0723137407125
  0
LINE
  5
309
100
AcDbEntity
  8
0
  6
ByLayer
 62
  256
370
   -1
100
AcDbLine
 10
331.3024314704883
 20
420.1723137407125
 11
331.3024314704883
 21
422.0723137407125
  0
LINE
  5
30A
100
AcDbEntity
  8
0
  6
ByLayer
 62
  256
370
   -1
100
AcDbLine
 10
331.3024314704883
 20
422.8723137407125
 11
331.3024314704883
 21
426.1723137407128
  0
LINE
  5
30B
100
AcDbEntity
  8
0
  6
ByLayer
 62
  256
370
   -1
100
AcDbLine
 10
332.5624314704886
 20
424.9923137407127
 11
332.5624314704886
 21
424.8423137407127
  0
LINE
  5
30C
100
AcDbEntity
  8
0
  6
ByLayer
 62
  256
370
   -1
100
AcDbLine
 10
331.4524314704884
 20
424.8423137407127
 11
332.5624314704886
 21
424.8423137407127
  0
LINE
  5
30D
100
AcDbEntity
  8
0
  6
ByLayer
 62
  256
370
   -1
100
AcDbLine
 10
331.4524314704884
 20
424.9923137407127
 11
332.5624314704886
 21
424.9923137407127
  0
LINE
  5
30E
100
AcDbEntity
  8
0
  6
ByLayer
 62
  256
370
   -1
100
AcDbLine
 10
331.4524314704884
 20
422.8723137407125
 11
331.4524314704884
 21
424.8423137407127
  0
LINE
  5
30F
100
AcDbEntity
  8
0
  6
ByLayer
 62
  256
370
   -1
100
AcDbLine
 10
331.4524314704884
 20
424.9923137407127
 11
331.4524314704884
 21
426.1723137407127
  0
DIMENSION
  5
310
100
AcDbEntity
  8
0
  6
ByLayer
 62
  256
370
   -1
100
AcDbDimension
  2
*D21
 10
331.9550930075146
 20
422.0723137407125
 30
0
 11
331.6550930075146
 21
421.1223137407125
 31
0
 70
   32
 71
    5
  3
Standard
 53
0
210
0
220
0
230
1
100
AcDbAlignedDimension
 13
331.4524314704884
 23
420.1723137407125
 33
0
 14
331.4524314704884
 24
422.0723137407125
 34
0
 50
90
100
AcDbRotatedDimension
  0
DIMENSION
  5
311
100
AcDbEntity
  8
0
  6
ByLayer
 62
  256
370
   -1
100
AcDbDimension
  2
*D22
 10
331.9859113920854
 20
424.8423137407127
 30
0
 11
331.6859113920854
 21
423.8573137407126
 31
0
 70
   32
 71
    5
  3
Standard
 53
0
210
0
220
0
230
1
100
AcDbAlignedDimension
 13
331.4524314704884
 23
422.8723137407125
 33
0
 14
331.4524314704884
 24
424.8423137407127
 34
0
 50
90
100
AcDbRotatedDimension
  0
DIMENSION
  5
312
100
AcDbEntity
  8
0
  6
ByLayer
 62
  256
370
   -1
100
AcDbDimension
  2
*D23
 10
331.9859113920854
 20
426.1723137407126
 30
0
 11
331.6859113920854
 21
425.5823137407126
 31
0
 70
   32
 71
    5
  3
Standard
 53
0
210
0
220
0
230
1
100
AcDbAlignedDimension
 13
331.4524314704884
 23
424.9923137407127
 33
0
 14
331.4524314704884
 24
426.1723137407126
 34
0
 50
90
100
AcDbRotatedDimension
  0
DIMENSION
  5
313
100
AcDbEntity
  8
0
  6
ByLayer
 62
  256
370
   -1
100
AcDbDimension
  2
*D24
 10
331.6160907772352
 20
422.8723137407125
 30
0
 11
331.3160907772352
 21
422.4723137407125
 31
0
 70
   32
 71
    5
  3
Standard
 53
0
210
0
220
0
230
1
100
AcDbAlignedDimension
 13
331.4524314704884
 23
422.0723137407125
 33
0
 14
331.4524314704884
 24
422.8723137407125
 34
0
 50
90
100
AcDbRotatedDimension
  0
DIMENSION
  5
314
100
AcDbEntity
  8
0
  6
ByLayer
 62
  256
370
   -1
100
AcDbDimension
  2
*D25
 10
326.4324314704884
 20
422.2537997110535
 30
0
 11
326.0324314704884
 21
422.5537997110535
 31
0
 70
   32
 71
    5
  3
Standard
 53
0
210
0
220
0
230
1
100
AcDbAlignedDimension
 13
325.6324314704884
 23
421.9423137407127
 33
0
 14
326.4324314704884
 24
421.9423137407127
 34
0
100
AcDbRotatedDimension
  0
DIMENSION
  5
315
100
AcDbEntity
  8
0
  6
ByLayer
 62
  256
370
   -1
100
AcDbDimension
  2
*D26
 10
328.0018426303281
 20
423.8223137407128
 30
0
 11
327.7018426303281
 21
423.3223137407128
 31
0
 70
   32
 71
    5
  3
Standard
 53
0
210
0
220
0
230
1
100
AcDbAlignedDimension
 13
328.2524314704884
 23
422.8223137407128
 33
0
 14
328.2524314704884
 24
423.8223137407128
 34
0
 50
90
100
AcDbRotatedDimension
  0
DIMENSION
  5
316
100
AcDbEntity
  8
0
  6
ByLayer
 62
  256
370
   -1
100
AcDbDimension
  2
*D27
 10
323.0445316149133
 20
421.2323137407126
 30
0
 11
322.7445316149133
 21
420.7823137407127
 31
0
 70
   32
 71
    5
  3
Standard
 53
0
210
0
220
0
230
1
100
AcDbAlignedDimension
 13
322.7924314704885
 23
420.3323137407127
 33
0
 14
322.7924314704885
 24
421.2323137407126
 34
0
 50
90
100
AcDbRotatedDimension
  0
DIMENSION
  5
317
100
AcDbEntity
  8
0
  6
ByLayer
 62
  256
370
   -1
100
AcDbDimension
  2
*D28
 10
321.8227393473461
 20
424.0623137407126
 30
0
 11
321.5227393473461
 21
423.6623137407126
 31
0
 70
   32
 71
    5
  3
Standard
 53
0
210
0
220
0
230
1
100
AcDbAlignedDimension
 13
322.1124314704886
 23
423.2623137407126
 33
0
 14
322.1124314704887
 24
424.0623137407126
 34
0
 50
90
100
AcDbRotatedDimension
  0
DIMENSION
  5
318
100
AcDbEntity
  8
0
  6
ByLayer
 62
  256
370
   -1
100
AcDbDimension
  2
*D29
 10
321.212315527119
 20
424.8623137407126
 30
0
 11
320.912315527119
 21
424.0123137407126
 31
0
 70
   32
 71
    5
  3
Standard
 53
0
210
0
220
0
230
1
100
AcDbAlignedDimension
 13
322.2624314704885
 23
423.1623137407126
 33
0
 14
322.2624314704885
 24
424.8623137407126
 34
0
 50
90
100
AcDbRotatedDimension
  0
DIMENSION
  5
319
100
AcDbEntity
  8
0
  6
ByLayer
 62
  256
370
   -1
100
AcDbDimension
  2
*D30
 10
324.6546504791845
 20
425.7123137407128
 30
0
 11
324.3546504791845
 21
425.4123137407128
 31
0
 70
   32
 71
    5
  3
Standard
 53
0
210
0
220
0
230
1
100
AcDbAlignedDimension
 13
325.1024314704885
 23
425.1123137407128
 33
0
 14
325.1024314704885
 24
425.7123137407128
 34
0
 50
90
100
AcDbRotatedDimension
  0
DIMENSION
  5
31A
100
AcDbEntity
  8
0
  6
ByLayer
 62
  256
370
   -1
100
AcDbDimension
  2
*D31
 10
320.8624314704885
 20
423.4343041036779
 30
0
 11
320.3124314704885
 21
423.7343041036779
 31
0
 70
   32
 71
    5
  3
Standard
 53
0
210
0
220
0
230
1
100
AcDbAlignedDimension
 13
319.7624314704885
 23
423.1623137407126
 33
0
 14
320.8624314704885
 24
423.1623137407126
 34
0
100
AcDbRotatedDimension
  0
DIMENSION
  5
31B
100
AcDbEntity
  8
0
  6
ByLayer
 62
  256
370
   -1
100
AcDbDimension
  2
*D32
 10
321.8158444837134
 20
426.1723137407128
 30
0
 11
321.5158444837134
 21
425.1173137407127
 31
0
 70
   32
 71
    5
  3
Standard
 53
0
210
0
220
0
230
1
100
AcDbAlignedDimension
 13
322.1124314704887
 23
424.0623137407126
 33
0
 14
322.1124314704886
 24
426.1723137407128
 34
0
 50
90
100
AcDbRotatedDimension
  0
DIMENSION
  5
31C
100
AcDbEntity
  8
0
  6
ByLayer
 62
  256
370
   -1
100
AcDbDimension
  2
*D33
 10
325.698960939641
 20
425.1123137407128
 30
0
 11
325.398960939641
 21
423.6023137407128
 31
0
 70
   32
 71
    5
  3
Standard
 53
0
210
0
220
0
230
1
100
AcDbAlignedDimension
 13
325.2524314704884
 23
422.0923137407128
 33
0
 14
325.2524314704884
 24
425.1123137407128
 34
0
 50
90
100
AcDbRotatedDimension
  0
DIMENSION
  5
31D
100
AcDbEntity
  8
0
  6
ByLayer
 62
  256
370
   -1
100
AcDbDimension
  2
*D34
 10
327.4761544498936
 20
426.1723137407128
 30
0
 11
327.1761544498936
 21
424.1323137407128
 31
0
 70
   32
 71
    5
  3
Standard
 53
0
210
0
220
0
230
1
100
AcDbAlignedDimension
 13
328.2524314704884
 23
422.0923137407127
 33
0
 14
328.2524314704884
 24
426.1723137407128
 34
0
 50
90
100
AcDbRotatedDimension
  0
DIMENSION
  5
31E
100
AcDbEntity
  8
0
  6
ByLayer
 62
  256
370
   -1
100
AcDbDimension
  2
*D35
 10
317.6845498669334
 20
426.1723137407127
 30
0
 11
317.3845498669334
 21
424.6673137407126
 31
0
 70
   32
 71
    5
  3
Standard
 53
0
210
0
220
0
230
1
100
AcDbAlignedDimension
 13
318.7624314704885
 23
423.1623137407126
 33
0
 14
318.7624314704885
 24
426.1723137407127
 34
0
 50
90
100
AcDbRotatedDimension
  0
DIMENSION
  5
31F
100
AcDbEntity
  8
0
  6
ByLayer
 62
  256
370
   -1
100
AcDbDimension
  2
*D36
 10
317.6845498669334
 20
423.0123137407126
 30
0
 11
317.3845498669334
 21
421.5923137407126
 31
0
 70
   32
 71
    5
  3
Standard
 53
0
210
0
220
0
230
1
100
AcDbAlignedDimension
 13
318.7624314704885
 23
420.1723137407126
 33
0
 14
318.7624314704885
 24
423.0123137407126
 34
0
 50
90
100
AcDbRotatedDimension
  0
DIMENSION
  5
320
100
AcDbEntity
  8
0
  6
ByLayer
 62
  256
370
   -1
100
AcDbDimension
  2
*D37
 10
318.3026131935228
 20
422.8123137407126
 30
0
 11
318.0026131935228
 21
421.5923137407126
 31
0
 70
   32
 71
    5
  3
Standard
 53
0
210
0
220
0
230
1
100
AcDbAlignedDimension
 13
318.6124314704886
 23
420.3723137407126
 33
0
 14
318.6124314704886
 24
422.8123137407126
 34
0
 50
90
100
AcDbRotatedDimension
  0
DIMENSION
  5
321
100
AcDbEntity
  8
0
  6
ByLayer
 62
  256
370
   -1
100
AcDbDimension
  2
*D38
 10
316.7574548770494
 20
426.1723137407127
 30
0
 11
316.4574548770494
 21
423.1723137407126
 31
0
 70
   32
 71
    5
  3
Standard
 53
0
210
0
220
0
230
1
100
AcDbAlignedDimension
 13
318.7624314704885
 23
420.1723137407126
 33
0
 14
318.7624314704885
 24
426.1723137407127
 34
0
 50
90
100
AcDbRotatedDimension
  0
DIMENSION
  5
322
100
AcDbEntity
  8
0
  6
ByLayer
 62
  256
370
   -1
100
AcDbDimension
  2
*D39
 10
316.1050546989828
 20
426.3223137407127
 30
0
 11
315.8050546989828
 21
423.1723137407127
 31
0
 70
   32
 71
    5
  3
Standard
 53
0
210
0
220
0
230
1
100
AcDbAlignedDimension
 13
318.6124314704886
 23
420.0223137407127
 33
0
 14
318.6124314704886
 24
426.3223137407127
 34
0
 50
90
100
AcDbRotatedDimension
  0
MTEXT
  5
323
100
AcDbEntity
  8
0
  6
ByLayer
 62
  256
370
   -1
100
AcDbMText
 10
319.4529835601408
 20
425.0198479104763
 30
0
 40
0.2
 41
0.866666666666676
 71
    4
 72
    1
  1
Quarto
  7
standard
210
0
220
0
230
1
 50
0
 73
    2
 44
0.1
  0
MTEXT
  5
324
100
AcDbEntity
  8
0
  6
ByLayer
 62
  256
370
   -1
100
AcDbMText
 10
326.1875560824902
 20
424.2780689080146
 30
0
 40
0.2
 41
0.6222221798217924
 71
    4
 72
    1
  1
Suite
  7
standard
210
0
220
0
230
1
 50
0
 73
    2
 44
0.1
  0
MTEXT
  5
325
100
AcDbEntity
  8
0
  6
ByLayer
 62
  256
370
   -1
100
AcDbMText
 10
322.7714685711535
 20
425.7030654127436
 30
0
 40
0.2
 41
1.088888888888917
 71
    4
 72
    1
  1
Banheiro
  7
standard
210
0
220
0
230
1
 50
0
 73
    2
 44
0.1
  0
MTEXT
  5
326
100
AcDbEntity
  8
0
  6
ByLayer
 62
  256
370
   -1
100
AcDbMText
 10
332.1413086022484
 20
425.5273809121606
 30
0
 40
0.2
 41
1.088888888888917
 71
    4
 72
    1
  1
Banheiro
  7
standard
210
0
220
0
230
1
 50
0
 73
    2
 44
0.1
  0
MTEXT
  5
327
100
AcDbEntity
  8
0
  6
ByLayer
 62
  256
370
   -1
100
AcDbMText
 10
329.5450820936325
 20
425.3516964115776
 30
0
 40
0.2
 41
0.9333333333333735
 71
    4
 72
    1
  1
Cozinha
  7
standard
210
0
220
0
230
1
 50
0
 73
    2
 44
0.1
  0
MTEXT
  5
328
100
AcDbEntity
  8
0
  6
ByLayer
 62
  256
370
   -1
100
AcDbMText
 10
319.9995575619546
 20
421.6232808992044
 30
0
 40
0.2
 41
1.066666666666716
 71
    4
 72
    1
  1
Garagem
  7
standard
210
0
220
0
230
1
 50
0
 73
    2
 44
0.1
  0
DIMENSION
  5
329
100
AcDbEntity
  8
0
  6
ByLayer
 62
  256
370
   -1
100
AcDbDimension
  2
*D40
 10
325.1154354727753
 20
420.2178441484766
 30
0
 11
324.8154354727753
 21
421.0573137407126
 31
0
 70
   32
 71
    5
  3
Standard
 53
0
210
0
220
0
230
1
100
AcDbAlignedDimension
 13
325.2524314704884
 23
421.9423137407127
 33
0
 14
325.2524314704884
 24
420.1723137407126
 34
0
 50
90
100
AcDbRotatedDimension
  0
LINE
  5
32A
100
AcDbEntity
  8
0
  6
ByLayer
 62
  256
370
   -1
100
AcDbLine
 10
0
 20
438.6838998927316
 11
0
 21
439.5167385838328
  0
LINE
  5
32B
100
AcDbEntity
  8
0
  6
ByLayer
 62
  256
370
   -1
100
AcDbLine
 10
0
 20
439.5167385838328
 11
0
 21
439.4056934250194
  0
LINE
  5
32C
100
AcDbEntity
  8
0
  6
ByLayer
 62
  256
370
   -1
100
AcDbLine
 10
0
 20
439.4056934250194
 11
0
 21
435.4635902871401
  0
LINE
  5
32D
100
AcDbEntity
  8
0
  6
ByLayer
 62
  256
370
   -1
100
AcDbLine
 10
0
 20
435.4635902871401
 11
0
 21
439.1280805279856
  0
LINE
  5
32E
100
AcDbEntity
  8
0
  6
ByLayer
 62
  256
370
   -1
100
AcDbLine
 10
0
 20
439.1280805279856
 11
0
 21
440.8492804895948
  0
LINE
  5
32F
100
AcDbEntity
  8
0
  6
ByLayer
 62
  256
370
   -1
100
AcDbLine
 10
0
 20
440.8492804895948
 11
0
 21
440.3495772749341
  0
MTEXT
  5
330
100
AcDbEntity
  8
0
  6
ByLayer
 62
  256
370
    5
100
AcDbMText
 10
325.5316820476654
 20
428.3266014416565
 30
0
 40
0.4
 41
1.333333333333352
 71
    5
 72
    1
  1
Atual
  7
standard
210
0
220
0
230
1
 50
0
 73
    2
 44
1
  0
MTEXT
  5
331
100
AcDbEntity
  8
0
  6
ByLayer
 62
  256
370
    5
100
AcDbMText
 10
322.8809647205476
 20
429.0772626519137
 30
0
 40
0.5
 41
4.652778034921492
 71
    4
 72
    1
  1
PlantaCasa 1.1
  7
standard
210
0
220
0
230
1
 50
0
 73
    2
 44
0.1
  0
LINE
  5
332
100
AcDbEntity
  8
0
  6
ByLayer
 62
  256
370
   -1
100
AcDbLine
 10
333.3715965742313
 20
406.7101653985924
 11
318.6715965742314
 21
406.7101653985924
  0
LINE
  5
333
100
AcDbEntity
  8
0
  6
ByLayer
 62
  256
370
   -1
100
AcDbLine
 10
318.6715965742314
 20
406.7101653985924
 11
318.6715965742314
 21
413.0101653985924
  0
LINE
  5
334
100
AcDbEntity
  8
0
  6
ByLayer
 62
  256
370
   -1
100
AcDbLine
 10
318.6715965742314
 20
413.0101653985924
 11
333.3715965742313
 21
413.0101653985924
  0
LINE
  5
335
100
AcDbEntity
  8
0
  6
ByLayer
 62
  256
370
   -1
100
AcDbLine
 10
333.3715965742313
 20
413.0101653985924
 11
333.3715965742313
 21
406.7101653985924
  0
DIMENSION
  5
336
100
AcDbEntity
  8
0
  6
ByLayer
 62
  256
370
   -1
100
AcDbDimension
  2
*D41
 10
333.3715965742313
 20
414.204254403284
 30
0
 11
326.0215965742314
 21
414.504254403284
 31
0
 70
   32
 71
    5
  3
Standard
 53
0
210
0
220
0
230
1
100
AcDbAlignedDimension
 13
318.6715965742314
 23
413.0101653985924
 33
0
 14
333.3715965742313
 24
413.0101653985924
 34
0
100
AcDbRotatedDimension
  0
LINE
  5
337
100
AcDbEntity
  8
0
  6
ByLayer
 62
  256
370
   -1
100
AcDbLine
 10
318.8215965742313
 20
406.8601653985923
 11
318.8215965742313
 21
409.7001653985923
  0
LINE
  5
338
100
AcDbEntity
  8
0
  6
ByLayer
 62
  256
370
   -1
100
AcDbLine
 10
318.8215965742313
 20
407.0601653985923
 11
318.6715965742314
 21
407.0601653985923
  0
LINE
  5
339
100
AcDbEntity
  8
0
  6
ByLayer
 62
  256
370
   -1
100
AcDbLine
 10
318.8215965742313
 20
409.5001653985923
 11
318.6715965742314
 21
409.5001653985923
  0
LINE
  5
33A
100
AcDbEntity
  8
0
  6
ByLayer
 62
  256
370
   -1
100
AcDbLine
 10
318.8215965742313
 20
408.2801653985923
 11
318.6715965742314
 21
408.2801653985923
  0
LINE
  5
33B
100
AcDbEntity
  8
0
  6
ByLayer
 62
  256
370
   -1
100
AcDbLine
 10
318.7465965742313
 20
407.0601653985923
 11
318.7465965742313
 21
409.5001653985923
  0
LINE
  5
33C
100
AcDbEntity
  8
0
  6
ByLayer
 62
  256
370
   -1
100
AcDbLine
 10
331.361596574231
 20
412.8601653985925
 11
331.3715965742313
 21
412.8601653985924
  0
DIMENSION
  5
33D
100
AcDbEntity
  8
0
  6
ByLayer
 62
  256
370
   -1
100
AcDbDimension
  2
*D42
 10
317.7437149706762
 20
412.8601653985924
 30
0
 11
317.4437149706762
 21
411.3551653985923
 31
0
 70
   32
 71
    5
  3
Standard
 53
0
210
0
220
0
230
1
100
AcDbAlignedDimension
 13
318.8215965742313
 23
409.8501653985923
 33
0
 14
318.8215965742313
 24
412.8601653985924
 34
0
 50
90
100
AcDbRotatedDimension
  0
DIMENSION
  5
33E
100
AcDbEntity
  8
0
  6
ByLayer
 62
  256
370
   -1
100
AcDbDimension
  2
*D43
 10
317.7437149706762
 20
409.7001653985923
 30
0
 11
317.4437149706762
 21
408.2801653985923
 31
0
 70
   32
 71
    5
  3
Standard
 53
0
210
0
220
0
230
1
100
AcDbAlignedDimension
 13
318.8215965742313
 23
406.8601653985923
 33
0
 14
318.8215965742313
 24
409.7001653985923
 34
0
 50
90
100
AcDbRotatedDimension
  0
DIMENSION
  5
33F
100
AcDbEntity
  8
0
  6
ByLayer
 62
  256
370
   -1
100
AcDbDimension
  2
*D44
 10
318.3617782972656
 20
409.5001653985923
 30
0
 11
318.0617782972656
 21
408.2801653985923
 31
0
 70
   32
 71
    5
  3
Standard
 53
0
210
0
220
0
230
1
100
AcDbAlignedDimension
 13
318.6715965742314
 23
407.0601653985923
 33
0
 14
318.6715965742314
 24
409.5001653985923
 34
0
 50
90
100
AcDbRotatedDimension
  0
DIMENSION
  5
340
100
AcDbEntity
  8
0
  6
ByLayer
 62
  256
370
   -1
100
AcDbDimension
  2
*D45
 10
316.8166199807922
 20
412.8601653985924
 30
0
 11
316.5166199807921
 21
409.8601653985923
 31
0
 70
   32
 71
    5
  3
Standard
 53
0
210
0
220
0
230
1
100
AcDbAlignedDimension
 13
318.8215965742313
 23
406.8601653985923
 33
0
 14
318.8215965742313
 24
412.8601653985924
 34
0
 50
90
100
AcDbRotatedDimension
  0
DIMENSION
  5
341
100
AcDbEntity
  8
0
  6
ByLayer
 62
  256
370
   -1
100
AcDbDimension
  2
*D46
 10
316.1642198027256
 20
413.0101653985924
 30
0
 11
315.8642198027256
 21
409.8601653985924
 31
0
 70
   32
 71
    5
  3
Standard
 53
0
210
0
220
0
230
1
100
AcDbAlignedDimension
 13
318.6715965742314
 23
406.7101653985924
 33
0
 14
318.6715965742314
 24
413.0101653985924
 34
0
 50
90
100
AcDbRotatedDimension
  0
LINE
  5
342
100
AcDbEntity
  8
0
  6
ByLayer
 62
  256
370
   -1
100
AcDbLine
 10
325.1615965742313
 20
407.8601653985922
 11
324.1615965742313
 21
407.8601653985922
  0
LINE
  5
343
100
AcDbEntity
  8
0
  6
ByLayer
 62
  256
370
   -1
100
AcDbLine
 10
324.1615965742313
 20
406.8601653985922
 11
324.1615965742313
 21
409.7001653985923
  0
LINE
  5
344
100
AcDbEntity
  8
0
  6
ByLayer
 62
  256
370
   -1
100
AcDbLine
 10
325.1615965742313
 20
408.1101653985922
 11
324.1615965742313
 21
408.1101653985922
  0
LINE
  5
345
100
AcDbEntity
  8
0
  6
ByLayer
 62
  256
370
   -1
100
AcDbLine
 10
325.1615965742313
 20
408.3601653985922
 11
324.1615965742313
 21
408.3601653985922
  0
LINE
  5
346
100
AcDbEntity
  8
0
  6
ByLayer
 62
  256
370
   -1
100
AcDbLine
 10
321.1615965742313
 20
408.7001653985923
 11
321.1615965742313
 21
409.7001653985923
  0
LINE
  5
347
100
AcDbEntity
  8
0
  6
ByLayer
 62
  256
370
   -1
100
AcDbLine
 10
321.4115965742313
 20
408.7001653985923
 11
321.4115965742313
 21
409.7001653985923
  0
LINE
  5
348
100
AcDbEntity
  8
0
  6
ByLayer
 62
  256
370
   -1
100
AcDbLine
 10
321.6615965742313
 20
408.7001653985923
 11
321.6615965742313
 21
409.7001653985923
  0
LINE
  5
349
100
AcDbEntity
  8
0
  6
ByLayer
 62
  256
370
   -1
100
AcDbLine
 10
321.9115965742313
 20
408.7001653985923
 11
321.9115965742313
 21
409.7001653985923
  0
LINE
  5
34A
100
AcDbEntity
  8
0
  6
ByLayer
 62
  256
370
   -1
100
AcDbLine
 10
322.1615965742313
 20
408.7001653985923
 11
322.1615965742313
 21
409.7001653985923
  0
LINE
  5
34B
100
AcDbEntity
  8
0
  6
ByLayer
 62
  256
370
   -1
100
AcDbLine
 10
322.6615965742313
 20
408.7001653985923
 11
322.6615965742313
 21
409.7001653985923
  0
LINE
  5
34C
100
AcDbEntity
  8
0
  6
ByLayer
 62
  256
370
   -1
100
AcDbLine
 10
322.4115965742313
 20
408.7001653985923
 11
322.4115965742313
 21
409.7001653985923
  0
LINE
  5
34D
100
AcDbEntity
  8
0
  6
ByLayer
 62
  256
370
   -1
100
AcDbLine
 10
322.9115965742313
 20
408.7001653985923
 11
322.9115965742313
 21
409.7001653985923
  0
LINE
  5
34E
100
AcDbEntity
  8
0
  6
ByLayer
 62
  256
370
   -1
100
AcDbLine
 10
323.4115965742313
 20
408.7001653985923
 11
323.4115965742313
 21
409.7001653985923
  0
LINE
  5
34F
100
AcDbEntity
  8
0
  6
ByLayer
 62
  256
370
   -1
100
AcDbLine
 10
323.1615965742313
 20
408.7001653985923
 11
323.1615965742313
 21
409.7001653985923
  0
LINE
  5
350
100
AcDbEntity
  8
0
  6
ByLayer
 62
  256
370
   -1
100
AcDbLine
 10
323.6615965742313
 20
408.7001653985923
 11
323.6615965742313
 21
409.7001653985923
  0
LINE
  5
351
100
AcDbEntity
  8
0
  6
ByLayer
 62
  256
370
   -1
100
AcDbLine
 10
323.9115965742313
 20
408.7001653985923
 11
323.9115965742313
 21
409.7001653985923
  0
LINE
  5
352
100
AcDbEntity
  8
0
  6
ByLayer
 62
  256
370
   -1
100
AcDbLine
 10
325.1615965742313
 20
408.7001653985923
 11
321.1615965742313
 21
408.7001653985923
  0
LINE
  5
353
100
AcDbEntity
  8
0
  6
ByLayer
 62
  256
370
   -1
100
AcDbLine
 10
325.1615965742313
 20
409.8501653985923
 11
322.3215965742312
 21
409.8501653985923
  0
LINE
  5
354
100
AcDbEntity
  8
0
  6
ByLayer
 62
  256
370
   -1
100
AcDbLine
 10
326.5115965742311
 20
411.8601653985926
 11
329.8115965742311
 21
411.8601653985925
  0
LINE
  5
355
100
AcDbEntity
  8
0
  6
ByLayer
 62
  256
370
   -1
100
AcDbLine
 10
325.1615965742313
 20
411.8601653985926
 11
325.3115965742311
 21
411.8601653985926
  0
LINE
  5
356
100
AcDbEntity
  8
0
  6
ByLayer
 62
  256
370
   -1
100
AcDbLine
 10
322.1715965742314
 20
412.7601653985924
 11
322.3215965742313
 21
412.7601653985925
  0
LINE
  5
357
100
AcDbEntity
  8
0
  6
ByLayer
 62
  256
370
   -1
100
AcDbLine
 10
322.1715965742321
 20
411.7601653985924
 11
322.321596574232
 21
411.7601653985925
  0
LINE
  5
358
100
AcDbEntity
  8
0
  6
ByLayer
 62
  256
370
   -1
100
AcDbLine
 10
322.1715965742314
 20
412.7601653985924
 11
322.1715965742314
 21
412.8601653985925
  0
LINE
  5
359
100
AcDbEntity
  8
0
  6
ByLayer
 62
  256
370
   -1
100
AcDbLine
 10
322.1715965742314
 20
409.8501653985923
 11
322.1715965742314
 21
411.7601653985925
  0
LINE
  5
35A
100
AcDbEntity
  8
0
  6
ByLayer
 62
  256
370
   -1
100
AcDbLine
 10
322.3215965742313
 20
409.8501653985923
 11
322.3215965742313
 21
411.7601653985925
  0
LINE
  5
35B
100
AcDbEntity
  8
0
  6
ByLayer
 62
  256
370
   -1
100
AcDbLine
 10
322.3215965742313
 20
412.7601653985925
 11
322.3215965742313
 21
412.8601653985925
  0
MTEXT
  5
35C
100
AcDbEntity
  8
0
  6
ByLayer
 62
  256
370
   -1
100
AcDbMText
 10
320.8869245908354
 20
407.8543741247487
 30
0
 40
0.2
 41
1.066666666666716
 71
    4
 72
    1
  1
Garagem
  7
standard
210
0
220
0
230
1
 50
0
 73
    2
 44
0.1
  0
LINE
  5
35D
100
AcDbEntity
  8
0
  6
ByLayer
 62
  256
370
   -1
100
AcDbLine
 10
333.2215965742314
 20
406.8601653985923
 11
332.0215965742314
 21
406.8601653985922
  0
LINE
  5
35E
100
AcDbEntity
  8
0
  6
ByLayer
 62
  256
370
   -1
100
AcDbLine
 10
331.8715965742314
 20
408.3601653985922
 11
325.3115965742311
 21
408.3601653985922
  0
LINE
  5
35F
100
AcDbEntity
  8
0
  6
ByLayer
 62
  256
370
   -1
100
AcDbLine
 10
329.6615965742311
 20
408.5101653985922
 11
326.6615965742311
 21
408.5101653985922
  0
LINE
  5
360
100
AcDbEntity
  8
0
  6
ByLayer
 62
  256
370
   -1
100
AcDbLine
 10
331.8715965742314
 20
408.5101653985922
 11
329.8115965742311
 21
408.5101653985922
  0
LINE
  5
361
100
AcDbEntity
  8
0
  6
ByLayer
 62
  256
370
   -1
100
AcDbLine
 10
326.5115965742312
 20
408.5101653985922
 11
325.3115965742311
 21
408.5101653985922
  0
LINE
  5
362
100
AcDbEntity
  8
0
  6
ByLayer
 62
  256
370
   -1
100
AcDbLine
 10
325.3115965742311
 20
406.8601653985923
 11
325.3115965742311
 21
408.3601653985922
  0
LINE
  5
363
100
AcDbEntity
  8
0
  6
ByLayer
 62
  256
370
   -1
100
AcDbLine
 10
325.3115965742311
 20
408.5101653985922
 11
325.3115965742311
 21
410.7101653985922
  0
LINE
  5
364
100
AcDbEntity
  8
0
  6
ByLayer
 62
  256
370
   -1
100
AcDbLine
 10
331.8715965742314
 20
408.3601653985922
 11
331.8715965742314
 21
406.8601653985923
  0
LINE
  5
365
100
AcDbEntity
  8
0
  6
ByLayer
 62
  256
370
   -1
100
AcDbLine
 10
331.8715965742314
 20
409.5101653985922
 11
331.8715965742314
 21
408.5101653985922
  0
LINE
  5
366
100
AcDbEntity
  8
0
  6
ByLayer
 62
  256
370
   -1
100
AcDbLine
 10
333.2215965742314
 20
409.3601653985923
 11
333.2215965742314
 21
406.8601653985923
  0
LINE
  5
367
100
AcDbEntity
  8
0
  6
ByLayer
 62
  256
370
   -1
100
AcDbLine
 10
333.2215965742314
 20
412.8601653985924
 11
333.2215965742314
 21
409.5101653985923
  0
LINE
  5
368
100
AcDbEntity
  8
0
  6
ByLayer
 62
  256
370
   -1
100
AcDbLine
 10
331.8715965742314
 20
406.8601653985922
 11
325.3115965742311
 21
406.8601653985922
  0
LINE
  5
369
100
AcDbEntity
  8
0
  6
ByLayer
 62
  256
370
   -1
100
AcDbLine
 10
325.1615965742313
 20
406.8601653985922
 11
318.8215965742313
 21
406.8601653985922
  0
DIMENSION
  5
36A
100
AcDbEntity
  8
0
  6
ByLayer
 62
  256
370
   -1
100
AcDbDimension
  2
*D47
 10
322.1715965742314
 20
413.2735190904156
 30
0
 11
320.4965965742314
 21
413.5735190904156
 31
0
 70
   32
 71
    5
  3
Standard
 53
0
210
0
220
0
230
1
100
AcDbAlignedDimension
 13
318.8215965742313
 23
412.8601653985924
 33
0
 14
322.1715965742314
 24
412.8601653985925
 34
0
100
AcDbRotatedDimension
  0
LINE
  5
36B
100
AcDbEntity
  8
0
  6
ByLayer
 62
  256
370
   -1
100
AcDbLine
 10
329.6615965742311
 20
412.7601653985924
 11
329.8115965742311
 21
412.7601653985924
  0
LINE
  5
36C
100
AcDbEntity
  8
0
  6
ByLayer
 62
  256
370
   -1
100
AcDbLine
 10
329.8115965742311
 20
408.5101653985922
 11
329.8115965742311
 21
411.8601653985925
  0
LINE
  5
36D
100
AcDbEntity
  8
0
  6
ByLayer
 62
  256
370
   -1
100
AcDbLine
 10
329.6615965742311
 20
408.5101653985922
 11
329.6615965742311
 21
411.7101653985926
  0
LINE
  5
36E
100
AcDbEntity
  8
0
  6
ByLayer
 62
  256
370
   -1
100
AcDbLine
 10
329.8115965742311
 20
412.7601653985924
 11
329.8115965742311
 21
412.8601653985925
  0
LINE
  5
36F
100
AcDbEntity
  8
0
  6
ByLayer
 62
  256
370
   -1
100
AcDbLine
 10
329.6615965742311
 20
412.7601653985924
 11
329.6615965742311
 21
412.8601653985924
  0
LINE
  5
370
100
AcDbEntity
  8
0
  6
ByLayer
 62
  256
370
   -1
100
AcDbLine
 10
329.8115965742311
 20
412.8601653985924
 11
333.2215965742314
 21
412.8601653985924
  0
LINE
  5
371
100
AcDbEntity
  8
0
  6
ByLayer
 62
  256
370
   -1
100
AcDbLine
 10
322.3215965742313
 20
412.8601653985925
 11
329.6615965742311
 21
412.8601653985924
  0
DIMENSION
  5
372
100
AcDbEntity
  8
0
  6
ByLayer
 62
  256
370
   -1
100
AcDbDimension
  2
*D48
 10
333.2215965742314
 20
413.2703377234075
 30
0
 11
331.5165965742312
 21
413.5703377234075
 31
0
 70
   32
 71
    5
  3
Standard
 53
0
210
0
220
0
230
1
100
AcDbAlignedDimension
 13
329.8115965742311
 23
412.8601653985924
 33
0
 14
333.2215965742314
 24
412.8601653985924
 34
0
100
AcDbRotatedDimension
  0
DIMENSION
  5
373
100
AcDbEntity
  8
0
  6
ByLayer
 62
  256
370
   -1
100
AcDbDimension
  2
*D49
 10
334.0086695754583
 20
412.8601653985924
 30
0
 11
333.7086695754583
 21
411.1851653985924
 31
0
 70
   32
 71
    5
  3
Standard
 53
0
210
0
220
0
230
1
100
AcDbAlignedDimension
 13
333.2215965742314
 23
409.5101653985923
 33
0
 14
333.2215965742314
 24
412.8601653985924
 34
0
 50
90
100
AcDbRotatedDimension
  0
DIMENSION
  5
374
100
AcDbEntity
  8
0
  6
ByLayer
 62
  256
370
   -1
100
AcDbDimension
  2
*D50
 10
334.0230807878488
 20
406.8601653985922
 30
0
 11
333.7230807878488
 21
408.1101653985922
 31
0
 70
   32
 71
    5
  3
Standard
 53
0
210
0
220
0
230
1
100
AcDbAlignedDimension
 13
333.2215965742314
 23
409.3601653985922
 33
0
 14
333.2215965742314
 24
406.8601653985922
 34
0
 50
90
100
AcDbRotatedDimension
  0
DIMENSION
  5
375
100
AcDbEntity
  8
0
  6
ByLayer
 62
  256
370
   -1
100
AcDbDimension
  2
*D51
 10
331.6884643805819
 20
408.3601653985922
 30
0
 11
331.3884643805819
 21
407.6101653985922
 31
0
 70
   32
 71
    5
  3
Standard
 53
0
210
0
220
0
230
1
100
AcDbAlignedDimension
 13
331.8715965742314
 23
406.8601653985922
 33
0
 14
331.8715965742314
 24
408.3601653985922
 34
0
 50
90
100
AcDbRotatedDimension
  0
DIMENSION
  5
376
100
AcDbEntity
  8
0
  6
ByLayer
 62
  256
370
   -1
100
AcDbDimension
  2
*D52
 10
331.6884643805819
 20
409.5101653985922
 30
0
 11
331.3884643805819
 21
409.0101653985922
 31
0
 70
   32
 71
    5
  3
Standard
 53
0
210
0
220
0
230
1
100
AcDbAlignedDimension
 13
331.8715965742314
 23
408.5101653985922
 33
0
 14
331.8715965742314
 24
409.5101653985922
 34
0
 50
90
100
AcDbRotatedDimension
  0
DIMENSION
  5
377
100
AcDbEntity
  8
0
  6
ByLayer
 62
  256
370
   -1
100
AcDbDimension
  2
*D53
 10
329.4547264600488
 20
411.7101653985926
 30
0
 11
329.1547264600488
 21
410.1101653985924
 31
0
 70
   32
 71
    5
  3
Standard
 53
0
210
0
220
0
230
1
100
AcDbAlignedDimension
 13
329.6615965742311
 23
408.5101653985923
 33
0
 14
329.6615965742311
 24
411.7101653985926
 34
0
 50
90
100
AcDbRotatedDimension
  0
DIMENSION
  5
378
100
AcDbEntity
  8
0
  6
ByLayer
 62
  256
370
   -1
100
AcDbDimension
  2
*D54
 10
326.2986709465214
 20
410.7101653985922
 30
0
 11
325.9986709465214
 21
409.6101653985922
 31
0
 70
   32
 71
    5
  3
Standard
 53
0
210
0
220
0
230
1
100
AcDbAlignedDimension
 13
326.511596574231
 23
408.5101653985922
 33
0
 14
326.5115965742311
 24
410.7101653985922
 34
0
 50
90
100
AcDbRotatedDimension
  0
DIMENSION
  5
379
100
AcDbEntity
  8
0
  6
ByLayer
 62
  256
370
   -1
100
AcDbDimension
  2
*D55
 10
324.972839406592
 20
411.8601653985926
 30
0
 11
324.672839406592
 21
410.8551653985924
 31
0
 70
   32
 71
    5
  3
Standard
 53
0
210
0
220
0
230
1
100
AcDbAlignedDimension
 13
325.1615965742313
 23
409.8501653985923
 33
0
 14
325.1615965742313
 24
411.8601653985926
 34
0
 50
90
100
AcDbRotatedDimension
  0
DIMENSION
  5
37A
100
AcDbEntity
  8
0
  6
ByLayer
 62
  256
370
   -1
100
AcDbDimension
  2
*D56
 10
326.511596574231
 20
408.6719648401974
 30
0
 11
325.9115965742311
 21
408.9719648401974
 31
0
 70
   32
 71
    5
  3
Standard
 53
0
210
0
220
0
230
1
100
AcDbAlignedDimension
 13
325.3115965742311
 23
408.5101653985922
 33
0
 14
326.511596574231
 24
408.5101653985922
 34
0
100
AcDbRotatedDimension
  0
DIMENSION
  5
37B
100
AcDbEntity
  8
0
  6
ByLayer
 62
  256
370
   -1
100
AcDbDimension
  2
*D57
 10
331.8715965742314
 20
408.7538925826376
 30
0
 11
330.8415965742312
 21
409.0538925826376
 31
0
 70
   32
 71
    5
  3
Standard
 53
0
210
0
220
0
230
1
100
AcDbAlignedDimension
 13
329.8115965742311
 23
408.5101653985922
 33
0
 14
331.8715965742314
 24
408.5101653985922
 34
0
100
AcDbRotatedDimension
  0
DIMENSION
  5
37C
100
AcDbEntity
  8
0
  6
ByLayer
 62
  256
370
   -1
100
AcDbDimension
  2
*D58
 10
329.6615965742311
 20
408.7375070341496
 30
0
 11
328.1615965742311
 21
409.0375070341496
 31
0
 70
   32
 71
    5
  3
Standard
 53
0
210
0
220
0
230
1
100
AcDbAlignedDimension
 13
326.6615965742311
 23
408.5101653985923
 33
0
 14
329.6615965742311
 24
408.5101653985923
 34
0
100
AcDbRotatedDimension
  0
DIMENSION
  5
37D
100
AcDbEntity
  8
0
  6
ByLayer
 62
  256
370
   -1
100
AcDbDimension
  2
*D59
 10
326.5115965742311
 20
412.1620866681499
 30
0
 11
328.0865965742311
 21
412.4620866681499
 31
0
 70
   32
 71
    5
  3
Standard
 53
0
210
0
220
0
230
1
100
AcDbAlignedDimension
 13
329.6615965742311
 23
411.7101653985926
 33
0
 14
326.5115965742311
 24
411.7101653985927
 34
0
100
AcDbRotatedDimension
  0
DIMENSION
  5
37E
100
AcDbEntity
  8
0
  6
ByLayer
 62
  256
370
   -1
100
AcDbDimension
  2
*D60
 10
325.3115965742311
 20
412.1620866681499
 30
0
 11
325.9115965742311
 21
412.4620866681499
 31
0
 70
   32
 71
    5
  3
Standard
 53
0
210
0
220
0
230
1
100
AcDbAlignedDimension
 13
326.5115965742311
 23
411.8601653985925
 33
0
 14
325.3115965742311
 24
411.8601653985926
 34
0
100
AcDbRotatedDimension
  0
DIMENSION
  5
37F
100
AcDbEntity
  8
0
  6
ByLayer
 62
  256
370
   -1
100
AcDbDimension
  2
*D61
 10
331.8715965742314
 20
406.0830481790871
 30
0
 11
328.5915965742312
 21
406.3830481790872
 31
0
 70
   32
 71
    5
  3
Standard
 53
0
210
0
220
0
230
1
100
AcDbAlignedDimension
 13
325.3115965742311
 23
406.8601653985922
 33
0
 14
331.8715965742314
 24
406.8601653985922
 34
0
100
AcDbRotatedDimension
  0
DIMENSION
  5
380
100
AcDbEntity
  8
0
  6
ByLayer
 62
  256
370
   -1
100
AcDbDimension
  2
*D62
 10
333.2215965742314
 20
406.0831014376543
 30
0
 11
332.6215965742314
 21
406.3831014376543
 31
0
 70
   32
 71
    5
  3
Standard
 53
0
210
0
220
0
230
1
100
AcDbAlignedDimension
 13
332.0215965742314
 23
406.8601653985922
 33
0
 14
333.2215965742314
 24
406.8601653985922
 34
0
100
AcDbRotatedDimension
  0
DIMENSION
  5
381
100
AcDbEntity
  8
0
  6
ByLayer
 62
  256
370
   -1
100
AcDbDimension
  2
*D63
 10
325.1615965742313
 20
413.2735190904388
 30
0
 11
323.7415965742313
 21
413.5735190904388
 31
0
 70
   32
 71
    5
  3
Standard
 53
0
210
0
220
0
230
1
100
AcDbAlignedDimension
 13
322.3215965742313
 23
412.8601653985925
 33
0
 14
325.1615965742313
 24
412.8601653985925
 34
0
100
AcDbRotatedDimension
  0
DIMENSION
  5
382
100
AcDbEntity
  8
0
  6
ByLayer
 62
  256
370
   -1
100
AcDbDimension
  2
*D64
 10
329.6615965742311
 20
413.2735190904388
 30
0
 11
327.486596574231
 21
413.5735190904388
 31
0
 70
   32
 71
    5
  3
Standard
 53
0
210
0
220
0
230
1
100
AcDbAlignedDimension
 13
325.3115965742311
 23
412.8601653985925
 33
0
 14
329.6615965742311
 24
412.8601653985924
 34
0
100
AcDbRotatedDimension
  0
LINE
  5
383
100
AcDbEntity
  8
0
  6
ByLayer
 62
  256
370
   -1
100
AcDbLine
 10
325.3115965742311
 20
410.8601653985922
 11
325.3115965742311
 21
411.8601653985926
  0
LINE
  5
384
100
AcDbEntity
  8
0
  6
ByLayer
 62
  256
370
   -1
100
AcDbLine
 10
325.1615965742313
 20
406.8601653985922
 11
325.1615965742313
 21
411.8601653985926
  0
MTEXT
  5
385
100
AcDbEntity
  8
0
  6
ByLayer
 62
  256
370
   -1
100
AcDbMText
 10
318.8069938161466
 20
415.532698994576
 30
0
 40
0.3
 41
2.858333487619563
 71
    4
 72
    1
  1
PlantaCasa 2.1
  7
standard
210
0
220
0
230
1
 50
0
 73
    2
 44
0.1
  0
MTEXT
  5
386
100
AcDbEntity
  8
0
  6
ByLayer
 62
  256
370
   -1
100
AcDbMText
 10
319.1983687286983
 20
415.0542005160654
 30
0
 40
0.2
 41
0.6666666242662556
 71
    5
 72
    1
  1
Salo
  7
standard
210
0
220
0
230
1
 50
0
 73
    2
 44
1
  0
DIMENSION
  5
387
100
AcDbEntity
  8
0
  6
ByLayer
 62
  256
370
   -1
100
AcDbDimension
  2
*D65
 10
324.1615965742313
 20
406.0791427405786
 30
0
 11
321.4915965742313
 21
406.3791427405786
 31
0
 70
   32
 71
    5
  3
Standard
 53
0
210
0
220
0
230
1
100
AcDbAlignedDimension
 13
318.8215965742313
 23
406.8601653985922
 33
0
 14
324.1615965742313
 24
406.8601653985922
 34
0
100
AcDbRotatedDimension
  0
DIMENSION
  5
388
100
AcDbEntity
  8
0
  6
ByLayer
 62
  256
370
   -1
100
AcDbDimension
  2
*D66
 10
325.1615965742313
 20
405.4450493953949
 30
0
 11
321.9915965742313
 21
405.7450493953949
 31
0
 70
   32
 71
    5
  3
Standard
 53
0
210
0
220
0
230
1
100
AcDbAlignedDimension
 13
318.8215965742313
 23
406.8601653985922
 33
0
 14
325.1615965742313
 24
406.8601653985922
 34
0
100
AcDbRotatedDimension
  0
MTEXT
  5
389
100
AcDbEntity
  8
0
  6
ByLayer
 62
  256
370
   -1
100
AcDbMText
 10
325.529588455584
 20
410.1798268322325
 30
0
 40
0.15
 41
0.8166666666666876
 71
    4
 72
    1
  1
Banheiro
  7
standard
210
0
220
0
230
1
 50
0
 73
    2
 44
0.1
  0
MTEXT
  5
38A
100
AcDbEntity
  8
0
  6
ByLayer
 62
  256
370
   -1
100
AcDbMText
 10
328.132054983893
 20
410.3952979057938
 30
0
 40
0.15
 41
0.650000000000007
 71
    5
 72
    1
  1
Quarto
  7
STANDARD
210
0
220
0
230
1
 50
0
 73
    2
 44
1
  0
MTEXT
  5
38B
100
AcDbEntity
  8
0
  6
ByLayer
 62
  256
370
   -1
100
AcDbMText
 10
331.2674324779643
 20
411.1300849716427
 30
0
 40
0.2
 41
0.6222221798217924
 71
    4
 72
    1
  1
Suite
  7
standard
210
0
220
0
230
1
 50
0
 73
    2
 44
0.1
  0
MTEXT
  5
38C
100
AcDbEntity
  8
0
  6
ByLayer
 62
  256
370
   -1
100
AcDbMText
 10
323.7269749483676
 20
411.1177597406757
 30
0
 40
0.15
 41
0.7000000000000302
 71
    5
 72
    1
  1
Cozinha
  7
STANDARD
210
0
220
0
230
1
 50
0
 73
    2
 44
1
  0
LINE
  5
38D
100
AcDbEntity
  8
0
  6
ByLayer
 62
  256
370
   -1
100
AcDbLine
 10
325.1615965742313
 20
406.8601653985922
 11
324.1615965742313
 21
407.8601653985922
  0
LINE
  5
38E
100
AcDbEntity
  8
0
  6
ByLayer
 62
  256
370
   -1
100
AcDbLine
 10
324.1615965742313
 20
408.7001653985923
 11
325.1615965742313
 21
409.7001653985923
  0
DIMENSION
  5
38F
100
AcDbEntity
  8
0
  6
ByLayer
 62
  256
370
   -1
100
AcDbDimension
  2
*D67
 10
321.1615965742313
 20
409.1288696166992
 30
0
 11
319.9915965742313
 21
409.4288696166992
 31
0
 70
   32
 71
    5
  3
Standard
 53
0
210
0
220
0
230
1
100
AcDbAlignedDimension
 13
318.8215965742313
 23
409.7001653985923
 33
0
 14
321.1615965742313
 24
409.7001653985923
 34
0
100
AcDbRotatedDimension
  0
MTEXT
  5
390
100
AcDbEntity
  8
0
  6
ByLayer
 62
  256
370
   -1
100
AcDbMText
 10
320.3037572644132
 20
411.4216046594108
 30
0
 40
0.2
 41
0.5111110687106999
 71
    4
 72
    1
  1
Sala
  7
standard
210
0
220
0
230
1
 50
0
 73
    2
 44
0.1
  0
MTEXT
  5
391
100
AcDbEntity
  8
0
  6
ByLayer
 62
  256
370
   -1
100
AcDbMText
 10
332.2572970667578
 20
407.9617422514702
 30
0
 40
0.15
 41
0.8166666666666876
 71
    4
 72
    1
  1
Banheiro
  7
standard
210
0
220
0
230
1
 50
0
 73
    2
 44
0.1
  0
LINE
  5
392
100
AcDbEntity
  8
0
  6
ByLayer
 62
  256
370
   -1
100
AcDbLine
 10
318.8215965742313
 20
412.8601653985924
 11
322.1715965742314
 21
412.8601653985925
  0
LINE
  5
393
100
AcDbEntity
  8
0
  6
ByLayer
 62
  256
370
   -1
100
AcDbLine
 10
318.6715965742314
 20
410.6101653985924
 11
318.8215965742313
 21
410.6101653985925
  0
LINE
  5
394
100
AcDbEntity
  8
0
  6
ByLayer
 62
  256
370
   -1
100
AcDbLine
 10
318.6715965742314
 20
411.3601653985924
 11
318.8215965742313
 21
411.3601653985925
  0
LINE
  5
395
100
AcDbEntity
  8
0
  6
ByLayer
 62
  256
370
   -1
100
AcDbLine
 10
318.6715965742314
 20
412.1101653985924
 11
318.8215965742313
 21
412.1101653985925
  0
LINE
  5
396
100
AcDbEntity
  8
0
  6
ByLayer
 62
  256
370
   -1
100
AcDbLine
 10
318.7465965742314
 20
410.6101653985925
 11
318.7465965742314
 21
412.1101653985925
  0
LINE
  5
397
100
AcDbEntity
  8
0
  6
ByLayer
 62
  256
370
   -1
100
AcDbLine
 10
318.9915965742313
 20
409.7001653985923
 11
318.9915965742313
 21
409.8501653985923
  0
LINE
  5
398
100
AcDbEntity
  8
0
  6
ByLayer
 62
  256
370
   -1
100
AcDbLine
 10
320.9915965742313
 20
409.7001653985923
 11
320.9915965742313
 21
409.8501653985923
  0
LINE
  5
399
100
AcDbEntity
  8
0
  6
ByLayer
 62
  256
370
   -1
100
AcDbLine
 10
322.1715965742314
 20
409.8501653985923
 11
320.9915965742313
 21
409.8501653985923
  0
LINE
  5
39A
100
AcDbEntity
  8
0
  6
ByLayer
 62
  256
370
   -1
100
AcDbLine
 10
325.1615965742313
 20
409.7001653985923
 11
320.9915965742313
 21
409.7001653985923
  0
LINE
  5
39B
100
AcDbEntity
  8
0
  6
ByLayer
 62
  256
370
   -1
100
AcDbLine
 10
318.9915965742313
 20
409.7001653985923
 11
318.8215965742313
 21
409.7001653985923
  0
LINE
  5
39C
100
AcDbEntity
  8
0
  6
ByLayer
 62
  256
370
   -1
100
AcDbLine
 10
318.9915965742313
 20
409.8501653985923
 11
318.8215965742313
 21
409.8501653985923
  0
LINE
  5
39D
100
AcDbEntity
  8
0
  6
ByLayer
 62
  256
370
   -1
100
AcDbLine
 10
318.8215965742313
 20
409.8501653985923
 11
318.8215965742313
 21
412.8601653985924
  0
LINE
  5
39E
100
AcDbEntity
  8
0
  6
ByLayer
 62
  256
370
   -1
100
AcDbLine
 10
326.5115965742311
 20
411.6101653985927
 11
326.5115965742311
 21
411.8601653985926
  0
LINE
  5
39F
100
AcDbEntity
  8
0
  6
ByLayer
 62
  256
370
   -1
100
AcDbLine
 10
326.5115965742311
 20
411.6101653985927
 11
326.6615965742311
 21
411.6101653985926
  0
LINE
  5
3A0
100
AcDbEntity
  8
0
  6
ByLayer
 62
  256
370
   -1
100
AcDbLine
 10
326.6615965742311
 20
411.7101653985927
 11
329.6615965742311
 21
411.7101653985926
  0
LINE
  5
3A1
100
AcDbEntity
  8
0
  6
ByLayer
 62
  256
370
   -1
100
AcDbLine
 10
326.6615965742311
 20
411.6101653985926
 11
326.6615965742311
 21
411.7101653985927
  0
LINE
  5
3A2
100
AcDbEntity
  8
0
  6
ByLayer
 62
  256
370
   -1
100
AcDbLine
 10
326.6615965742311
 20
408.5101653985922
 11
326.6615965742311
 21
410.8601653985922
  0
LINE
  5
3A3
100
AcDbEntity
  8
0
  6
ByLayer
 62
  256
370
   -1
100
AcDbLine
 10
325.8115965742311
 20
410.7101653985922
 11
325.8115965742311
 21
410.8601653985922
  0
LINE
  5
3A4
100
AcDbEntity
  8
0
  6
ByLayer
 62
  256
370
   -1
100
AcDbLine
 10
325.8115965742311
 20
410.7101653985922
 11
325.3115965742311
 21
410.7101653985922
  0
LINE
  5
3A5
100
AcDbEntity
  8
0
  6
ByLayer
 62
  256
370
   -1
100
AcDbLine
 10
325.8115965742311
 20
410.8601653985922
 11
325.3115965742311
 21
410.8601653985922
  0
LINE
  5
3A6
100
AcDbEntity
  8
0
  6
ByLayer
 62
  256
370
   -1
100
AcDbLine
 10
326.6615965742311
 20
410.8601653985922
 11
326.5115965742312
 21
410.8601653985922
  0
LINE
  5
3A7
100
AcDbEntity
  8
0
  6
ByLayer
 62
  256
370
   -1
100
AcDbLine
 10
326.5115965742311
 20
408.3601653985922
 11
326.5115965742312
 21
410.8601653985922
  0
LINE
  5
3A8
100
AcDbEntity
  8
0
  6
ByLayer
 62
  256
370
   -1
100
AcDbLine
 10
326.2115965742311
 20
408.4351653985922
 11
325.611596574231
 21
408.4351653985922
  0
LINE
  5
3A9
100
AcDbEntity
  8
0
  6
ByLayer
 62
  256
370
   -1
100
AcDbLine
 10
326.2115965742311
 20
408.3601653985922
 11
326.2115965742311
 21
408.5101653985922
  0
LINE
  5
3AA
100
AcDbEntity
  8
0
  6
ByLayer
 62
  256
370
   -1
100
AcDbLine
 10
325.9115965742311
 20
408.3601653985922
 11
325.9115965742311
 21
408.5101653985922
  0
LINE
  5
3AB
100
AcDbEntity
  8
0
  6
ByLayer
 62
  256
370
   -1
100
AcDbLine
 10
325.611596574231
 20
408.3601653985922
 11
325.611596574231
 21
408.5101653985922
  0
LINE
  5
3AC
100
AcDbEntity
  8
0
  6
ByLayer
 62
  256
370
   -1
100
AcDbLine
 10
324.3415965742313
 20
409.7751653985923
 11
323.1415965742312
 21
409.7751653985923
  0
LINE
  5
3AD
100
AcDbEntity
  8
0
  6
ByLayer
 62
  256
370
   -1
100
AcDbLine
 10
324.3415965742313
 20
409.7001653985923
 11
324.3415965742313
 21
409.8501653985923
  0
LINE
  5
3AE
100
AcDbEntity
  8
0
  6
ByLayer
 62
  256
370
   -1
100
AcDbLine
 10
323.7415965742313
 20
409.7001653985923
 11
323.7415965742313
 21
409.8501653985923
  0
LINE
  5
3AF
100
AcDbEntity
  8
0
  6
ByLayer
 62
  256
370
   -1
100
AcDbLine
 10
323.1415965742312
 20
409.7001653985923
 11
323.1415965742312
 21
409.8501653985923
  0
LINE
  5
3B0
100
AcDbEntity
  8
0
  6
ByLayer
 62
  256
370
   -1
100
AcDbLine
 10
328.1615965742311
 20
408.3601653985922
 11
328.1615965742311
 21
408.5101653985923
  0
LINE
  5
3B1
100
AcDbEntity
  8
0
  6
ByLayer
 62
  256
370
   -1
100
AcDbLine
 10
327.5615965742311
 20
408.3601653985922
 11
327.5615965742311
 21
408.5101653985923
  0
LINE
  5
3B2
100
AcDbEntity
  8
0
  6
ByLayer
 62
  256
370
   -1
100
AcDbLine
 10
328.7615965742311
 20
408.3601653985922
 11
328.7615965742311
 21
408.5101653985923
  0
LINE
  5
3B3
100
AcDbEntity
  8
0
  6
ByLayer
 62
  256
370
   -1
100
AcDbLine
 10
328.7615965742311
 20
408.4351653985922
 11
327.5615965742311
 21
408.4351653985922
  0
LINE
  5
3B4
100
AcDbEntity
  8
0
  6
ByLayer
 62
  256
370
   -1
100
AcDbLine
 10
330.8415965742311
 20
408.3601653985922
 11
330.8415965742311
 21
408.5101653985922
  0
LINE
  5
3B5
100
AcDbEntity
  8
0
  6
ByLayer
 62
  256
370
   -1
100
AcDbLine
 10
331.4415965742311
 20
408.3601653985922
 11
331.4415965742311
 21
408.5101653985922
  0
LINE
  5
3B6
100
AcDbEntity
  8
0
  6
ByLayer
 62
  256
370
   -1
100
AcDbLine
 10
330.241596574231
 20
408.3601653985922
 11
330.241596574231
 21
408.5101653985922
  0
LINE
  5
3B7
100
AcDbEntity
  8
0
  6
ByLayer
 62
  256
370
   -1
100
AcDbLine
 10
331.4415965742311
 20
408.4351653985922
 11
330.241596574231
 21
408.4351653985922
  0
LINE
  5
3B8
100
AcDbEntity
  8
0
  6
ByLayer
 62
  256
370
   -1
100
AcDbLine
 10
332.0215965742314
 20
407.6101653985923
 11
331.8715965742314
 21
407.6101653985922
  0
LINE
  5
3B9
100
AcDbEntity
  8
0
  6
ByLayer
 62
  256
370
   -1
100
AcDbLine
 10
332.0215965742312
 20
407.9101653985923
 11
331.8715965742311
 21
407.9101653985922
  0
LINE
  5
3BA
100
AcDbEntity
  8
0
  6
ByLayer
 62
  256
370
   -1
100
AcDbLine
 10
332.0215965742316
 20
407.3101653985923
 11
331.8715965742316
 21
407.3101653985922
  0
LINE
  5
3BB
100
AcDbEntity
  8
0
  6
ByLayer
 62
  256
370
   -1
100
AcDbLine
 10
331.9465965742314
 20
407.9101653985923
 11
331.9465965742314
 21
407.3101653985922
  0
LINE
  5
3BC
100
AcDbEntity
  8
0
  6
ByLayer
 62
  256
370
   -1
100
AcDbLine
 10
332.7215965742314
 20
409.5101653985923
 11
332.7215965742314
 21
409.3601653985922
  0
LINE
  5
3BD
100
AcDbEntity
  8
0
  6
ByLayer
 62
  256
370
   -1
100
AcDbLine
 10
332.0215965742314
 20
409.5101653985922
 11
332.0215965742314
 21
406.8601653985923
  0
LINE
  5
3BE
100
AcDbEntity
  8
0
  6
ByLayer
 62
  256
370
   -1
100
AcDbLine
 10
333.2215965742313
 20
409.3601653985923
 11
332.7215965742314
 21
409.3601653985922
  0
LINE
  5
3BF
100
AcDbEntity
  8
0
  6
ByLayer
 62
  256
370
   -1
100
AcDbLine
 10
333.2215965742313
 20
409.5101653985923
 11
332.7215965742314
 21
409.5101653985922
  0
LINE
  5
3C0
100
AcDbEntity
  8
0
  6
ByLayer
 62
  256
370
   -1
100
AcDbLine
 10
332.0215965742314
 20
409.5101653985923
 11
331.8715965742314
 21
409.5101653985922
  0
ENDSEC
  0
SECTION
  2
OBJECTS
  0
DICTIONARY
  5
C
330
0
100
AcDbDictionary
281
    1
  3
ACAD_GROUP
350
D
  0
DICTIONARY
  5
D
330
C
100
AcDbDictionary
281
    1
  0
ENDSEC
  0
EOF
